<?xml version="1.0" encoding="iso-8859-1"?>
<!-- Uploaded to: SVG Repo, www.svgrepo.com, Generator: SVG Repo Mixer Tools -->
<svg height="800px" width="800px" version="1.1" id="Layer_1" xmlns="http://www.w3.org/2000/svg" xmlns:xlink="http://www.w3.org/1999/xlink" 
	 viewBox="0 0 508 508" xml:space="preserve">
<circle style="fill:#324A5E;" cx="254" cy="254" r="254"/>
<g>
	<path style="fill:#F1543F;" d="M328.4,283.6c0,0-40.8-16.4-74.4-4.8v40l70.4-15.2L328.4,283.6"/>
	<path style="fill:#F1543F;" d="M179.6,283.6c0,0,40.8-16.4,74.4-4.8v40l-70.4-15.2L179.6,283.6"/>
</g>
<polygon style="fill:#FFFFFF;" points="355.2,338.8 304.4,280.4 203.6,280.4 152.8,338.8 "/>
<g>
	<path style="fill:#2C9984;" d="M329.2,283.6c-10.4,16.8-42.8,20.8-61.2,21.6c-7.6,0.4-13.2,6.4-13.2,14v14
		c45.2,0,70.8-14,78.4-25.2L329.2,283.6z"/>
	<path style="fill:#2C9984;" d="M179.2,283.6c10.4,16.8,42.8,20.8,61.2,21.6c7.6,0.4,13.2,6.4,13.2,14V334
		c-45.2-0.4-70.8-14-78.4-26L179.2,283.6z"/>
</g>
<path style="fill:#F1543F;" d="M240.8,332.8c5.2,0,10,0,12,0C248,332.8,244,332.8,240.8,332.8z"/>
<g>
	<path style="fill:#4CDBC4;" d="M333.2,308c-10.4,14.4-41.6,25.2-78.4,25.2c-0.4,0-0.4,0-0.8,0s-0.4,0-0.8,0
		c-36.8,0-68-10.4-78.4-25.2c0,0-124-4.4-124,99.2C97.2,468.4,170.8,508,253.6,508c0.4,0,0.4,0,0.8,0s0.4,0,0.8,0
		c82.8,0,156.4-39.6,202.8-100.8C457.2,303.2,333.2,308,333.2,308z"/>
	<path style="fill:#4CDBC4;" d="M457.2,407.2c-16.4,22-36.4,40.8-59.2,56.4c-40.8,28-90.4,44.4-143.6,44.4h-1.2
		c-53.2,0-102.8-16.4-143.6-44.4c-22.8-15.6-42.8-34.4-59.2-56.4c0-40.8,18.8-64.8,42-78.8c36-22,82-20.4,82-20.4
		c10.4,14.4,41.6,25.2,78.4,25.2h1.2c36.8,0,68-10.4,78.4-25.2c0,0,46-1.6,82,20.4C438.4,342.4,457.2,366.4,457.2,407.2z"/>
</g>
<path style="fill:#FFFFFF;" d="M303.6,283.2c-0.4-0.4-0.4-1.2-0.8-1.6c0,0-0.8,4-6,10.8c-22,27.2-64,27.2-86,0
	c-5.2-6.4-6-10.4-6-10.4c-0.4,0.4-0.4,0.8-0.8,1.2c1.6-3.2,2.8-6.8,3.2-10.4l1.2-14.4l0,0L212,214h84.4l4.4,58.8
	c0.4,3.2,1.2,6.4,2.4,9.2C303.2,282.4,303.2,282.8,303.6,283.2z"/>
<path style="fill:#E6E9EE;" d="M372.8,166.8c0,77.6-53.2,157.2-118.8,157.2s-118.8-79.6-118.8-157.2S188.4,43.2,254,43.2
	S372.8,89.2,372.8,166.8z"/>
<path style="fill:#54C0EB;" d="M363.6,172c0,37.2-28,67.2-62.4,67.2c-4.4,0-8.4-0.4-12.4-1.2c-5.2-1.2-10-4.4-12.8-9.2l0,0
	c-3.6-6-10-9.6-16.8-9.6h-10.8c-6.8,0-13.2,3.6-16.8,9.6l0,0c-2.8,4.8-7.2,8.4-12.8,9.2c-4,0.8-8,1.2-12.4,1.2
	c-34.4,0-62.4-30-62.4-67.2s28-67.2,62.4-67.2h94.4C335.6,104.8,363.6,134.8,363.6,172z"/>
<path style="fill:#84DBFF;" d="M306.8,104.8h-100c-34.4,0-62.4,30-62.4,67.2c0,34.4,24.4,63.2,55.6,66.8L306.8,104.8z"/>
<g>
	<path style="fill:#ACB3BA;" d="M268.4,305.2l12-28c0.8-2.4,0.8-4.8,0-7.2l-10-22.4c-1.6-3.2-4.4-5.2-8-5.2h-16.8
		c-3.6,0-6.8,2-8,5.2l-10,22.8c-0.8,2.4-0.8,4.8,0,7.2l12,27.6c1.6,3.2,4.4,5.2,8,5.2H260C263.6,310.4,266.8,308.4,268.4,305.2z"/>
	<path style="fill:#ACB3BA;" d="M343.6,238c0-1.2,0-2.4-0.4-3.6c0-0.4-0.4-0.8-0.4-1.2c-0.8-0.8-2-0.4-2.4,0l0,0c-1.6,2-3.6,4-5.6,6
		s-4,4-6,6c-4,3.6-8,7.6-12.4,11.2c-2,1.6-4.4,3.6-6.4,5.2s-4.4,3.2-6.8,4.8c-2.4,1.6-4.8,2.8-7.2,4.4c-1.2,0.8-2.4,1.2-3.6,2
		c-1.2,0.4-2.4,1.2-4,1.6c1.2-0.4,2.8-0.8,4-1.2c1.2-0.4,2.8-0.8,4-1.6c1.2-0.4,2.4-1.2,4-1.6c1.2-0.8,2.4-1.2,3.6-2
		c4.8-2.8,9.6-6,14-9.2c2.4-1.6,4.4-3.6,6.4-5.2c2-2,4.4-3.6,6.4-5.6c3.2-2.8,6-6,8.8-8.8c0,0.8,0,1.6,0,2.4c0,2.4-0.4,4.4-0.4,6.4
		c-0.8,4.4-2,8.8-4,12.8c-0.8,2-2,4-3.2,6c-0.8,0.8-1.2,2-2,2.8s-1.6,1.6-2,2.4c-1.6,1.6-3.2,3.2-4.8,4.8c-0.8,0.8-1.6,1.6-2.8,2
		c-0.8,0.8-2,1.2-2.8,2c1.2-0.4,2-1.2,3.2-1.6c0.8-0.8,2-1.2,2.8-2c2-1.2,3.6-2.8,5.6-4.4c1.6-1.6,3.2-3.2,4.8-5.2c1.6-2,2.8-4,4-6
		c2.4-4,4-8.8,4.8-13.2c0.4-2.4,0.8-4.8,0.8-7.2C343.6,240.4,343.6,239.2,343.6,238z"/>
	<path style="fill:#ACB3BA;" d="M212,270.8c-2.4-1.2-4.8-2.8-7.2-4.4s-4.4-3.2-6.8-4.8c-2-1.6-4.4-3.2-6.4-5.2
		c-4.4-3.6-8.4-7.2-12.4-11.2c-2-2-4-4-6-6s-4-4-5.6-6l0,0c-0.4-0.4-0.8-0.4-1.2-0.4c-0.8,0-2,0.4-2,1.6c-0.4,1.2-0.4,2.4-0.4,3.6
		c0,1.2,0,2.4,0,3.6c0,2.4,0.4,4.8,0.8,7.2c1.2,4.8,2.8,9.2,5.2,13.2c1.2,2,2.4,4,4,6s3.2,3.6,4.8,5.2s3.6,3.2,5.6,4.4
		c0.8,0.8,2,1.2,2.8,2c0.8,0.4,2,1.2,3.2,1.6c-0.8-0.8-2-1.2-2.8-2s-2-1.2-2.8-2c-1.6-1.6-3.2-3.2-4.8-4.8c-0.8-0.8-1.6-1.6-2-2.4
		c-0.8-0.8-1.2-1.6-2-2.8c-1.2-2-2.4-3.6-3.2-6c-2-4-3.2-8.4-4-12.8c-0.4-2-0.4-4.4-0.4-6.4c0-0.8,0-1.6,0-2.4c2.8,3.2,6,6,8.8,8.8
		c2,2,4,3.6,6.4,5.6c2,2,4.4,3.6,6.4,5.2c4.4,3.2,9.2,6.4,14,9.2c1.2,0.8,2.4,1.2,3.6,2c1.2,0.4,2.4,1.2,4,1.6
		c1.2,0.4,2.8,0.8,4,1.6c1.2,0.4,2.8,0.8,4,1.2c-1.2-0.4-2.4-1.2-4-1.6C214.4,272,213.2,271.2,212,270.8z"/>
	<path style="fill:#ACB3BA;" d="M368.8,131.6c-7.2-40.8-37.6-74-78.4-84.4c-21.2-5.6-36.4-5.6-36.4-5.6s-15.2,0.4-36.4,5.6
		c-40.8,10.4-71.2,43.6-78.4,84.4l0,0l0,0c8-30.4,32.8-53.6,63.6-59.2c16.4-3.2,85.6-3.2,102,0C336,78,360.4,101.2,368.8,131.6
		L368.8,131.6L368.8,131.6z"/>
</g>
<g>
	<path style="fill:#2C9984;" d="M457.2,407.2c-16.4,22-36.4,40.8-59.2,56.4c-4.4-67.2,7.6-112,17.2-135.2
		C438.4,342.4,457.2,366.4,457.2,407.2z"/>
	<path style="fill:#2C9984;" d="M110,463.6c-22.8-15.6-42.8-34.4-59.2-56.4c0-40.8,18.8-64.8,42-78.8
		C102,351.6,114.4,396.4,110,463.6z"/>
</g>
</svg>