<?xml version="1.0" encoding="iso-8859-1"?>
<!-- Uploaded to: SVG Repo, www.svgrepo.com, Generator: SVG Repo Mixer Tools -->
<svg height="800px" width="800px" version="1.1" id="Layer_1" xmlns="http://www.w3.org/2000/svg" xmlns:xlink="http://www.w3.org/1999/xlink" 
	 viewBox="0 0 508 508" xml:space="preserve">
<circle style="fill:#4CDBC4;" cx="254" cy="254" r="254"/>
<path style="fill:#E6E9EE;" d="M435.2,432c-41.2,42-96.4,69.6-158.4,74.8c-7.6,0.8-15.2,1.2-22.8,1.2c-71.2,0-135.2-29.2-181.2-76
	c18-51.2,52-54.8,52-54.8c49.2-24,78.8-57.2,80.4-59.6h97.2c1.6,2,31.2,35.6,80.8,59.2C383.2,377.2,417.2,380.8,435.2,432z"/>
<path style="fill:#FFD05B;" d="M296.8,351.2l6-33.6c-0.8-2-1.2-4.4-1.2-6.4l-4.4-60h-86.4l-3.2,45.2l0,0l-1.2,14.8
	c0,2.4-0.8,4.4-1.2,6.4l6,33.6H296.8z"/>
<path style="fill:#F9B54C;" d="M301.6,311.2l-4.4-60h-86.4l-2.8,40c24.8,64.8,94.8,26.8,94.8,26.8
	C302,315.6,301.6,313.6,301.6,311.2z"/>
<path style="fill:#FFD05B;" d="M338.8,203.6c-3.2-1.6-7.2-0.8-11.2,2c0-1.6,0-3.2,0-4.8c0-50.4-33.2-68.8-73.6-68.8
	c-40.8,0-73.6,18.4-73.6,68.8c0,1.6,0,3.2,0,4.8c-4-2.8-8-4-11.2-2c-6.4,3.6-7.2,15.6-2,27.6c5.2,11.6,14.4,18.8,20.8,15.2
	c12,36.4,37.2,68,66,68s53.6-31.6,66-68c6.4,3.2,15.6-3.6,20.8-15.2C346,219.6,344.8,207.2,338.8,203.6z"/>
<path style="fill:#324A5E;" d="M254,262.4c-14-7.2-19.6,14.4-42,2c0,0,8.8,24.4,42,9.6c33.2,14.4,42-9.6,42-9.6
	C273.6,276.8,268,255.2,254,262.4z"/>
<g>
	<path style="fill:#2B3B4E;" d="M231.6,507.2C169.6,501.6,114,474,72.8,432c18-51.2,52-54.8,52-54.8c23.2-11.2,42-24.4,55.6-35.6
		L231.6,507.2z"/>
	<path style="fill:#2B3B4E;" d="M435.2,432c-41.2,42-96.4,69.6-158.4,74.8c21.6-69.6,50.8-164.4,50.8-165.6
		c13.6,11.2,32.4,24.4,55.6,35.6C383.2,377.2,417.2,380.8,435.2,432z"/>
</g>
<g>
	<path style="fill:#FFFFFF;" d="M302,314.8c0,0-3.2,18.8-47.2,38c0,0,32.4,20,38.8,36.4c0,0,26.4-29.6,27.2-53.6
		C320.8,335.2,308,324.4,302,314.8z"/>
	<path style="fill:#FFFFFF;" d="M206,314.8c0,0,3.2,18.8,47.2,38c0,0-32.4,20-38.8,36.4c0,0-26.4-29.6-27.2-53.6
		C187.2,335.2,200,324.4,206,314.8z"/>
</g>
<g>
	<path style="fill:#FF7058;" d="M302.8,359.6c0,11.2-1.2,20.4-12.4,20.4s-37.2-9.2-37.2-20.4c0-11.2,26-20.4,37.2-20.4
		S302.8,348.4,302.8,359.6z"/>
	<path style="fill:#FF7058;" d="M203.2,359.6c0,11.2,1.2,20.4,12.4,20.4s37.2-9.2,37.2-20.4c0-11.2-26-20.4-37.2-20.4
		S203.2,348.4,203.2,359.6z"/>
</g>
<circle style="fill:#F1543F;" cx="253.2" cy="359.6" r="9.2"/>
<path style="fill:#324A5E;" d="M339.2,181.6c-2-44-39.6-78-83.6-78h-3.2c-44,0-81.6,34-83.6,78c0,1.6,0,2.8,0,4.4
	c0,6,0.4,11.6,1.6,17.2c2.8-0.8,6.4,0,10,2.4l0,0c0,0,3.2,8,2.4,14.8c0,0,3.2-7.6,1.6-14.8c70-1.6,110.4-38,125.6-54.4
	c0,0.4-15.2,32,14,52.4c-2.4,8.4,1.2,17.2,1.2,17.2c-0.8-6.8,2.4-14.8,2.4-14.8c3.6-2.4,6.8-3.6,10-2.4c1.2-5.6,1.6-11.2,1.6-17.2
	C339.2,184.8,339.2,183.2,339.2,181.6z"/>
<path style="fill:#2B3B4E;" d="M366.8,134.8c-10.4-12.4-58.4,2-112.8,0.8c-54.4,0.8-102-13.2-112.8-0.8c-4.4,6,2.8,19.6,22.8,32
	c19.6,12.4,52.4,24,90,23.6c37.6,0.4,70.4-11.2,90-23.6C364,154.4,371.2,140.8,366.8,134.8z"/>
<path style="fill:#324A5E;" d="M328.8,44C280.4,30.8,228,30.8,179.6,44c0,0.4,0,0.8,0,1.2c3.6,23.2,5.2,45.6,4.4,67.2
	c-0.4,15.2-1.2,29.6-1.6,36.4c46.8,12,97.2,12,144,0c-0.4-6.4-1.2-21.2-1.6-36.4c-0.8-21.6,0.4-44,4.4-67.2
	C328.4,44.4,328.4,44.4,328.8,44z"/>
<path style="fill:#E6E9EE;" d="M324.8,126.4c-46.4,11.6-95.2,11.6-141.6,0c-0.4,9.6-0.8,17.6-1.2,22c46.8,12,97.2,12,144,0
	C325.6,144,325.2,135.6,324.8,126.4z"/>
</svg>