<?xml version="1.0" encoding="iso-8859-1"?>
<!-- Uploaded to: SVG Repo, www.svgrepo.com, Generator: SVG Repo Mixer Tools -->
<svg height="800px" width="800px" version="1.1" id="Layer_1" xmlns="http://www.w3.org/2000/svg" xmlns:xlink="http://www.w3.org/1999/xlink" 
	 viewBox="0 0 508.4 508.4" xml:space="preserve">
<circle style="fill:#324A5E;" cx="254.2" cy="254" r="254"/>
<path style="fill:#2C9984;" d="M302.2,307.2h-96c0,0-129.6,18.4-143.6,113.6C107.8,472.4,173.4,506,247,508l-24.8-54.4h64L261,508
	c73.6-2,139.6-35.2,184.4-87.2C431.8,325.6,302.2,307.2,302.2,307.2z"/>
<polygon style="fill:#FFFFFF;" points="302.2,307.2 206.2,307.2 191.4,334 191.4,410 316.2,410 316.2,332.4 "/>
<path style="fill:#FF7058;" d="M297.8,393.2c0,0-17.2,88-37.2,114.8c-1.2,0-2.4,0-4,0c-0.8,0-1.6,0-2,0c-0.8,0-1.6,0-2,0h-1.2
	c-10.8-20.4-45.6-88.4-40.4-114.8C210.6,393.2,245,417.6,297.8,393.2z"/>
<path style="fill:#FFFFFF;" d="M303,308.4c-0.4-0.4-0.4-0.8-0.8-1.6c0,0-0.8,4-5.6,10.4c-21.6,26.8-62.8,26.8-84.4,0
	c-5.2-6.4-5.6-10.4-5.6-10.4c-0.4,0.4-0.4,0.8-0.8,1.2c1.6-3.2,2.8-6.8,3.2-10.4l1.2-14l0,0l3.2-43.6h82.8l4,57.6
	c0.4,3.2,1.2,6.4,2.4,8.8C302.6,307.6,302.6,308,303,308.4z"/>
<g>
	<path style="fill:#4CDBC4;" d="M213.8,399.6c0,0,20.4,58.4,38.4,108.4c-1.6,0-3.2,0-4.8,0c-4,0-8-0.4-12-0.8
		c-15.2-21.6-31.6-44.4-53.6-56l6.8-35.6h-34.4c0-92,49.6-106.8,52-108.8C205,309.6,187.8,343.6,213.8,399.6z"/>
	<path style="fill:#4CDBC4;" d="M319.8,416l6.8,35.6c-21.6,11.6-38.4,34.4-53.6,56c-4,0.4-8,0.4-12,0.8c-1.6,0-3.2,0-4.8,0
		c18-49.6,38.4-108.4,38.4-108.4c25.6-56,8.4-90.4,7.2-92.8c2.4,2,52,16.4,52,108.8H319.8z"/>
</g>
<path style="fill:#E6E9EE;" d="M299,294.8C286.2,310,270.6,320,254.2,320s-32.4-10-44.8-25.2l0.4-5.2l0,0l2.8-43.6h82.8L299,294.8z"
	/>
<g>
	<path style="fill:#FFFFFF;" d="M182.2,148.8c-4.8,10-7.6,22-7.6,36.8c0,54.4,35.6,122.4,79.2,122.4S333,239.6,333,185.6
		c0-14.8-2.8-26.8-7.6-36.8H182.2z"/>
	<path style="fill:#FFFFFF;" d="M347.4,218.8c-5.6,12.8-15.6,20-22.4,16.4s-7.6-16.8-2-29.6c5.6-12.8,15.6-20,22.4-16.4
		S353,206,347.4,218.8z"/>
	<path style="fill:#FFFFFF;" d="M161,218.8c5.6,12.8,15.6,20,22.4,16.4c6.8-3.6,7.6-16.8,2-29.6s-15.6-20-22.4-16.4
		C156.2,192.8,155.4,206,161,218.8z"/>
</g>
<g>
	<path style="fill:#FF7058;" d="M184.2,144.8h-18c-2.4,8-3.6,16.4-3.6,25.2c0,19.6,6.4,38,17.2,52.8c-3.2-12.4-4.8-24.8-4.8-36.8
		C175,169.2,178.2,155.6,184.2,144.8z"/>
	<path style="fill:#FF7058;" d="M324.2,144.8c6,10.8,9.6,24,9.6,41.2c0,12-1.6,24.4-4.8,36.8c10.4-14.8,17.2-33.2,17.2-52.8
		c0-8.8-1.2-17.2-3.6-25.2H324.2z"/>
	<path style="fill:#FF7058;" d="M346.2,170c0,6.4-0.8,12.4-2,18.4c-3.2-1.2-7.2,0-10.8,2.8c0-2,0-3.6,0-5.2c0-1.2,0-2.8,0-4
		c-0.4-16-16.4-26.4-31.2-20.4c-13.2,5.2-29.6,8.4-48,8.4s-34.8-3.2-48-8.4c-14.8-6-30.8,4.4-31.2,20.4c0,1.2,0,2.8,0,4
		c0,1.6,0,3.6,0,5.2c-3.6-2.8-7.6-4-10.8-2.8c-1.2-6-2-12-2-18.4c0-8.8,1.2-17.6,3.6-25.6c0.4-0.8,0.4-1.6,0.8-2.4
		c24.8-4.8,54.8-7.6,87.2-7.6s62.4,2.8,87.2,7.6c0.4,0.8,0.4,1.6,0.8,2.4C344.6,152.8,346.2,161.2,346.2,170z"/>
</g>
<g>
	<polygon style="fill:#FFD05B;" points="259,131.2 249.4,131.2 254.2,126.8 	"/>
	<path style="fill:#FFD05B;" d="M173.4,101.6c-8.8,14-14.4,30.4-15.6,48.4H351c-1.6-18-7.2-34.4-15.6-48.4c1.6-3.6,2.8-7.2,4-10.4
		c2-6,1.2-11.2-2.4-14.4l-5.6-5.2c-3.2-3.2-8.8-3.2-14.4-0.8c-2,0.8-4,2-6.4,3.2c-7.2-5.6-15.2-10-23.6-13.2
		c-4.8-2-9.6-3.2-14.4-4.4c-0.8-2.8-2-5.6-3.2-8c-2.4-5.6-6.8-9.2-11.2-9.2h-8c-4.4,0-8.8,3.6-11.2,9.2c-1.2,2.4-2,5.2-3.2,8
		c-4.8,0.8-9.6,2.4-14.4,4.4C213,64,205,68.4,197.8,74c-2-1.2-4.4-2.4-6.4-3.2c-5.6-2.8-11.2-2.4-14.4,0.8l-5.6,5.2
		c-3.2,3.2-4.4,8.4-2.4,14.4C170.2,94.8,171.8,98,173.4,101.6z"/>
	<path style="fill:#FFD05B;" d="M351,150.4H157.4c0.4-4,0.8-7.6,1.6-11.6c2.4-13.6,7.2-26,14-37.2c-1.6-3.6-2.8-7.2-4-10.4
		c-2-6-1.2-11.2,2.4-14.4l5.6-5.2c3.2-3.2,8.8-3.2,14.4-0.8c2,0.8,4,2,6.4,3.2c7.2-5.6,15.2-10,23.6-13.2c4.8-2,9.6-3.2,14.4-4.4
		c0.8-2.8,2-5.6,3.2-8c2.4-5.6,6.8-9.2,11.2-9.2h8c4.4,0,8.8,3.6,11.2,9.2c1.2,2.4,2,5.2,3.2,8c4.8,0.8,9.6,2.4,14.4,4.4
		c8.4,3.2,16.4,7.6,23.6,13.2c2-1.2,4.4-2.4,6.4-3.2c5.6-2.8,11.2-2.4,14.4,0.8l5.6,5.2c3.2,3.2,4.4,8.4,2.4,14.4
		c-1.2,3.2-2.4,6.8-4,10.4c6.8,10.8,11.6,23.6,14,37.2C350.2,142.4,350.6,146.4,351,150.4z"/>
</g>
<path style="fill:#F9B54C;" d="M351,150.4H157.4c0.4-4,0.8-7.6,1.6-11.6h190.4C350.2,142.4,350.6,146.4,351,150.4z"/>
<path style="fill:#FFD05B;" d="M350.2,174.4h-192c-7.6,0-14-6-14-14l0,0c0-7.6,6-14,14-14h192c7.6,0,14,6,14,14l0,0
	C364.2,168.4,358.2,174.4,350.2,174.4z"/>
<circle style="fill:#FFFFFF;" cx="254.2" cy="126.4" r="38.8"/>
<circle style="fill:#84DBFF;" cx="254.2" cy="126.4" r="28.8"/>
<circle style="fill:#54C0EB;" cx="254.2" cy="126.4" r="14.8"/>
<g>
	<circle style="fill:#FFFFFF;" cx="245.8" cy="115.2" r="6.8"/>
	<circle style="fill:#FFFFFF;" cx="255" cy="124.4" r="3.6"/>
</g>
</svg>