<?xml version="1.0" encoding="iso-8859-1"?>
<!-- Uploaded to: SVG Repo, www.svgrepo.com, Generator: SVG Repo Mixer Tools -->
<svg height="800px" width="800px" version="1.1" id="Layer_1" xmlns="http://www.w3.org/2000/svg" xmlns:xlink="http://www.w3.org/1999/xlink" 
	 viewBox="0 0 508 508" xml:space="preserve">
<circle style="fill:#324A5E;" cx="254" cy="254" r="254"/>
<path style="fill:#FFD05B;" d="M302.8,292v-25.2c-3.2-2.4-6-5.2-7.6-9.2c-1.2-2.4-2-4.8-2-7.6l-3.6-49.2h-70.8L216,238l0,0l-0.8,12
	c-0.4,7.2-4.8,13.6-10.8,17.2V292H302.8z"/>
<path style="fill:#F9B54C;" d="M294.8,257.6L294.8,257.6C236,304.4,216.4,240.4,216,238l0,0l2.8-36.8h70.4l3.6,48.8
	C293.2,252.8,293.6,255.6,294.8,257.6z"/>
<path style="fill:#84DBFF;" d="M422,360.8c-9.2-103.6-122-97.2-123.6-98.8c0,0-3.2-0.8-3.2,0c-7.2,23.6-41.6,29.2-41.6,29.2
	s-29.6-4-41.2-29.2c-0.4-0.8-2.8,0-2.8,0S95.2,256.4,86,360.8H422z"/>
<polygon style="fill:#F1543F;" points="262,304.4 266,291.2 242,291.2 246,304.4 "/>
<polygon style="fill:#FF7058;" points="276,360.8 262,304.4 246,304.4 232,360.8 "/>
<g>
	<path style="fill:#FFFFFF;" d="M294.8,258c0,0-2.8,16.4-40.8,33.2c0,0,28,17.6,33.2,32C287.2,322.8,313.2,287.6,294.8,258z"/>
	<path style="fill:#FFFFFF;" d="M213.2,258c0,0,2.8,16.4,40.8,33.2c0,0-28,17.6-33.2,32C220.8,322.8,194.8,287.6,213.2,258z"/>
</g>
<g>
	<path style="fill:#FFD05B;" d="M321.6,156.4c0,0.8,0,1.2,0,2c0,46.4-30.4,104.4-67.6,104.4s-67.6-58-67.6-104.4v-1.2
		c0-0.8,0-1.6,0-2.8c0-46.4,30.4-63.2,67.6-63.2s67.6,16.8,67.6,63.2C321.6,155.2,321.6,156,321.6,156.4z"/>
	<path style="fill:#FFD05B;" d="M333.2,182.8c-4.8,10.8-13.2,17.2-19.2,14c-5.6-3.2-6.4-14.4-1.6-25.2s13.2-17.2,19.2-14
		C337.2,160.4,338,172,333.2,182.8z"/>
	<path style="fill:#FFD05B;" d="M174.8,182.8c4.8,10.8,13.2,17.2,19.2,14c5.6-3.2,6.4-14.4,1.6-25.2s-13.2-17.2-19.2-14
		C170.8,160.4,170,172,174.8,182.8z"/>
</g>
<path style="fill:#FF7058;" d="M223.2,78.4c2.8-1.2,5.6-2.4,8-4c12.8-8,58-29.6,91.2,28.4c5.2,8.8,8,18,8.4,28c1.2,20-2,44.4-18,66
	c0,0,7.6-31.2-6-60.4c0,0-41.2,0-41.2-9.2c0,0,4.8,16.4,12.8,19.2c0,0-40.8-6-44.8-24.8c0,0-2,14.4,3.6,21.6
	c0,0-27.2-11.6-27.2-23.2c0,0-30,28.8-16.8,70.4C192.8,190.4,138,110.8,223.2,78.4z"/>
<path style="fill:#E6E9EE;" d="M432.8,354.8l-29.2,104.8C361.2,490,309.6,508,254,508s-107.2-18-149.2-48.4L75.6,354.8
	c-0.8-2.8,1.6-5.6,5.2-5.6H428C431.2,349.2,433.6,352,432.8,354.8z"/>
<path style="fill:#CED5E0;" d="M302.8,435.6c-0.4,11.2-22.4,20-48.8,20s-48.4-8.8-48.8-20s21.6-20.4,48.8-20.4
	C281.2,415.2,303.2,424.4,302.8,435.6z"/>
<path style="fill:#2B3B4E;" d="M257.6,236.4v-3.6c63.2-1.2,66-47.2,66-48h3.6C327.2,185.6,324.4,235.2,257.6,236.4z"/>
<g>
	<path style="fill:#324A5E;" d="M325.2,190.8L325.2,190.8c-4.8,0-8.4-3.6-8.4-8.4v-17.6c0-4.8,3.6-8.4,8.4-8.4l0,0
		c4.8,0,8.4,3.6,8.4,8.4v17.6C333.6,187.2,330,190.8,325.2,190.8z"/>
	<path style="fill:#324A5E;" d="M270.8,238.4H252c-2.8,0-4.8-2-4.8-4.8l0,0c0-2.8,2-4.8,4.8-4.8h18.8c2.8,0,4.8,2,4.8,4.8l0,0
		C275.6,236.4,273.2,238.4,270.8,238.4z"/>
</g>
</svg>