<?xml version="1.0" encoding="iso-8859-1"?>
<!-- Uploaded to: SVG Repo, www.svgrepo.com, Generator: SVG Repo Mixer Tools -->
<svg height="800px" width="800px" version="1.1" id="Layer_1" xmlns="http://www.w3.org/2000/svg" xmlns:xlink="http://www.w3.org/1999/xlink" 
	 viewBox="0 0 508 508" xml:space="preserve">
<circle style="fill:#90DFAA;" cx="254" cy="254" r="254"/>
<path style="fill:#324A5E;" d="M317.2,400c25.6-88.4,42-204,42-238c0-1.6,0-3.6,0-5.2c-2.4-54.4-48.8-96.4-103.2-96.4h-4
	c-54.4,0-100.4,42-103.2,96.4c0,2,0,3.6,0,5.2c0,34,16.4,149.2,42,238H317.2z"/>
<polygon style="fill:#FFD05B;" points="363.2,406 304,299.2 204,299.2 144.8,406 "/>
<path style="fill:#FF7058;" d="M299.2,389.2c0,0-17.6,90-38.4,118.8c-1.6,0-2.8,0-4.4,0c-0.8,0-1.6,0-2.4,0s-1.6,0-2.4,0h-1.2
	c-11.6-22.4-47.2-92-41.6-118.8C208.8,389.2,244.4,414.4,299.2,389.2z"/>
<path style="fill:#F9B54C;" d="M304.8,300.8c-0.4-0.4-0.4-1.2-0.8-1.6c0,0-0.8,4.4-6,10.8c-22.4,28-65.6,28-88,0
	c-5.2-6.4-6-10.8-6-10.8c-0.4,0.4-0.4,0.8-0.8,1.2c2-3.2,2.8-6.8,3.2-10.8l1.2-14.8l0,0l3.2-45.2h86.4l4.4,60
	c0.4,3.2,1.2,6.4,2.4,9.2C304.4,299.6,304.4,300.4,304.8,300.8z"/>
<g>
	<path style="fill:#E6E9EE;" d="M246.4,508c-4.4,0-8.4-0.4-12.8-0.8c-70.8-5.6-133.2-40-176-92c21.2-41.2,51.2-44.8,51.2-44.8
		c55.2-26.4,88.4-64,90.4-66.4l-12,26l23.6,101.6L246.4,508z"/>
	<path style="fill:#E6E9EE;" d="M450,415.2c-16.8,20.4-36.8,38.4-59.2,52.8c-37.6,24-81.6,38.4-129.2,40l35.2-76.4l24-101.6L308,304
		c2,2.4,36,40,91.2,66.4c0,0,1.2,0,3.2,0.8l0,0C411.2,373.6,433.6,382.4,450,415.2z"/>
</g>
<g>
	<path style="fill:#FFFFFF;" d="M211.6,396c0,0,21.2,60.4,40,112c-6,0-12-0.4-17.6-0.8c-15.6-22.4-32.8-45.6-55.2-57.6l7.2-36.8h-36
		c14.8-66.4,51.6-111.2,54-113.2C202.8,302,184.8,337.6,211.6,396z"/>
	<path style="fill:#FFFFFF;" d="M322.4,412.8l7.2,36.8c-22.4,12-39.6,35.2-55.2,57.6c-4,0.4-8.4,0.4-12.4,0.8c-1.6,0-3.2,0-5.2,0
		c18.8-51.6,39.6-112,39.6-112c26.8-58.4,8.8-94,7.6-96.4c2.4,2,39.2,46.8,54,113.2H322.4z"/>
</g>
<g>
	<path style="fill:#FFD05B;" d="M339.2,172.4c0,58.4-38,131.6-85.2,131.6s-85.2-73.2-85.2-131.6s38-79.6,85.2-79.6
		S339.2,114.4,339.2,172.4z"/>
	<path style="fill:#FFD05B;" d="M351.2,207.2c-6,13.2-16.4,20.8-23.6,17.2c-7.2-4-8-17.6-2-31.2c6-13.2,16.4-20.8,23.6-17.2
		C356,180,356.8,194,351.2,207.2z"/>
</g>
<g>
	<path style="fill:#324A5E;" d="M318.8,114c0,0-19.2,39.6,20.4,63.2l6.8-22L331.2,112l-7.6-9.2L318.8,114z"/>
	<path style="fill:#324A5E;" d="M328,105.2c0,0-10.8,36-86.8,64.8c-27.6,10.4-48.4,34.4-55.2,63.2c-3.2,14-6,30-7.2,47.2l-15.6-51.2
		l-5.2-80.8l18-45.2L228,92L328,105.2z"/>
	<polygon style="fill:#324A5E;" points="225.6,99.6 243.2,74.4 302,82 310.4,99.6 270.4,120.4 	"/>
	<path style="fill:#324A5E;" d="M290.8,347.2h-66.4c-1.6,0-3.2,1.6-2.8,3.2v20.4c0,1.6,1.2,3.2,3.2,3.2h66c1.6,0,3.2-1.6,3.2-3.2
		l0.4-20.4C294,348.8,292.4,347.2,290.8,347.2z"/>
</g>
<path style="fill:#FF7058;" d="M350,368.4l-3.6,124.8c-22,7.2-45.2,12-69.2,14c-4.8,0.4-9.6,0.8-14.8,0.8H262c-1.6,0-3.2,0-5.2,0
	c-0.8,0-2,0-2.8,0s-2,0-2.8,0h-1.6c-1.6,0-3.2,0-4.4,0c-4.8,0-10-0.4-14.8-0.8c-24-2-47.2-6.8-69.2-14L158,368.4
	c0-4,2.8-7.2,6.4-7.2h179.2C347.2,361.2,350.4,364.4,350,368.4z"/>
<g>
	<path style="fill:#F1543F;" d="M284,374.4c0,2.8-2.4,5.2-4.8,5.2c-2.8,0-4.8-2.4-4.8-5.2c0-2.8,2.4-5.2,4.8-5.2
		C282,369.2,284,371.6,284,374.4z"/>
	<path style="fill:#F1543F;" d="M240.8,374.4c0,2.8-2,5.2-4.8,5.2s-4.8-2.4-4.8-5.2c0-2.8,2-5.2,4.8-5.2
		C238.8,369.2,240.8,371.6,240.8,374.4z"/>
</g>
<path style="fill:#2B3B4E;" d="M270,259.6V256c63.2-1.2,66-47.2,66-48h3.6C339.2,209.2,336.8,258.8,270,259.6z"/>
<g>
	<path style="fill:#324A5E;" d="M337.6,214.4L337.6,214.4c-4.8,0-8.4-3.6-8.4-8.4v-17.6c0-4.8,3.6-8.4,8.4-8.4l0,0
		c4.8,0,8.4,3.6,8.4,8.4V206C346,210.8,342.4,214.4,337.6,214.4z"/>
	<path style="fill:#324A5E;" d="M283.2,262h-18.8c-2.8,0-4.8-2-4.8-4.8l0,0c0-2.8,2-4.8,4.8-4.8h18.8c2.8,0,4.8,2,4.8,4.8l0,0
		C288,259.6,285.6,262,283.2,262z"/>
	<path style="fill:#324A5E;" d="M359.2,156.8c0,0-12.4,169.6,26,174c0,0-17.6,43.2-53.6,2c-1.2-1.2-1.6-2.8-2-4.4c0,0,0,0,0-0.4
		c-5.6-24-2.8-48.8,7.6-70.8l16.4-34.4l2.4-47.6L359.2,156.8z"/>
	<path style="fill:#324A5E;" d="M148.8,156.8c0,0,12.4,169.6-26,174c0,0,17.6,43.2,53.6,2c1.2-1.2,1.6-2.8,2-4.4c0,0,0,0,0-0.4
		c5.6-24,2.8-48.8-7.6-70.8l-16.4-34.4l-2.4-47.6L148.8,156.8z"/>
	<path style="fill:#324A5E;" d="M338,290.4l-8.8-14.8l-24.4,19.2c0,0,10.8,29.6,34.8,46.4l7.2-25.6C341.2,308,338.4,299.2,338,290.4
		z"/>
	<path style="fill:#324A5E;" d="M169.6,290.4l8.8-14.8l25.6,19.2c0,0-12,29.6-35.6,46.4l-7.2-25.6
		C166.8,308,169.6,299.2,169.6,290.4z"/>
</g>
</svg>