<?xml version="1.0" encoding="iso-8859-1"?>
<!-- Uploaded to: SVG Repo, www.svgrepo.com, Generator: SVG Repo Mixer Tools -->
<svg height="800px" width="800px" version="1.1" id="Layer_1" xmlns="http://www.w3.org/2000/svg" xmlns:xlink="http://www.w3.org/1999/xlink" 
	 viewBox="0 0 508 508" xml:space="preserve">
<circle style="fill:#54C0EB;" cx="254" cy="254" r="254"/>
<g>
	<ellipse style="fill:#324A5E;" cx="254" cy="233.2" rx="133.6" ry="192.8"/>
	<path style="fill:#324A5E;" d="M446.8,419.6C400.4,473.6,331.2,508,254,508s-146-34.4-192.8-88.4C66.8,336.8,122,294.8,196,281.2
		c10-2,17.6-10,18.4-20.4l3.6-49.6h72l3.6,50c0.8,10,8.4,18.4,18.4,20.4C386,294.8,441.2,336.8,446.8,419.6z"/>
</g>
<g>
	<path style="fill:#FFFFFF;" d="M413.6,333.6c-36,46-94,75.6-160,75.6c-65.6,0-124-30-159.6-75.6c24.4-28,60-44.8,102-52.4
		c10-1.6,17.6-10,18.4-20.4l3.6-49.6h72l3.6,50c0.8,10,8.4,18.4,18.4,20.4C353.6,288.8,389.6,305.6,413.6,333.6z"/>
	<path style="fill:#FFFFFF;" d="M312,281.2c-1.2-0.4-2.8-0.4-4-1.2c-8-3.2-13.6-10.4-14.4-19.2L292,238h-76l-1.6,22.8
		c-0.8,10-8.4,18.4-18.4,20.4c-41.6,7.6-77.6,24.4-102,52.4c36,45.6,94.4,75.6,160,75.6s124-30,160-75.6
		C389.6,305.6,353.6,288.8,312,281.2z"/>
</g>
<path style="fill:#E6E9EE;" d="M293.6,260.8L292,238h-75.6c1.6,10.4,12,50.8,91.6,42C300,277.2,294,269.6,293.6,260.8z"/>
<path style="fill:#FFD05B;" d="M326.4,158.8c0,40.8-32.4,98-72.4,98s-72.4-57.2-72.4-98s32.4-74,72.4-74S326.4,118,326.4,158.8z"/>
<path style="fill:#FFFFFF;" d="M326.4,158.8c0,4-0.4,7.6-0.8,11.6c-5.2-35.6-35.2-63.2-71.6-63.2s-66.4,27.2-71.6,63.2
	c-0.4-4-0.8-8-0.8-11.6c0-40.8,32.4-74,72.4-74S326.4,118,326.4,158.8z"/>
<path style="fill:#E6E9EE;" d="M254,367.2c-56,0-101.6-34.4-101.6-76.8c0-2,1.6-4,4-4c2,0,4,1.6,4,4c0,38,42,68.8,93.6,68.8
	s93.6-30.8,93.6-68.8c0-2,1.6-4,4-4c2,0,4,1.6,4,4C355.6,332.8,310,367.2,254,367.2z"/>
<path style="fill:#CED5E0;" d="M254,355.2c-1.2,0-2,0.8-2,2v27.6c0,1.2,0.8,2,2,2c1.2,0,2-0.8,2-2v-27.6
	C256,356.4,255.2,355.2,254,355.2z"/>
<polygon style="fill:#FF7058;" points="271.6,391.6 258.8,391.6 258.8,378.8 249.2,378.8 249.2,391.6 236.4,391.6 236.4,401.2 
	249.2,401.2 249.2,439.2 258.8,439.2 258.8,401.2 271.6,401.2 "/>
</svg>