<?xml version="1.0" encoding="iso-8859-1"?>
<!-- Uploaded to: SVG Repo, www.svgrepo.com, Generator: SVG Repo Mixer Tools -->
<svg version="1.1" id="Layer_1" xmlns="http://www.w3.org/2000/svg" xmlns:xlink="http://www.w3.org/1999/xlink" 
	 viewBox="0 0 508 508" xml:space="preserve">
<circle style="fill:#90DFAA;" cx="254" cy="254" r="254"/>
<path style="fill:#FFD05B;" d="M307.6,350v-38.8c-3.6-2.4-6.8-6-8.4-10c-1.2-2.4-2-5.2-2.4-8.4l-4-53.6H216l-2.8,40.4l0,0l-0.8,13.2
	c-0.4,8-5.2,14.8-11.6,18.8V350H307.6z"/>
<path style="fill:#E6E9EE;" d="M438,428.8c-45.6,48-110,78.4-181.6,79.2c-0.8,0-1.6,0-2.4,0c-0.8,0-1.6,0-2.4,0c-0.8,0-1.6,0-2.4,0
	c-70.4-1.2-134-31.6-179.2-79.2C70,299.6,205.2,306,205.2,306s0.8-0.4,2-0.4c0,1.2,4.4,19.6,46.8,38.8
	c43.6-19.6,46.8-38.8,46.8-38.8c0.8,0,1.6,0.4,1.6,0.4C304.4,308,438,300,438,428.8z"/>
<path style="fill:#FFD05B;" d="M346.8,159.6c-2.4-1.2-5.2-1.2-8,0c0-1.2,0-2,0-3.2c0-58-38-79.2-84.8-79.2s-84.8,21.2-84.8,79.2
	c0,1.2,0,2,0,3.2c-2.8-1.2-5.6-1.2-8,0c-7.2,4-8,18-2,31.2c4.8,10.8,12.8,18,19.6,18.4c13.6,41.6,42.4,77.6,75.2,77.6
	s61.6-36,75.6-77.6c6.8,0,14.4-7.2,19.6-18.4C354.8,177.6,353.6,163.2,346.8,159.6z"/>
<g>
	<path style="fill:#2B3B4E;" d="M305.6,144.8c0,0-4,14.4-14,30c0,0,7.6-32.4,4.8-45.6c0,0-25.2,43.6-71.2,56c0,0,20.4-24,21.2-33.2
		c0,0-17.6,20.4-46.8,28.4c0,0,22-17.6,25.2-36.8c0,0-54,23.2-26.8,92.4c0,0-11.2-16-12-20.8c0,0-7.6,18.4,3.2,45.2
		c0,0-53.6-88-17.2-168c0,0,28.4-69.6,98.4-46c0,0,78-1.2,73.6,138c0,0-3.2-21.6-6.4-23.6c0,0-8.4,75.6-30,90.4
		c0,0,9.6-18.8,9.2-26.8c0,0-19.6,28.4-28.4,36c0,0,27.6-34.8,26.4-60.4c0,0-4.8,22-20.4,31.6c0,0,29.2-31.2,11.2-85.6"/>
	<path style="fill:#2B3B4E;" d="M256.4,415.6c-39.6,0-72-48.8-72-108.8c0-1.6,1.2-2.8,2.8-2.8s2.8,1.2,2.8,2.8
		c0,56.8,29.6,102.8,66,102.8s66-46,66-102.8c0-1.6,1.2-2.8,2.8-2.8c1.6,0,2.8,1.2,2.8,2.8C328.4,366.8,296,415.6,256.4,415.6z"/>
	<path style="fill:#2B3B4E;" d="M292,403.2l-0.8,5.6l13.6,2l0.8-5.6c0-1.2-0.8-2-1.6-2.4l-9.6-1.2C293.2,401.2,292,402,292,403.2z"
		/>
	<path style="fill:#2B3B4E;" d="M209.2,393.6l-0.4,4l9.2,1.2l0.4-4c0-0.8-0.4-2-1.6-2l-5.6-0.8C210,391.6,209.2,392.4,209.2,393.6z"
		/>
	<path style="fill:#2B3B4E;" d="M222,395.2l-0.4,4l10,1.2l0.4-4c0-0.8-0.4-2-1.6-2l-6.4-0.8C222.8,393.6,222,394.4,222,395.2z"/>
</g>
<path style="fill:#324A5E;" d="M307.6,408.8l-20-2.8l-2-10.4c-0.4-2.4-2.4-4.4-5.2-4.8l-29.6-4c-2.4-0.4-5.2,0.8-6.4,3.2l-4.8,9.6
	l-31.6-4.4c-11.2-1.6-21.6,6.4-23.2,17.6l-8,59.2c-0.4,2.4,1.2,4.8,4,5.2l122,16.8c2.4,0.4,4.8-1.2,5.2-4l9.2-68.8
	C317.6,414.8,313.6,409.6,307.6,408.8z"/>
<path style="fill:#2B3B4E;" d="M184.8,412.8l-8,58.8c-0.4,2.4,1.2,4.8,4,5.2l122,16.8c2.4,0.4,4.8-1.2,5.2-4l8-58.8L184.8,412.8z"/>
<circle style="fill:#FFFFFF;" cx="258.4" cy="446.4" r="31.2"/>
<circle style="fill:#84DBFF;" cx="258.4" cy="446.4" r="24.8"/>
<circle style="fill:#54C0EB;" cx="258.4" cy="446.4" r="15.2"/>
<g>
	<circle style="fill:#FFFFFF;" cx="250.8" cy="434.4" r="7.2"/>
	<circle style="fill:#FFFFFF;" cx="264.4" cy="458.8" r="4.4"/>
	
		<rect x="249.189" y="393.614" transform="matrix(-0.9908 -0.1356 0.1356 -0.9908 472.5766 831.0164)" style="fill:#FFFFFF;" width="30.801" height="11.6"/>
</g>
</svg>