<?xml version="1.0" encoding="iso-8859-1"?>
<!-- Uploaded to: SVG Repo, www.svgrepo.com, Generator: SVG Repo Mixer Tools -->
<svg height="800px" width="800px" version="1.1" id="Layer_1" xmlns="http://www.w3.org/2000/svg" xmlns:xlink="http://www.w3.org/1999/xlink" 
	 viewBox="0 0 508 508" xml:space="preserve">
<g>
	<circle style="fill:#FD8469;" cx="254" cy="254" r="254"/>
</g>
<path style="fill:#324A5E;" d="M179.6,281.2l4,20l70.4,15.6l70.4-15.2l4-20C328.4,281.2,252.8,249.2,179.6,281.2z"/>
<path style="fill:#2B3B4E;" d="M301.2,220.4H254l0,0h-47.2c0,0-22.4,124.8-62.8,140.8c0,0,86.8,0,109.6,0h0.4
	c22.8,0,109.6,0,109.6,0C323.6,345.6,301.2,220.4,301.2,220.4z"/>
<path style="fill:#F1543F;" d="M240.8,330.8c5.2,0,10,0,12,0C248,330.8,244,330.8,240.8,330.8z"/>
<path style="fill:#4CDBC4;" d="M333.2,305.6c-10.4,14.4-41.6,25.2-78.4,25.2c-0.4,0-0.4,0-0.8,0s-0.4,0-0.8,0
	c-36.8,0-68-10.4-78.4-25.2c0,0-124-4.4-124,99.2c46.4,61.2,120,100.8,202.8,100.8c0.4,0,0.4,0,0.8,0s0.4,0,0.8,0
	c82.8,0,156.4-39.6,202.8-100.8C457.2,301.2,333.2,305.6,333.2,305.6z"/>
<path style="fill:#2B3B4E;" d="M457.2,404.8c-16.4,22-36.4,40.8-59.2,56.4c-40.8,28-90.4,44.4-143.6,44.4h-1.2
	c-53.2,0-102.8-16.4-143.6-44.4c-22.8-15.6-42.8-34.4-59.2-56.4c0-40.8,18.8-64.8,42-78.8c36-22,82-20.4,82-20.4
	c10.4,14.4,41.6,25.2,78.4,25.2h1.2c36.8,0,68-10.4,78.4-25.2c0,0,46-1.6,82,20.4C438.4,340.4,457.2,364.4,457.2,404.8z"/>
<g>
	<path style="fill:#324A5E;" d="M457.2,404.8c-16.4,22-36.4,40.8-59.2,56.4c-4.4-67.2,7.6-112,17.2-135.2
		C438.4,340.4,457.2,364.4,457.2,404.8z"/>
	<path style="fill:#324A5E;" d="M110,461.2c-22.8-15.6-42.8-34.4-59.2-56.4c0-40.8,18.8-64.8,42-78.8C102,349.2,114.4,394,110,461.2
		z"/>
</g>
<g>
	<path style="fill:#2B3B4E;" d="M249.2,303.2c0.4,0,0.8,0,1.6,0C250,303.2,249.6,303.2,249.2,303.2z"/>
	<path style="fill:#2B3B4E;" d="M245.6,303.2c1.2,0,2.4,0,3.6,0C248,303.2,246.8,303.2,245.6,303.2z"/>
	<path style="fill:#2B3B4E;" d="M241.6,303.2c0.8,0,2,0,2.8,0C243.6,303.2,242.4,303.2,241.6,303.2z"/>
	<path style="fill:#2B3B4E;" d="M244.4,303.2c0.4,0,0.8,0,1.2,0C245.2,303.2,244.8,303.2,244.4,303.2z"/>
	<path style="fill:#2B3B4E;" d="M250.4,303.2c0.4,0,1.2,0,1.6,0C251.6,303.2,251.2,303.2,250.4,303.2z"/>
	<path style="fill:#2B3B4E;" d="M252.8,303.2c0.4,0,0.8,0,1.2,0C254,303.2,253.6,303.2,252.8,303.2z"/>
	<path style="fill:#2B3B4E;" d="M239.2,303.2c-0.4,0-1.2,0-1.6,0l0,0C238,303.2,238.8,303.2,239.2,303.2z"/>
	<path style="fill:#2B3B4E;" d="M252,303.2c0.4,0,0.4,0,0.8,0C252.8,303.2,252.4,303.2,252,303.2z"/>
	<path style="fill:#2B3B4E;" d="M239.2,303.2c0.8,0,1.6,0,2.4,0C240.8,303.2,240,303.2,239.2,303.2z"/>
	<path style="fill:#2B3B4E;" d="M267.6,330.4c-0.8,0-1.2,0-2,0l0,0C266.4,330.4,266.8,330.4,267.6,330.4z"/>
	<path style="fill:#2B3B4E;" d="M267.6,330.4c0.8,0,2,0,2.8,0C269.2,330.4,268.4,330.4,267.6,330.4z"/>
	<path style="fill:#2B3B4E;" d="M265.6,330.4L265.6,330.4c-0.4,0-0.4,0-0.8,0C265.2,330.4,265.2,330.4,265.6,330.4z"/>
	<path style="fill:#2B3B4E;" d="M262.4,330.4c-2,0-4,0-6.4,0c-0.4,0-0.8,0-0.8,0h-0.4c0,0,4.4,0,10.8-0.4c-0.4,0-0.4,0-0.8,0
		C264,330.4,263.2,330.4,262.4,330.4z"/>
	<path style="fill:#2B3B4E;" d="M256,330.8c2.4,0,4.4,0,6.4,0C259.6,330.8,257.2,330.8,256,330.8z"/>
</g>
<path style="fill:#324A5E;" d="M254,303.2c0,0-6.8,0.4-16.4,0c-0.8,0-1.6,0-2,0c-2,0-4,0-5.6,0c-0.4,0-1.2,0-1.6,0
	c-0.4,0-0.8,0-1.2,0s-0.8,0-1.2,0c-1.6,0-2,0,0,0c0.4,0,0.8,0,1.2,0s0.8,0,1.2,0s0.8,0,1.6,0c1.6,0,3.6,0,5.6,0c0.8,0,1.2,0,2,0
	c-18.4-1.2-47.6-5.2-58.4-21.6l-4.4,24c0,0,18,26.8,79.6,25.2c0,0,0,0,0.4,0s0.4,0,0.8,0c1.2,0,3.6,0,6.4,0c0.8,0,1.6,0,2.4,0
	c0.4,0,0.4,0,0.8,0c18-0.8,53.2-5.6,67.6-24.8l-4.8-24.4C328.4,281.2,320.4,304,254,303.2z"/>
<g>
	<path style="fill:#2B3B4E;" d="M254.8,330.8L254.8,330.8L254.8,330.8z"/>
	<path style="fill:#2B3B4E;" d="M235.6,303.2c-2.4,0-4.4,0-5.6,0C231.6,303.2,233.6,303.2,235.6,303.2z"/>
	<path style="fill:#2B3B4E;" d="M228.4,303.2c-0.4,0-0.8,0-1.2,0C227.6,303.2,228,303.2,228.4,303.2z"/>
	<path style="fill:#2B3B4E;" d="M226,303.2C224,303.2,224.4,303.2,226,303.2L226,303.2z"/>
</g>
<ellipse style="fill:#324A5E;" cx="254" cy="143.2" rx="93.6" ry="113.2"/>
<g>
	<path style="fill:#2B3B4E;" d="M345.2,134.4c4,0,7.2-3.6,6.4-7.6C342.4,71.6,302.4,30,254,30s-88.4,41.6-97.6,96.8
		c-0.8,4,2.4,7.6,6.4,7.6L345.2,134.4L345.2,134.4z"/>
	<path style="fill:#2B3B4E;" d="M339.2,144.8c-1.6-2-4-3.2-6.4-3.6l-78.8-2.4l-78.8,2.4c-2.8,0-4.8,1.2-6.4,3.6
		c-5.2,6.8-15.2,24.8-7.6,51.2c0.4,0.8,0.8,1.6,1.2,2.8c3.2,4.8,16,19.6,54.4,23.2c5.6,0.4,11.2-2.8,13.2-8
		c4.4-11.2,12.8-30,24-32.8c11.2,2.8,19.6,21.6,24,32.8c2,5.6,7.6,8.8,13.2,8c38.4-3.6,51.2-18.4,54.4-23.2c0.4-0.8,0.8-1.6,1.2-2.4
		C354.4,169.6,344.4,151.6,339.2,144.8z"/>
</g>
<path style="fill:#84DBFF;" d="M289.6,215.6c-3.2,0-5.6-1.6-6.8-4.4c-8-21.2-17.2-33.2-27.6-36l-1.2,0l-1.6,0.4
	c-10.4,2.8-19.6,14.8-27.6,36c-0.8,2.8-3.6,4.4-6.8,4.4c-36.4-3.6-47.6-16.4-50.4-20.4l-0.8-2c-6.4-23.2,2.8-39.2,6.8-44.8
	c0.4-0.8,1.2-1.2,2-1.2l78.4-2.8l77.6,2.4c0.8,0,1.6,0.4,2,1.2C338,154,346.8,170,340,194l-0.4,0.4l-0.4,1.2
	c-2,3.2-13.6,16.4-49.2,19.6L289.6,215.6z"/>
<g>
	<path style="fill:#54C0EB;" d="M315.6,146.8L281.2,208c-0.8-2-1.6-4-2.4-6l31.2-55.2H315.6z"/>
	<path style="fill:#54C0EB;" d="M333.2,148l-37.6,66.8c-1.6,0.4-3.6,0.4-5.6,0.8h-0.8c-2.4,0-4.8-1.2-6-3.2l36.4-65.2l11.6,0.4
		C332.4,147.6,332.8,147.6,333.2,148z"/>
	<path style="fill:#54C0EB;" d="M214.4,146.4L181.2,206c-1.6-0.8-3.2-1.6-4.4-2.8l31.6-56.8H214.4z"/>
	<path style="fill:#54C0EB;" d="M232.8,145.6l-37.2,66c-4.4-1.2-8.4-2.8-11.6-4.4l34.4-61.2L232.8,145.6z"/>
</g>
</svg>