<?xml version="1.0" encoding="iso-8859-1"?>
<!-- Uploaded to: SVG Repo, www.svgrepo.com, Generator: SVG Repo Mixer Tools -->
<svg height="800px" width="800px" version="1.1" id="Layer_1" xmlns="http://www.w3.org/2000/svg" xmlns:xlink="http://www.w3.org/1999/xlink" 
	 viewBox="0 0 508 508" xml:space="preserve">
<circle style="fill:#FD8469;" cx="254" cy="254" r="254"/>
<path style="fill:#324A5E;" d="M343.6,179.2c5.2-12,8-25.2,8-39.2c0-54-44-98-98-98S156,86,156,140c0,14,2.8,27.2,8,39.2H343.6z"/>
<path style="fill:#E6E9EE;" d="M454.8,409.6L454.8,409.6C408,469.6,335.6,508,254,508c-81.2,0-154-38.4-200.4-97.6l0,0
	c-0.4-0.4-0.4-0.4-0.4-0.8c20-56,57.2-60,57.2-60c54.8-26.4,87.6-63.6,89.6-66h108c2,2.4,34.8,39.6,89.6,65.6
	C397.6,349.6,434.8,353.6,454.8,409.6z"/>
<path style="fill:#FFD05B;" d="M304.4,246H203.6l-1.2,14.4l0,0l-1.2,16.4c0,2.4-0.8,4.8-1.6,7.2l0,0c4,21.6,22.8,37.2,44.4,37.2
	h19.2c22,0,40.4-15.6,44.4-37.2l0,0c-0.8-2.4-1.2-4.8-1.6-7.2L304.4,246z"/>
<path style="fill:#F9B54C;" d="M304.4,246H203.6l-0.8,8.8C230.4,326.4,308,284,308,284c-0.8-2.4-1.2-4.8-1.6-7.2L304.4,246z"/>
<g>
	<path style="fill:#324A5E;" d="M254,222.4c-15.6-8-22,16-46.4,2.4c0,0,10,26.8,46.4,10.8c36.8,16,46.4-10.8,46.4-10.8
		C276,238.4,269.6,214.4,254,222.4z"/>
	<path style="fill:#324A5E;" d="M388,470C387.6,470,387.6,470,388,470c-39.2,24.4-84.8,38-134,38s-95.2-14-134-38l0,0
		c16.4-47.2-9.6-120.4-9.6-120.4l0,0c25.6-12.4,46.8-27.2,62-39.6L254,450.4c0,0,81.6-138.4,81.6-140.4c15.2,12.4,36,27.2,62,39.6
		C397.6,349.6,371.6,422.4,388,470z"/>
</g>
<path style="fill:#E6E9EE;" d="M77.6,368.4c-4.8,4.8-9.6,10.8-14,18.8C68,379.2,73.2,373.2,77.6,368.4z"/>
<g>
	<path style="fill:#FFFFFF;" d="M307.2,280.4c0,0-3.6,20.8-52.4,42c0,0,36,22,42.8,40.4c0,0,29.2-32.8,30.4-59.6
		C328,302.8,314,291.2,307.2,280.4z"/>
	<path style="fill:#FFFFFF;" d="M200.8,280.4c0,0,3.6,20.8,52.4,42c0,0-36,22-42.8,40.4c0,0-29.2-32.8-30.4-59.6
		C180,302.8,194,291.2,200.8,280.4z"/>
</g>
<g>
	<path style="fill:#F1543F;" d="M296,330c0,9.6-1.2,17.6-10.8,17.6c-9.6,0-32.4-8-32.4-17.6s22.8-17.6,32.4-17.6
		C295.2,312.4,296,320.4,296,330z"/>
	<path style="fill:#F1543F;" d="M210,330c0,9.6,1.2,17.6,10.8,17.6s32.4-8,32.4-17.6s-22.8-17.6-32.4-17.6
		C210.8,312.4,210,320.4,210,330z"/>
</g>
<circle style="fill:#FF7058;" cx="252.8" cy="330" r="10.4"/>
<g>
	<path style="fill:#324A5E;" d="M341.2,156.8c-0.8,0.4-1.6,0.4-2.4,0.8C339.6,157.2,340.4,156.8,341.2,156.8z"/>
	<path style="fill:#324A5E;" d="M341.6,156.4c0.8,0,1.6-0.4,2.4-0.4C343.2,156,342.4,156.4,341.6,156.4z"/>
	<path style="fill:#324A5E;" d="M335.6,159.6c0.8-0.8,2-1.2,2.8-1.6C337.6,158,336.4,158.8,335.6,159.6L335.6,159.6z"/>
	<path style="fill:#324A5E;" d="M346.8,156.4c-0.8-0.4-1.6-0.4-2.4-0.4C345.2,156.4,346,156.4,346.8,156.4z"/>
	<path style="fill:#324A5E;" d="M161.2,156.4c0.8-0.4,1.6-0.4,2.4-0.4C162.8,156.4,162,156.4,161.2,156.4z"/>
	<path style="fill:#324A5E;" d="M164,156c0.8,0,1.6,0,2.4,0.4C165.6,156.4,164.8,156,164,156z"/>
</g>
<path style="fill:#FFD05B;" d="M350,158.8L350,158.8c-5.6-8-14.4,0.8-14.4,0.8s-3.6,8.8-2.8,16.4c0,0-4-10-1.2-19.2
	c-32-22.4-15.6-57.2-15.2-58l0,0c-16.4,18.4-61.2,58.4-139.2,60.4c1.2,8.4-2,16.4-2,16.4c0.8-7.6-2.8-16.4-2.8-16.4l0,0
	c-9.6-8-14.4-0.4-14.4-0.4l0,0c-4.8,5.2-5.2,17.2,0,28.8c5.6,13.2,16,20.8,23.2,17.2c13.2,40.4,40.8,75.6,72.8,75.6
	s59.6-35.2,73.2-75.6c6.8,3.6,17.2-4,23.2-17.2C355.2,176,355.2,164,350,158.8z"/>
</svg>