<?xml version="1.0" encoding="iso-8859-1"?>
<!-- Uploaded to: SVG Repo, www.svgrepo.com, Generator: SVG Repo Mixer Tools -->
<svg height="800px" width="800px" version="1.1" id="Layer_1" xmlns="http://www.w3.org/2000/svg" xmlns:xlink="http://www.w3.org/1999/xlink" 
	 viewBox="0 0 508 508" xml:space="preserve">
<circle style="fill:#90DFAA;" cx="254" cy="254" r="254"/>
<path style="fill:#324A5E;" d="M456.8,407.2C410.4,468.4,336.8,508,254,508c-2.8,0-5.6,0-8.4,0c-79.2-2.4-149.6-41.6-194-100.8
	c20.8-50.8,56-54.8,56-54.8c56-26.8,89.2-64.8,91.2-67.2h110.4c2,2.4,35.6,40.4,91.6,67.2C400.8,352.4,435.6,356.4,456.8,407.2z"/>
<path style="fill:#FFD05B;" d="M206,278.8l1.2-14.8l0,0l3.2-46h87.2l4.4,60.8C270,356.4,221.6,317.2,206,278.8z"/>
<path style="fill:#F9B54C;" d="M301.2,269.6c-13.6,16-30,26.4-47.2,26.4c-17.6,0-34-10.4-47.2-26.4l0.4-5.6l0,0l3.2-45.6h87.2
	L301.2,269.6z"/>
<g>
	<path style="fill:#FFD05B;" d="M178.4,120.4c-4.8,10.4-8,23.2-8,38.8c0,57.2,37.6,129.2,83.6,129.2s83.6-72,83.6-129.2
		c0-15.6-2.8-28.4-8-38.8C329.6,120.4,178.4,120.4,178.4,120.4z"/>
	<path style="fill:#FFD05B;" d="M352,193.6c-6,13.6-16.4,21.2-23.6,17.2s-8-18-2-31.2c6-13.6,16.4-21.2,23.6-17.2
		C357.2,166.4,358,180.4,352,193.6z"/>
	<path style="fill:#FFD05B;" d="M156,193.6c6,13.6,16.4,21.2,23.6,17.2c7.2-4,8-18,2-31.2c-6-13.6-16.4-21.2-23.6-17.2
		C150.8,166.4,150,180.4,156,193.6z"/>
</g>
<path style="fill:#E6E9EE;" d="M380.8,342v132.4C343.6,496,300.4,508,254,508c-2.8,0-5.6,0-8.4,0c-42.8-1.2-83.2-13.6-118-33.6V342
	c9.2-5.2,17.2-10.4,24.8-16v84H356v-84C363.2,331.2,371.6,336.8,380.8,342z"/>
<g>
	<path style="fill:#FF7058;" d="M302,278.4c0,0-14,32.4-48,44.8c0,0,21.2,20,22,24.4c0,0,40-43.2,40.4-59.2L302,278.4z"/>
	<path style="fill:#FF7058;" d="M206,278.4c0,0,14,32.4,48,44.8c0,0-21.2,20-22,24.4c0,0-40-43.2-40.4-59.2L206,278.4z"/>
	<path style="fill:#FF7058;" d="M350.8,142.4c0-9.2-1.2-18.4-4-26.8c-0.4-0.8-0.4-2-0.8-2.8C330,29.6,262.8,44,230,56.4
		c-9.6,3.6-20.4,4-30,0.4c-29.6-11.6-38,56-38,56c-0.4,0.8-0.4,2-0.8,2.8c-2.4,8.4-4,17.6-4,26.8c0,6.8,0.8,13.2,2,19.6l0,0
		c2.8,13.2,8.4,25.6,16,36c-3.2-13.2-5.2-42.4-4.8-44.4c1.2-16,17.6-26.4,32.8-20.4c13.6,5.6,31.2,8.8,50.4,8.8s36.8-3.2,50.4-8.8
		c15.2-6,32,4.4,32.8,20.8c0,1.2-1.6,30.8-4.8,43.6c8-10.4,13.2-22.8,16-36l0,0C350,155.6,350.8,149.2,350.8,142.4z"/>
</g>
<g>
	<polygon style="fill:#E6E9EE;" points="355.2,186 318.8,193.6 318.8,153.2 355.2,161.2 	"/>
	<polygon style="fill:#E6E9EE;" points="152.8,186 188.8,193.6 188.8,153.2 152.8,161.2 	"/>
</g>
<path style="fill:#FFFFFF;" d="M317.6,299.2H190.4c-7.6,0-14-5.6-14.8-13.2l-16-163.6c-0.8-8.8,6-16,14.8-16H334
	c8.8,0,15.6,7.6,14.8,16l-16,163.6C331.6,293.2,325.2,299.2,317.6,299.2z"/>
<polygon style="fill:#84DBFF;" points="320.8,250.8 187.2,250.8 180,156.4 328,156.4 "/>
<polygon style="fill:#54C0EB;" points="328,156.4 320.8,250.8 187.2,250.8 "/>
</svg>