<?xml version="1.0" encoding="utf-8"?>
<!-- Uploaded to: SVG Repo, www.svgrepo.com, Generator: SVG Repo Mixer Tools -->
<svg width="800px" height="800px" viewBox="0 0 1024 1024" class="icon"  version="1.1" xmlns="http://www.w3.org/2000/svg"><path d="M598.08 426.666667c-36.757333 0-64 12.117333-85.333333 12.117333s-53.098667-12.117333-85.333334-12.117333c-117.098667 0-192 85.12-192 194.005333 0 108.885333 85.333333 211.328 179.242667 211.328h-8.576c85.333333 0 106.666667 85.333333 106.666667 85.333333s21.333333-85.333333 118.186666-85.781333h-8.554666C704.746667 832 789.333333 729.557333 789.333333 620.672S720.170667 426.773333 598.08 426.666667z" fill="#D81B60" /><path d="M444.437333 467.562667a67.562667 67.562667 0 0 0 135.125334 0c0-14.293333-4.736-27.306667-12.352-38.208-22.08 3.562667-40.213333 9.429333-55.210667 9.429333-14.634667 0-34.282667-5.568-55.509333-9.152a66.666667 66.666667 0 0 0-12.053334 37.930667z" fill="#AD1457" /><path d="M362.666667 576h65.792M597.333333 597.333333h85.333334M350.208 682.666667H490.666667M526.677333 768H618.666667" fill="#AD1457" /><path d="M811.946667 157.184c-8.512-8.512 0-4.266667 2.154666-10.666667 4.266667-8.512-12.821333-10.666667-21.333333-10.666666h-4.266667c-23.466667-2.133333 2.133333-6.4 0-17.066667s-27.733333-8.533333-34.133333-8.533333c-12.821333 2.154667-27.754667 6.421333-38.421333 12.821333 4.266667-2.154667 10.666667-10.666667 6.421333-14.933333-4.266667-4.266667-21.333333 2.133333-27.754667 2.133333-12.8 4.266667-23.466667 6.421333-36.245333 12.821333-8.533333 4.266667-14.933333 12.8-23.488 19.178667 0-4.245333 2.154667-8.512 2.154667-12.8-19.2-4.266667-51.2 36.266667-49.088 55.466667 0-8.512 0-23.466667-10.666667-14.912-4.245333 8.512-66.133333 74.666667-66.133333 213.333333v65.557333c0 3.264 0.362667 6.122667 0.853333 8.768V490.666667c10.645333 0 19.733333-8.149333 21.333333-18.325334 0.213333-0.106667-0.213333 0.106667 0 0 4.330667-29.994667 11.946667-61.269333 24.746667-97.536 8.512-29.866667 21.333333-64 55.466667-70.4 8.533333-2.154667 21.333333 2.133333 29.866666-6.4-2.154667-2.154667-10.666667-25.6-12.821333-27.754666 10.666667 2.154667 21.333333 19.2 34.154667 21.333333 17.066667 2.154667 19.178667-8.512 21.333333-21.333333 6.4 10.666667 21.333333 19.2 32 21.333333 12.8 2.154667 23.466667-8.512 14.933333-21.333333 12.8 8.533333 59.733333 34.154667 59.733334 0 0-19.178667-17.066667-46.912-34.154667-53.333334 12.821333 0 32 8.533333 46.933333 6.421334 12.821333 0 21.333333-8.533333 25.6-21.333334 4.288-19.221333-8.512-32-19.178666-44.821333z" fill="#4CAF50" /><path d="M512 383.338667c0-138.666667-61.866667-204.821333-66.133333-213.333334-10.666667-8.533333-10.666667 6.4-10.666667 14.912 2.133333-19.178667-29.866667-59.733333-49.088-55.466666 0 4.266667 2.154667 8.533333 2.154667 12.8-8.533333-6.4-14.933333-14.912-23.488-19.178667-12.8-6.4-23.466667-8.533333-36.245334-12.821333-6.421333 0-23.488-6.4-27.754666-2.133334-4.245333 4.266667 2.154667 12.8 6.421333 14.933334-10.666667-6.4-25.6-10.666667-38.421333-12.821334-6.4 0-32-2.133333-34.133334 8.533334s23.466667 14.933333 0 17.066666h-4.266666c-8.512 0-25.6 2.154667-21.333334 10.666667 2.154667 6.4 10.666667 2.154667 2.154667 10.666667-10.666667 12.842667-23.466667 25.621333-19.2 44.842666 4.266667 12.8 12.8 21.333333 25.6 21.333334 14.933333 2.133333 34.133333-6.421333 46.933333-6.421334-17.088 6.421333-34.154667 34.154667-34.154666 53.333334 0 34.154667 46.933333 8.533333 59.733333 0-8.512 12.821333 2.154667 23.488 14.933333 21.333333 10.666667-2.133333 25.6-10.666667 32-21.333333 2.154667 12.821333 4.266667 23.488 21.333334 21.333333 12.821333-2.133333 23.488-19.178667 34.154666-21.333333-2.154667 2.154667-10.666667 25.6-12.821333 27.754666 8.533333 8.512 21.333333 4.245333 29.866667 6.4 34.133333 6.4 46.933333 40.512 55.466666 70.4 13.44 38.016 21.610667 70.208 25.6 94.549334a21.333333 21.333333 0 0 0 21.333334 21.333333v-42.666667L512 383.338667z" fill="#388E3C" /></svg>