<?xml version="1.0" encoding="utf-8"?>
<!-- Uploaded to: SVG Repo, www.svgrepo.com, Generator: SVG Repo Mixer Tools -->
<svg width="800px" height="800px" viewBox="0 0 1024 1024" class="icon"  version="1.1" xmlns="http://www.w3.org/2000/svg"><path d="M854.634667 169.365333c103.509333 103.530667 2.325333 309.12-186.901334 498.368-189.226667 189.162667-394.837333 290.368-498.346666 186.88-103.530667-103.530667-2.346667-309.12 186.88-498.368 189.205333-189.184 394.837333-290.389333 498.368-186.88z" fill="#FFB300" /><path d="M424.661333 617.322667c6.506667 89.216-7.36 140.138667-25.493333 169.237333-38.72 34.794667-57.002667 38.72-57.002667 38.72s-6.122667-242.474667 0.512-334.613333c0.448-6.229333 29.781333-45.781333 29.781334-45.781334s45.482667 80.277333 52.202666 172.437334zM595.328 474.645333c6.506667 89.216-7.381333 140.138667-25.493333 169.237334-38.72 34.794667-57.002667 38.72-57.002667 38.72s-6.122667-242.453333 0.490667-334.613334c0.448-6.229333 29.781333-45.781333 29.781333-45.781333s45.525333 80.298667 52.224 172.437333zM766.464 340.416c6.506667 89.216-7.381333 140.138667-25.493333 169.237333-38.72 34.794667-57.002667 38.72-57.002667 38.72s-6.122667-242.453333 0.490667-334.613333c0.448-6.229333 29.781333-45.781333 29.781333-45.781333s45.482667 80.298667 52.224 172.437333z" fill="#FFA000" /><path d="M384 657.984c0 92.394667-41.834667 167.296-41.834667 167.296s-41.813333-74.901333-41.813333-167.296c0-92.394667 41.813333-167.317333 41.813333-167.317333S384 565.589333 384 657.984zM554.965333 515.349333c0 92.416-41.813333 167.317333-41.813333 167.317334s-41.813333-74.901333-41.834667-167.317334c0-92.373333 41.834667-167.296 41.834667-167.296s41.813333 74.922667 41.813333 167.296zM725.333333 380.629333c0 92.416-41.834667 167.317333-41.834666 167.317334s-41.813333-74.901333-41.834667-167.317334c0-92.373333 41.834667-167.296 41.834667-167.296S725.333333 288.256 725.333333 380.629333z" fill="#FFE082" /></svg>