<?xml version="1.0" encoding="utf-8"?>
<!-- Uploaded to: SVG Repo, www.svgrepo.com, Generator: SVG Repo Mixer Tools -->
<svg width="800px" height="800px" viewBox="0 0 1024 1024" class="icon"  version="1.1" xmlns="http://www.w3.org/2000/svg"><path d="M490.666667 447.125333a21.333333 21.333333 0 1 1-42.666667 0v-42.666666c0-11.818667 9.536-21.333333 21.333333-21.333334 11.797333 0 21.333333 9.514667 21.333334 21.333334v42.666666zM576 447.125333a21.333333 21.333333 0 1 1-42.666667 0v-42.666666c0-11.818667 9.536-21.333333 21.333334-21.333334 11.797333 0 21.333333 9.514667 21.333333 21.333334v42.666666z" fill="#3E2723" /><path d="M220.437333 494.122667s-64-64 0-128c64-21.333333 85.333333 42.666667 85.333334 42.666666s-64 42.666667-42.666667 85.333334-42.666667 0-42.666667 0zM803.562667 513.472s64-64 0-128c-64-21.333333-85.333333 42.666667-85.333334 42.666667s64 42.666667 42.666667 85.333333 42.666667 0 42.666667 0zM682.752 917.333333L682.666667 916.458667l38.528-35.349334-13.077334-52.245333-142.186666-20.330667-26.346667-26.325333 30.165333-30.165333 16.32 16.298666 156.48 22.336 29.589334 118.421334z" fill="#AA290B" /><path d="M832 852.458667l-3.093333-58.24-47.125334-47.146667-146.816 20.970667-70.805333-47.189334 23.68-35.477333 57.194667 38.122667 151.850666-21.696 80.874667 80.874666zM663.978667 681.6l-5.290667-42.325333 158.186667-19.776L853.333333 528.341333v-102.549333l42.666667 110.741333-48.874667 122.176zM341.248 917.333333l0.085333-0.874666-38.528-35.349334 13.077334-52.245333 142.186666-20.330667 26.346667-26.325333-30.165333-30.165333-16.32 16.298666-156.48 22.336-29.589334 118.421334z" fill="#AA290B" /><path d="M192 852.458667l3.093333-58.24 47.125334-47.146667 146.816 20.970667 70.805333-47.189334-23.68-35.477333-57.194667 38.122667-151.850666-21.696-80.874667 80.874666zM360.021333 681.6l5.290667-42.325333-158.186667-19.776L170.666667 528.341333v-102.549333L128 536.533333l48.874667 122.176z" fill="#AA290B" /><path d="M384 340.458667c26.986667-13.525333 42.666667-64 129.344-106.346667 0-31.914667-127.658667 0-191.509333 63.829333C277.333333 340.458667 341.333333 361.792 384 340.458667z" fill="#FF5722" /><path d="M256.661333 308.010667s-31.914667-159.552 159.573334-159.552c10.197333 0 95.744 0 95.744 31.893333-63.829333 0-159.573333 31.914667-159.573334 95.744 0 31.914667-11.093333 64.362667-11.093333 64.362667l-84.650667-32.448zM635.818667 317.568c-16.768-25.066667-5.418667-76.736-59.818667-156.373333 15.786667-27.733333 110.954667 63.146667 134.869333 150.186666 17.642667 58.944-48.512 45.824-75.050666 6.186667z" fill="#FF5722" /><path d="M762.517333 352.384s106.666667-122.922667-59.776-217.621333c-8.853333-5.034667-83.221333-47.381333-99.008-19.626667 55.488 31.573333 122.901333 106.666667 91.328 162.154667-15.765333 27.733333-22.186667 61.397333-22.186666 61.397333l89.642666 13.696zM597.333333 767.082667s-11.328 21.376-42.666666 21.376l-85.333334-0.042667c-32.661333 0-42.666667-21.333333-42.666666-21.333333-85.333333-106.624-192-106.624-192-192 0-106.624 105.066667-170.666667 234.666666-170.666667h85.333334c129.6 0 234.666667 63.978667 234.666666 170.666667 0 85.376-106.666667 85.376-192 192z" fill="#FF5722" /><path d="M802.794667 385.28c-1.557333-18.752-6.250667-49.493333-20.565334-63.786667-64-21.333333-85.333333 42.666667-85.333333 42.666667s14.357333 24.554667 31.253333 45.184c11.733333-16.832 34.88-36.949333 74.645334-24.064zM295.850667 389.973333c16.896-20.629333 31.253333-45.184 31.253333-45.184s-21.333333-64-85.333333-42.666666c-14.293333 14.293333-19.008 45.034667-20.544 63.786666 39.744-12.864 62.890667 7.253333 74.624 24.064zM426.666667 489.792l85.333333 298.666667 85.333333-298.666667-21.333333-85.333333h-128z" fill="#D84315" /></svg>