<?xml version="1.0" encoding="utf-8"?>
<!-- Uploaded to: SVG Repo, www.svgrepo.com, Generator: SVG Repo Mixer Tools -->
<svg width="800px" height="800px" viewBox="0 0 1024 1024" class="icon"  version="1.1" xmlns="http://www.w3.org/2000/svg"><path d="M704 405.333333h-97.770667v64H704c47.061333 0 85.333333 38.272 85.333333 85.674667 0 0.362667-3.029333 37.269333-30.4 92.010667l-7.658666 15.509333C720.597333 724.864 706.602667 746.666667 670.229333 746.666667h-64v64h64c79.466667 0 109.461333-60.949333 138.474667-119.893334l7.488-15.125333C850.730667 606.549333 853.44 558.954667 853.333333 554.666667c0-82.325333-67.008-149.333333-149.333333-149.333334z" fill="#C62828" /><path d="M532.629333 318.037333l-6.784-9.728c-2.496-4.032-24.533333-40.490667-24.533333-75.264 0-20.885333 8.021333-33.813333 13.866667-43.221333 4.650667-7.509333 7.466667-12.010667 7.466666-20.778667 0-19.157333-13.077333-44.586667-18.154666-52.778666l-6.037334-9.770667 36.181334-22.464 6.122666 9.728c2.496 4.032 24.533333 40.490667 24.533334 75.264 0 20.906667-8.021333 33.834667-13.866667 43.264-4.650667 7.488-7.466667 12.010667-7.466667 20.736 0 19.157333 13.077333 44.586667 18.154667 52.778667l6.698667 9.770666-36.181334 22.464zM426.282667 318.037333l-6.784-9.728c-2.496-4.032-24.533333-40.490667-24.533334-75.264 0-20.885333 8.021333-33.813333 13.866667-43.221333 4.650667-7.509333 7.466667-12.010667 7.466667-20.778667 0-19.157333-13.077333-44.586667-18.154667-52.778666l-6.037333-9.770667 36.181333-22.464 6.122667 9.728c2.496 4.032 24.533333 40.490667 24.533333 75.264 0 20.906667-8.021333 33.834667-13.866667 43.264-4.650667 7.488-7.466667 12.010667-7.466666 20.736 0 19.157333 13.077333 44.586667 18.154666 52.778667l6.698667 9.770666-36.181333 22.464zM319.957333 318.037333l-6.784-9.728c-2.496-4.032-24.533333-40.490667-24.533333-75.264 0-20.885333 8.021333-33.813333 13.866667-43.221333 4.650667-7.509333 7.466667-12.010667 7.466666-20.778667 0-19.157333-13.077333-44.586667-18.154666-52.778666l-6.037334-9.770667 36.181334-22.464 6.122666 9.728c2.496 4.032 24.533333 40.490667 24.533334 75.264 0 20.906667-8.021333 33.834667-13.866667 43.264-4.650667 7.488-7.466667 12.010667-7.466667 20.736 0 19.157333 13.077333 44.586667 18.154667 52.778667l6.698667 9.770666-36.181334 22.464z" fill="#BCAAA4" /><path d="M682.666667 309.333333a32 32 0 0 0-32-32h-448A32 32 0 0 0 170.666667 309.333333S170.666667 597.333333 234.666667 938.666667h384c64-341.333333 64-629.333333 64-629.333334z" fill="#F44336" /></svg>