<?xml version="1.0" encoding="utf-8"?>
<!-- Uploaded to: SVG Repo, www.svgrepo.com, Generator: SVG Repo Mixer Tools -->
<svg width="800px" height="800px" viewBox="0 0 1024 1024" class="icon"  version="1.1" xmlns="http://www.w3.org/2000/svg"><path d="M512 896a176.362667 176.362667 0 0 1-113.429333-41.962667 203.477333 203.477333 0 0 1-67.904 11.754667c-111.744 0-202.666667-90.922667-202.666667-202.688 0-132.736 107.477333-187.84 193.834667-232.128C378.090667 402.154667 426.666667 377.237333 426.666667 341.333333V128l64 42.666667 42.666666-42.666667 64.874667 54.378667V341.333333c-1.152 24.362667 43.989333 48.170667 91.754667 73.365334C776.917333 460.586667 896 523.413333 896 663.104c0 111.765333-90.922667 202.688-202.666667 202.688-21.589333 0-46.058667-4.330667-67.84-11.818667A176.362667 176.362667 0 0 1 512 896z" fill="#CFD8DC" /><path d="M183.317333 687.317333a187.029333 187.029333 0 0 1-2.069333-16.213333c-0.128-2.176-0.234667-6.762667-0.384-6.933333l0.085333-11.093334c-0.213333-9.493333 1.045333-21.546667 2.88-32.042666 3.626667-21.568 11.797333-42.026667 24.448-62.954667 25.173333-42.24 70.912-80.661333 113.536-127.104C235.477333 475.264 128 530.368 128 663.104c0 111.765333 90.922667 202.688 202.666667 202.688 23.04 0 45.802667-3.968 67.904-11.754667-126.058667-2.624-201.237333-81.536-215.253334-166.72z" fill="#B0BEC5" /><path d="M808.896 532.437333c32.853333 44.245333 47.701333 105.770667 35.541333 153.792-38.976 153.728-200.618667 159.765333-217.216 162.709334l-1.728 5.034666c21.781333 7.488 46.250667 11.818667 67.84 11.818667 111.744 0 202.666667-90.922667 202.666667-202.688 0-139.690667-119.082667-202.517333-206.037333-248.405333 49.728 35.456 86.784 72.448 118.933333 117.738666z" fill="#90A4AE" /><path d="M572.437333 471.744c59.392 47.616 99.498667 120.426667 113.173334 198.954667 3.242667 19.626667 5.845333 39.36 4.714666 61.354666a174.869333 174.869333 0 0 1-16.448 64.234667c-19.029333 40.725333-54.997333 73.493333-97.557333 89.002667a186.325333 186.325333 0 0 1-66.602667 10.901333 180.778667 180.778667 0 0 1-64.853333-13.781333c-41.386667-17.237333-75.456-51.072-91.562667-91.712-8.170667-20.16-12.821333-41.6-12.736-62.805334-0.042667-5.333333 0.298667-10.496 0.704-15.850666l1.642667-14.592c1.344-9.749333 2.922667-19.392 5.056-28.885334 9.109333-37.802667 22.592-74.112 43.157333-106.176-7.232 37.077333-11.925333 73.792-11.946666 109.888-0.085333 9.002667-0.042667 17.941333 0.448 26.816l0.981333 13.376c0.469333 3.946667 0.96 8.106667 1.770667 12.053334 3.029333 15.936 8.021333 31.125333 15.957333 44.586666 15.893333 26.816 40.362667 47.125333 68.586667 56.746667 14.272 4.821333 28.352 7.466667 44.352 7.125333a127.125333 127.125333 0 0 0 43.008-7.765333 122.773333 122.773333 0 0 0 65.536-56.213333 131.242667 131.242667 0 0 0 14.549333-42.538667c2.069333-15.168 2.304-32.853333 1.813333-50.24-3.477333-69.397333-24.96-139.861333-63.744-204.48z" fill="#90A4AE" /></svg>