<?xml version="1.0" encoding="utf-8"?>
<!-- Uploaded to: SVG Repo, www.svgrepo.com, Generator: SVG Repo Mixer Tools -->
<svg width="800px" height="800px" viewBox="0 0 1024 1024" class="icon"  version="1.1" xmlns="http://www.w3.org/2000/svg"><path d="M874.666667 672a53.333333 53.333333 0 0 1-53.333334 53.333333h-618.666666a53.333333 53.333333 0 1 1 0-106.666666h618.666666a53.333333 53.333333 0 0 1 53.333334 53.333333zM821.333333 384s-5.376-6.4-42.666666-21.333333c-53.333333-21.333333-501.333333-21.333333-533.333334 0-22.272 14.848-42.666667 21.333333-42.666666 21.333333a53.333333 53.333333 0 1 0 0 106.666667h618.666666a53.333333 53.333333 0 1 0 0-106.666667z" fill="#68362B" /><path d="M170.666667 746.666667v101.333333A48 48 0 0 0 218.666667 896h586.666666A48 48 0 0 0 853.333333 848V746.666667H170.666667zM512 128C323.498667 128 170.666667 223.530667 170.666667 341.333333h682.666666c0-117.802667-152.810667-213.333333-341.333333-213.333333z" fill="#FFC107" /><path d="M149.333333 512h725.333334v85.333333H149.333333z" fill="#FF3D00" /><path d="M341.333333 277.333333m-21.333333 0a21.333333 21.333333 0 1 0 42.666667 0 21.333333 21.333333 0 1 0-42.666667 0Z" fill="#CE8106" /><path d="M384 213.333333m-21.333333 0a21.333333 21.333333 0 1 0 42.666666 0 21.333333 21.333333 0 1 0-42.666666 0Z" fill="#CE8106" /><path d="M426.666667 277.333333m-21.333334 0a21.333333 21.333333 0 1 0 42.666667 0 21.333333 21.333333 0 1 0-42.666667 0Z" fill="#CE8106" /><path d="M894.101333 755.264c-6.08-18.24-20.394667-32.192-38.506666-42.730667-9.28 7.893333-21.141333 12.8-34.261334 12.8h-618.666666a52.992 52.992 0 0 1-35.690667-13.952c-12.309333 12.288-21.909333 26.112-25.642667 38.592-8.725333 29.034667-13.546667 75.690667 26.752 72.896a100.309333 100.309333 0 0 0 51.754667-19.328c23.338667-16.938667 33.024-21.781333 50.474667-0.170666 16.96 20.992 30.464 39.125333 52.010666 13.802666 22.357333-26.304 25.216-40.810667 63.445334-33.024 40.021333 8.170667 73.6 35.904 114.432 42.368 19.882667 3.114667 28.522667 2.730667 40.32-14.336 9.621333-13.909333 18.389333-43.946667 36.992-46.784 30.336-4.629333 7.445333 29.248 6.570666 44.586667-2.261333 38.826667 40.384 5.653333 51.754667-7.616 7.104-8.298667 17.6-25.450667 30.528-22.165333 14.08 3.626667 6.869333 11.093333 9.941333 22.677333 2.858667 10.794667 12.501333 29.269333 25.536 29.098667 15.978667-0.213333 23.488-28.416 31.552-39.850667 6.549333-9.216 18.752-25.237333 31.552-24.448 14.186667 0.896 18.069333 18.624 25.194667 30.250667 14.634667 23.872 55.168 45.909333 81.301333 26.837333 16.725333-12.224 29.504-48.981333 22.656-69.504zM855.573333 335.68H172.138667c-20.437333 8.661333-35.989333 19.562667-39.722667 32-8.789333 29.034667-7.594667 52.629333 33.024 49.834667a101.610667 101.610667 0 0 0 52.138667-19.328c23.530667-16.938667 33.28-21.781333 50.88-0.170667 17.088 20.992 30.698667 39.125333 52.394666 13.802667 22.528-26.304 25.408-40.810667 63.914667-33.024 40.362667 8.170667 74.176 35.904 115.349333 42.368 20.010667 3.114667 28.778667 2.730667 40.597334-14.336 9.706667-13.909333 18.538667-43.946667 37.312-46.784 30.570667-4.629333 7.509333 29.248 6.613333 44.586666-2.261333 38.826667 40.682667 5.653333 52.138667-7.616 7.168-8.298667 17.749333-25.450667 30.762666-22.165333 14.186667 3.626667 6.933333 11.093333 10.026667 22.677333 2.88 10.794667 12.608 29.269333 25.728 29.098667 16.128-0.213333 23.68-28.416 31.829333-39.850667 6.570667-9.216 18.88-25.237333 31.765334-24.448 14.293333 0.896 18.218667 18.624 25.365333 30.250667 14.741333 23.872 55.616 45.909333 81.941333 26.837333 16.874667-12.224 17.066667-20.544 10.133334-41.066666-5.184-15.530667-15.594667-29.888-28.757334-42.666667z" fill="#8BC34A" /><path d="M832 618.666667c-320 0-448 64-448 64s-85.333333-64-192-64v-21.333334h640v21.333334zM192 512c320 0 448 64 448 64s85.333333-64 192-64v-21.333333H192v21.333333z" fill="#FFEB3B" /></svg>