<?xml version="1.0" encoding="utf-8"?>
<!-- Uploaded to: SVG Repo, www.svgrepo.com, Generator: SVG Repo Mixer Tools -->
<svg width="800px" height="800px" viewBox="0 0 1024 1024" class="icon"  version="1.1" xmlns="http://www.w3.org/2000/svg"><path d="M915.456 523.477333l-222.037333-193.109333-192.874667-222.336c-108.522667 1.344-231.509333 61.994667-294.058667 125.610667-131.029333 133.397333-115.178667 374.890667-56.597333 507.2 0.192 0.469333 0.128 0.832 0.384 1.344 22.421333 46.698667-8.021333 108.693333 7.189333 124.224l0.341334 0.277333 0.256 0.32c15.509333 15.253333 77.44-15.232 124.096 7.210667 0.512 0.256 0.832 0.170667 1.322666 0.341333 132.117333 58.688 373.333333 74.56 506.56-56.618667 63.509333-62.656 124.117333-185.792 125.418667-294.464z" fill="#E65100" /><path d="M458.176 233.258667c-23.445333 2.624-51.349333 10.410667-76.117333 20.117333a376.256 376.256 0 0 0-72.490667 37.824c-22.272 15.082667-45.376 33.408-61.525333 53.290667-17.258667 20.629333-30.890667 44.885333-41.642667 70.634666-21.333333 51.776-31.317333 109.034667-35.242667 166.464a883.626667 883.626667 0 0 0 5.888 173.546667 890.197333 890.197333 0 0 1-20.864-173.909333c-0.96-58.666667 3.946667-118.421333 22.08-176.341334 9.237333-28.842667 21.930667-57.194667 39.914667-82.944 18.858667-26.730667 40.021333-47.168 63.786667-67.392a425.066667 425.066667 0 0 1 77.248-51.136c28.16-14.229333 55.616-25.834667 89.493333-33.429333l9.472 63.274667z" fill="#D84315" /><path d="M525.12 354.944c-39.424 11.690667-81.216 31.765333-117.696 55.808a405.994667 405.994667 0 0 0-52.330667 40.789333 325.568 325.568 0 0 0-42.837333 49.984c-25.856 36.736-46.421333 78.08-63.552 120.853334a867.776 867.776 0 0 0-40.981333 132.757333 878.848 878.848 0 0 1 25.792-137.834667c12.416-45.333333 28.458667-90.176 51.541333-132.629333a359.381333 359.381333 0 0 1 41.322667-60.970667 453.12 453.12 0 0 1 52.224-51.328c38.037333-31.466667 78.144-57.493333 125.994666-78.037333l20.522667 60.608zM614.314667 454.869333L223.104 801.301333l345.92-391.68zM853.653333 575.338667c-7.552 33.856-19.114667 61.290667-33.322666 89.472a426.666667 426.666667 0 0 1-50.986667 77.312c-20.202667 23.808-40.512 44.970667-67.242667 63.893333-25.706667 18.005333-54.037333 30.762667-82.837333 40.042667-57.898667 18.218667-117.610667 23.146667-176.277333 22.186666a886.08 886.08 0 0 1-173.824-20.842666c57.642667 7.744 115.968 9.578667 173.482666 5.866666 57.365333-3.946667 114.602667-13.952 166.336-35.349333 25.706667-10.773333 49.898667-24.448 70.506667-41.728 19.797333-16.192 38.101333-39.338667 53.12-61.632a376.746667 376.746667 0 0 0 37.717333-72.533333c9.664-24.768 17.429333-52.693333 20.032-76.117334l63.296 9.429334z" fill="#D84315" /><path d="M729.472 519.36c-20.48 47.829333-46.485333 87.957333-77.845333 126.037333a454.485333 454.485333 0 0 1-51.221334 52.288 358.762667 358.762667 0 0 1-60.885333 41.386667c-42.410667 23.146667-87.232 39.253333-132.544 51.669333-45.376 12.245333-91.434667 21.12-137.770667 25.898667a864.213333 864.213333 0 0 0 132.693334-41.066667c42.730667-17.173333 84.032-37.781333 120.725333-63.658666a326.272 326.272 0 0 0 49.898667-42.88 410.858667 410.858667 0 0 0 40.682666-52.416c23.978667-36.501333 44.010667-78.314667 55.658667-117.738667l60.608 20.48z" fill="#D84315" /><path d="M250.986667 775.509333c-39.914667-39.296-82.304-68.224-118.208-82.922666 4.202667 17.258667 9.877333 33.984 17.130666 49.962666 0.085333 0.256 0.042667 0.448 0.149334 0.725334 22.976 59.285333-7.509333 108.501333 8 123.733333 15.509333 15.253333 77.44-15.232 124.096 7.210667 0.512 0.256 0.832 0.170667 1.322666 0.341333 16.533333 7.338667 33.792 13.12 51.712 17.344-15.018667-35.328-44.330667-77.162667-84.202666-116.394667z" fill="#FB8C00" /><path d="M910.464 576.661333c27.477333-123.093333-35.712-228.010667-133.184-326.4l-201.152 201.408c18.624-0.832 105.706667 15.125333 105.706667 105.834667 56.448-28.181333 105.706667-15.125333 150.997333 60.48 29.994667-70.592 77.632-41.322667 77.632-41.322667zM450.24 112.576c125.866667-23.786667 228.8 40.085333 327.018667 137.685333l-201.152 201.408c0.832-18.645333-15.104-105.856-105.706667-105.856 28.16-56.533333 15.104-105.813333-60.394667-151.189333 70.506667-29.994667 40.234667-82.048 40.234667-82.048z" fill="#FB8C00" /><path d="M644.513206 259.832815a69.312 29.76 45.009 1 0 98.006572 98.037367 69.312 29.76 45.009 1 0-98.006572-98.037367Z" fill="#EF6C00" /></svg>