<?xml version="1.0" encoding="utf-8"?>
<!-- Uploaded to: SVG Repo, www.svgrepo.com, Generator: SVG Repo Mixer Tools -->
<svg width="800px" height="800px" viewBox="0 0 1024 1024" class="icon"  version="1.1" xmlns="http://www.w3.org/2000/svg"><path d="M149.333333 874.666667c0-149.333333 41.728-189.909333 62.954667-211.477334a195.093333 195.093333 0 0 1 79.978667-48.405333c32.96-9.792 70.250667-15.296 122.624-5.738667 9.578667 52.352 4.096 89.642667-5.738667 122.624a193.834667 193.834667 0 0 1-48.405333 79.978667C339.242667 832.896 298.666667 874.666667 149.333333 874.666667z" fill="#D4E157" /><path d="M128 682.666667c3.498667-53.397333 18.133333-86.826667 35.904-117.184a206.293333 206.293333 0 0 1 67.349333-68.288 203.434667 203.434667 0 0 1 91.029334-30.101334c35.072-2.410667 73.322667 0.32 122.794666 21.226667-3.370667 53.632-17.941333 89.088-35.754666 119.381333a203.413333 203.413333 0 0 1-67.52 68.010667 206.208 206.208 0 0 1-91.178667 29.824C215.552 707.968 177.344 703.338667 128 682.666667z" fill="#D4E157" /><path d="M341.333333 896c-20.672-49.344-25.322667-87.573333-22.912-122.645333a206.144 206.144 0 0 1 29.845334-91.136 203.477333 203.477333 0 0 1 68.010666-67.541334c30.314667-17.834667 65.770667-32.405333 119.381334-35.776 20.885333 49.472 23.616 87.744 21.205333 122.816a204.736 204.736 0 0 1-30.08 91.029334 206.869333 206.869333 0 0 1-68.288 67.349333C428.16 877.824 394.709333 892.501333 341.333333 896z" fill="#D4E157" /><path d="M490.346667 865.813333c-25.429333-47.722667-31.808-86.378667-32.789334-122.346666-0.32-35.754667 7.466667-67.541333 21.141334-96.554667a215.317333 215.317333 0 0 1 61.653333-77.205333c28.608-21.845333 62.677333-41.109333 116.096-51.136 25.664 47.829333 32.085333 86.485333 33.045333 122.496a215.36 215.36 0 0 1-21.418666 96.426666 218.496 218.496 0 0 1-61.866667 77.077334c-28.672 21.824-62.698667 41.045333-115.861333 51.242666zM213.333333 405.333333c12.821333-52.544 38.677333-77.632 61.546667-104.512a203.605333 203.605333 0 0 1 78.442667-55.338666 200.874667 200.874667 0 0 1 95.104-12.885334c35.029333 4.202667 72.298667 14.165333 117.44 44.330667-12.714667 52.778667-33.344 85.397333-56.192 112.234667a200.789333 200.789333 0 0 1-78.570667 55.104 204.373333 204.373333 0 0 1-95.210667 12.586666C300.885333 452.650667 256 448 213.333333 405.333333z" fill="#D4E157" /><path d="M618.666667 810.666667c-29.205333-44.842667-46.272-87.189333-50.24-122.133334a207.189333 207.189333 0 0 1 12.906666-95.082666 203.370667 203.370667 0 0 1 54.741334-78.677334c26.581333-22.954667 58.837333-43.690667 110.954666-56.661333 29.461333 44.885333 39.082667 82.048 43.029334 116.928a203.733333 203.733333 0 0 1-13.184 94.912 206.336 206.336 0 0 1-55.018667 78.613333C695.232 771.541333 670.549333 797.632 618.666667 810.666667z" fill="#D4E157" /><path d="M458.090667 712.448c-22.784-48.64-27.114667-87.04-26.197334-122.496a210.709333 210.709333 0 0 1 26.069334-93.418667 207.530667 207.530667 0 0 1 65.344-71.616c29.589333-19.541333 64.490667-36.074667 118.08-42.304 23.04 48.789333 27.413333 87.168 26.453333 122.624a208.874667 208.874667 0 0 1-26.325333 93.312 210.944 210.944 0 0 1-65.578667 71.466667c-29.653333 19.477333-64.533333 36.117333-117.845333 42.432z" fill="#D4E157" /><path d="M311.530667 565.824c5.994667-53.930667 22.442667-89.130667 41.792-119.018667a208.128 208.128 0 0 1 71.274666-65.898666 205.290667 205.290667 0 0 1 93.504-26.005334c35.584-0.704 74.197333 4.010667 123.264 27.669334-5.824 54.229333-22.208 89.472-41.621333 119.296a205.141333 205.141333 0 0 1-71.466667 65.664 207.701333 207.701333 0 0 1-93.610666 25.706666c-35.584 0.682667-74.154667-3.968-123.136-27.413333z" fill="#D4E157" /><path d="M158.165333 533.632c10.176-53.12 29.44-87.189333 51.306667-115.861333a218.645333 218.645333 0 0 1 77.034667-61.909334 216.085333 216.085333 0 0 1 96.448-21.397333c36.010667 0.938667 74.666667 7.381333 122.496 33.045333-10.026667 53.397333-29.290667 87.509333-51.136 116.096a216.32 216.32 0 0 1-77.205334 61.696 218.453333 218.453333 0 0 1-96.597333 21.098667c-35.989333-0.981333-74.624-7.381333-122.346667-32.768z" fill="#D4E157" /><path d="M456.341333 742.826667c-0.149333-10.474667 0.554667-20.586667 1.749334-30.378667a197.269333 197.269333 0 0 1-55.701334 27.584 245.504 245.504 0 0 1-81.962666 9.877333c-0.938667 4.821333-1.514667 9.898667-2.112 14.912 32.533333 12.010667 75.541333 22.08 95.914666 16.256 0.832-0.298667 1.642667-0.533333 2.453334-0.768 3.626667 25.322667 11.242667 54.890667 27.477333 88.789334 5.333333-2.666667 10.517333-5.44 15.488-8.32 7.530667-4.501333 14.506667-9.301333 21.034667-14.4-18.112-39.296-23.317333-72.426667-24.341334-103.552zM274.069333 703.552a244.842667 244.842667 0 0 1 9.856-81.962667 196.992 196.992 0 0 1 27.605334-55.744c-9.813333 1.258667-19.946667 1.962667-30.4 1.792-31.125333-1.045333-64.277333-6.250667-103.552-24.384a213.013333 213.013333 0 0 0-14.4 21.034667c-2.88 4.949333-5.632 10.218667-8.32 15.488 34.005333 16.277333 63.637333 23.893333 88.789333 27.498667-0.170667 0.554667-0.362667 1.152-0.490667 1.685333-6.528 22.464-1.258667 63.616 12.309334 97.216 6.314667-0.64 12.544-1.472 18.602666-2.624z" fill="#C0CA33" /><path d="M320.576 749.909333a310.186667 310.186667 0 0 1-41.621333-4.928c-2.794667-15.04-4.266667-28.757333-4.906667-41.557333-7.338667 1.493333-14.826667 2.752-22.72 3.349333-20.096 1.237333-44.650667-1.728-68.437333-6.314666-3.733333 10.346667-10.453333 14.677333-17.664 41.941333 30.848 6.144 68.074667 8.234667 88.725333 6.954667 8.149333-0.597333 16-1.877333 23.872-3.264-1.322667 7.637333-2.56 15.338667-3.157333 23.168-1.301333 21.098667 0.234667 58.730667 6.4 89.642666 21.781333-7.381333 30.442667-11.584 42.432-17.834666-4.629333-23.765333-7.552-48.277333-6.272-68.416 0.618667-7.893333 1.856-15.402667 3.349333-22.741334zM611.114667 412.821333c-8.917333 21.269333-20.906667 39.445333-33.621334 56.917334a450.709333 450.709333 0 0 1-42.133333 48.490666 449.066667 449.066667 0 0 1-48.448 42.197334c-17.450667 12.714667-35.648 24.682667-56.96 33.578666 8.853333-21.290667 20.864-39.530667 33.578667-56.981333a440.256 440.256 0 0 1 42.176-48.448 457.685333 457.685333 0 0 1 48.469333-42.133333c17.536-12.714667 35.690667-24.746667 56.938667-33.621334zM346.837333 457.322667c-3.669333-0.192-7.210667-0.085333-10.944-0.448-34.197333-4.096-77.781333-8.896-119.552-48.832-2.517333 2.794667-5.077333 5.461333-7.488 8.490666-6.634667 8.832-13.013333 18.261333-18.944 28.544l5.034667 3.328c54.229333 35.989333 98.666667 45.994667 131.946667 50.325334 5.76-15.445333 12.544-28.970667 19.946666-41.408zM566.293333 687.232c-0.384-3.712-24.981333 13.098667-40.426666 18.986667 4.373333 33.258667 13.034667 67.968 48.874666 122.005333l3.328 5.034667c10.218667-5.994667 19.712-12.330667 28.501334-19.008 3.306667-2.581333 6.250667-5.354667 9.28-8.106667-24.362667-38.314667-39.786667-74.688-45.653334-106.026667a40.213333 40.213333 0 0 1-3.904-12.885333z" fill="#C0CA33" /><path d="M704 490.666667a169.813333 169.813333 0 0 1-33.941333 19.754666c-1.834667 33.877333-10.858667 63.68-25.706667 90.261334a207.786667 207.786667 0 0 1-65.898667 71.274666c-29.866667 19.413333-65.066667 35.84-119.018666 41.813334-0.234667-0.469333-0.384-0.938667-0.618667-1.386667-0.256 0-0.469333 0.085333-0.725333 0.085333-22.101333-47.168-26.773333-84.629333-26.218667-119.210666-18.602667 0.213333-38.08-1.237333-59.434667-5.952l-2.773333-0.64a268.949333 268.949333 0 0 1-14.506667-3.904c-1.578667-0.448-3.157333-0.96-4.757333-1.429334a283.392 283.392 0 0 1-14.016-4.885333c-1.728-0.64-3.413333-1.258667-5.184-1.962667-6.4-2.538667-12.928-5.333333-19.712-8.576 5.994667-53.930667 22.442667-89.130667 41.792-119.018666a208.128 208.128 0 0 1 71.274667-65.898667c25.344-14.122667 53.674667-22.826667 85.525333-25.237333 5.44-13.077333 12.8-25.301333 23.253333-35.754667a253.525333 253.525333 0 0 1-63.573333-1.194667 246.4 246.4 0 0 0-65.941333 24.832c-91.818667 56.853333-144.896 170.410667-125.76 249.408 29.248 29.269333 75.434667 38.698667 112.896 41.642667 3.392 37.888 13.525333 84.778667 42.816 114.069333 72.661333 25.450667 190.997333-35.498667 247.893333-127.296 11.008-19.690667 18.837333-40.618667 24.106667-62.570666A255.232 255.232 0 0 1 704 490.666667z" fill="#C0CA33" /><path d="M431.786667 769.344c0-16.213333 2.346667-31.808 6.634666-46.485333a200.789333 200.789333 0 0 1-37.077333 16.234666c-20.992 6.250667-43.776 10.752-71.061333 10.752-15.488 0-32.426667-1.450667-51.306667-4.864-9.386667-52.138667-3.861333-89.386667 5.909333-122.389333 3.413333-10.730667 7.722667-20.522667 12.458667-29.930667-6.357333 0.789333-12.8 1.344-19.392 1.344-9.194667 0-18.154667-0.853333-26.858667-2.368-2.410667 5.952-4.906667 11.861333-6.890666 18.069334-9.685333 32.64-18.986667 77.568-7.232 142.848l5.248 29.162666 29.184 5.269334c20.650667 3.712 39.893333 5.525333 58.858666 5.525333 28.074667 0 54.528-3.989333 83.221334-12.522667 6.357333-2.026667 12.394667-4.565333 18.453333-7.018666-0.021333-1.216-0.149333-2.410667-0.149333-3.626667z" fill="#C0CA33" /><path d="M789.333333 725.312S688.896 626.602667 704 490.666667c-85.333333 64-192 21.333333-192 21.333333s-42.666667-128 21.333333-192c-135.914667 15.082667-234.666667-85.354667-234.666666-85.354667 150.997333-150.976 345.173333-121.365333 478.634666 12.053334 133.397333 133.418667 163.008 327.616 12.032 478.613333z" fill="#7CB342" /><path d="M792.128 261.568l-29.717333-29.717333C810.666667 170.666667 893.034667 170.645333 896 170.645333v42.005334c-0.448 0-64 0.682667-103.872 48.917333z" fill="#689F38" /><path d="M777.301333 246.698667c-1.173333 44.181333-12.650667 77.994667-27.221333 108.693333-14.762667 30.528-34.197333 56.426667-56.682667 79.189333-22.677333 22.656-48.533333 42.048-79.061333 56.853334-30.72 14.634667-58.026667 19.584-102.336 20.565333 1.002667-44.330667 5.909333-71.637333 20.544-102.314667 14.805333-30.485333 34.218667-56.384 56.853333-79.04 22.762667-22.528 48.661333-41.941333 79.189334-56.704 30.656-14.613333 64.490667-26.090667 108.714666-27.242666zM298.666667 234.645333c30.549333-36.949333 68.117333-56.448 108.714666-75.968 40.853333-19.008 81.152-25.045333 127.317334-29.248 46.037333-4.16 94.869333 0.192 140.544 18.368 45.12 17.877333 87.509333 52.672 102.037333 98.901334-45.674667-14.208-82.794667-11.52-120.362667-12.053334-37.269333-0.490667-358.250667 0-358.250666 0zM789.333333 725.312s0.448-321.002667 0-358.293333c-0.533333-37.546667 2.176-74.666667-12.032-120.32 46.208 14.528 81.002667 56.874667 98.88 102.016 18.218667 45.696 22.570667 94.506667 18.368 140.544-4.202667 46.208-13.909333 94.613333-32.96 135.466666-19.456 40.618667-35.306667 70.016-72.256 100.586667z" fill="#689F38" /></svg>