<?xml version="1.0" encoding="utf-8"?>
<!-- Uploaded to: SVG Repo, www.svgrepo.com, Generator: SVG Repo Mixer Tools -->
<svg width="800px" height="800px" viewBox="0 0 1024 1024" class="icon"  version="1.1" xmlns="http://www.w3.org/2000/svg"><path d="M255.575502 255.557714a362.666667 448 45.001 1 0 512.879167 512.89707 362.666667 448 45.001 1 0-512.879167-512.89707Z" fill="#795548" /><path d="M597.141333 147.093333c80.576 0 150.250667 27.072 201.472 78.293334 124.778667 124.778667 97.685333 354.858667-60.352 512.917333-88.106667 88.106667-201.6 138.624-311.381333 138.624-80.597333 0-150.272-27.072-201.514667-78.293333-59.2-59.221333-86.293333-144.277333-76.266666-239.488 10.389333-98.602667 58.901333-195.690667 136.64-273.408 88.085333-88.106667 201.6-138.645333 311.402666-138.645334" fill="#8BC34A" /><path d="M252.693333 681.386667a42.453333 42.453333 0 0 1 18.24-57.450667c21.12-10.88 119.530667-27.2 119.530667-27.2s-59.477333 92.373333-80.448 103.082667a42.666667 42.666667 0 0 1-49.621333-7.701334 39.232 39.232 0 0 1-7.701334-10.730666z m75.584 36.672c10.538667-21.12 97.408-85.482667 97.408-85.482667s-10.688 103.125333-21.397333 124.074667a42.602667 42.602667 0 0 1-57.472 18.581333l0.149333 0.128a42.453333 42.453333 0 0 1-18.688-57.301333z m-101.226666-163.968a42.88 42.88 0 0 1 45.098666-40.298667c23.552 1.216 104.192 32.64 104.192 32.64s-85.482667 53.952-109.162666 52.608a42.069333 42.069333 0 0 1-27.605334-12.522667 42.581333 42.581333 0 0 1-12.522666-32.426666z m202.133333 206.357333c-1.514667-23.552 55.488-112.618667 55.488-112.618667s28.224 84.074667 29.610667 107.477334a42.816 42.816 0 0 1-40.128 45.248 43.264 43.264 0 0 1-32.725334-12.522667 41.92 41.92 0 0 1-12.245333-27.584z m-169.856-327.061333a42.56 42.56 0 0 1 57.024-19.605334c21.269333 10.112 69.781333 74.453333 69.781333 74.453334s-85.781333 12.416-107.050666 2.304a42.709333 42.709333 0 0 1-19.754667-57.152z m278.314667 315.136c-10.410667-21.269333 2.261333-112.298667 2.261333-112.298667s64.256 53.632 74.496 74.752a42.922667 42.922667 0 0 1-19.754667 57.152 43.029333 43.029333 0 0 1-48.874666-8.128 44.970667 44.970667 0 0 1-8.128-11.477333z m-207.104-414.698667a42.666667 42.666667 0 0 1 60.330666 0c16.576 16.576 33.984 94.336 33.984 94.336s-77.589333-17.258667-94.314666-33.984a42.666667 42.666667 0 0 1 0-60.352z m266.944 263.68s80.597333 21.461333 97.344 38.208a42.666667 42.666667 0 0 1 0 60.330667l-0.448 0.448-0.32 0.32a42.666667 42.666667 0 0 1-60.330667 0c-16.576-16.618667-36.245333-99.306667-36.245333-99.306667z m-187.306667-277.845333a42.730667 42.730667 0 0 1 19.776-57.173334 42.56 42.56 0 0 1 57.024 19.605334c10.261333 21.098667-3.690667 106.005333-3.690667 106.005333s-65.578667-49.578667-73.109333-68.437333z m335.957333 219.797333a42.453333 42.453333 0 0 1 19.754667 56.874667 42.965333 42.965333 0 0 1-57.024 19.904c-22.442667-10.901333-72.064-77.696-72.064-77.696s88.064-9.493333 109.333333 0.917333zM510.336 275.029333a42.56 42.56 0 0 1 39.829333-45.248l0.149334 0.149334a42.368 42.368 0 0 1 45.098666 39.978666c1.344 23.36-49.514667 106.389333-49.514666 106.389334s-34.965333-90.432-35.562667-101.269334z m137.344 203.861334s86.528-49.408 110.037333-48.192a42.730667 42.730667 0 0 1 40.128 44.906666c-1.216 23.552-22.464 38.570667-44.8 40.298667-22.314667 1.770667-105.365333-37.013333-105.365333-37.013333z m-27.370667-205.546667a42.666667 42.666667 0 0 1 76.032 38.613333c-10.538667 21.12-98.517333 74.666667-98.517333 74.666667s13.888-96.234667 22.485333-113.28z m94.421334 56.725333a42.730667 42.730667 0 0 1 57.472 18.261334 42.816 42.816 0 0 1-18.389334 57.621333c-16.896 8.725333-123.541333 16.213333-123.541333 16.213333s63.36-81.258667 84.458667-92.096z" fill="#689F38" /><path d="M646.314667 647.082667c9.088-9.066667 9.088-22.592 0.746666-30.912-4.864-4.714667-26.005333-13.504-51.754666-21.952 7.872 26.24 16.213333 47.893333 20.885333 52.906666a21.290667 21.290667 0 0 0 30.122667-0.042666zM461.162667 718.272c4.309333 4.309333 10.368 6.634667 16.597333 6.293333a21.312 21.312 0 0 0 19.904-22.698666c-0.533333-8.682667-6.890667-32.448-14.378667-57.322667-15.424 27.114667-27.626667 52.096-28.096 60.394667 0.298667 4.970667 2.346667 9.706667 5.973334 13.333333zM569.770667 705.002667c10.368-5.056 14.784-18.005333 9.685333-28.714667-0.448-0.917333-3.818667-6.976-20.181333-23.36a591.658667 591.658667 0 0 0-18.325334-17.472c-2.325333 28.906667-2.432 53.376 0.256 59.968 1.002667 2.005333 2.410667 4.053333 3.989334 5.632 6.357333 6.336 16.213333 7.936 24.576 3.946667zM696.554667 540.074667c-6.4-2.773333-30.229333-3.392-58.496-1.984 7.872 9.450667 16.64 19.498667 24.746666 27.605333 10.090667 10.090667 14.378667 12.416 15.146667 12.778667a21.589333 21.589333 0 0 0 28.501333-10.026667 21.184 21.184 0 0 0-9.898666-28.373333zM429.738667 627.84c-25.536 20.650667-47.104 39.893333-51.029334 46.954667a21.12 21.12 0 0 0 9.216 28.629333l0.021334-0.064a21.248 21.248 0 0 0 28.757333-9.28c3.584-7.082667 8.618667-34.645333 13.034667-66.24zM690.048 415.253333c10.176-5.226667 14.272-18.218667 8.874667-28.8a21.461333 21.461333 0 0 0-28.629334-9.066666c-6.890667 3.712-25.706667 23.765333-46.016 47.637333 31.509333-3.136 58.922667-6.869333 65.770667-9.770667zM699.050667 496.789333c11.925333-0.917333 24.405333-8.149333 25.024-20.096a21.482667 21.482667 0 0 0-20.053334-22.570666c-7.893333 0.256-32.896 11.114667-60.032 24.917333 25.045333 10.176 47.722667 17.92 55.061334 17.749333zM326.144 644.757333c6.464 6.464 16.618667 8.042667 24.746667 3.84 6.976-4.224 25.024-27.093333 44.117333-53.994666-30.208 6.016-56.256 12.245333-63.658667 16.064a20.864 20.864 0 0 0-10.453333 12.224c-1.728 5.461333-1.237333 11.306667 1.429333 16.490666a19.562667 19.562667 0 0 0 3.818667 5.376zM378.794667 411.477333c4.842667 4.608 25.088 12.330667 49.6 19.456-7.125333-24.533333-14.869333-44.821333-19.434667-49.642666a21.333333 21.333333 0 0 0-30.165333 30.186666zM333.376 491.392c5.930667 2.368 29.077333 2.197333 56.490667-0.170667a411.178667 411.178667 0 0 0-23.253334-25.728c-10.325333-10.325333-14.464-12.458667-14.890666-12.672a21.290667 21.290667 0 0 0-28.672 9.685334c-3.968 8.213333-2.325333 18.069333 4.032 24.469333 1.6 1.6 3.712 3.072 6.293333 4.416zM597.610667 385.749333c25.344-17.216 46.848-33.749333 51.029333-40.661333a21.12 21.12 0 0 0-9.450667-28.544 21.333333 21.333333 0 0 0-28.629333 9.408c-2.858667 6.058667-7.978667 30.954667-12.949333 59.797333zM445.376 352.277333l0.362667 0.704 0.298666 0.725334c0.042667 0.042667 2.026667 3.669333 10.901334 12.522666 7.616 7.616 17.194667 16.021333 26.218666 23.573334 2.752-27.072 3.2-50.154667 0.618667-56.554667a21.76 21.76 0 0 0-4.010667-5.589333 20.992 20.992 0 0 0-24.256-4.074667 21.482667 21.482667 0 0 0-10.133333 28.693333zM544.64 377.130667c13.44-25.002667 23.936-47.893333 24.256-55.701334a21.12 21.12 0 0 0-22.442667-19.584l-2.773333 0.170667a21.056 21.056 0 0 0-12.032 6.848 21.098667 21.098667 0 0 0-5.290667 14.826667c1.258667 6.08 8.96 28.053333 18.282667 53.44zM325.269333 530.090667a21.589333 21.589333 0 0 0-22.677333 20.181333 21.269333 21.269333 0 0 0 6.293333 16.149333 20.48 20.48 0 0 0 13.696 6.293334c7.957333-0.384 32.234667-12.032 58.538667-26.730667-24.064-8.341333-47.253333-15.466667-55.850667-15.893333z" fill="#5D4037" /><path d="M426.566615 426.515787a120.896 149.333333 45.001 1 0 170.969779 170.975747 120.896 149.333333 45.001 1 0-170.969779-170.975747Z" fill="#E6EE9C" /></svg>