<?xml version="1.0" encoding="utf-8"?>
<!-- Uploaded to: SVG Repo, www.svgrepo.com, Generator: SVG Repo Mixer Tools -->
<svg width="800px" height="800px" viewBox="0 0 1024 1024" class="icon"  version="1.1" xmlns="http://www.w3.org/2000/svg"><path d="M651.434667 645.994667c-21.888 0-39.424-5.290667-52.928-15.829334C581.909333 617.258667 576 599.189333 576 586.666667h64c0-3.626667-0.704-5.952-2.154667-6.954667 0.106667 0.085333 10.602667 6.506667 47.701334-2.752C749.824 560.874667 810.666667 420.288 810.666667 373.333333c0-31.253333-5.44-43.157333-9.984-47.701333-3.84-3.797333-10.218667-5.781333-21.76-5.589333-53.098667 0-109.952 36.885333-110.528 37.269333l-35.498667-53.226667c2.944-1.962667 72.896-48.042667 145.749333-48.042666h1.216c27.456 0 49.685333 8.128 65.877334 24.149333C871.658667 305.877333 874.666667 345.664 874.666667 373.333333c0 64.149333-69.162667 239.573333-173.568 265.664-18.581333 4.672-35.093333 6.997333-49.664 6.997334z" fill="#90CAF9" /><path d="M704 490.688C671.061333 254.506667 704 192.064 704 170.730667c0 0-21.333333-21.397333-170.666667-0.064-147.84 21.12-213.333333-64-298.666666-64S149.333333 149.397333 149.333333 149.397333c64 63.978667 100.074667 88.853333 64 341.290667C170.666667 789.290667 320 896 320 896c22.997333 24.661333 42.666667 21.333333 42.666667 21.333333h192s16.661333 3.328 42.666666-21.333333c0 0 148.437333-105.834667 106.666667-405.312z" fill="#90CAF9" /><path d="M335.978667 853.418667h245.44c28.138667-27.093333 112.128-128.853333 80.341333-356.842667A1572.48 1572.48 0 0 1 648.426667 362.666667H269.376c-1.749333 37.034667-6.208 80.853333-13.802667 134.058666-32.426667 226.901333 51.712 329.109333 80.405334 356.693334z" fill="#FAFAFA" /></svg>