<?xml version="1.0" encoding="utf-8"?>
<!-- Uploaded to: SVG Repo, www.svgrepo.com, Generator: SVG Repo Mixer Tools -->
<svg width="800px" height="800px" viewBox="0 0 1024 1024" class="icon"  version="1.1" xmlns="http://www.w3.org/2000/svg"><path d="M554.666667 192l-42.666667-106.666667-42.666667 106.666667s0-21.333333-85.333333-64l21.333333 128 106.666667 21.333333 106.666667-21.333333 21.333333-128c-85.333333 42.666667-85.333333 64-85.333333 64z" fill="#FF5252" /><path d="M131.221333 586.666667a380.778667 330.666667 0 1 0 761.557334 0 380.778667 330.666667 0 1 0-761.557334 0Z" fill="#FFECB3" /><path d="M501.333333 403.84c0-17.706667-14.293333-32-32-32h-1.706666c1.28-4.266667 1.493333-9.173333 0.64-13.866667a32.213333 32.213333 0 0 0-37.12-26.026666c-0.426667 0.213333-0.64 0.213333-1.066667 0.213333-17.066667 3.2-28.373333 19.2-25.813333 36.266667a31.978667 31.978667 0 0 0-41.813334-15.36c-16 7.04-23.253333 25.386667-16.64 41.386666-11.093333-13.226667-30.72-15.36-44.373333-4.693333-13.866667 10.88-16.213333 30.506667-5.76 44.373333a32 32 0 1 0-38.186667 51.413334c-16.426667-5.76-34.56 2.986667-40.533333 19.413333-5.973333 16.426667 2.56 34.56 18.773333 40.746667-17.28-0.448-32 13.226667-32.853333 30.698666a32 32 0 0 0 29.866667 33.301334 32 32 0 0 0 15.36 62.101333c-14.933333 9.173333-19.626667 28.586667-10.666667 43.733333 8.96 14.933333 28.373333 19.84 43.306667 11.285334a32 32 0 1 0 46.506666 43.968c-7.68 15.36-1.92 34.133333 13.226667 42.453333 15.146667 8.512 34.346667 3.178667 42.88-11.754667-3.84 16.64 6.186667 33.706667 22.826667 38.186667 2.773333 0.853333 5.546667 1.088 8.32 1.088a31.893333 31.893333 0 0 0 32-31.36c2.773333 2.154667 5.76 3.861333 9.173333 4.906667 16.853333 5.76 34.986667-3.2 40.746667-19.84 5.76-16.853333-3.2-35.008-20.053334-40.533334a19.072 19.072 0 0 0-3.413333-1.066666c16-1.706667 28.373333-15.381333 28.373333-31.786667 0-16.213333-12.16-29.653333-27.733333-31.786667a31.978667 31.978667 0 0 0 0.213333-63.338666 31.936 31.936 0 1 0-0.213333-63.338667 32.213333 32.213333 0 0 0 27.733333-31.786667c0-16.213333-12.16-29.653333-27.946666-31.573333 15.786667-2.133333 27.946667-15.573333 27.946666-31.786667s-12.16-29.653333-27.946666-31.786666a32 32 0 0 0 27.946666-31.850667zM791.253333 609.706667c17.28-1.301333 30.506667-16 29.866667-33.301334-0.853333-17.706667-15.573333-31.36-33.088-30.698666 16.448-5.973333 24.96-24.32 19.008-40.746667a32.042667 32.042667 0 0 0-40.533333-19.413333c13.653333-10.666667 16.448-30.293333 6.186666-44.373334-10.453333-14.08-30.08-17.066667-44.16-7.253333 10.24-13.866667 7.68-33.28-5.952-44.16-13.674667-10.666667-33.301333-8.533333-44.373333 4.693333 6.613333-15.786667-0.64-34.346667-16.64-41.386666-15.786667-7.04-34.346667-0.213333-41.813333 15.36a32 32 0 0 0-25.813334-36.266667h-0.448c-0.213333 0-0.426667 0-0.832-0.213333-17.301333-2.986667-33.941333 8.533333-36.906666 26.026666-0.853333 4.906667-0.64 9.6 0.64 14.08-0.64-0.213333-1.066667-0.213333-1.706667-0.213333-17.706667 0-32 14.293333-32 32 0 16.426667 12.138667 29.866667 27.946667 31.786667a32.042667 32.042667 0 0 0 0 63.573333c-15.786667 1.92-27.946667 15.36-27.946667 31.573333s11.946667 29.653333 27.733333 31.786667c-15.786667 2.133333-27.733333 15.36-27.733333 31.552s11.946667 29.674667 27.52 31.786667a32 32 0 0 0-27.52 31.786666c0 16.213333 11.946667 29.653333 27.733333 31.552-15.786667 2.154667-27.733333 15.573333-27.733333 31.786667 0 16.426667 12.373333 30.08 28.373333 31.786667a19.072 19.072 0 0 0-3.413333 1.066666 31.786667 31.786667 0 0 0-20.053333 40.533334 32.362667 32.362667 0 0 0 40.746666 20.032c3.413333-1.28 6.4-2.986667 9.173334-5.12a31.786667 31.786667 0 0 0 40.128 30.272 32 32 0 0 0 23.04-38.186667c8.725333 14.933333 27.733333 20.266667 42.88 11.754667 15.146667-8.341333 20.885333-27.306667 12.992-42.666667 12.16 12.373333 32 12.8 44.821333 0.853333 12.586667-11.968 13.44-32 1.706667-44.821333 15.146667 8.746667 34.325333 3.861333 43.285333-11.093333 9.194667-15.146667 4.266667-34.56-10.432-43.733334 16.853333 4.032 34.133333-6.421333 38.4-23.488s-6.229333-34.24-23.082667-38.506666z" fill="#FF1744" /><path d="M384 128l21.333333 128 42.666667 21.333333c1.386667-33.322667-64-149.333333-64-149.333333zM640 128s-65.386667 116.010667-64 149.333333l42.666667-21.333333 21.333333-128z" fill="#D50000" /><path d="M587.925333 241.6L576 277.333333v5.12c169.493333 25.898667 298.666667 152.298667 298.666667 304.213334 0 145.493333-118.250667 268.48-277.312 300.693333C554.666667 896 510.229333 850.56 510.229333 850.56S469.333333 896 426.645333 887.36C267.584 855.146667 149.333333 732.16 149.333333 586.666667c0-151.914667 129.173333-278.314667 298.666667-304.213334V277.333333l-17.365333-34.752C245.888 275.349333 106.666667 416.533333 106.666667 586.666667 106.666667 781.077333 288.149333 938.666667 512 938.666667s405.333333-157.589333 405.333333-352c0-171.797333-141.973333-314.133333-329.408-345.066667z" fill="#D50000" /><path d="M469.333333 256m-21.333333 0a21.333333 21.333333 0 1 0 42.666667 0 21.333333 21.333333 0 1 0-42.666667 0Z" fill="#D50000" /><path d="M512 256m-21.333333 0a21.333333 21.333333 0 1 0 42.666666 0 21.333333 21.333333 0 1 0-42.666666 0Z" fill="#D50000" /><path d="M554.666667 256m-21.333334 0a21.333333 21.333333 0 1 0 42.666667 0 21.333333 21.333333 0 1 0-42.666667 0Z" fill="#D50000" /><path d="M490.666667 213.333333m-21.333334 0a21.333333 21.333333 0 1 0 42.666667 0 21.333333 21.333333 0 1 0-42.666667 0Z" fill="#D50000" /><path d="M533.333333 213.333333m-21.333333 0a21.333333 21.333333 0 1 0 42.666667 0 21.333333 21.333333 0 1 0-42.666667 0Z" fill="#D50000" /><path d="M394.666667 458.666667m-32 0a32 32 0 1 0 64 0 32 32 0 1 0-64 0Z" fill="#D50000" /><path d="M309.333333 522.666667m-32 0a32 32 0 1 0 64 0 32 32 0 1 0-64 0Z" fill="#D50000" /><path d="M394.666667 586.666667m-32 0a32 32 0 1 0 64 0 32 32 0 1 0-64 0Z" fill="#D50000" /><path d="M394.666667 714.666667m-32 0a32 32 0 1 0 64 0 32 32 0 1 0-64 0Z" fill="#D50000" /><path d="M309.333333 650.666667m-32 0a32 32 0 1 0 64 0 32 32 0 1 0-64 0Z" fill="#D50000" /><path d="M629.333333 458.666667m-32 0a32 32 0 1 0 64 0 32 32 0 1 0-64 0Z" fill="#D50000" /><path d="M714.666667 522.666667m-32 0a32 32 0 1 0 64 0 32 32 0 1 0-64 0Z" fill="#D50000" /><path d="M629.333333 586.666667m-32 0a32 32 0 1 0 64 0 32 32 0 1 0-64 0Z" fill="#D50000" /><path d="M629.333333 714.666667m-32 0a32 32 0 1 0 64 0 32 32 0 1 0-64 0Z" fill="#D50000" /><path d="M714.666667 650.666667m-32 0a32 32 0 1 0 64 0 32 32 0 1 0-64 0Z" fill="#D50000" /></svg>