<?xml version="1.0" encoding="utf-8"?>
<!-- Uploaded to: SVG Repo, www.svgrepo.com, Generator: SVG Repo Mixer Tools -->
<svg width="800px" height="800px" viewBox="0 0 1024 1024" class="icon"  version="1.1" xmlns="http://www.w3.org/2000/svg"><path d="M207.168 832a57.792 57.792 0 0 1-55.68-43.392c-8.064-31.061333 10.282667-62.848 41.024-71.04 1.194667-0.362667 26.24-7.509333 61.909333-21.482667C159.872 622.997333 128.597333 514.624 128 444.672 130.282667 258.986667 279.978667 192 379.989333 192c40.554667 0 89.109333 11.050667 132.565334 36.288C548.117333 206.016 593.045333 192 648.789333 192c72.576 0 131.605333 22.72 175.466667 67.584 71.04 72.661333 71.872 173.973333 71.744 185.301333 0.042667 4.010667 0.042667 129.194667-93.717333 224.746667-10.090667 10.218667-20.821333 19.797333-32.149334 28.522667 20.181333 6.805333 41.941333 13.290667 65.386667 19.221333 30.869333 7.786667 49.642667 39.36 41.92 70.549333-7.701333 31.168-39.04 50.218667-69.824 42.282667-72.874667-18.389333-132.757333-41.536-181.994667-67.392-34.261333 7.274667-71.381333 10.944-111.210666 10.944-45.098667 0-85.312-4.693333-121.088-13.184-85.994667 46.186667-164.224 67.584-171.456 69.482667-4.906667 1.258667-9.856 1.941333-14.698667 1.941333z m378.794667-238.165333a361.386667 361.386667 0 0 0 55.04 43.541333c134.250667-49.642667 139.690667-175.701333 139.797333-193.173333-0.042667-23.018667-6.549333-135.786667-132.010667-135.786667-19.221333 0-35.712 2.581333-49.856 7.125333 19.029333 34.410667 30.656 76.906667 30.656 128.618667 0 56.853333-16.832 106.581333-43.626666 149.674667z m-206.357334-285.418667c-21.866667 0.277333-134.826667 8.405333-136.426666 136.469333 0.405333 15.893333 7.808 137.493333 135.722666 189.333334a453.845333 453.845333 0 0 0 59.285334-44.266667c-39.338667-71.424-39.658667-132.16-38.997334-147.370667 0.234667-38.442667 9.984-83.669333 31.893334-125.034666a170.026667 170.026667 0 0 0-51.477334-9.130667z" fill="#FF9800" /><path d="M821.632 832c-4.629333 0-9.344-0.618667-13.994667-1.792-406.677333-102.677333-409.834667-354.346667-408.426666-387.605333C399.872 341.226667 466.602667 192 648.789333 192c31.786667 0 57.6 26.090667 57.6 58.24 0 32.085333-25.813333 58.176-57.6 58.176-130.624 0-134.378667 121.834667-134.378666 135.744 0 1.557333-0.064 3.136-0.213334 4.778667-0.298667 6.634667-5.248 185.962667 321.344 268.437333 30.869333 7.786667 49.642667 39.36 41.92 70.549333A57.749333 57.749333 0 0 1 821.632 832z" fill="#FF9800" /><path d="M641.130667 637.290667c33.408 21.888 75.712 42.709333 129.088 60.778666a311.936 311.936 0 0 0 32.085333-28.437333c0.490667-0.512 0.874667-1.002667 1.301333-1.450667-49.578667-15.146667-89.450667-32.490667-121.408-50.730666-12.202667 7.381333-25.706667 14.186667-41.066666 19.84zM431.104 317.546667a3.413333 3.413333 0 0 0-0.384 0.789333c21.077333-40.277333 53.738667-76.885333 100.202667-100.181333a216.96 216.96 0 0 0-18.368 10.154666 263.061333 263.061333 0 0 0-40.469334-18.901333c-35.626667 27.434667-61.653333 62.528-79.530666 99.797333a163.925333 163.925333 0 0 1 38.549333 8.341334zM254.4 696.085333c35.392-13.909333 81.152-34.538667 124.437333-61.866666a237.802667 237.802667 0 0 1-40.213333-21.034667c-42.816 24.448-86.677333 42.538667-117.056 53.738667 10.005333 10.133333 20.928 19.925333 32.832 29.162666zM538.730667 706.538667c28.864-25.664 55.232-54.741333 76.522666-87.530667a339.52 339.52 0 0 1-29.290666-25.194667c1.621333-2.624 3.114667-5.376 4.672-8.042666-49.045333 84.181333-136.234667 144-213.696 183.317333a1107.2 1107.2 0 0 0 16.405333-8.533333 484.48 484.48 0 0 0 58.986667 9.962666c40.384 2.858667 59.690667 6.144 111.936 1.066667a492.8 492.8 0 0 0 61.397333-8.768c6.208 3.242667 12.629333 6.442667 19.2 9.642667-42.282667-20.373333-77.162667-42.752-106.133333-65.92zM614.997333 353.173333a233.258667 233.258667 0 0 0-16.064-37.632c1.045333-0.341333 2.304-0.448 3.392-0.768l-1.130666-2.432c-3.456 1.578667-85.098667 39.850667-104.448 135.168-11.925333 58.666667-61.354667 95.808-75.754667 105.536 4.757333 11.904 10.176 24.149333 17.216 36.906667-0.277333 0.256-0.576 0.448-0.853333 0.682667l1.088 1.877333c3.349333-1.962667 82.282667-48.96 100.096-136.512 12.992-63.829333 61.973333-94.912 76.458666-102.826667z" fill="#D66100" /><path d="M214.464 490.709333A21.333333 21.333333 0 1 1 212.074667 533.333333C200.32 532.672 170.666667 509.653333 170.666667 509.653333s32-19.605333 43.797333-18.944zM853.333333 426.666667a21.333333 21.333333 0 1 1-42.666666 0c0-11.797333 21.333333-42.666667 21.333333-42.666667s21.333333 30.869333 21.333333 42.666667zM274.944 282.368a21.333333 21.333333 0 0 1-37.866667-19.626667c5.418667-10.474667 38.570667-28.074667 38.570667-28.074666s4.736 37.248-0.704 47.701333zM669.824 267.626667a21.333333 21.333333 0 0 1-31.424-28.864c7.957333-8.661333 44.586667-16.981333 44.586667-16.981334s-5.205333 37.162667-13.162667 45.845334zM799.338667 287.658667a21.269333 21.269333 0 0 1 21.973333 20.672c0.384 11.776-8.853333 21.632-20.650667 21.994666s-43.328-19.989333-43.328-19.989333 30.208-22.293333 42.005334-22.677333zM468.650667 362.666667a21.312 21.312 0 0 1 21.994666 20.672A21.333333 21.333333 0 0 1 469.994667 405.333333c-11.797333 0.362667-43.328-19.989333-43.328-19.989333s30.208-22.293333 41.984-22.677333zM426.709333 446.250667a21.333333 21.333333 0 1 1 42.496 3.84c-1.066667 11.733333-25.088 40.576-25.088 40.576s-18.474667-32.682667-17.408-44.416zM340.672 234.666667a21.312 21.312 0 0 1 21.994667 20.672A21.333333 21.333333 0 0 1 342.016 277.333333c-11.776 0.362667-43.306667-20.010667-43.306667-20.010666s30.186667-22.272 41.962667-22.656zM816.170667 575.509333a21.333333 21.333333 0 1 1-9.066667-41.664c11.52-2.517333 46.229333 11.733333 46.229333 11.733334s-25.621333 27.413333-37.162666 29.930666zM537.877333 319.509333a21.312 21.312 0 1 1-9.066666-41.664c11.52-2.496 46.250667 11.754667 46.250666 11.754667s-25.642667 27.392-37.184 29.909333zM197.504 383.296a21.312 21.312 0 1 1-9.066667-41.664c11.52-2.496 46.229333 11.733333 46.229334 11.733333s-25.621333 27.434667-37.162667 29.930667zM725.312 255.125333A21.376 21.376 0 0 1 704.896 277.333333 21.376 21.376 0 0 1 682.666667 256.917333c-0.469333-11.818667 19.541333-43.541333 19.541333-43.541333s22.613333 29.930667 23.104 41.749333z" fill="#FFF9C4" /></svg>