<?xml version="1.0" encoding="utf-8"?>
<!-- Uploaded to: SVG Repo, www.svgrepo.com, Generator: SVG Repo Mixer Tools -->
<svg width="800px" height="800px" viewBox="0 0 1024 1024" class="icon"  version="1.1" xmlns="http://www.w3.org/2000/svg"><path d="M85.333333 938.666667s8.533333-19.2 25.6-49.066667c8.533333-14.933333 17.066667-32 29.866667-53.333333l19.2-32c4.266667-6.4 8.533333-10.666667 12.8-14.933334 4.266667-4.266667 10.666667-8.533333 14.933333-14.933333 81.066667-81.066667 185.6-187.733333 292.266667-294.4s213.333333-213.333333 292.266667-294.4l14.933333-14.933333c4.266667-6.4 8.533333-10.666667 14.933333-12.8l32-19.2c21.333333-12.8 38.4-21.333333 53.333334-29.866667C921.6 93.866667 938.666667 85.333333 938.666667 85.333333s-8.533333 17.066667-25.6 49.066667c-8.533333 14.933333-17.066667 32-29.866667 53.333333l-19.2 32c-2.133333 6.4-8.533333 10.666667-12.8 14.933334-4.266667 4.266667-10.666667 8.533333-14.933333 14.933333-81.066667 81.066667-185.6 187.733333-292.266667 294.4s-213.333333 213.333333-292.266667 294.4l-14.933333 14.933333c-4.266667 6.4-8.533333 10.666667-14.933333 12.8l-32 19.2c-19.2 12.8-38.4 21.333333-53.333334 29.866667C104.533333 930.133333 85.333333 938.666667 85.333333 938.666667z" fill="#8D6E63" /><path d="M149.333333 554.666667l106.666667-149.333334 320 320-170.666667 192z" fill="#FFD54F" /><path d="M256 544c0-17.066667 14.933333-32 32-32s32 14.933333 32 32-14.933333 32-32 32-32-14.933333-32-32z m42.666667 117.333333c12.8 0 21.333333-8.533333 21.333333-21.333333s-8.533333-21.333333-21.333333-21.333333-21.333333 8.533333-21.333334 21.333333 8.533333 21.333333 21.333334 21.333333z" fill="#FFB300" /><path d="M478.37913 545.625767a228.266667 198.4 44.999 1 0 280.575074-280.584868 228.266667 198.4 44.999 1 0-280.575074 280.584868Z" fill="#9E9D24" /><path d="M478.921091 353.080436a42.666667 61.866667 44.999 1 0 87.491152-87.494206 42.666667 61.866667 44.999 1 0-87.491152 87.494206Z" fill="#C0CA33" /></svg>