<?xml version="1.0" encoding="utf-8"?>
<!-- Uploaded to: SVG Repo, www.svgrepo.com, Generator: SVG Repo Mixer Tools -->
<svg width="800px" height="800px" viewBox="0 0 1024 1024" class="icon"  version="1.1" xmlns="http://www.w3.org/2000/svg"><path d="M121.941333 763.136c177.002667 177.066667 464 177.066667 640.981334 0.021333 177.002667-177.088 177.002667-464.170667 0-641.258666h-0.021334L121.941333 763.136z" fill="#E6EE9C" /><path d="M701.845333 702.08c143.296-143.36 143.296-375.744 0-519.082667L182.976 702.08c143.296 143.36 375.616 143.36 518.869333 0z" fill="#FF1744" /><path d="M633.194667 585.728a32.405333 32.405333 0 0 1-45.781334 45.781333c-12.650667-12.650667-22.912-68.714667-22.912-68.714666s56.042667 10.261333 68.693334 22.933333zM675.285333 470.442667a32.384 32.384 0 0 1-11.285333 63.744c-17.6-3.093333-66.090667-44.544-66.090667-44.544s59.797333-22.336 77.376-19.2zM666.410667 348.928a32.341333 32.341333 0 0 1 37.077333 26.816 32.298667 32.298667 0 0 1-26.816 37.098667c-17.642667 2.837333-75.733333-20.586667-75.733333-20.586667s47.829333-40.512 65.472-43.328zM472.554667 673.258667a32.405333 32.405333 0 0 0 37.504 26.282666 32.384 32.384 0 0 0 26.218666-37.568c-3.114667-17.6-44.544-66.090667-44.544-66.090666s-22.293333 59.776-19.178666 77.376zM349.226667 664.384a32.384 32.384 0 0 0 63.914666 10.282667c2.837333-17.621333-20.586667-75.776-20.586666-75.776s-40.490667 47.829333-43.328 65.493333z" fill="#5D4037" /><path d="M442.432 917.333333C320.832 917.333333 199.253333 871.018667 106.666667 778.389333l30.528-30.506666c168.32 168.341333 442.133333 168.362667 610.474666 0.021333 81.578667-81.642667 126.549333-190.101333 126.528-305.344a429.013333 429.013333 0 0 0-126.549333-305.365333L778.154667 106.666667A471.893333 471.893333 0 0 1 917.333333 442.56c0.042667 126.784-49.408 246.101333-139.157333 335.872C685.632 871.018667 564.010667 917.333333 442.432 917.333333z" fill="#558B2F" /></svg>