<?xml version="1.0" encoding="utf-8"?><!-- Uploaded to: SVG Repo, www.svgrepo.com, Generator: SVG Repo Mixer Tools -->
<svg fill="#000000" width="800px" height="800px" viewBox="0 -16.05 112 112" xmlns="http://www.w3.org/2000/svg">
  <path id="_0602-avocado" data-name="0602-avocado" d="M346.789,1176.236a36.284,36.284,0,0,1-11.729-1.955c-1.6-.68-3.141-1.422-4.644-2.2-1.205-.995-2.88-1.518-3.91-2.689a13.349,13.349,0,0,1-3.909-2.932,8.642,8.642,0,0,1-3.666-2.932c-1.571-.71-2.108-2.453-3.665-3.177-1.06-1.139-2.031-2.367-3.177-3.42-.455-1.338-1.482-2.1-1.956-3.422a18.259,18.259,0,0,1-1.711-3.421,38.531,38.531,0,0,1-2.2-8.309V1132c.412-1.216.253-3.005.733-4.153a6.214,6.214,0,0,1,.49-1.954,3.241,3.241,0,0,1,.488-1.712c.652-2.933,2.224-4.945,3.177-7.575.476-.229.687-.815.978-1.221.254-.356.742-.684.733-1.222a7.761,7.761,0,0,0,1.711-2.443,85.928,85.928,0,0,1,6.842-6.109c1.957-2.362,4.7-3.937,7.331-5.62,1.867-.822,4.214-1.162,6.109-1.955a23.537,23.537,0,0,1,6.6-1.467c.284.041.436-.053.49-.244h7.819c4.827.468,8.8,1.79,12.952,2.932a25.794,25.794,0,0,0,5.865,2.2c1.674.933,3.9,1.317,5.62,2.2,4.356.857,8.736,1.692,13.2,2.443,9.323.127,18.6.3,24.438,3.911-.045.208.095.23.244.244a7.556,7.556,0,0,1,2.2,3.176,21.526,21.526,0,0,1,2.2,3.177c.642,4.081,2.149,7.3,1.71,12.462-.483,2.451-1.528,4.337-2.2,6.6-.679.135-.684.944-.977,1.464a42.743,42.743,0,0,1-4.643,4.887,11.747,11.747,0,0,1-2.688,1.957c-.763.785-1.972,1.123-2.688,1.956-3.933,1.524-7.789,3.125-11.485,4.886-2.413,1.253-4.258,3.073-6.354,4.643a17.625,17.625,0,0,0-2.933,4.4c-1.365,1-2.3,2.425-3.665,3.421-1.174,1.188-2.816,1.908-3.91,3.176a20.268,20.268,0,0,1-3.667,3.422,22.5,22.5,0,0,0-3.665,1.955c-.848.292-1.9.383-2.443.978a5.407,5.407,0,0,0-2.444.732c-1.057,0-1.551.568-2.689.489-.6.455-1.865.253-2.443.734-4.373.108-7.976.985-11.973,1.467Zm9.779-8.3c.92.023,1.839.045,2.2-.5.138-2.043-1.3-6.092.977-6.6,2.922-.071,3.08,2.624,3.421,5.132a23.863,23.863,0,0,0,6.844-3.666c2.345-1.156,4.055-2.949,6.843-3.665a12.619,12.619,0,0,1,3.42-3.911c.319-.74.1-2.015.733-2.443h1.712a19.327,19.327,0,0,1,3.909-3.42c-.048-1.012-1.355-.763-1.222-1.955v-1.467c.2-.027.741-.808.245-.734-.878.589-1.844,1.089-2.687,1.71-.635.1-.738.729-1.467.733-.028.7-1.041.425-.977,1.223.041.69.448,1.018.489,1.71-.478.744-.52,1.923-.977,2.688-.607.616-.923,1.521-2.2,1.466-.487-.246-1.044-.423-1.221-.977-.357-.458-.01-1.619-.49-1.956a14.644,14.644,0,0,1-3.91,2.2c.522,1.589.261,3.611-1.465,3.665-2.188.315-2.232-1.514-3.91-1.71-1.925.926-4.63,1.072-7.088,1.467-5.453.076-10.831.08-14.906-1.222a44.7,44.7,0,0,0-5.132-.245c-.835-.106-2.2-.556-2.932,0-.191,1.088.325,1.467.245,2.443v4.4c.648,1.552-.137,4.536,1.954,4.644.562-.5.089-2.029.247-2.932.362-1.674.277-3.794.487-5.62.607-.616.923-1.521,2.2-1.466.973.249,1.329,1.115,1.71,1.955v4.642c.308,1.323-.715,3.975.733,4.155.909-3-.837-8.658,2.688-9.042a2.046,2.046,0,0,1,1.709.977,39.5,39.5,0,0,1,.491,8.31h2.2c-.183-2.395-.612-4.971,1.954-5.131,2.5.022,2.194,2.855,2.444,5.131l.195,0C356.2,1167.925,356.385,1167.93,356.567,1167.934Zm-26.639-14.179v2.2a42.216,42.216,0,0,0,.977,5.132c.29.77.275,1.843.733,2.443.074.987.09,2.029.977,2.2.627-.806-.036-1.954,0-2.931.411-2.767.228-6.127,1.222-8.31a40.567,40.567,0,0,0-3.91-1.466Zm-11.731,1.955c.793.754.958,2.138,2.2,2.444-.006-2.113-1.112-3.127-2.2-4.154Zm5.621-3.666c.916.877,1.1,2.489,2.2,3.176a23.416,23.416,0,0,1,.245-3.91,10.6,10.6,0,0,0-2.2-1.71C323.629,1150.062,323.884,1151.213,323.819,1152.043Zm26.147-.978h5.62a16.666,16.666,0,0,0,4.888.245c5.481-.872,9.837-2.87,14.174-4.888.678-.868,2.037-1.056,2.686-1.954,1.116-.514,1.64-1.618,2.932-1.955,1.564-1.7,3.917-2.6,5.865-3.911,2.332-.846,4.3-2.056,6.6-2.931,1.628-1.548,4.3-2.053,6.354-3.177a28.5,28.5,0,0,0,6.352-3.177,10.877,10.877,0,0,0,2.932-1.956,3.655,3.655,0,0,0,2.444-2.443c.625-.515.478-1.8.489-2.932.547-.675.507-1.937.489-3.177-.476-.745-.765-1.679-1.222-2.443a6.285,6.285,0,0,1-1.71-2.2c-4.19-.859-7.916-2.186-12.952-2.2-4.777-.354-9.806-.459-14.907-.489-3.057-.771-6.369-1.286-9.041-2.444-2.812-1.1-5.472-2.347-8.308-3.421-5.779-2.123-11.633-4.172-19.795-3.911-.054.192-.2.284-.489.246-4.19.047-7.075,1.4-10.019,2.687a41.472,41.472,0,0,0-13.441,14.663,39.843,39.843,0,0,0-.243,13.685c.453.445.318,1.475.733,1.955a17.2,17.2,0,0,1,.733,1.955c.554,1.239,1.354,2.231,1.955,3.422a30.489,30.489,0,0,0,5.378,5.377c1.51.688,2.9,1.5,4.4,2.2a24.8,24.8,0,0,0,5.377,1.466c-.026.335.327.291.68.247a1.3,1.3,0,0,1,.543,0,2.076,2.076,0,0,0,1.467.244c.733.407,2.1.184,2.931.489.308-.027.6-.04.88-.04C346.738,1150.292,348.113,1150.917,349.966,1151.065ZM318.2,1147.4c.748.548,1.231,2.415,2.2,1.955v-3.177c-.719-.585-.868-1.737-1.954-1.955C318.629,1145.549,318.056,1146.117,318.2,1147.4Zm71.6-.978c1.647-.226,2.18-1.568,3.666-1.954-.064-.751-.531-1.1-.733-1.711-.14-.429.3-1.436-.245-1.466-1.694,1.157-4.2,1.5-5.621,2.932q.218-.017.419-.017A2.222,2.222,0,0,1,389.8,1146.422Zm8.8-8.064a15.955,15.955,0,0,1-2.687,1.223c-.118.769.75.552.489,1.465.146.506-.3,1.606.244,1.711a9.324,9.324,0,0,1,3.666-1.222c2.9-2.236,6.3-3.964,9.042-6.353-.028-.3-.073-.579-.489-.489-.854.612-2.22.712-3.177,1.222-1.345.121-2.179.753-3.421.976-.157,1.067-.585,1.859-1.711,1.956a.988.988,0,0,1-1.055-.228.964.964,0,0,0-.666-.285A1.313,1.313,0,0,0,398.595,1138.358Zm-84.55,1.467c.148-.912,1.123-.995,1.222-1.956.054-.869-.167-1.464-.734-1.71C314.308,1137.163,313.469,1138.834,314.044,1139.825Zm-.49-15.64c-.354,1.928-1.067,3.494-1.221,5.621.857-.2,1.144-.973,1.466-1.71a16.948,16.948,0,0,1,.245-3.665.339.339,0,0,0-.37-.254A.9.9,0,0,0,313.555,1124.185Zm53.03,34.945a2.087,2.087,0,0,1,2.443.488,4.57,4.57,0,0,1-.245,1.956c-.283-.04-.436.054-.488.245a2.181,2.181,0,0,1-.508.064C366.385,1161.882,365.978,1160.258,366.584,1159.13Zm-23.216-17.839c-3.07-.433-6.01-.995-8.065-2.443-2.536-.967-3.887-3.118-5.131-5.377a34.9,34.9,0,0,1-.244-6.109c1.225-7.084,4.452-12.163,9.287-15.639,1.238-.471,2.669-.751,3.909-1.222a9.561,9.561,0,0,1,3.665-1.221c.284.04.435-.055.491-.245h6.107a3.3,3.3,0,0,0,1.955.488c.327.49,1.085.545,1.712.734.92.626,2.04,1.054,2.931,1.711a37.356,37.356,0,0,1,5.378,4.153c.36,1.105,1.474,1.458,1.71,2.688.917.549.923,2.008,1.71,2.689.451,2.486,1.181,5.556.245,8.064-.4,1.967-1.912,2.812-2.933,4.153-.742,1.619-2.329,2.395-3.421,3.666a53.322,53.322,0,0,1-5.375,2.443,40.489,40.489,0,0,1-6.11,1.466Zm3.666-21.748a2.192,2.192,0,0,1,.977.976c-.053,1.384-.56,2.65-.732,4.154-.124,1.066.136,2.34-.246,3.422v2.443a11.3,11.3,0,0,1,.246,3.177c.244.324.229.909.732.977.22.426.547.941.978.489-.281-1.067.172-2.93,0-4.643.237-1.228.5-2.434.732-3.666.832-.636.571-2.362,1.955-2.443,2.235.683,1.385,4.076,1.467,6.352a16.69,16.69,0,0,1,.244,4.154c1.365.062,2.005-.6,1.711-2.2v-4.153c.4-.248.266-1.038.489-1.467a5.023,5.023,0,0,1,1.467-.732c.326.406,1.085.379,1.465.732.234.5.5.968.733,1.467-.119,1.5.435,2.335.245,3.911,1.751.2.885-2.21,1.71-2.932.606-.373,1.895-.061,2.444-.49,1.09-2.057.224-4.669-.246-5.864a19.439,19.439,0,0,0-2.443-3.911c-2.678-2.129-5.21-4.4-9.287-5.132a20.009,20.009,0,0,0-8.064.978c-.458.355-.029,1.6-.488,1.955-1.441,2.143-1.978,5.191-2.2,8.552.259,2.183.228,4.659,1.71,5.621a24.293,24.293,0,0,1,.977-7.088c0-1.3.781-1.827.978-2.931.732-.581.9-1.722,2.215-1.722C346.878,1119.532,346.954,1119.535,347.034,1119.542Zm-9.285,14.173c-.083-.571-.251-1.053-.733-1.221C336.966,1133.193,336.984,1133.827,337.748,1133.716Zm59.87,6.353a1.282,1.282,0,0,0,.571-.144,1.214,1.214,0,0,1,.9-.1.929.929,0,0,1-.884,1.2C397.82,1141.025,397.495,1140.744,397.618,1140.069Z" transform="translate(-306.224 -1096.327)"/>
</svg>