<?xml version="1.0" encoding="utf-8"?><!-- Uploaded to: SVG Repo, www.svgrepo.com, Generator: SVG Repo Mixer Tools -->
<svg fill="#000000" width="800px" height="800px" viewBox="0 -6.05 116 116" xmlns="http://www.w3.org/2000/svg">
  <path id="_0101-breakfast" data-name="0101-breakfast" d="M177.386,213.664c-2.92.029-3.769-2.014-5.252-3.424a56.526,56.526,0,0,1-3.882-4.8c-2.931-1.786-5.211-4.225-8.906-5.252-.265.038-.406-.049-.455-.228a106.931,106.931,0,0,0-17.809.228c-3.539.314-7.432.273-11.324.23-2.262-.023-4.523-.048-6.714,0a66.911,66.911,0,0,1-7.307-1.141c-.563-.5-1.625-.506-2.283-.913a10.017,10.017,0,0,0-2.055-.913c-1.189-.865-2.668-1.443-3.653-2.511a45.675,45.675,0,0,1-6.622-5.48,76.044,76.044,0,0,1-6.165-5.936c-.733.2-.473-.591-.913-.685-.466-.068-.448-.617-.913-.686a3.236,3.236,0,0,0-1.37-1.6,16.415,16.415,0,0,1-2.055-3.882c-.049-5.3,2.29-8.212,3.652-12.1.889-1.775,1.31-4.018,2.284-5.709-.085-1.377.715-1.871.913-2.967a10.26,10.26,0,0,0,.913-1.142c.535-.072.857-.361,1.6-.229.037-.267.416-.192.685-.229,3.541-.158,3.847,3.235,6.165,4.567,1.764,1.737,3.47,3.532,5.251,5.251,2.071,1.125,3.888,2.507,5.937,3.654a21.5,21.5,0,0,1,3.424,1.37c.537,1.061,2.027,1.17,2.968,1.826.324-.02.647-.037.685.229a77.225,77.225,0,0,0,15.526,1.6c4.018-.4,7.115-1.714,11.417-1.827a63.79,63.79,0,0,1,12.329-.913c.281.481,1.375.147,1.6.685a3.745,3.745,0,0,1,1.6.456c.915.455,1.826.914,2.741,1.371,1.627,1.112,3.559,1.919,4.794,3.424,1.077.371,1.587,1.308,2.282,2.056.868.5,1.273,1.468,2.285,1.827.013.67.7.673.913,1.142.53.154.611.759,1.141.913.49.88,1.423,1.317,2.055,2.056,2.309,1.344,4.152,3.155,6.622,4.336,2.2,1.452,4.549,2.758,5.251,5.709a4.53,4.53,0,0,1-1.6,3.2c-.217,1.3-1.813,1.231-2.284,2.283a27.607,27.607,0,0,0-4.338,4.794c-1.636,1.483-1.982,4.26-3.881,5.479-.328,1.2-1.539,1.506-2.055,2.513a4.227,4.227,0,0,1-3.108,1.37Zm-27.4-23.06a30.739,30.739,0,0,1,6.165,1.141c1.457.978,3.95.92,5.251,2.055a13.679,13.679,0,0,1,4.794,2.283c.959.26,1.48.956,2.284,1.37.655.563,1.623.814,2.055,1.6a26.169,26.169,0,0,1,4.109,3.2c1.585.851,2.4,2.472,4.111,3.2.368-1.229,1.668-1.528,2.282-2.51-.256-1.037-1.206-1.382-1.825-2.056-.781-.591-1.506-1.237-2.284-1.826-1.207-1.382-2.512-2.663-3.653-4.11-1.725-1.015-2.874-2.608-4.8-3.424-1.548-1.193-3.488-1.993-5.024-3.2a85.015,85.015,0,0,0-10.731-2.967,58.884,58.884,0,0,0-8.12.184,46.568,46.568,0,0,1-9.234.044,76.008,76.008,0,0,1-15.755-2.283c-2.25-.717-4.539-1.4-6.621-2.282-.936-.586-2.349-.7-2.968-1.6-1.261-.263-1.831-1.213-2.968-1.6A50.26,50.26,0,0,1,97.014,169.6c-.017-.02-.067-.011-.117,0s-.092.016-.112,0c-.567.956-.792,2.251-1.369,3.2.383,1.214,1.415,1.781,2.055,2.74.937.738,1.453,1.9,2.511,2.512.236.6.907.769,1.142,1.37.644.193.629,1.046,1.37,1.142a16.363,16.363,0,0,0,2.512,2.511,100.384,100.384,0,0,0,10.959,5.708c3.725,1.832,7.543,3.571,13.472,3.2a19.684,19.684,0,0,1,6.393-1.6c1.679.039,3.42.018,5.16,0,1.022-.012,2.045-.024,3.055-.024A55.219,55.219,0,0,1,149.986,190.6Zm15.3-7.079a52.121,52.121,0,0,0,5.708,3.2c.677.846,1.962,1.083,2.512,2.054,1.186.337,1.633,1.414,2.741,1.828a55.549,55.549,0,0,0,4.108,4.338c.773.6,1.448,1.292,2.284,1.826.18.506.8.572,1.142.914a.84.84,0,0,0,1.369.456c1.51-1.461-.242-3.682-1.369-4.567-.921-1.591-2.229-2.8-3.2-4.339a98.3,98.3,0,0,1-8.677-8.676c-1.574-1.013-2.947-2.229-4.567-3.2a23.809,23.809,0,0,0-5.48-2.282c-7.957-.118-14.413,1.265-21.006,2.511-8.191-.028-15.974-.464-21.462-3.195a85.269,85.269,0,0,1-8.221-4.111c-1.272-.782-2.587-1.522-3.881-2.284-.414-.573-1.33-.648-1.6-1.369-.976-.091-1.121-1.011-2.055-1.142-.839-1.063-1.875-1.93-2.74-2.967a9.1,9.1,0,0,0-2.284,3.424c.567.5,1.429.7,1.6,1.6.775.29.865,1.267,1.825,1.37.8,1.329,2.4,1.866,3.425,2.968,1.527.606,2.632,1.631,4.11,2.284a40.505,40.505,0,0,0,4.108,2.282,66.652,66.652,0,0,0,15.527,3.654c1.894.229,3.919.573,5.937.684a74.406,74.406,0,0,0,9.027-.247,73.538,73.538,0,0,1,9.924-.209,1.943,1.943,0,0,0,1.37.228C158.8,181.485,162.064,182.483,165.284,183.525Zm-30.845-15.072a13.013,13.013,0,0,1-1.579,0c-.018-.317-.4-.274-.772-.23a1.6,1.6,0,0,1-.6,0c.023-.313-.306-.272-.635-.231a1.223,1.223,0,0,1-.507,0c-.059-.473-1-.06-1.142-.455a.6.6,0,0,1-.506-.13.621.621,0,0,0-.635-.1c-.3-.456-1.014-.508-1.6-.685a46.966,46.966,0,0,1-4.11-2.969c-1.094-1.186-2.156-2.409-3.2-3.651a31.078,31.078,0,0,1-4.109-9.59,15.022,15.022,0,0,1,.229-5.709,6.215,6.215,0,0,1,.913-2.511c.464-.679.706-1.577,1.37-2.056.239-.9,1.131-1.153,1.141-2.283.69-.375.365-1.765.913-2.283a22.17,22.17,0,0,0-1.826-7.762,18.16,18.16,0,0,1-1.37-3.426,13.951,13.951,0,0,1-.457-4.111c-.029-.408.28-.48.229-.912a7.975,7.975,0,0,1,2.511-4.8c.178-1.04,1.233-1.2,1.6-2.053.857-.362,1.354-1.081,2.283-1.372a8.96,8.96,0,0,1,4.8-1.14c.265.036.406-.051.456-.229,7.042-.117,10.389,3.462,16.21,4.567H147.7c4.216-.654,7.713-2.029,12.33-2.283.061-.32.486-.275.912-.231a2.039,2.039,0,0,0,.687,0,1.156,1.156,0,0,0,.738-.127,1.166,1.166,0,0,1,.86-.1c.336-.012.689,0,1.042,0a6.231,6.231,0,0,0,2.382-.23h7.307c8.915.751,16.315,3.016,22.148,6.851,4.275,3.181,7.744,7.173,9.361,13.014a45.443,45.443,0,0,1,.229,6.621,24.887,24.887,0,0,1-1.6,5.48c-.758,1.6-1.066,3.652-2.056,5.023-.025.812-.843.83-.685,1.828a80.017,80.017,0,0,1-7.078,7.991c-1.548.584-2.46,1.8-4.11,2.282a11.886,11.886,0,0,1-4.339,1.826,19.642,19.642,0,0,1-5.936.229,40.8,40.8,0,0,1-7.078-1.827c-2.5-.393-3.937-1.849-6.849-1.827a8.536,8.536,0,0,0-4.568,1.6,4.605,4.605,0,0,1-2.283.914c-.96.028-1.094.885-2.055.912-1.13.927-2.861,1.249-3.882,2.284a9.83,9.83,0,0,1-2.055.913,8.144,8.144,0,0,1-1.827,1.142c-2.708.642-5.362,1.337-8.219,1.826H138.8a2.539,2.539,0,0,1-.776,0c-.473-.045-.946-.09-1.051.231A5.714,5.714,0,0,0,134.439,168.453Zm.477-10.045c.836.079,1.046.784,1.371,1.371.061,1.556-1.485,2.561-1.142,3.653,5.928.221,10.3-1.12,14.612-2.511,2-.889,4.1-1.685,6.166-2.513a43.506,43.506,0,0,1,5.479-3.195c.868-.275,1.8-.486,2.74-.686a7.759,7.759,0,0,1,1.013,0,2.869,2.869,0,0,0,1.726-.229c.018.317.4.274.776.23a1.6,1.6,0,0,1,.595,0c.061.32.488.275.913.23a2.026,2.026,0,0,1,.685,0,8.4,8.4,0,0,0,3.2.457,59.7,59.7,0,0,0,6.167,1.142h5.935a31.219,31.219,0,0,0,6.393-3.655,45.448,45.448,0,0,0,4.568-5.709c1.711-1.713,2.565-4.285,3.881-6.392a18.619,18.619,0,0,1,.914-4.109v-3.2a15.712,15.712,0,0,1-.687-2.969,30.616,30.616,0,0,0-4.109-5.936c-1.462-.9-2.5-2.224-4.111-2.968-1.361-1.074-3.241-1.629-4.8-2.512a55.524,55.524,0,0,0-5.708-1.6,49.2,49.2,0,0,0-6.164-1.143,16.854,16.854,0,0,1-3.654-.229h-4.8c-3.488.394-7.312.451-10.5,1.142a34.377,34.377,0,0,0-11.19,1.142c-2.669-.072-4.647-.833-7.305-.913a32.7,32.7,0,0,0-7.079-2.742c-5.717-.542-8.843,1.507-10.274,5.252-.227,3.5,1.589,4.956,2.056,7.764a4.956,4.956,0,0,1,1.6,2.511c.706,1.579.39,4.179.457,6.395-.267.038-.249.361-.229.685-1.572,3.982-5.3,5.808-5.251,11.416,1.108-.261,1.13-1.61,1.827-2.283a4.057,4.057,0,0,1,2.511-1.827c2.13,1.275-.11,3.888-.455,5.48a15.666,15.666,0,0,0-1.371,2.512c-.578.6-.715,2.439.229,2.74a30.1,30.1,0,0,1,2.511-4.339c1.013-1.115,1.907-3.321,3.882-2.741a3.423,3.423,0,0,1-.229,2.969c-.68.616-.77,1.817-1.37,2.511a15.728,15.728,0,0,1-1.37,2.512c-.126,1.168-1.056,1.533-1.142,2.74.777.29.865,1.266,1.827,1.37a12.267,12.267,0,0,0,1.371-2.283c.925-.292.9-1.537,2.055-1.6,1.55,1.811-.38,3.757-.686,5.708a7.57,7.57,0,0,0,3.2.913,10.479,10.479,0,0,1,.913-2.74c.74-.529.712-1.828,1.983-1.828Zm9.589-11.643a2.188,2.188,0,0,1,3.425-2.056c.676,1.661-.045,3.5-1.6,3.653A2.3,2.3,0,0,1,144.506,146.765Zm18.951-1.142c.024-.314-.306-.272-.636-.23a1.248,1.248,0,0,1-.5,0,9.589,9.589,0,0,0-2.511-.914,25.269,25.269,0,0,1-3.424-2.511c-.958-1.022-1.652-2.307-2.513-3.424-.272-1.555-.928-2.727-.913-4.568a6.36,6.36,0,0,1,2.284-4.11c.453-1.6,1.7-2.408,2.511-3.652A30.389,30.389,0,0,1,163,122.79a26.958,26.958,0,0,1,3.2-1.14c.593-.18.842,0,1.6-.229a.492.492,0,0,0,.228-.228,2.774,2.774,0,0,1,.685.011,1.246,1.246,0,0,0,1.142-.24c9.4-.567,15.646,2.012,18.495,7.992a11.347,11.347,0,0,1,.456,4.338,8.831,8.831,0,0,1-2.055,4.338,32.905,32.905,0,0,1-2.74,3.653c-4.27,1.82-8.455,3.723-13.928,4.339Zm5.709-20.093c-.9.1-2.081.649-2.74.686-1.314.074-2.634,1-3.653,1.37a11.681,11.681,0,0,0-.229,6.621c.029.094.386.156.229.457,2.952,3.516,9.267,3.67,15.526,3.882,2.568-1.466,5.378-2.689,6.165-5.937v-1.827c-.627-2.007-2.562-3.4-4.8-4.338a19.217,19.217,0,0,0-7.025-1.11A30.8,30.8,0,0,0,169.166,125.529Zm-36.99,17.124a1.15,1.15,0,0,0-.684-.684c-.032-1.293-.1-2.651.684-3.2.658-.458,1.334-.058,2.283.457.534,1.27.188,3.087-.912,3.424Zm8.906-5.023a6.083,6.083,0,0,1,1.826-4.109,1.813,1.813,0,0,1,2.74.684c-.094,2.264-.725,3.992-2.284,4.8a2.69,2.69,0,0,1-.273.015C141.96,139.016,141.633,138.212,141.082,137.631Z" transform="translate(-89.708 -109.772)"/>
</svg>