<?xml version="1.0" encoding="utf-8"?><!-- Uploaded to: SVG Repo, www.svgrepo.com, Generator: SVG Repo Mixer Tools -->
<svg fill="#000000" width="800px" height="800px" viewBox="0 -13.7 116 116" xmlns="http://www.w3.org/2000/svg">
  <path id="_0506-cheese-wedge" data-name="0506-cheese-wedge" d="M1265.046,985.422a30.655,30.655,0,0,0-4.573-.226c-20.759.2-40.645-.476-60.961-.721-3.952-.207-7.891-.427-11.761-.719-.643-.022-1.318-.01-1.993,0a16.162,16.162,0,0,1-4.006-.241h-3.12c.026.328-.321.284-.668.241a77.262,77.262,0,0,0-1.064,0c-.347.043-.694.086-.669-.241-1.415-.266-1.433-1.928-2.16-2.88-.122-1.478-.911-2.29-1.2-3.6-1.075-2.205-1.967-4.595-3.12-6.72-.94-2.341-1.986-4.572-2.88-6.96-.427-1.174-.831-2.37-1.2-3.6-.544-1.055-.613-2.586-1.2-3.6-1.131-5.43-2.347-10.775-2.16-17.521a90.887,90.887,0,0,1,.72-9.119c.352-1.249.354-2.849.959-3.841a18.521,18.521,0,0,0,.481-3.84c.779-.9,1.66-1.7,2.4-2.64a12.243,12.243,0,0,0,2.88-1.921c2.021-1.179,3.735-2.666,6-3.6a9.157,9.157,0,0,1,3.12-1.92c.786-.814,2.174-1.025,2.88-1.92,2.35-.851,4.165-2.237,6.48-3.12a105.76,105.76,0,0,1,29.52-9.36.759.759,0,0,0,.458-.122.745.745,0,0,1,.5-.118c1.57-.264,2.889.637,4.081,1.2,3.469,1.639,6.925,3.269,10.321,5.279,3.172,1.622,6.207,3.645,9.6,5.04.448.184,1.4.494,1.92.72.172.075.573.417.722.481a5.7,5.7,0,0,1,1.679.719,6.363,6.363,0,0,1,1.921.721,5.216,5.216,0,0,1,1.92.72c1.3.46,2.839.68,3.84,1.44,1.729.031,2.589.931,4.08,1.2,1.094.586,2.7.656,3.6,1.44,2.871.648,5.013,2.026,7.679,2.88,1.045.716,2.226,1.3,3.361,1.92a18.909,18.909,0,0,0,3.119,1.921c-.1.578.438.522.24,1.2.851.027-.51.794.239.72.463.5.759,1.163,1.2,1.68-.114,8.433.18,17.033,0,24.24.038.918-.98.78-1.44,1.2a13.992,13.992,0,0,1-1.68.72,14.152,14.152,0,0,0-2.88,1.921c-.046.833-.848.912-.96,1.681-.578.3-.483,1.275-.959,1.678a15.621,15.621,0,0,0-.24,3.362c.118,2.281,1.3,3.5,1.921,5.279a5.05,5.05,0,0,1,1.441,2.161,3.232,3.232,0,0,1,1.439,1.919c-.121,2.841-.13,5.792-.48,8.4a6.64,6.64,0,0,1-2.4,6.24,10.274,10.274,0,0,1-3.314.473C1267.5,985.669,1266.282,985.545,1265.046,985.422Zm4.548-5.266c.722-2,.434-5,.958-7.2h-3.6c-4.777-1.223-7.448-4.552-9.121-8.879a12.24,12.24,0,0,1,.481-5.281,23.446,23.446,0,0,0,1.92-2.639c3.221-2.7,6.335-5.505,11.039-6.72h3.361c-.533-6.027-.1-13.022-.24-19.441-5.035,1.3-11.427,1.252-17.82,1.2-2.24-.019-4.48-.037-6.661,0-.6,6.2-4.552,9.047-9.121,11.279a13.45,13.45,0,0,1-6-.238c-2.388-1.692-4.457-3.7-5.04-7.2v-2.16c-.212-.875.424-1.278,0-1.679-12.1-.457-24.8-.317-36.719-.959a108.235,108.235,0,0,1-16.561-1.2,35.373,35.373,0,0,1-9.119-3.12v.72a46.394,46.394,0,0,0-.241,6.48c.117.759-.432.849-.24,1.68v4.561c.03.691-.13,1.57.24,1.92.149.652-.3,1.9.241,2.16.47-1.85.9-3.742,1.439-5.521.676-1.724.354-4.446,2.641-4.559,1.476.208,1.681,2.215.96,3.359-.173,1.669-.6,3.081-.721,4.8a22.717,22.717,0,0,0-.72,4.559,3.506,3.506,0,0,0-.481,2.162c-.519-.041-.109.85-.24,1.2-.194-.086-.292.2-.292.479s.1.566.292.48a20.917,20.917,0,0,1,1.44-4.32c.79-1.21.966-3.034,2.88-3.119,1.544.92.532,2.916.239,4.561-.246,1.833-.976,3.182-1.2,5.038-.67,1.41-.77,3.391-1.441,4.8-.046,1.649-1.5,3.709,0,4.8.791-1.93,1.1-4.342,2.16-6a5.672,5.672,0,0,1,1.44-2.641c-.023-.508.431-.818.72-1.2.27-.357.3-1.219,1.2-.96,1.444.5.905,2.86.481,4.081-.4,1.444-.889,2.79-1.2,4.318-.444,1.4-.815,2.866-1.2,4.322a22.439,22.439,0,0,0-.48,2.4c-.107.549-.846,1.693-.24,2.161.557-1.043.822-2.378,1.68-3.119.49-1.11.758-2.443,2.4-2.4,1.064.324,1.17,2.045.482,2.88a9.56,9.56,0,0,1-.961,3.6c-.164,1.356-.762,2.278-.96,3.6-.371.349-.211,1.229-.239,1.92.613.185.052,1.547.959,1.439.164-2.076-.013-4.492,2.159-4.559,1.208-.086,1.327.914,1.68,1.679a5.653,5.653,0,0,1-.96,2.88c-.131,1.229-1.109,1.612-1.2,2.881a96.929,96.929,0,0,1,12.206-.1,93.769,93.769,0,0,0,12.755-.144c.4-.242.26-1.021.481-1.44a10.661,10.661,0,0,0,.958-1.2c.455-.9,1.344-1.376,2.882-1.2.263.393.887,1.65.239,2.16-.06.8-1.4,1.117-.72,1.92,1.926-.473,1.88-2.92,3.12-4.08.94-1.46,1.173-3.627,3.36-3.84.618.342,1.357.563,1.439,1.44.1,1.7-.91,2.29-1.439,3.361-.215,1.131-1.731,2.018-1.2,3.119,1.513.234,1.984-.576,1.92-1.92a6.076,6.076,0,0,0,1.2-2.64c.714-.569.537-2.023,1.439-2.4.407-.955.9-1.818,2.4-1.679,1.427.818.7,2.875,0,4.081-.346,1.733-1.377,2.783-1.679,4.559,7.161.264,14.615.236,22.068.208,2.29-.008,4.582-.017,6.864-.017C1255.619,979.627,1262.784,979.712,1269.594,980.156Zm-.24-11.52c-1-2.279-2.421-4.139-2.641-7.2v-2.4a34.822,34.822,0,0,1,.959-3.36c-.052-.187-.2-.278-.48-.239-1.989,2.09-5.174,2.984-5.52,6.719.663,3.178,2.835,4.846,5.28,6.239a3.725,3.725,0,0,1,.507-.035C1268.185,968.359,1268.686,968.581,1269.354,968.636Zm-100.322-15.6c-.011.255.114.61.24.241.007-.177-.049-.4-.127-.4C1169.11,952.876,1169.071,952.921,1169.032,953.035Zm.72-1.921c0,.133.194.274.24,0a.156.156,0,0,0-.129-.156C1169.816,950.959,1169.771,951,1169.752,951.115Zm67.16-12.6c.052-.106-.027-.212-.439-.118C1236.5,938.815,1236.839,938.664,1236.911,938.513Zm-1.159-.356a1.134,1.134,0,0,0,.72.238.661.661,0,0,0-.72-.48Zm0-.241c-.006-.233-.294-.186-.48-.24C1235.279,937.908,1235.566,937.862,1235.752,937.915Zm-.644-.315c.013.041.061.083.165.075-.048-.112-.095-.15-.127-.15S1235.1,937.562,1235.108,937.6Zm8.8-1.845c.912-.369,1.009-1.552,1.921-1.921.2-.859,1.155-1.906.719-2.639h-12C1235.263,935.124,1238.919,936.109,1243.912,935.755Zm-12.241-15.12a20.206,20.206,0,0,1-.72,3.36c1.223.458,2.078,1.284,3.361,1.68h36.48c-.216-1.144-1.666-1.054-2.4-1.68a11.231,11.231,0,0,0-2.88-1.2,32.278,32.278,0,0,0-6-2.4c-4.116-1.485-8.166-3.034-12.481-4.32a35.1,35.1,0,0,0-5.76-2.4c-1.615-1.184-3.821-1.779-5.521-2.88-3.608-1.991-7.095-4.1-10.559-6.241-.14.422.29,1.411-.241,1.441-3.768-.071-5.091-2.588-7.919-3.6a6.233,6.233,0,0,0-3.12.721c1.972,1.067,3.7,2.385,5.759,3.359.617,1.146,2.137,1.385,2.161,3.121-.7.869-2.738.4-3.361-.24a8.5,8.5,0,0,1-3.12-1.679,43.485,43.485,0,0,1-6-3.6,34.707,34.707,0,0,0-3.84,1.2c-.073.633.5.619.958.72.362.28.589.693,1.2.72a12.907,12.907,0,0,0,2.4,1.44c1.384,1.175,3.67,1.448,3.839,3.84-.319.584-1.136.5-1.875.42a2.122,2.122,0,0,0-1.246.058c-.319,2.081-.659,4.141-.958,6.241.736,1.1,1.994,1.688,2.639,2.882.547-2.094.98-4.3,1.681-6.242.872-.488.832-1.888,2.4-1.68,1.509,1.064.345,4.092,0,5.521-.3,2.02-.734,3.905-.958,6a10.535,10.535,0,0,0,3.366.24c.654-.017,1.31-.034,1.914,0,.377-.5.166-1.594.48-2.16.218-.662.074-1.686.48-2.161.328-1.512-.181-3.861,1.44-4.08,2.152-.049,2.077,2.5,1.679,4.321a8.528,8.528,0,0,0,2.881.96c.6-1.241.821-2.86,2.4-3.121A2.159,2.159,0,0,1,1231.672,920.635Zm-7.438,4.8h2.88c-.125-1.476-1.51-1.691-2.4-2.4A13.107,13.107,0,0,0,1224.233,925.436Zm-20.816-.355a5.575,5.575,0,0,0,1.856.115,23.218,23.218,0,0,0,.72-4.8,36.5,36.5,0,0,0-3.84-2.64,31.2,31.2,0,0,0-.481,7.2,4.611,4.611,0,0,1,.466-.024A6.659,6.659,0,0,1,1203.417,925.081Zm5.936.115h2.88a11.1,11.1,0,0,1,.239-3.121,5.119,5.119,0,0,1-2.879,0C1209.121,922.723,1209.45,924.172,1209.353,925.2Zm-15.841-.241h4.8c.143-1.262-1.128-1.113-1.921-1.439-.509-.691-1.778-.621-2.159-1.441h-.721Zm-6.241-2.88c.241.64.969.792,1.44,1.2.733.226.752,1.168,1.681,1.2v-4.8c-.9-.383-1.277-1.285-2.4-1.44A24,24,0,0,0,1187.272,922.075Zm-6,2.4h3.121c.157-2.076-1.649-2.191-2.88-2.878A10.013,10.013,0,0,0,1181.272,924.475Zm-3.839-5.04a4.921,4.921,0,0,0-.481,2.4c-.056.443-.777,2.17.24,2.16h.48c.545-.255.093-1.508.24-2.16.237-.821.8-2.261.24-3.12h-.719Zm-6.721,3.12a4.983,4.983,0,0,0,2.16.721c-.182-.838.727-1.813,0-2.4C1172.245,921.529,1171.12,921.684,1170.712,922.555Zm24-10.081c-.155,2.005-.863,3.457-.719,5.761,1.007.273,1.555,1.005,2.4,1.44.768.292,1.43,1.632,2.159,1.2-.107-2.029.418-3.422.481-5.279-.978-1.183-2.537-1.783-3.6-2.88-.276-.012-.325-.251-.613-.251A.639.639,0,0,0,1194.712,912.474Zm-12.48,6a5.247,5.247,0,0,0,2.4,1.68c.3-1.381.608-2.751.961-4.08-.652-.63-.93-1.632-2.16-1.681A11.059,11.059,0,0,0,1182.232,918.474Zm21.6-10.08a34.816,34.816,0,0,0-1.2,5.521,33.156,33.156,0,0,0,4.08,2.88,14.423,14.423,0,0,0,.96-2.88c.383-.9.813-1.747,1.2-2.64a26.232,26.232,0,0,1-4.321-2.641c-.275-.011-.324-.25-.611-.25A.624.624,0,0,0,1203.833,908.394Zm-14.161,3.12c-.1,1.1-.572,1.83-.72,2.879a2.846,2.846,0,0,0,2.16,1.441,20.656,20.656,0,0,1,.72-2.88c.044-.947.866-2.02.481-2.64A4.8,4.8,0,0,0,1189.672,911.515Zm10.321-4.32a8.227,8.227,0,0,0-2.4.72c-.6.444-1.808.272-1.922,1.2.526.6,1.4.845,1.922,1.439.949.251,1.21,1.19,2.4,1.2.032-2.046.964-3.2,1.2-5.04q-.082,0-.158,0A1.1,1.1,0,0,0,1199.993,907.195Zm28.319,67.2c.11-1.728-.144-3.822,1.439-4.079,3.352-.158,4.488,5.114,1.2,5.76q-.1.006-.188.006C1229.385,976.082,1228.96,975.128,1228.313,974.395Zm-38.4-.238c-2.43-1.812-4.027-4.452-3.6-9.121a19.74,19.74,0,0,1,3.361-4.32c1.015-.266,1.524-1.037,2.641-1.2a4.774,4.774,0,0,1,3.12-.721c-.044-.2.093-.233.239-.24a8.693,8.693,0,0,1,5.762,1.92c.347.455.352,1.248.959,1.442a15.41,15.41,0,0,1,.239,6.719,12.972,12.972,0,0,1-5.039,5.521c-1.134.227-2.2.523-3.36.72A29.561,29.561,0,0,1,1189.912,974.156Zm3.361-9.841c.188,1.229-.337,1.743-.24,2.88.361.52.267,1.492.96,1.68.54.42.552,1.367,1.44,1.44,2.443-.916,3.993-2.726,3.839-6.24-.278-.04-.261-.381-.24-.72a2.165,2.165,0,0,1-.96-.961,3.745,3.745,0,0,0-1.218-.221C1195.231,962.174,1194.325,963.487,1193.273,964.316Zm49.2,9.841a1.381,1.381,0,1,1,2.641-.72,1.249,1.249,0,0,1-1.306,1.3A1.852,1.852,0,0,1,1242.472,974.156Zm-7.92-4.56a13.453,13.453,0,0,1-2.639-2.64c-.432-1.248-1.236-2.126-1.679-3.361a10.368,10.368,0,0,1,.239-3.36,11.08,11.08,0,0,1,5.761-6.481h.479c-.044-.2.094-.225.24-.239h3.362a3.156,3.156,0,0,0,1.679.479c1.516,1.043,3.1,2.015,3.84,3.84,1.244,6.066-2,9.664-5.52,11.761a9.105,9.105,0,0,1-5.762,0Zm1.442-9.6a14.364,14.364,0,0,0-.241,2.881c.191.77.873,1.049,1.2,1.679.734.227.753,1.168,1.68,1.2a7.332,7.332,0,0,0,3.839-6.24,4.128,4.128,0,0,0-3.6-2.4C1238.088,958.251,1236.728,958.81,1235.993,959.995Zm-37.68-8.16a17.016,17.016,0,0,1-1.681-2.16c-.086-.132-.224.039-.239-.239s-.553-.769-.721-1.441c-.052-.212-.163-.411-.239-.719a13.836,13.836,0,0,1,.239-6.721c.66-1.182,1.652-2.028,2.162-3.359.806-.314,1.958-.284,2.16-1.2a6.324,6.324,0,0,0,1.92-1.2,2.653,2.653,0,0,0,1.141-.256,2.5,2.5,0,0,1,1.5-.222c-.044-.2.095-.227.24-.241a17.335,17.335,0,0,1,6.481.72c.867.813,1.785,1.575,2.64,2.4.478.96.962,1.917,1.44,2.879-.021.341-.04.68.24.72a19.56,19.56,0,0,1-.48,6c-1.991,3.531-4.8,6.239-9.841,6.721q-.3.013-.594.013A13.779,13.779,0,0,1,1198.313,951.835Zm5.52-10.559a10.126,10.126,0,0,0-.959,5.279c.971,1.427,2.88,1.92,4.559,2.641a13.625,13.625,0,0,0,4.56-3.839,16.455,16.455,0,0,0,.24-4.081c-.818-1.183-1.438-2.564-3.12-2.881A15.423,15.423,0,0,0,1203.833,941.276Zm-3.839-.241c-.349.148.023.291,0,0,.3-.2,1.367-.84.718-1.2C1200.638,940.4,1199.879,940.281,1199.993,941.035ZM1228.313,948v-1.679c1.055-1.944,3.783-.427,3.359,1.921a5.863,5.863,0,0,1-.959.959,2.7,2.7,0,0,1-.5.05C1229.163,949.246,1228.89,948.468,1228.313,948Zm27.84-1.679a4.084,4.084,0,0,1-.959-3.361c.775-1.225,1.471-2.529,3.6-2.4.2-.4.469-.249.8-.1a1.049,1.049,0,0,0,.877.1c.209.351.358.762.96.721.4,1.187.837,1.966.479,3.359a5.3,5.3,0,0,1-4.016,2.094A3.844,3.844,0,0,1,1256.153,946.316Zm.721-1.681a2.4,2.4,0,0,0,3.119-.239,6.023,6.023,0,0,0-.239-2.4,2.857,2.857,0,0,0-1.149-.264C1257.324,941.731,1256.474,942.833,1256.873,944.635Zm-37.922-1.92a1.872,1.872,0,0,1,3.362.721,2.208,2.208,0,0,1-1.681,1.921C1219.378,945.17,1218.793,944.315,1218.952,942.715Zm-34.559-.72c1.431-2.981,5.509.966,3.12,3.12a4.113,4.113,0,0,1-.474.029C1185.107,945.144,1184.768,943.551,1184.393,941.995Zm60.961-17.759a11.97,11.97,0,0,1-2.16-.96c-.467-.256-1.026-.581-1.68-.959-1.056-.612-2.627-1.524-3.841-2.4a35.306,35.306,0,0,1-8.159-6v-.96h.721c1.508.97,3.571,1.388,4.8,2.641a19.563,19.563,0,0,1,4.56,2.64c1.768.712,3.111,1.848,4.8,2.64a19.748,19.748,0,0,0,2.159,1.442c.286.706,1.571,1.314.96,2.158-.134,0-.258.006-.374.006A6.519,6.519,0,0,1,1245.353,924.236Z" transform="translate(-1162.293 -897.067)"/>
</svg>