<?xml version="1.0" encoding="utf-8"?><!-- Uploaded to: SVG Repo, www.svgrepo.com, Generator: SVG Repo Mixer Tools -->
<svg fill="#000000" width="800px" height="800px" viewBox="-0.74 0 105 105" xmlns="http://www.w3.org/2000/svg">
  <path id="_0204-cherry" data-name="0204-cherry" d="M804.3,304.394a4.53,4.53,0,0,1,1.488,4.218v5.461a74.077,74.077,0,0,0-.991,13.4,9.217,9.217,0,0,0,.5,2.73c.229,1.139-.621,1.2-.5,2.234a86.5,86.5,0,0,0,9.679,24.324c1.375-.942,2.726-1.908,4.219-2.73a22.456,22.456,0,0,1,5.708-.994,25.1,25.1,0,0,1,5.709.994c7.489,4.011,12.778,10.221,12.906,21.592a38.773,38.773,0,0,1-1.24,8.687c-1,1.731-2.1,3.357-2.978,5.212-.762.563-1.082,1.567-1.739,2.234a8.124,8.124,0,0,0-1.736,2.234c-1.121.532-1.752,1.557-2.73,2.233a9.2,9.2,0,0,0-2.483,2.234c-2.378.765-3.975,2.313-6.2,3.226-1.856.792-4.851.445-6.453,1.49-3.2-.446-7.128-.154-9.68-1.242a10.716,10.716,0,0,1-3.475-.248c-2.442-.618-4.058-2.064-5.708-3.474-1.066-1.417-1.843-3.122-2.979-4.467-1.218,1.1-1.533,3.1-2.73,4.219a13.593,13.593,0,0,1-2.978,3.97c-1.977,2.574-4.8,4.3-7.694,5.958a34.781,34.781,0,0,1-6.95,1.24c-5.033-.427-10.055-.866-13.9-2.482-.787-.62-2.266-.546-3.227-.992a16.319,16.319,0,0,0-2.73-1.242c-1.352-1.294-2.887-2.407-4.219-3.723-1.729-2.655-3.684-5.086-4.468-8.686-.516-.064-.068-1.091-.5-1.241.005-.584-.428-.731-.249-1.49a11.15,11.15,0,0,1-.5-2.729,43.561,43.561,0,0,1-.249-6.2,33.582,33.582,0,0,1,1.242-6.205c.484-.756.777-1.7,1.241-2.482a10.086,10.086,0,0,0,1.241-2.234c.738-.337,1.03-1.12,1.489-1.737,1.6-1.209,2.993-2.633,4.964-3.475.627-.78,2.032-.779,2.73-1.489a4.081,4.081,0,0,0,1.737-.5c.435-.227,1.238-.086,1.49-.5,3.888-.272,8.424-.524,11.664.5.843-1.144,1.038-2.934,1.738-4.22a21.522,21.522,0,0,1,1.986-3.97c1.2-2.691,2.84-4.938,4.218-7.447-.087-.348-.436-.021-.495.249-.327.087-.392.436-.745.5-.168.577-.825.665-.993,1.241-1.215.275-1.471,1.507-2.482,1.986-1.551,1.427-3.262,2.694-4.964,3.971a31.168,31.168,0,0,1-13.4,4.716c-6.675.386-11.451-1.125-17.373-1.49-1.322-1.161-.958-4.006-.993-6.453a49.025,49.025,0,0,1,4.218-11.913,36.038,36.038,0,0,1,2.731-5.46,24.178,24.178,0,0,1,3.227-4.716c4.644-6.111,11.465-10.045,21.344-10.921h3.971a39.9,39.9,0,0,1,5.709.993,4.414,4.414,0,0,0,1.985.993c.423.487.58,1.24,1.242,1.489,4.161-1.8,6.873-5.04,9.183-8.687.28-1.3-.672-2.312,0-3.227.447-1.951,2.093-2.7,3.475-3.723a19.393,19.393,0,0,1,4.963-1.985A7.162,7.162,0,0,1,804.3,304.394Zm-4.716,5.211c-.523.221-.734.756-1.489.745-.066.894.459,1.2.5,1.985-.5.742-.141,2.342-.248,3.475.795.478,1.252-.147,2.234.248a27.125,27.125,0,0,0,.744-6.949c-.014-.152-.037-.294-.248-.248C800.742,309.275,799.969,309.246,799.583,309.605Zm-4.715,10.424a19.893,19.893,0,0,1-6.206,5.213,14.808,14.808,0,0,1,.5,2.73,9.428,9.428,0,0,0-.249,2.73c-.413.332-.083,1.406-.5,1.737.205.648-.751,1.362,0,1.738,1.281-2.2,2.826-4.124,3.971-6.453,1.228-2.248,2.626-4.323,2.979-7.446C795.309,320.084,795.157,319.989,794.868,320.029Zm-20.1,3.723c-2.552-.152-4.6.195-6.95.249-7.541,1.394-12.378,5.491-15.883,10.92a47.919,47.919,0,0,0-4.468,8.935c-.925,1.31-1.248,3.221-1.986,4.716-.375,1.647-1.408,3.837-.993,5.461,4.133-.536,8.122.224,12.658,0,1.079-.235,2.521-.359,2.978-.5.228-.069.517.066.745,0,.115-.035.6-.45.744-.5.722-.23,1.4-.26,1.987-.5.177-.072.495-.4.744-.5a15.883,15.883,0,0,0,2.482-1.24c6.329-3.664,11.106-9.381,15.884-14.148.294-1.856,1.091-3.211,1.49-4.963.07-1.005.425-1.725.5-2.731-.324-1.1.89-2.2-.5-2.233-1.511-.1-.594,2.219-1.241,2.978-.148,1.342-.605,2.373-1.987,2.482a3.171,3.171,0,0,1-1.488-2.73,10.485,10.485,0,0,0-2.979,1.489q-1.737,3.475-3.475,6.949a11.877,11.877,0,0,1-1.985,3.227c-.477,1.261-.759,2.715-2.483,2.73-1.114-.125-1.415-1.067-1.736-1.985a13.723,13.723,0,0,1,.745-3.227c.232-.77,1.356-1.939.744-2.73-1.274,1.208-2.677,2.287-3.971,3.475-.074.505-.672.486-.744.992-.292.371-1.032.293-.994.993-.813.428-1.171,1.309-1.985,1.738-1.143,1.339-2.413,2.55-3.475,3.97-1.8.686-2.173,2.792-4.467,2.979-.224-.438-.914-.41-.993-.993-.025-1.762,1.143-2.331,1.737-3.474.5-1.236,1.505-1.971,1.986-3.227a23.837,23.837,0,0,0,2.482-2.73c.56-.267.723-.932,1.241-1.241.058-.354.408-.419.5-.745.381,0,.816-.677,0-.5-.889.434-2.377.271-3.227.744-.956.183-2.735.66-2.978-.5-.143-1.551.75-2.063,1.738-2.482a5.167,5.167,0,0,1,2.978-1.489c1.884-1.1,4.512-1.444,7.446-1.489.1-.558,1.317-.007,1.489-.5.249-.494,1.1-.391.993-1.241-1.783-.368-3.853-.448-3.971-2.481.664-.991,2.463-.847,3.475-1.49,1,.171,1.416-.238,2.234-.248a24.3,24.3,0,0,1,5.211.248c1.514-1.062,3.485-.144,4.964-1.24C778.746,324.072,776.535,324.134,774.764,323.752Zm23.579,1.49c-2.447,7.563-7.224,12.8-10.673,19.359a39.057,39.057,0,0,1-2.73,4.716c-.761,1.8-1.978,3.15-2.73,4.963a18.392,18.392,0,0,0-2.482,4.965c-.622.618-.7,1.777-1.241,2.481.026,1.266-.98,1.976-.5,2.978,1.2.459,3.141.169,4.715.249,1.14.267,2.015.8,3.227.993a10.153,10.153,0,0,0,2.729,1.737,31.052,31.052,0,0,1,6.206,8.19c.355,2.044,1.332,3.467,1.489,5.709a11.457,11.457,0,0,1,.249,3.226c.057,1.184,1.111,1.371,1.737,1.986.387-.605.513-1.473.992-1.986.551-.524.524-1.628,1.738-1.489,1.8.185,1.1,2.868,1.241,4.716-.4.921-.206,2.441-.249,3.723.844.315.94,1.376,1.986,1.489a12.024,12.024,0,0,1,.993-3.972c.495-1.24.8-2.675,2.482-2.729,2.893,1.335.56,6.107.744,9.183a13.521,13.521,0,0,0,2.234.745c1.03-.956.137-3.834,2.234-3.724,1.783.368,2.1,2.207,1.986,4.468a10.292,10.292,0,0,0,7.445-1.241h1.986c.688-.719,1.728-1.085,2.481-1.737,1.105-.386,1.566-1.414,2.731-1.738a27.537,27.537,0,0,1,4.715-3.971c.215-1.026,1.026-1.456,1.242-2.482.7-.621.787-1.859,1.488-2.482-.025-3.5,1.028-5.922.745-9.679-.668-7.688-4.388-12.323-9.927-15.14a23.275,23.275,0,0,1-2.482-.5q-1.738,0-3.475,0a26.493,26.493,0,0,0-3.971,1.49c-.605.677.661.989.992,1.489.721.354.561,1.591,1.49,1.737,1.446-.621,2.213-1.923,4.218-1.986a2.64,2.64,0,0,1,1.242,2.979c-.97,2.588-3.538,3.576-6.453,4.219h-4.467A15.506,15.506,0,0,1,811,366.938c-1.162-.554-2.66-.842-2.483-2.73.182-.728.754-1.067,1.242-1.489h1.489c.541-.158.789.7.744-.248-.4-1.168-2.053-1.092-3.226-1.49h-3.723c-.046.368-.6.228-.993.249a2.472,2.472,0,0,1-1.489.744c-.525.3-.721.934-1.489.993-1.1,1.219-2.084,2.55-3.227,3.723-.962,1.437-1.754,3.044-3.474,3.723-1.05-.356-2.755-.058-2.98-1.241.06-4.409,2.774-6.162,4.717-8.687.975-.1,1.06-1.091,1.985-1.24A6.114,6.114,0,0,1,800.328,358c1.3-.935,3.329-1.138,5.212-1.489h2.978c-.941-2.452-2.456-4.329-3.226-6.95-1.259-2.214-1.975-4.974-2.978-7.445-1.393-5.557-2.912-10.988-3.474-17.374-.056-.193-.208-.289-.5-.248Zm-36.981,41.944c-2.369,1.189-3.959,3.157-5.709,4.964a22.719,22.719,0,0,0-2.234,8.687,24.926,24.926,0,0,0,.5,5.709c.29.664.648-.647.993-.745a3.494,3.494,0,0,1,1.24-1.241,3.912,3.912,0,0,1,3.227-1.489c.073.506.671.487.744.993-.851,3.369-3.072,5.366-3.971,8.686.125,1.034.868,1.449.993,2.482,1.25-.239,1.039-1.94,1.986-2.482.557-1.014,1.1-2.047,2.73-1.985,1.312.681.606,3.064.248,4.219a14.3,14.3,0,0,0-1.738,3.971c.776.3,1.08,1.072,1.985,1.242,1.172-.733,1.051-2.757,3.228-2.483,2.127.425.977,3.627.5,4.965A41.369,41.369,0,0,0,777,404.167c1.606-.545,3.391-.912,4.965-1.488a23.811,23.811,0,0,0,2.978-2.979c1.1-.888,1.572-2.4,2.73-3.226.05-.944,1.044-.943.992-1.986.761-.233.611-1.376,1.242-1.738a23.555,23.555,0,0,0,1.488-4.467v-4.716a20.989,20.989,0,0,0-1.736-6.2,25.946,25.946,0,0,0-3.226-4.716c-2.557-1.829-4.831-3.94-9.433-3.723a15.344,15.344,0,0,0,0,5.956,11.468,11.468,0,0,0,3.228.249c.506-.487,1.552-.433,1.737-1.241.91-.083,1-.984,2.234-.745.822.087,1.076.744,1.488,1.241.156,4.127-2.776,5.166-6.453,5.461-2.853-.291-5.56-.727-7.445-1.986-1.216-.357-1.848-1.3-2.979-1.738-.689-.965-1.839-1.469-1.489-3.474,1.121-1.4,2.925-.25,4.468,0a22.259,22.259,0,0,1,.248-4.964C769.273,366.291,764.784,366.712,761.362,367.186Z" transform="translate(-739.5 -304.131)" fill-rule="evenodd"/>
</svg>