<?xml version="1.0" encoding="utf-8"?><!-- Uploaded to: SVG Repo, www.svgrepo.com, Generator: SVG Repo Mixer Tools -->
<svg fill="#000000" width="800px" height="800px" viewBox="-0.36 0 114 114" xmlns="http://www.w3.org/2000/svg">
  <path id="_0202-croissant" data-name="0202-croissant" d="M339.2,411.357c-2.616-1.26-5.468-2.285-7.331-4.3-.464-1.307-1.249-2.291-1.265-4.046a13.4,13.4,0,0,1-4.8.507c-1.706-.148-2.326-1.383-3.793-1.77-1.184-.671-2.606-1.1-3.539-2.022-2.654-.97-4.8-2.447-7.331-3.54-3.365-2.957-5.639-7-5.562-13.4a12.992,12.992,0,0,1,2.022-5.055c.1-1.08,1.119-1.242,1.264-2.275.859-.321.957-1.4,2.022-1.517a40.708,40.708,0,0,1,4.3-.253c2.92-.367,5.405-1.166,8.6-1.264a7.6,7.6,0,0,1,3.539,1.264c1.741-.138,2.377.825,3.793,1.011.994.153,1.312-.373,1.769-.758.452-.307,1.472-.046,1.769-.5a22.046,22.046,0,0,0,2.612-.148,18.225,18.225,0,0,1,3.456-.105,35.91,35.91,0,0,0,7.078-1.77c2.312-.637,3.948-1.951,6.574-2.275a51.118,51.118,0,0,1,9.608-15.169c1.5-1.031,2.71-2.345,4.3-3.287a42.637,42.637,0,0,1,4.8-2.528c2.191,0,3.588-.793,5.562-1.01.123-1.556-.45-2.416-.253-4.046a34.448,34.448,0,0,1,.507-4.046c.363-1.66,1.1-2.941,1.516-4.55.941-1,.917-2.959,1.517-4.3,1.711-2.082,3.2-4.379,5.307-6.066a50.575,50.575,0,0,1-2.021-10.617,16.715,16.715,0,0,1,2.528-7.585c.959-2.411,2.087-4.655,4.045-6.067,3.039-.207,6.44-.51,9.1.252.855.661,1.945,1.088,2.781,1.769a11.544,11.544,0,0,0,2.275,2.275c1.385,2.912,3.022,5.575,3.539,9.355.8,1.388.685,3.7,1.517,5.054a34.637,34.637,0,0,0,1.012,5.309,7.816,7.816,0,0,1-.506,2.781c.351,1.334,1.791,1.58,2.022,3.033a24.515,24.515,0,0,0,2.276,2.782c.215,1.216,1.048,1.816,1.263,3.034.631.718.674,2.022,1.265,2.78a57.045,57.045,0,0,1,.5,10.112c-.282,2.248-1.229,3.829-1.517,6.069-1.4,1.965-2.365,4.375-3.792,6.32a5.759,5.759,0,0,1-3.034,1.517c.666,1.525,1.777,2.6,2.529,4.044a15.073,15.073,0,0,0,.758,2.782v3.286c-1.908,9.131-6.18,15.9-11.124,21.994-1.316,1.464-2.764,2.8-4.046,4.3-.977.454-1.495,1.369-2.526,1.769-.484.864-1.832.867-2.275,1.769-1.778,1-2.845,2.718-4.551,3.793a58.787,58.787,0,0,1-5.057,3.033,5.763,5.763,0,0,0-2.273.506,19.193,19.193,0,0,1-6.826-.759,23.007,23.007,0,0,1-5.057-4.3,30.736,30.736,0,0,1-2.021,3.034c-.968.717-1.844,1.528-2.781,2.275-.5,1.1-1.783,1.419-2.528,2.276-.358-.023-.716-.043-.76.252-3.583,1.22-8.557,1.048-13.145,1.264C345.43,413.053,341.764,412.759,339.2,411.357Zm-2.021-31.1c-1.546,4.606-1.979,10.325-1.77,16.685a32.747,32.747,0,0,0,3.033,7.837,31.981,31.981,0,0,0,9.354,4.045h8.85c.483-.866-1.168-1.435-.759-3.033.713-.636.9-1.795,2.527-1.516.928,0,.969.884,1.517,1.262.18.832.12,1.9,1.011,2.023,2.3-1.827,2.693-5.566,3.792-8.6.176-1.945-.427-3.112-.253-5.057-1.669-2.711-2.58-6.181-4.3-8.847a20.264,20.264,0,0,0-2.023-4.551c-.351-1.841-1.511-2.872-1.769-4.8-.254,0-.3-.205-.506-.253-.362.06-.427.417-.759.5a10.331,10.331,0,0,1-3.286,1.012q-.475-.011-.94-.011A27.06,27.06,0,0,0,337.183,380.261ZM384.2,400.738a58.829,58.829,0,0,0,5.563-3.539c.661-.856,1.829-1.206,2.528-2.021.94-.661,2.11-1.093,2.527-2.275a12.47,12.47,0,0,1-.5-4.55c.466-.038.155-.858.5-1.012,0-.5.691-.322.506-1.013,1.085-.685,1.9-1.634,3.54-1.768,1.309-.045,2.01.518,3.034.758q1.43-2.11,3.034-4.045c.848-1.595,2.512-2.375,2.528-4.8-.365-.284-.617-.273-.759.253-.155.35-.974.038-1.012.5a5.285,5.285,0,0,1-2.781.507c-2.858-1.6-1.964-7.411,2.781-6.321.5.429,1.079.776,1.264,1.517.486.525.293,1.729.76,2.274a9.491,9.491,0,0,0,1.012-7.331c-1.037-1.831-2.8-2.933-4.3-4.3a20.557,20.557,0,0,0-5.057-3.539,25.7,25.7,0,0,0-5.814-2.78,20.938,20.938,0,0,0-6.322-2.529c-1.957-1.665-5.13-2.115-7.331-3.538h-.5a34.245,34.245,0,0,1-3.793,1.01c-3.219,2.342-5.772,5.351-9.1,7.585-.877,1.23-1.86,2.353-2.78,3.538-.846.231-1.262.928-1.771,1.518a4.035,4.035,0,0,0-1.264,2.021c.467,1.894.172,4.549.253,6.827.079.342.361.483.253,1.011.859,2.43,2.119,4.454,3.034,6.827a17.05,17.05,0,0,1,1.77,3.033,13.243,13.243,0,0,1,1.77,3.287c.859.74,1.21,1.988,1.768,3.033.794.891,1.105,2.266,1.77,3.286a23.214,23.214,0,0,0,4.044,6.068,4.817,4.817,0,0,1,1.77,1.012,1.251,1.251,0,0,1,.926.1,1.327,1.327,0,0,0,.59.148A32.522,32.522,0,0,0,384.2,400.738Zm-57.386-2.779a27.7,27.7,0,0,1,4.044-1.77,23.816,23.816,0,0,1-.253-3.791c.576-4.314.829-8.951,1.265-13.4a91.416,91.416,0,0,1-10.366-1.263h-7.582a1.793,1.793,0,0,0-.76.5,14.154,14.154,0,0,0-2.021,9.1,29.888,29.888,0,0,0,2.021,2.781c.745.962,1.463,1.891,2.275,2.781,2.932,1.618,5.265,3.835,8.6,5.056h2.781Zm70.28-7.333c.886.044.8-.888,1.263-1.264.508-.419,1.176-.678,1.265-1.516h-.066C397.812,387.845,397.131,388.911,397.1,390.625ZM405.44,375.2c.423-.419,1.024-.661,1.012-1.517-.3-.3-.619-.13-1,.043a1.778,1.778,0,0,1-.773.21C404.562,374.735,405,374.974,405.44,375.2ZM386.48,334.25c-.774,2.344-2.24,4-2.781,6.573a9.617,9.617,0,0,1-.253,2.781,4.688,4.688,0,0,1,.758,1.517,2.34,2.34,0,0,1,1.013,1.516c.308.535.95.734,1.011,1.517.594.248.42,1.265,1.265,1.264a21268.52,21268.52,0,0,1,4.549,1.517,26.3,26.3,0,0,0,4.3,1.769c1.318.706,2.719,1.327,4.046,2.022,1.472.551,2.474,1.571,4.046,2.023,1.146-.285,2.643-.221,3.792-.506,1.06-.372,2-.861,3.033-1.264a18.957,18.957,0,0,0,3.034-7.836A23.946,23.946,0,0,0,411.761,334c-.2-.055-.293-.212-.253-.5-.958-.693-1.817-1.678-2.528-2.275a5.375,5.375,0,0,0-1.264-.759c-.27-.013-.14-.2-.253-.254a36.487,36.487,0,0,0-7.584-2.021,28.93,28.93,0,0,1-8.09,0c-.154.014-.3.037-.253.253h-.506c-.323.013-.349.323-.757.252C388.5,330.037,388.068,332.72,386.48,334.25Zm21.489-9.1c-1.721-6.876-2.575-14.617-6.32-19.467a22.059,22.059,0,0,1-6.322-.758c-.766.328-1.458.732-2.274,1.011a18.209,18.209,0,0,0-2.529,5.562,26.931,26.931,0,0,0,2.022,11.376q.992-.055,1.929-.053C399.75,322.821,403.808,324.036,407.969,325.15Zm-62.192,77.863c.795-.12,1.035.314,1.264.759.686.445.734,2.131-.253,2.275a.706.706,0,0,1-.413.133C345.186,406.181,343.778,403.327,345.777,403.014ZM349.318,402c-.2-1.969.227-3.311,2.275-3.034a6.041,6.041,0,0,1,2.022,3.539c-.089.838-.758,1.1-1.264,1.518C350.758,403.933,350.094,402.911,349.318,402Zm9.859-1.517c.565-2.6,4.119-.139,2.779,2.022a2.169,2.169,0,0,1-.742.13A1.986,1.986,0,0,1,359.177,400.486Zm26.292-4.55a5.9,5.9,0,0,1-2.781-4.8c.16-3.222,3.489-5.07,6.573-3.792,2.3,2.53,1.57,8.717-2.706,8.717A5.146,5.146,0,0,1,385.469,395.935Zm.506-3.538c1.226.317,1.243-1.412,1.01-1.772C386.068,390.634,385.875,391.369,385.975,392.4Zm-11.63-1.772c-.3-3.461,2.178-5.341,5.561-4.3a5.258,5.258,0,0,1,1.012,4.551,7.893,7.893,0,0,1-.758,1.011c-.679.918-.819,1.014-2.275,1.264A4.217,4.217,0,0,1,374.345,390.625Zm3.034-1.264a1.43,1.43,0,0,0,1.264-1.769,1.388,1.388,0,0,0-.166-.01A1.209,1.209,0,0,0,377.379,389.362Zm7.079-10.87c1.724-2.8,6.334-.985,5.308,3.288A5.907,5.907,0,0,1,388,383.547C385.473,383.207,384.462,381.352,384.458,378.491Zm10.112.253c-.42-.257-.275-1.075-.5-1.517-.208.022-.312-.368-.312-.758s.1-.779.312-.758c.008-.814.859-.787,1.711-.759a7.264,7.264,0,0,0,.817,0,12.421,12.421,0,0,1,1.768,2.024c.049,1.228.059,2.417-.5,3.033-.292-.04-.45.057-.5.253q-.245.02-.47.02C395.6,380.281,394.808,379.789,394.57,378.744Zm2.275-12.135c.29-1.563,1.395-2.313,3.54-2.022.472.707,1.214,1.145,1.265,2.274-.166,1.354-.709,2.327-2.023,2.529C397.8,369.366,397.516,367.792,396.845,366.61Zm-6.572,1.011c.006-2.349,3.611-2.635,3.539,0-.083,1.181-1.017,1.511-2.023,1.77A3.05,3.05,0,0,1,390.273,367.62ZM406.2,351.946c.054-2.463,4.141-2.138,4.3,0,.1.61-.463.55-.252,1.265a4.292,4.292,0,0,0-1.012.758,4.6,4.6,0,0,1-.544.034A2.413,2.413,0,0,1,406.2,351.946Zm3.287-5.055c-.226-.446-.609-.738-.757-1.264.081-1.669,1.939-1.68,2.78-.758q.255,2.053-1.544,2.054A3.884,3.884,0,0,1,409.485,346.891Z" transform="translate(-305.58 -299.631)"/>
</svg>