<?xml version="1.0" encoding="utf-8"?><!-- Uploaded to: SVG Repo, www.svgrepo.com, Generator: SVG Repo Mixer Tools -->
<svg fill="#000000" width="800px" height="800px" viewBox="0 -14.92 120.001 120.001" xmlns="http://www.w3.org/2000/svg">
  <path id="_0502-fastfood" data-name="0502-fastfood" d="M334.625,986.453c-8.728-1.524-20.067-.438-27.471-3.287a7.7,7.7,0,0,1-2.112-3.992,8.194,8.194,0,0,1,1.174-5.4c.206-.753-.61-.487-.7-.938-.484-.066-.221-.875-.7-.94.031-1.987-.77-3.143-.47-5.4,1.156-1.739,2.3-3.488,5.4-3.287-.052-.339-.495-.287-.939-.235s-.887.1-.939-.235a1.071,1.071,0,0,1-.914-.224,1.063,1.063,0,0,0-.73-.246,7.772,7.772,0,0,1-.94-2.113,2.858,2.858,0,0,1-2.583-.47,1.027,1.027,0,0,0-.47-.938c.455-3.695,2.859-5.439,5.871-6.574-.121-.9-1.461-.577-1.174-1.879.228-1.958,2.448-1.922,4.668-1.887.324.005.648.011.967.01a117.11,117.11,0,0,1,11.746-.237,117.153,117.153,0,0,0,11.733-.234c7.22.372,14.056,1.128,21.6,1.174a82.477,82.477,0,0,1,9.862-1.409,2.8,2.8,0,0,1,1.643,1.644c2.7-1.585,6.541.056,6.34,3.522-.112,1.61-1.21,2.233-2.113,3.051.314,2.9-.513,4.654-1.879,5.872.47,1.174,1.24,2.047,1.41,3.521.145,2.1-.852,3.062-1.41,4.462-.744.272-.492,1.541-1.173,1.877a19.78,19.78,0,0,1-1.174,1.643,17.425,17.425,0,0,0,1.174,2.818c.66-.358,1.811-.224,2.583-.469.239-2.187-.573-5.425,1.643-5.636,1.892.3.31,4.073,1.173,5.4.786.084.859-.545.931-1.175s.145-1.268.948-1.173c1.507-.254.911,1.594,1.409,2.348,10.1-.148,18.811-1.694,29.349-1.41a5.11,5.11,0,0,0,.471-2.582c-.03-.968.408-1.47.234-2.582.5-1.459.358-3.555.94-4.931a32.477,32.477,0,0,1,.939-4.93c0-.94.469-1.409.469-2.347a9.882,9.882,0,0,1,.706-2.114,88,88,0,0,1,5.87-17.375c-.209-.365-.512-.223-.88-.081a1.313,1.313,0,0,1-1,.081H409.29c-1.377-.186-2.642-.487-3.992-.7-.846.17-.245,1.788-.7,2.347-.145.874-.559,1.476-.7,2.349a21.644,21.644,0,0,1-12.913,9.157H387.22c-4.792-.765-7.558-3.555-9.627-7.043-.346-.905-.361-2.144-.7-3.052a17.758,17.758,0,0,0-3.534.1,24.808,24.808,0,0,1-3.743.13c.2,1.6,2.161,1.44,2.113,3.287-.035,1.373-1.4,1.417-2.113,2.114a1.375,1.375,0,0,1-.978-.248,1.381,1.381,0,0,0-1.135-.222c-10.792-.147-20.158,1.131-30.759,1.174-6.31.552-13.441.013-19.722-.234h-3.757c-2.473-.423-5.692-.1-7.513-1.174-1.107-1.283-1.107-4.246-.7-6.341,2.625-5.12,7.153-8.341,12.208-11.034a55.732,55.732,0,0,1,18.079-5.166H341.9a37.723,37.723,0,0,1,5.4.939,5.069,5.069,0,0,1,2.582.7,4.218,4.218,0,0,1,2.348.706c3.584.643,5.782,2.672,9.158,3.522a6.054,6.054,0,0,0,2.114,1.643,48.587,48.587,0,0,1,3.287,3.992c.658-.374-.331-1.057,0-1.877.166-.871-.4-1.008-.235-1.878-.216-1.273-.343-2.633-.471-3.993-.291-2.6-.994-4.8-.939-7.748.163-1.032-1.714-1.246-.939-2.112-.335-1.039.795-.615.7-1.409.245-.265.767-.252,1.29-.24.119,0,.238.005.354.005.751-.579,2.069-.591,3.052-.939a11.9,11.9,0,0,1,3.288.235c-.415-2.168-.173-4.995-.235-7.514,1.711-1.5,4.685-1.733,7.983-1.644.54-.554.084-2.107.234-3.052a18.339,18.339,0,0,1-.47-4.46,4.707,4.707,0,0,1,1.643-1.175c4.191-.043,8.221.077,11.271,1.175a38.088,38.088,0,0,1,.7,6.1,32.4,32.4,0,0,1,3.756-1.409c1.711-.067,3.361-.071,4.227.7a19.434,19.434,0,0,1,.469,5.871c.527,6.673.095,14.307.235,21.366-.558.148.036,1.445-.469,1.643-.122.582-.573.836-.94,1.174-1.529-.114-1.845-1.442-1.878-3.052,0-5.327.4-10.246.235-15.731.226-1.009-1.153-.413-1.174-1.174-.357-1.219,1.074-.651,1.174-1.409v-7.043c-1.982.13-3.5.725-5.4.938-.256.815.167,2.742,0,4.226a24.343,24.343,0,0,1,.234,4.227c0,1.2,1.529.012,1.644,1.408.035.582.044,1.14-.47,1.174.041.253-.172.251-.385.25-.26,0-.52,0-.319.454.231,5.505.958,11.369.7,17.141-.132,2.988-.491,5.822,0,8.686a10.176,10.176,0,0,0,3.521-3.051,20.758,20.758,0,0,0,2.584-3.992,10.164,10.164,0,0,1,.235-3.287c.834-.026.853-.868,1.878-.7a1.943,1.943,0,0,1,1.115.108,1.97,1.97,0,0,0,1,.128c.526-.1.1-1.158.236-1.644-.005-.554.4-.691.235-1.409a39.993,39.993,0,0,1-.235-7.042c.355-2.228.216-4.95.7-7.044.134-.76-.071-1.182-.469-1.409-.162-.633.485-.454.7-.7.02-.372-.113-.9.235-.94-.172-2.05.6-3.154.7-4.93a5,5,0,0,0-2.563-.236c-1.171.068-2.342.137-2.838-.469-.1-.961.863-1.458,1.878-1.644a1.17,1.17,0,0,1,.326.005.983.983,0,0,0,.378-.005,10.787,10.787,0,0,1,3.288-.233c.5.439,1.73.148,2.113.7.337,1.7-.215,4.244-.469,6.1a18.155,18.155,0,0,0,2.907.011,16.018,16.018,0,0,1,4.606.225c.907.639.874,3,.469,4.226-.54,4.548-1.719,8.456-2.347,12.914.059.487,1.031.064,1.174.469.347.122.592.348.94.471a15.285,15.285,0,0,0,1.878,1.174c.2.661.759.963.7,1.878.613.561,1.622.725,1.643,1.878.175,1.427-.826,1.679-1.409,2.347-.526,7.222-3.049,12.448-4.226,19.018-.439.579-.427,1.609-.7,2.348,0,.941-.47,1.41-.47,2.349a7.293,7.293,0,0,0-.47,2.583c-.5.433-.15,1.727-.7,2.112a28.4,28.4,0,0,1-2.582,8.923c-.09.795.407,1,.7,1.409.188.814-.35.9-.235,1.644-.984,1.092-3.135,1.016-5.286.94a25.66,25.66,0,0,0-2.7,0,1.2,1.2,0,0,0-.885.105,1.2,1.2,0,0,1-.761.13A93.921,93.921,0,0,0,391.86,979a74.809,74.809,0,0,1-12.623.412h-4.93a17.387,17.387,0,0,0-3.757-.235A7.25,7.25,0,0,1,367.5,982.7a2.522,2.522,0,0,1-.7,2.112c-2.026.69-4.4.513-6.854.336a31.677,31.677,0,0,0-4.886-.1,1.973,1.973,0,0,1-1-.128,1.947,1.947,0,0,0-1.114-.107c-3.609.619-7.436,1.018-11.037,1.643Zm4.4-4.116c.094.438.188.877.768.829,4.835-.175,8.879-1.138,13.618-1.409,1.229.338,2.907.223,3.991.7a34.1,34.1,0,0,0,4.5-.1c1.057-.072,2.116-.144,3.253-.138a5.549,5.549,0,0,0,2.348-3.521c-.1-1.776-.717-3.039-.939-4.7-3.27-.331-6.758-.443-9.392-1.408h-1.879c-.2-.348-.757-.339-1.174-.469-.312-.391.086-1.494-.7-1.409a6.214,6.214,0,0,1-1.879,1.174,21.13,21.13,0,0,1-2.112,1.174c-.685-.255-.884-1-1.879-.939-.078-.407-.193-.2-.346.005-.1.139-.222.278-.358.229a1.038,1.038,0,0,1-.939.471c-.747-.037-1.033-.534-1.878-.471-.856.24-1.453.74-2.349.939-2.829.381-6.017.4-8.687.94-2.639-.1-5.122-.355-7.983-.236a8.906,8.906,0,0,0-2.583-.7c-1,.1-.994,1.2-2.113,1.174-.247-.014-.517-.006-.787,0-.779.023-1.559.048-1.8-.472-2.251.49-5.433.046-7.512.706.059,1.816-.234,3.989.468,5.164.018-1.784-.233-3.832,1.409-3.991,1.3.271.864,2.266.94,3.757.583.512-.084,2.276,1.174,2.113.785-.193-.062-1.887.234-3.052.014-1.317.028-2.633,1.409-2.583.924.406.937,1.723.939,3.053.716.692-.206,3.023,1.409,2.817.539-.479.085-1.949.236-2.817.274-.822.5-1.692,1.877-1.409,1.126.438.573,2.557.7,3.991a3.741,3.741,0,0,0,2.113.469c.423-.986.185-2.632,1.879-2.347.988.185.457,1.892.94,2.583h2.112c.014-2.021-.278-4.348,1.41-4.7.147.479,1.186.066.938.939.525.1.1,1.157.235,1.643.075.552.371.88.234,1.643-.357,1.063.9.508,1.175.94.5-1.462-.143-4.056,1.643-4.226,1.281.6,1.094,2.664,1.174,4.461h1.877c.52-.5.125-1.911,1.41-1.643a1.165,1.165,0,0,1,.2-.018C338.847,981.5,338.935,981.921,339.024,982.337Zm-30.929-8.094a.49.49,0,1,0,.235-.94C308.255,973.623,308,973.753,308.094,974.244Zm1.408-3.522c.537.18,1.115,1.528,1.879.7-.536-.085-1.1-1.05-1.527-1.05C309.72,970.376,309.6,970.472,309.5,970.722Zm9.627.235a1.106,1.106,0,0,1-.234.7h.7c-.021-.329.021-.721-.329-.721A.664.664,0,0,0,319.129,970.957Zm5.636.234a1.981,1.981,0,0,0,1.408.235.531.531,0,0,0-.568-.694A.921.921,0,0,0,324.765,971.191Zm11.5.235h1.174c.033-.479-.169-.66-.414-.66A.843.843,0,0,0,336.27,971.426Zm-13.854-1.174c-.043.512.193.747.7.7q.06-.709-.591-.71Q322.475,970.247,322.416,970.252Zm38.037-2.114a8.351,8.351,0,0,0,.235,2.349c.471.1,1.742.581,2.113,0-1.01.2-1.141-.482-1.273-1.16-.116-.6-.232-1.195-.946-1.195C360.541,968.132,360.5,968.134,360.453,968.138Zm-22.07-4.7c.7.707,1.162,1.655,1.878,2.348,1.232.257,1.741,1.234,2.582,1.879,2.074.9,3.383,2.565,5.87,3.052,1.248-.552,2.006-1.593,3.288-2.113a19.787,19.787,0,0,1,3.521-2.113c.876-1.005,2.416-1.344,3.289-2.349a20.3,20.3,0,0,0,3.521-2.111c-.1-.688-.8-.763-1.173-1.174-.774-.087-.474-1.248-1.409-1.174-.978,1.839-2.544,3.091-5.636,2.818-.038-.275-.371-.255-.7-.235-.787-.387-1.21-1.138-2.112-1.409a8.073,8.073,0,0,1-8.219,2.582c-.214-.412-.823-.428-1.174-.7-.3-.4-.485-.923-1.174-.939C340.129,962.529,338.928,962.659,338.383,963.443Zm-23.48,6.809c-.2-.816-1.219-.815-1.643-1.408C313.031,970.042,313.971,970.955,314.9,970.252Zm26.532-1.408a1.993,1.993,0,0,0,.234,1.408,1.343,1.343,0,0,0,1.409-.7c-.622-.1-.721-.719-1.441-.719A1.458,1.458,0,0,0,341.435,968.844Zm-24.419.469c0,.131.191.267.235,0a.153.153,0,0,0-.126-.152C317.08,969.16,317.035,969.2,317.016,969.313Zm-9.861-.469c-.143-.562.294-1.7-.235-1.877C306.685,967.574,306.507,968.538,307.155,968.844Zm5.871-7.512a2.821,2.821,0,0,0-.706,2.345c.959,1.391,1.147,3.55,2.583,4.461,1.768-.659,3.362-1.49,5.166-2.112.617-.556,1.869-.478,2.347-1.174.737.111.62-.634,1.174-.706.41-.211.9-.524.471-.938-.019-.326-.408-.282-.8-.238a1.664,1.664,0,0,1-.613,0,2.1,2.1,0,0,0-.939-.939c-.34-.365-.313-1.1-.706-1.409-1.545,1.114-2.664,2.66-5.635,2.348-.185-.518-1.1-.306-1.173-.939-.492-.054-.516-.9-.845-.9A.517.517,0,0,0,313.025,961.331Zm55.881,6.573c.94-.084,1.525-1.751.938-2.583C369.736,966.387,368.889,966.715,368.906,967.9Zm-29.585,0h.47v-.47h-.47Zm-16.437-1.174c.709.641,1.321-.239,1.41-.939A1.662,1.662,0,0,0,322.885,966.73Zm4.932-2.817a.882.882,0,0,1,.939.94c.637.37-.671,1.309,0,1.643.513-1.053,1.51-3.04.47-4.226C329.057,963.118,327.861,962.94,327.817,963.913Zm37.332-.47c-.609.8-2.082.736-2.348,1.878.274.276.842.257,1.412.237.241-.008.482-.016.7,0,.412-.37.307-1.257.7-1.643-.023-.249-.058-.486-.332-.486A.662.662,0,0,0,365.149,963.443Zm-31.228,0c.126.893.915,1.12,1.644,1.409-.193-.9,1.131-.277.94-1.175a4.082,4.082,0,0,1-1.088-.137,4.276,4.276,0,0,0-.988-.138A3.279,3.279,0,0,0,333.921,963.443Zm34.28.234a1.524,1.524,0,0,0,1.174.236c.066-.534-.057-.883-.469-.939C368.88,963.418,368.13,963.137,368.2,963.677Zm-7.513-7.748c.72,1.081,1.48,2.121,2.113,3.289.468.237,1,.405,1.174.938,1.369.2,2.373.757,3.991.7.22-.28.579-.062.94-.235a5.5,5.5,0,0,0,1.877-2.113v-2.818c-.061-.843-1.108-1.538-.7-2.113,1.358.13,2.574.48,2.819-.94-.21-1.668-2.412-1.345-3.992-1.642a1.184,1.184,0,0,0-.706.7,1.323,1.323,0,0,0-.939.235,45.459,45.459,0,0,0-8.687,1.174,56.822,56.822,0,0,1-7.7-.218,61.506,61.506,0,0,0-6.861-.253c-.866-.307-2.137-.211-3.053-.468a60.618,60.618,0,0,0-7.513.234,73.253,73.253,0,0,1-11.04-.17c-2.885-.192-5.768-.382-8.682-.3a3.717,3.717,0,0,1-2.348.7c-1.061.975-2.762,1.31-4.226,1.879a11.551,11.551,0,0,1-1.878,1.174c-.27.574-1.327,1.139-.7,1.878.469.839,1.963.358,2.583,0,.8-.067,1.773-1.186,2.347-.7,0,1.488-1.564,1.409-1.408,3.053,1.351.65,2.791-.442,3.992-.7.523-.339,1.085-.638,1.643-.941.583-.355.956-.922,1.879-.937a2.5,2.5,0,0,0,.469,2.582c2.813.23,4.1-1.064,6.1-1.645.465.162.625.627.7,1.174s.727.527.94.939c4.321.1,6.284-2.168,9.157-3.521a7.81,7.81,0,0,0,.235,2.817c.818.827,2.191,1.1,3.992.94.822-.664,1.967-1.006,2.582-1.877a10.383,10.383,0,0,0,1.174-.94c.458-.326.722-.843,1.408-.939.464.4,1,.721,1.175,1.408-.125.829-.689,1.051-.234,1.879,2.594,1.842,5.274-.731,7.042-1.879.491-1,.733-2.241,2.114-2.348.027.445.778.166.706.706.4.14-.018,1.112.469,1.173-.13,1.148.859,1.176,1.409,1.643a3.8,3.8,0,0,0,2.582-1.878c.959-.446,1.118-1.695,2.525-1.7A2.987,2.987,0,0,1,360.688,955.929Zm22.306-56.585c1.606,6.768,2.282,14.466,2.818,22.307.283,8.089.372,16.376.939,24.184a8.753,8.753,0,0,0,6.809-1.409c-.325-15.127-3.248-28.794-2.114-44.612a39.259,39.259,0,0,1-8.452-1.173Zm-7.279,8.688c-.524.1-.1,1.157-.234,1.643-.137.762.16,1.093.234,1.643a13.27,13.27,0,0,0,.235,3.523c.186,2.4.167,5,.47,7.279v6.1c.478,2.418.129,5.664.235,8.453,1.1.234,2.416.247,3.053.94.363.34.207,1.2.235,1.877,1.509,1.386,2.021,3.769,3.991,4.7a21.72,21.72,0,0,1,.235-4.461c-1.36-4.432-.9-10.678-1.643-15.731-.338-5.531-.438-11.3-1.409-16.2-.553.015-1.13.006-1.708,0-.346-.005-.692-.01-1.033-.01A10.633,10.633,0,0,0,375.714,908.032Zm-65.506,34.749h3.286c15.66.945,31.528.1,46.489-.939h6.81c.423-.542-.547-1.193-.94-1.643a10.8,10.8,0,0,0-1.173-2.113,21.04,21.04,0,0,0-2.584-3.992,22.172,22.172,0,0,1-4.7-2.348c-1.773-.652-3.333-1.518-5.165-2.112a46.264,46.264,0,0,0-5.4-1.643c-1.844-.583-4.27-.582-6.34-.94a1.182,1.182,0,0,0-.7.7,2.261,2.261,0,0,1-2.582,1.643c-1.014.152-1.318-.405-1.879-.7-.572-.368-.327-1.552-1.409-1.409a34.861,34.861,0,0,0-16.2,4.226c-2.038,1.328-4.311,2.419-5.87,4.226-1.715,1.729-3.8,3.085-3.757,6.574a1.683,1.683,0,0,0,1.39.394h.172A1.389,1.389,0,0,1,310.208,942.781Zm62.455-27c-1.492,1.169-4.226,1.1-5.87,2.113a10.028,10.028,0,0,1,1.173,4.227,12.62,12.62,0,0,1,.47,2.348c.43.508-.044,1.922.471,2.348.081,3.6.9,6.458.938,10.094a8.471,8.471,0,0,0,3.523-.469c-.512-6.454-.041-13.89-.469-20.427-.012-.124-.03-.243-.167-.243A.327.327,0,0,0,372.663,915.78Zm35.923,12.914v3.991a4.245,4.245,0,0,0,2.182.236,10.234,10.234,0,0,1,1.34,0c-.194-5.594,1.621-9.18,2.113-14.089-.1-.289-.257-.1-.5.087a.8.8,0,0,1-.913.148c-.13-.574-.908-.5-.7-1.409a1.183,1.183,0,0,1,.7-.7c1.125-.187,1.144.734,1.644,1.174a23.8,23.8,0,0,0,.939-4.226,7.882,7.882,0,0,0-2.926-.208,11.491,11.491,0,0,1-2.239-.027C409.3,918.29,409.844,924.4,408.586,928.694Zm6.34,4.226h2.113c-.2-.895-.921-1.271-1.878-1.409C415.33,932.228,414.92,932.367,414.925,932.92Zm-76.777-5.87h-1.41C336.638,928.186,338.108,927.729,338.148,927.05Zm45.314,37.8c-.064-.536.058-.883.471-.94.52.13.334-.447.7-.47-.322-.711.112-.839,0-1.879-1.819-.174-1.045,2.244-2.583,2.349-1.148.131-.561-1.473-.7-2.349,0-.783.763-.8.7-1.642.9-.585,1.442-1.534,2.583-1.879.539-.948,2.073-.9,2.817-1.643.09-.005.189,0,.287,0,.31.014.619.026.653-.237,2.159-.117,4.3-.456,6.1.234a3.874,3.874,0,0,1,2.348.94c1,.091,1.153,1.038,2.114,1.173.016.688.535.872.939,1.174a2.335,2.335,0,0,0,.7,1.409v2.818c-1.694,2.924-4.9,4.338-8.922,4.931q-.259.006-.512.006C387.267,968.85,384.461,967.755,383.462,964.852Zm8.454-.469c.659-.45-.323-1.225-.235-1.879.034-.582.044-1.139-.469-1.173C391.51,962.282,390.513,964.533,391.916,964.383Zm2.348-1.409c.1-.756.358-1.363,1.409-1.174-.2-.818-1.157-.878-1.878-1.174C393.769,961.59,393.756,962.542,394.264,962.974Zm-34.515-24.185a.88.88,0,0,1,.939-.938c.005.228.288.182.471.235a2,2,0,0,1-.235,1.408,1.57,1.57,0,0,1-.234.019C360.135,939.513,359.939,939.154,359.749,938.789Zm-16.435.235a1.009,1.009,0,0,1,1.172-1.643c0,.554.406.692.236,1.409a1.38,1.38,0,0,1-.959.25C343.618,939.039,343.467,939.033,343.314,939.024Zm-29.35-2.817c.121-1.444,1.032-2.1,2.817-1.878.735.361,1.02,1.173,1.409,1.878-.364.966-.624,2.036-1.877,2.113h-.073C314.776,938.321,314.414,937.22,313.964,936.207Zm2.348-.235c-.033-.264-.344-.251-.653-.238-.1,0-.2.008-.287,0C314.872,936.6,316.568,936.8,316.312,935.972Zm16.2,1.879c-1.567-.391-2.039-1.877-1.879-3.992.619-.317.525-1.213,1.175-1.643.04-.028.135-.012.23,0s.207.035.239,0c.8-.983,3.251-.311,3.992.469a5.905,5.905,0,0,1,.235,2.348c-.8.92-1.45,1.993-3.288,1.877-.461.061-.1.948-.617.948A.561.561,0,0,1,332.513,937.851Zm-.939-4.226c-.2.663.329.607.235,1.173,1.117.421,3.242.43,3.286-.939-.181-.529-.907-.741-1.668-.742A3.092,3.092,0,0,0,331.574,933.625Zm16.9,1.642c.251-1.933,2.756-2.632,4.226-1.408a5.442,5.442,0,0,1,.236,2.583c-.044.133-.394.133-.471.235-.15.2-.04.559-.235.7a2.705,2.705,0,0,1-.938.236,2.42,2.42,0,0,1-.573.063C349.658,937.68,348.165,937.111,348.478,935.267Zm1.409.236c.234.6,1.681.674,1.643-.236,0-.331-.423-.512-.841-.512C350.214,934.756,349.741,934.99,349.887,935.5Zm-27.471-4.7a3.865,3.865,0,0,1,3.288.469,5.108,5.108,0,0,1,.235,2.113,6.644,6.644,0,0,1-3.288,1.878C320.444,934.745,321.01,931.789,322.416,930.807Zm0,1.409c.067,1.138,2.047,1.138,2.113,0a2.237,2.237,0,0,0-2.113,0Zm33.81.938c.977-.913,2.4-.041,2.349,1.409a1.339,1.339,0,0,1-1.023.459A1.393,1.393,0,0,1,356.226,933.154Zm-13.2-.367a.642.642,0,0,0-.655-.1,6.114,6.114,0,0,1-.938-1.878,3.028,3.028,0,0,1,2.583-2.583c.915-.053,1.216.5,1.878.7a2.661,2.661,0,0,1-2.348,3.993.79.79,0,0,1-.131.012A.631.631,0,0,1,343.028,932.787Zm.286-1.98c.483.487,1.19,0,1.172-.7a1.57,1.57,0,0,0-.234-.019C343.7,930.083,343.5,930.442,343.314,930.807Zm36.627-12.21c-.365-1.736,2.066-1.8,1.642,0a1.152,1.152,0,0,1-1.642,0Zm-2.582-3.521c-.992-.729-1.24-3.77,1.174-3.053a1.185,1.185,0,0,0,.7.7c.04.979.081,1.96-.469,2.349Zm.614-5.664a1.342,1.342,0,0,1,2.2-.91,1.5,1.5,0,0,1-.7,2.111c-.068.005-.133.007-.2.007C378.282,910.621,377.912,910.017,377.973,909.412Zm17.7-.676c-.131-1.518,1.252-1.562,2.112-.94.172,1.111-.137,1.741-.939,1.878C396.157,909.66,395.974,909.138,395.672,908.736Zm-8.923,0c-1.144-1.509,1.359-2.7,1.644-.94-.007.723-.5.962-1.227.962C387.035,908.758,386.9,908.751,386.75,908.736Zm.235-5.635c-.094-1.267.213-2.136,1.643-1.879.3.563.858.866.7,1.879-.24.229-.473.464-.7.7a1.649,1.649,0,0,1-.374.048C387.581,903.853,387.471,903.29,386.985,903.1Zm-2.112.7v-.469c.2.042.22-.093.234-.235.489.13.5.365.236.7Z" transform="translate(-302.224 -896.285)"/>
</svg>