<?xml version="1.0" encoding="utf-8"?><!-- Uploaded to: SVG Repo, www.svgrepo.com, Generator: SVG Repo Mixer Tools -->
<svg fill="#000000" width="800px" height="800px" viewBox="-7.6 0 116 116" xmlns="http://www.w3.org/2000/svg">
  <path id="_0106-ginger" data-name="0106-ginger" d="M1199.077,218.9a32.991,32.991,0,0,1-8.552-7.214,35.063,35.063,0,0,1-2.672-7.216,43.648,43.648,0,0,1,.267-7.214,50.818,50.818,0,0,1,3.74-9.889c1.492-3.051,3.5-5.587,2.94-10.689-.072-.373-.571-.321-1.068-.269a2.4,2.4,0,0,1-.8,0h-2.138a6.323,6.323,0,0,1-1.942-.14,6.149,6.149,0,0,0-2.065-.126,12.028,12.028,0,0,0-2.138-.8,6.982,6.982,0,0,0-2.137-.8c-1.125-.835-2.751-1.168-4.01-1.871a32.747,32.747,0,0,1-5.078-5.611,46.764,46.764,0,0,1-3.474-11.226,64.16,64.16,0,0,1,1.337-14.964c.922-1.661,1.213-3.954,2.4-5.345a43.68,43.68,0,0,1,2.4-5.344,9.681,9.681,0,0,0,2.138-2.138,3.977,3.977,0,0,0,2.4-1.6,44.5,44.5,0,0,1,5.077-3.207,23.283,23.283,0,0,1,6.681-.8c.069.554,1.174.073,1.337.534,2.021.473,2.789,2.2,4.276,3.209a7.435,7.435,0,0,0,1.336,2.67c-.131.845.482.944.266,1.872.372-.06.319.3.267.668s-.1.728.268.668c.082,3.749-.221,7.881.267,11.224-.148,3.98,1.045,6.616,3.473,8.017a12.962,12.962,0,0,0,3.741-1.337c1.894-3.28.105-8.247-.534-11.492a65.053,65.053,0,0,1-1.337-12.025,28.435,28.435,0,0,1,7.75-17.9c1.168-.347,1.5-1.525,2.673-1.871.739-.686,1.951-.9,2.671-1.6,2.182-.4,3.88-1.285,6.681-1.068.432.075.46-.252.8-.267a22.4,22.4,0,0,1,4.276.8c.672.843,1.815,1.215,2.139,2.407,1,.419.809,2.04,1.6,2.67.274,2.934.575,5.839.8,8.819-.2,3.1-.859,5.732-.8,9.086.137,1.83-.475,2.911-.267,4.81a6.465,6.465,0,0,0,.8,4.009c.889.09,1.184.774,2.4.535a1.846,1.846,0,0,0,1.01-.112c.41-.138.743-.276,1.129.112a14.454,14.454,0,0,0,5.077-3.474c1.1-1.66,3.057-2.466,4.543-3.742,1.021-.228,1.7-.794,2.673-1.067.661-.5,2.04-.276,2.672-.8h5.879c-.06.372.3.319.668.267s.729-.1.669.268a.728.728,0,0,1,.745.115.7.7,0,0,0,.591.152,11.54,11.54,0,0,0,2.4,1.067,29.253,29.253,0,0,0,2.672,2.406c.416,1.279,1.313,2.073,1.6,3.474.635,1.057.627,2.757,1.067,4.009v7.749a24.585,24.585,0,0,1-1.067,3.742,27.387,27.387,0,0,1-3.474,6.414c-.9.7-1.2,2.005-2.406,2.406a9.446,9.446,0,0,1-2.939,1.87c-4.684.572-9.494,1.017-14.164,1.6-1.812,1.129-3.693,2.187-4.543,4.276a40.364,40.364,0,0,0,7.749,1.6c1.305.834,2.692,1.583,4.01,2.406a15.385,15.385,0,0,1,2.672,3.474,19.681,19.681,0,0,1,.267,4.275c-.85,4.317-3.8,6.529-6.147,9.355a3.847,3.847,0,0,0-1.87,1.335,32.881,32.881,0,0,0-4.009,1.87c-4.057,1.249-11.312,2.182-15.767.535-.781.109-.867.915-1.336,1.337-.5.3-.568,1.035-1.069,1.336-.675,1.017-.9,2.484-1.87,3.208-.811,2.486-2.362,4.231-3.475,6.413-2,4.6-4.124,9.059-7.482,12.293-.311-.044-.476.059-.536.268a20.306,20.306,0,0,1-6.412,2.4q-.437.02-.853.02A50.744,50.744,0,0,1,1199.077,218.9Zm6.089-4.387a6.965,6.965,0,0,0,2.2.112,15.13,15.13,0,0,0,4.81-3.208c1.017-2.012,2.559-3.5,3.207-5.879-.894-3.025-.7-7.142-2.4-9.353a7.6,7.6,0,0,0-2.138-3.742c-.451-1.507-2.209-1.71-2.137-3.74.587-1.176,2.738-.923,3.474-.267a7.416,7.416,0,0,1,2.406,2.671,9.815,9.815,0,0,1,1.87,2.939,15.236,15.236,0,0,1,1.336,3.742c1.064-.094.716-1.6,1.337-2.138.274-.972.84-1.653,1.067-2.672-.606-1-.943-2.262-1.6-3.209-.49-1.2-1.594-1.787-1.335-3.74,2.541-1.534,4.309,1.539,5.078,3.474,1.173.105.7-1.441,1.6-1.6.363-.8,1.207-1.109,1.872-1.6h2.4c-.143-2.443-2.277-2.891-3.207-4.543-1.382-.49-2.272-1.47-3.474-2.137-.585-.4-1.439-.522-1.871-1.07-1.09.112-1.686-.273-1.6-1.336-.16-1.585,1.459-1.392,2.4-1.87a9.633,9.633,0,0,1,4.543,2.138c1.728.5,2.495,1.957,4.008,2.67.385,1.219,1.493,1.715,1.87,2.94.155.558.664.763.536,1.6.608.193.078,1.523,1.067,1.336.445.486,1.085.319,1.738.152a3.123,3.123,0,0,1,1.2-.152,12.6,12.6,0,0,0,4.544-.535c-.067-1.182-.548-1.946-.535-3.207-.185-1.877.452-2.933.266-4.809.452-.439.333-1.452.8-1.872.392-.588.708-1.251,1.87-1.068,1.141.2.737,1.935.8,3.206v4.01c.373-.06.319.3.267.667s-.1.728.269.669a1,1,0,0,0,1.067,1.07c.4-.5,1.381-.4,1.337-1.337.142-1.034-.478-1.3-.268-2.4-.118-1.989.055-3.686,1.87-3.742,1.028.4.945,1.906,1.069,3.209,1.651-.131,1.74-1.823,1.6-3.741-.442-.271-.291-1.136-.536-1.6a5.888,5.888,0,0,0-4.275-1.337c-1.165-.706-2.956-.785-4.543-1.069-4.825-.014-9.168.451-13.629.8-.058.309-.433.3-.808.293-.352-.008-.706-.015-.795.241-.246.466-.837.59-1.6.534a2.427,2.427,0,0,1,0-3.206c.157-.217.542-.128.8-.268.679-.365,1.621-1.1,2.4-1.067a28.01,28.01,0,0,1,8.016-1.069c1.048-3.141,2.765-5.61,4.276-8.285,2.116-1.446,4.182-2.945,7.751-2.938v-6.948c.614-1.881.042-4.946,2.4-5.078,3.013-.042,1.468,3.861,1.337,5.879.187,2.308-.553,5.542.8,6.681.884.4,2.589-.35,3.742-.534a18.689,18.689,0,0,1-1.069-3.208c-.2-1.9.332-3.052.266-4.81.608-1.085.033-3.352,1.6-3.474,2.089.046,1.988,2.486,1.6,4.276a10.185,10.185,0,0,1,.266,3.474c.617.719.328,2.345,1.6,2.4,1.5-.455,1.986-1.931,2.94-2.939a35.26,35.26,0,0,0,1.336-8.017,9.688,9.688,0,0,0,1.068-2.4c-.472-2.378-.49-5.212-1.068-7.483-1.546-2.551-4.6-3.6-9.086-3.207.184,2.629.883,6.32-1.336,7.216-.839.126-.707-.721-1.337-.8-.245-.468-.092-1.335-.535-1.6-.242-1.182.071-2.921-.8-3.472-5.121,2.894-7.552,8.48-14.163,9.887a11.867,11.867,0,0,1-3.575-.319,9.076,9.076,0,0,0-3.907-.215,7.868,7.868,0,0,1-1.337-2.94c-.4-6.907.967-12.039.8-18.707a17.244,17.244,0,0,1-2.938-1.87,7.642,7.642,0,0,0-2.452-.209c-1.629.022-3.259.044-3.429-1.394.905-1.679,2.677-2.492,5.345-2.406a3.333,3.333,0,0,1,1.849.58c.671.383,1.262.767,1.893.49-.454-1.6-.022-4.077-.535-5.612-3.182-.878-5.974.739-8.819,1.068a42.116,42.116,0,0,0-3.74,3.207c-.109,1.049-1.175,1.142-1.336,2.138-.945.213-.756,1.561-1.6,1.87-.177,1.782-1.144,2.775-1.068,4.811,2.055-.53,3.608-1.56,6.147-1.6a15.981,15.981,0,0,1,3.74.535c1.161.353,2.2.833,2.138,2.4-.344.726-1.328.811-2.406.8a8.907,8.907,0,0,1-3.208.267c-1.119.305-2.307.543-3.474.8a3.356,3.356,0,0,1-1.87,1.068c-.229.84-1.543.594-1.6,1.6-.548.878-.144,2.707-.266,4.009,2.3-.549,4.088-1.613,7.214-1.337.571.679,2.114.383,2.14,1.6-.679,1.371-3.031,1.068-4.277,1.87-2.09.048-3.13,1.146-4.811,1.6a21.952,21.952,0,0,0,1.6,8.551c-.286,2.6.389,4.244.536,6.414-.1,1.083-1.477,1.878-1.871,2.4-.234.312-.019.774-.534.8s-.568.619-.8.8a11.954,11.954,0,0,1-8.551,2.138c-.449-.531-1.533-.428-1.869-1.069-.93-.052-1.015-.946-1.87-1.069.046-.938-.9-.88-1.07-1.6-.517-.553-.65-1.486-1.068-2.138-.529-.363-1.244-.537-1.337-1.336a1.261,1.261,0,0,0-.267-.8c.007-5.673,2.392-9.858,1.336-15.768-4.922-2.433-11.781-.161-16.835.535-1.747,2.974-3.4,6.043-3.742,10.422.089.461.22.227.392-.007.117-.158.254-.317.41-.259.078-.544.722-.526.8-1.068a18,18,0,0,1,2.138-1.6c.716-.351,1.42-.718,2.137-1.069,1.335-.27,2.89-.318,4.276-.535,1.473.4,3.408.335,3.474,2.137-1.077,1.417-4.056.932-5.88,1.6a15.1,15.1,0,0,1-2.937,1.6,7.45,7.45,0,0,1-1.871,1.87c-.788,1.958-3.134,3.537-2.138,6.414.143.429.327.133.551-.162.153-.2.326-.4.517-.373.086-.626.828-.6,1.07-1.067a23.092,23.092,0,0,1,2.938-1.336c2.05-.09,4.032-.113,4.276,1.6-.608,1.706-2.982,1.65-4.276,2.67-1.093.064-1.408.908-2.4,1.069-.315.932-1.815.68-1.87,1.87.384,2.111,1.542,3.447,2.138,5.346,1.991,1.838,3.253,4.407,6.412,5.077a10.94,10.94,0,0,1,3.741-6.948c.545-.079.525-.724,1.069-.8.162-.461,1.267.021,1.336-.535,1.4-.066,2.417.257,2.672,1.337-.194,1.142-1.144,1.528-1.871,2.138-.875.461-1.262,1.409-2.137,1.87-.47,1.4-1.5,2.236-1.6,4.009a9.13,9.13,0,0,0,5.784-.265c1.778-.5,3.458-1,5.171-.271.89,1.07,1.2,2.718,1.6,4.276v4.811a65.018,65.018,0,0,1-1.6,7.751,31.415,31.415,0,0,0-1.335,3.2,9.422,9.422,0,0,0-1.6,3.209c8.421-.316,12.836,3.376,13.629,10.688-.482,1.123-.211,3-2.138,2.673-1.535-.247-1.394-2.17-1.871-3.474-.454-1.417-1.5-2.241-2.137-3.474-.669.045-.836-.411-1.069-.8a24.053,24.053,0,0,0-3.474-1.068h-5.077c-.858,1.785-.188,3.527-.267,5.88.442.269.291,1.135.535,1.6a5.994,5.994,0,0,1,.534,1.6,11.739,11.739,0,0,1,1.6,2.672,26.053,26.053,0,0,0,6.682,5.077h.071A8.5,8.5,0,0,1,1205.167,214.51Zm-9.832-83c-.615-.453-.353-1.784-1.068-2.137-.211-.857-.971-1.168-1.337-1.871a1.179,1.179,0,0,1-1.069-.534c-2.306-.08-4.4.052-5.611,1.068a3.586,3.586,0,0,0-2.139,1.337c-.728-.194-.537.531-1.069.534.006.392-1.126.847,0,.8,2.69-.643,5.994-.063,8.819,0a4.418,4.418,0,0,0,1.871.535C1193.958,131.5,1195.11,132.141,1195.335,131.511Zm29.129,32.871c-.7-.634-1.611-1.062-1.87-2.138-.71-.538-1.578-.918-1.337-2.4.509-.115.671-.577,1.337-.536,2.074.419,3.344,1.643,4.81,2.672,1.193,1.3,3.1,1.891,2.94,4.543a4.571,4.571,0,0,0-1.069.8C1227.08,166.933,1225.826,165.6,1224.464,164.381Zm.8-8.285c-1.706-.344-3.671-.426-4.542-1.6.018-2.03,1.844-2.253,3.473-2.673a2.227,2.227,0,0,1,1.268.122,2.245,2.245,0,0,0,1.137.146,23.58,23.58,0,0,1,4.275,3.207c.541,1.391,2.549,3.352,1.069,5.077-.31-.043-.475.059-.533.267C1228.4,160.085,1227.636,157.29,1225.266,156.1Z" transform="translate(-1169.891 -103.719)"/>
</svg>