<?xml version="1.0" encoding="utf-8"?><!-- Uploaded to: SVG Repo, www.svgrepo.com, Generator: SVG Repo Mixer Tools -->
<svg fill="#000000" width="800px" height="800px" viewBox="-1.94 0 120.001 120.001" xmlns="http://www.w3.org/2000/svg">
  <path id="_0206-gingerbread-man" data-name="0206-gingerbread-man" d="M1233.756,414.43c-.988-1.112-2.31-1.891-3.15-3.152-1-1.021-1.466-2.573-2.424-3.635-1.03-3.01-2.49-5.587-3.151-8.967-1.111-3.009-1.615-6.627-2.424-9.937-.571-3.469-.9-7.175-1.94-10.179-.826.465-.682,1.9-1.21,2.665-.128,1.167-.518,2.07-.729,3.153-.457,2.045-.872,4.136-1.21,6.3-.855,4.234-1.6,8.58-2.667,12.6a16.541,16.541,0,0,1-.243,4.12,19.163,19.163,0,0,1-3.392,6.787,18.717,18.717,0,0,1-7.029,2.424,17.352,17.352,0,0,1-10.905-4.606c-.34-.955-.944-1.642-1.212-2.667-.444-.849-.6-1.984-.97-2.907-.3-2.285-.952-4.219-.969-6.786-.436-4.432-1.013-9.946-.486-14.542-.309-10.57,1.081-19.439,1.939-28.84-.215-.218-.5-.131-.866-.045a2.263,2.263,0,0,1-1.073.045,4.511,4.511,0,0,0-1.938.242c-1.406.131-2.808.262-4.121.485h-9.21a29,29,0,0,1-7.029-1.7c-.167-.479-.644-.646-1.211-.727-1.138-1.364-2.526-2.481-3.392-4.119a17.452,17.452,0,0,1-.243-7.271,18.376,18.376,0,0,1,2.424-3.634c.662-.309.968-.973,1.454-1.454.212-.757,1.143-.8,1.453-1.457a24.5,24.5,0,0,1,6.061-1.938h4.119a57.9,57.9,0,0,1,11.632-.726h3.151c.169.355.752.3,1.333.242s1.164-.112,1.333.243a6.46,6.46,0,0,1,2.534.29,4.325,4.325,0,0,0,2.556.194c1.188-.986-.6-1.563-.969-2.424a11.091,11.091,0,0,1-2.18-2.18,34.384,34.384,0,0,1-3.394-5.09,26.449,26.449,0,0,1-.969-5.331c-.17-1.06.412-1.366.243-2.425.22-1.233.848-2.06.969-3.394,4.868-9.108,12.453-15.5,24.476-17.45.739.02,1.467.009,2.18,0a20,20,0,0,1,4.364.243c.453.1.986.356,1.454.486.436.121,1.035.085,1.455.243.148.055.366.433.485.484a.51.51,0,0,0,.256,0,.624.624,0,0,1,.227,0c.255.063.112.178.243.241a18.821,18.821,0,0,1,3.392,1.939c.351.27.631.675.97.971a11.74,11.74,0,0,1,1.7,1.7c.192.238.547.481.726.726.063.087-.08.418,0,.485a1.6,1.6,0,0,1,.485.484,20.131,20.131,0,0,1,2.18,3.877c.252.683.486,1.551.728,2.424a33.005,33.005,0,0,1,1.212,8.969,26.292,26.292,0,0,1-2.91,11.146c.094.426.256.273.465.12.147-.107.318-.215.5-.12h1.455c.2-.247.642-.245,1.088-.242s.9.005,1.093-.243a44.36,44.36,0,0,0,4.847-.483c3.281-.275,6.834-.276,10.422-.242,6.446,1.066,12.521,2.5,15.026,7.512a13.559,13.559,0,0,1,.483,4.848,17.383,17.383,0,0,1-3.635,6.785q-6.5,5.615-17.69,6.544c-1.185-.027-2.412-.013-3.638,0a48.388,48.388,0,0,1-7.027-.244c.653,4.113,2.029,7.5,2.666,11.633.474,1.869,1.132,3.556,1.454,5.576.473.738.516,1.907.969,2.665.291.842.379,1.884.969,2.424,1.9,7.476,3.737,15.007,3.878,24.235-.241,3.557-1.284,6.309-1.94,9.452a14.468,14.468,0,0,1-6.543,5.333q-.392.02-.764.02C1238.49,416.631,1236.259,415.394,1233.756,414.43Zm9.937-4.12c1.253-2.221,1.713-5.234,2.183-8.24.094-2.6-.385-4.624-.486-7.027h-.485c-.661.306-.966.972-1.453,1.453-.592,2.882-1.666,5.282-4.363,6.059h-1.212a5.633,5.633,0,0,1-2.908-2.667c-.335-.634-1.1-.834-1.211-1.7-.762-.21-.539-1.4-1.454-1.453-.875.939-.13,2.559.484,3.392.34,1.276,1.093,2.138,1.455,3.392a34.21,34.21,0,0,0,4.363,5.575,4.663,4.663,0,0,1,1.7.969c.248-.023.483-.033.708-.033A26.066,26.066,0,0,1,1243.693,410.31Zm-39.717-.241a8.1,8.1,0,0,0,3.121-.244c.827-.385.756-1.666,1.453-2.182a5.5,5.5,0,0,1,.486-1.453c.221-.425.082-1.209.485-1.453.317-2.188,1.608-3.4,1.939-5.576a21.392,21.392,0,0,1-1.939-1.7h-2.182c-2.281,1.759-2.376,5.705-6.3,5.817-.876-.014-1.175-.6-1.939-.726a14.946,14.946,0,0,1-1.454-2.424c-.8-.5-.516-2.07-1.7-2.181-.316,1.113.551,2.952.727,4.361.435,1.5,1.1,2.784,1.453,4.363.724.73,1.2,1.708,1.939,2.423a4.322,4.322,0,0,1,1.939.969c.253-.021.519-.028.793-.028C1203.182,410.039,1203.579,410.054,1203.976,410.069Zm-5.847-14.786a43.833,43.833,0,0,1,2.91,4.605c1.309-.386,1.464-1.926,2.181-2.908a6.411,6.411,0,0,1,2.666-2.665,9.318,9.318,0,0,1,3.636-.485,2.469,2.469,0,0,1,1.489.406c.521.285.967.571,1.419.321.445-4,1.6-7.29,2.181-11.149.573-1.608.938-3.426,1.454-5.09.806-1.456,1.13-3.4,2.425-4.362h2.665a13.71,13.71,0,0,1,4.119,4.121c1.227,2.328,1.8,5.312,2.667,8,.478,3.077,1.871,5.239,2.424,8.241.411.238.877-.028,1.377-.293.557-.3,1.156-.591,1.774-.192,1.341.274,1.677,1.552,2.666,2.18.763.934,1.162,2.232,2.665,2.424.212-1.406,1.031-2.2,1.455-3.391,1.1-.355,1.455-1.454,2.181-2.182.463-.1.608-.522,1.212-.484.077-.571,1.149-.144.97-.971-1.171-6.342-2.44-12.585-4.121-18.418a61.94,61.94,0,0,1-2.423-8.966,30.09,30.09,0,0,1-1.94-9.454c.282-.04.264-.383.242-.726a5.812,5.812,0,0,1,1.212-1.211c.5.095.613-.2.726-.486s.227-.581.727-.484a34.124,34.124,0,0,1,6.3-.485c.546-.524-.2-.827,0-1.7a4.8,4.8,0,0,0,.726-1.7,12.011,12.011,0,0,1,3.878-1.94c-.29-2.538-2.135-3.52-2.423-6.058.4-.323.081-1.373.484-1.7.076-.433,1.282-.95.485-1.457-.066.34-.518.293-.971.247a2.147,2.147,0,0,0-.725,0,4.536,4.536,0,0,1-1.94.241c-3.837-.364-8.223-.176-11.633-.967a7.835,7.835,0,0,1-2.424-3.152c.5-.062.067-1.066.486-1.211-.115-.76.651-.641.727-1.213.87-.419,1.207-1.377,1.938-1.939a22.815,22.815,0,0,0,2.182-7.512,26.051,26.051,0,0,0-.726-8c-.039-.152.041-.335,0-.486-.224-.809-.875-2.282-.97-2.666A2.654,2.654,0,0,0,1234,309c-.247-.474-.414-.96-.727-1.454a18.747,18.747,0,0,0-1.21-1.7,8.221,8.221,0,0,0-1.454-1.456c-.306-.25-.691-.772-.97-.968s-.865-.293-1.212-.484a13.992,13.992,0,0,0-1.211-.728,15.989,15.989,0,0,0-6.3-1.211.757.757,0,0,0-.508.119.765.765,0,0,1-.463.124c-6.471.315-10.565,3.007-14.541,5.816-3.561,3.307-7.2,6.53-8.24,12.361a13.913,13.913,0,0,0,.484,3.878,23.491,23.491,0,0,0,3.151,5.09c.679.695,1.076,1.671,1.939,2.18.521.853,1.491,1.257,1.7,2.425-.23,2.519-1.272,4.222-3.151,5.09a37.128,37.128,0,0,1-7.923-.135,31.722,31.722,0,0,0-7.589-.109c-.473,3.867,3.281,3.506,3.635,6.544v1.7c-.856,2.536-3.493,3.292-6.543,3.634a3.725,3.725,0,0,0,2.181,2.424,15.721,15.721,0,0,0,3.151-.242c2.875-.144,6.449-.406,7.755.968.052.272.269.378.484.485a89.758,89.758,0,0,1-.726,11.875c-.441,3.942-.594,7.769-.97,11.876.167,5.894-.42,12.54.485,17.691a5,5,0,0,1,.642-.043A6.275,6.275,0,0,1,1198.129,395.283Zm-22.782-56.712c-.9.392-2.179.406-3.151.727-1.23.142-1.871.875-2.908,1.211a36.582,36.582,0,0,0-2.665,3.152,9.977,9.977,0,0,0,0,4.6c1.877,3.858,7.109,4.362,13.087,4.119-.646-1.428.061-3.015.485-4.119,1.231-1.758,4.611-1.366,6.059-2.908-.1-1.272-1.236-1.51-1.94-2.182a11.259,11.259,0,0,1-1.7-2.424,7.033,7.033,0,0,1-.243-2.665h-.726c-.356.345-1.11.294-1.864.244a6.209,6.209,0,0,0-1.287,0c-.356.346-1.11.3-1.864.245-.269-.018-.538-.036-.789-.036A3.222,3.222,0,0,0,1175.347,338.571Zm76.1,1.213c.677,2.392,2.57,3.568,2.666,6.543-.434,2.474-2.556,3.26-5.09,3.636.008.878.714,1.065,1.7.967.485-.4,1.8.022,2.181-.483a7.956,7.956,0,0,0,2.275-.369,7.57,7.57,0,0,1,2.572-.358c.484-.566,1.7-.4,2.181-.97,1.2.069,1.446-.815,2.424-.968a28.617,28.617,0,0,0,3.877-2.909c.539-1.8,1.316-3.37,1.212-5.817-1.663-2.7-5.647-3.077-9.937-3.15-.032-.345-.156-.209-.352-.073a.528.528,0,0,1-.617.073h-1.7A5.9,5.9,0,0,1,1251.448,339.784Zm5.333,70.526a6.048,6.048,0,0,1-1.939-3.635,18.494,18.494,0,0,1,.726-2.424c.832-.217,1.054-1.048,2.182-.97-.044-.205.094-.228.243-.241h1.453c.04.284.442.2.727.241,1.508,1.159,2.855,2.479,2.666,5.333-.283.039-.2.441-.241.724a5.638,5.638,0,0,1-1.939,1.7c-.18.016-.351.023-.516.023A13.371,13.371,0,0,1,1256.781,410.31Zm1.939-4.847c-.319.247-.894.238-1.212.485-.21,1.826.614,2.617,2.182,2.667.517-1.015.389-3.153-.907-3.153Zm-82.644,1.454c.918-1.427,3.31-.986,4.12.242.209,1.664-.263,2.646-1.212,3.151q-.244.021-.468.021C1176.564,410.331,1175.8,409.148,1176.075,406.917Zm91.854-1.212c-1.415-5.1,2.444-8.171,7.27-7.028.4.41.526,1.089.969,1.454a4.763,4.763,0,0,1-1.211,3.877c-.95-.141-.62,1-1.212,1.211-.2.608-.85.769-1.211,1.213a6.013,6.013,0,0,1-1.754.255A3.819,3.819,0,0,1,1267.929,405.7Zm3.392-4.119c-.347.947-1.657.925-1.453,2.423a1.8,1.8,0,0,0,1.377-.22,1.827,1.827,0,0,1,1.047-.266c.388-.983,1.453-1.294,1.454-2.665h-.072C1272.646,400.857,1272.222,401.46,1271.321,401.585ZM1165.9,399.161c-.105-1.407,1.474-2.519,2.423-1.7.233.2.663.121.969.243.108,1.023.956,1.307.728,2.667a5.845,5.845,0,0,1-.97.968l-.168,0A2.792,2.792,0,0,1,1165.9,399.161Zm10.663-3.151c-.125-1.579.814-2.092,2.424-1.938.689.683,1.508,1.238,1.454,2.667-.237.006-.187.3-.242.482a1.978,1.978,0,0,1-1.285.45A2.453,2.453,0,0,1,1176.559,396.01Zm84.1.486a5.746,5.746,0,0,1-1.939-5.332c.472-.5.757-1.183,1.7-1.211-.045-.206.095-.229.242-.242h2.423c1.533.973,2.924,2.084,2.91,4.605a3.728,3.728,0,0,1-1.7,2.424c-.327.009-.652.015-.97.015A10.836,10.836,0,0,1,1260.658,396.5Zm.243-4.12c-.439.887.815,2,1.938,1.454a1.212,1.212,0,0,0-1.112-1.717A1.459,1.459,0,0,0,1260.9,392.376Zm13.571-7.754a3.907,3.907,0,0,1,.243-2.425c1.242-1.044,3.439-.667,3.635,1.211a2.185,2.185,0,0,1-1.939,2.18,2,2,0,0,1-.2.011C1275.305,385.6,1275.086,384.911,1274.472,384.621Zm-45.078-.728c-.544-3,3.741-4.43,4.847-2.182a2.919,2.919,0,0,1-3.051,2.863A2.573,2.573,0,0,1,1229.394,383.893Zm-55.016-2.909c.379-3.962,6.219-5,8.968-2.182a1.065,1.065,0,0,0,.485.969,5.59,5.59,0,0,1-.969,3.878,6.649,6.649,0,0,1-2.557.506A7,7,0,0,1,1174.378,380.984Zm5.762.342c.373.126.676.251,1.026-.1.054-.457-.275-.534-.243-.967a5.7,5.7,0,0,1-1.2-.116,2.782,2.782,0,0,0-1.948.116c-.107.913,1.267.349,1.455.967a1.369,1.369,0,0,1,.273-.028A1.951,1.951,0,0,1,1180.139,381.326Zm24.533-.584c-.752-1.267-2.246-1.792-1.939-4.12a2.457,2.457,0,0,1,2.424-.485c.935,1.328,2.921,1.6,2.909,3.878-.084.886-.83,1.109-1.455,1.453a1.633,1.633,0,0,1-.258.022C1205.544,381.491,1205.458,380.768,1204.672,380.742Zm31.022-8.483c-.033-1.789,2.7-2.645,3.393-.97a1.82,1.82,0,0,1-1.905,2.118A1.412,1.412,0,0,1,1235.695,372.26Zm-19.874-3.394a16.6,16.6,0,0,1-.241-4.119c.539-.51.667-1.434,1.453-1.7.436-.614,1.332-.77,1.939-1.211.115,0,.233,0,.351.005.544.013,1.089.025,1.345-.248a5.736,5.736,0,0,1,3.636,1.7c1.616,3.978-1.205,7.011-4.846,7.271A5.194,5.194,0,0,1,1215.821,368.866Zm2.668-1.7c1.683.067,2.768-.463,3.151-1.7a3,3,0,0,0-.986-.154C1219.543,365.319,1218.294,365.836,1218.488,367.17Zm-18.42-2.667a1.8,1.8,0,0,1,1.939-1.939c1.12.658,2.259,1.3,2.666,2.666-.029.94-.715,1.225-1.211,1.7A4.042,4.042,0,0,1,1200.068,364.5Zm.727-6.543c-.042-1.093-.118-2.219.969-2.181,1.341-.13,1.606.818,2.424,1.211.542.67,1.262,1.163.969,2.666a2.174,2.174,0,0,1-1.374.488A3.537,3.537,0,0,1,1200.8,357.961Zm15.269.727a4.129,4.129,0,0,1-1.211-7.029c1.792-1.6,5.762-2.347,7.512-.242a1.065,1.065,0,0,0,.485.968,6.379,6.379,0,0,1-.97,4.121c-1.3,1.081-2.542,2.231-4.93,2.231A8.345,8.345,0,0,1,1216.064,358.688Zm.727-3.879c.305.319.495.209.765.1a1.191,1.191,0,0,1,.689-.1c.058-.748,1.206-.408.968-1.453C1218.24,353.672,1216.879,353.606,1216.791,354.809Zm10.179-1.211c1.568-1.7,3.431.359,3.393,2.424-.348.379-.61.843-1.212.969C1227.406,356.878,1226.877,355.548,1226.97,353.6Zm-15.51-9.694c-.345-4.386,2.29-5.79,5.332-6.788h1.938c.207.362.781.351,1.212.485.4.652,1.028,1.074,1.455,1.7.9,3.865-1.427,6.231-4.363,7.029q-.335.023-.648.023A5.694,5.694,0,0,1,1211.459,343.9Zm3.15-.971a2.886,2.886,0,0,0,3.879-2.424q-.3-.023-.573-.023C1216,340.487,1214.9,341.31,1214.609,342.933Zm18.419,1.7c.054.018-.921-.828-.968-.967-.393-1.129.013-2.58,1.938-2.182.542.671,1.261,1.161.969,2.668a3.458,3.458,0,0,1-1.527.544A1.36,1.36,0,0,1,1233.029,344.629Zm-19.873-12.117a21.492,21.492,0,0,0-1.939-.968c-1.652-.716-4.114-1.255-4.12-3.878a3.414,3.414,0,0,1,1.453-.969h.486c-.087.328.2.285.484.241s.572-.087.485.242a.631.631,0,0,1,.536.138.664.664,0,0,0,.677.105c.3.583,1.289.489,1.7.97a28.277,28.277,0,0,0,6.545.484c2.632-.213,4.849-2.072,7.754-1.211-.4,3.8-3.966,4.435-7.271,5.332q-.7.036-1.362.035A30.608,30.608,0,0,1,1213.156,332.512Zm-5.575-10.905c-1.619-1.613-1.15-5.313-1.211-8.482a3.207,3.207,0,0,0,.484-1.7c.623-.023.347-.946.97-.969a1.708,1.708,0,0,1,.725-.485h1.7c3.331,1.887,3.436,11.092-.727,12.118q-.078.006-.15.006C1208.611,322.1,1208.306,321.641,1207.581,321.607Zm14.058-10.665a7.488,7.488,0,0,1,2.18-1.453c1.013-.205,1.145.472,1.939.483a8.241,8.241,0,0,1,1.454,3.393v1.94c-.523,2.708-.773,5.691-3.15,6.544C1219.228,321.718,1220.125,314.1,1221.639,310.942Z" transform="translate(-1162.236 -296.63)"/>
</svg>