<?xml version="1.0" encoding="utf-8"?><!-- Uploaded to: SVG Repo, www.svgrepo.com, Generator: SVG Repo Mixer Tools -->
<svg fill="#000000" width="800px" height="800px" viewBox="-26.03 0 120 120" xmlns="http://www.w3.org/2000/svg">
  <path id="_0503-ice-cream-cone" data-name="0503-ice-cream-cone" d="M572.139,1000.852c-.36-.6-1.082-.846-1.686-1.205a18.139,18.139,0,0,1-2.651-6.985c-.617-.986-.615-2.594-1.2-3.611a13.794,13.794,0,0,0-.964-3.614c-1.419-4.92-3.091-9.592-4.334-14.692-1.411-4.929-3.048-9.636-4.094-14.931-.571-.85-.479-1.905-.722-2.89,0-.005-.206-.1-.24-.241a18.626,18.626,0,0,1-.483-2.65,3.2,3.2,0,0,1-.482-1.687c-.856-2.274-1.2-5.057-2.167-7.224a2.447,2.447,0,0,0-1.476-.038,5.183,5.183,0,0,1-1.655.038c-.859-.346-1.994-.415-2.89-.724a8.955,8.955,0,0,1-3.612-3.371,14.407,14.407,0,0,1-.482-7.223c.5-.063.065-1.059.482-1.205.124-.356.356-.607.482-.963.145-.9,1.106-.981,1.2-1.927-.148-.895-.573-1.513-.722-2.409-.463-.5-.279-1.647-.724-2.168-.723-5.414-.592-11.708.724-16.375,1.437-4.505,3.268-8.616,6.261-11.562.391-1.135,1.378-1.673,2.168-2.407.517-.931,1.5-1.391,2.167-2.168,1.8-1.168,3.335-2.606,5.539-3.372a31.427,31.427,0,0,1,14.21-3.612c.39.067.414-.229.723-.241,11.856-.376,19.767,3.194,25.529,8.911,1,1.734,2.522,2.937,3.132,5.057,1.106,1.622,1.526,3.932,2.167,6.021a56.965,56.965,0,0,1,2.168,13.969c-.22,2.833-1.172,4.929-1.927,7.225-.156,1.6,1.282,1.607,1.686,2.649.747.7,1.016,1.874,1.685,2.649a19.392,19.392,0,0,1,.482,8.671,8.971,8.971,0,0,1-3.372,3.613c-1.989.338-3.014,1.643-5.54,1.445-1,2.372-1.615,5.129-2.649,7.466-.769,2.523-1.82,4.762-2.408,7.466-2.292,4.371-2.539,10.786-5.058,14.932-1.58,5.084-2.839,10.488-5.057,14.931-1.888,4.777-3.569,9.759-6.02,13.97a11.484,11.484,0,0,0-3.133.964c-.341.024-.669.035-.985.035A19.319,19.319,0,0,1,572.139,1000.852Zm.963-8.43c.712,1.135,1.091,2.6,3.131,2.408-.446-1.48-1.851-2-2.409-3.372H573.1Zm7.948-11.56c1.081,1.247-.46,2.524-.241,4.335a15.269,15.269,0,0,0-2.408,1.687c-.466.98-1.661,1.229-1.927,2.408.93.916,1.567,2.125,2.889,2.651,1.57-5.9,4.4-10.532,5.781-16.619,1.618-5.926,4.455-10.636,5.3-17.339-2.88-1.135-4.788-3.241-6.745-5.3-.308-.013-.334-.31-.723-.242-.665,1.664-2.476,2.18-3.131,3.854,1.3,1.667,3.033,2.909,4.336,4.577.331.31.238,1.045.241,1.686,1.179-.186,1.354-1.375,2.889-1.205a18.321,18.321,0,0,1-4.576,8.429c.521,1.565,2.247,1.928,1.926,4.335-.344.058-.406.4-.722.481-1.934.168-2.461-1.071-3.853-1.445a30,30,0,0,1-4.576,4.335c.166.957,1.058,1.188,1.445,1.926.414.789,1.27,1.139,1.685,1.927.752-.089,1.171-.511,2.012-.511A2.812,2.812,0,0,1,581.05,980.861Zm-9.876,6.022c.475.071.479-.325.724-.483.036-.445.815-.146.963-.48.2.356.775.348,1.205.48.655-.949,1.65-1.56,2.167-2.648-1.315-1.174-2.4-2.582-3.613-3.854-1.134.07-1.7.7-3.13.482C569.9,982.7,570.777,984.551,571.174,986.883Zm-2.407-9.153c.68.038.6-.68.963-.962-.8-.241-.833-1.255-1.685-1.446A8.175,8.175,0,0,0,568.767,977.73Zm3.853-2.889c.668-.777,1.651-1.239,2.168-2.167.79-.736,1.778-1.274,2.168-2.408-.595-.932-1.659-1.391-1.687-2.891a1.817,1.817,0,0,1,1.687-1.685c1.292.232,1.831,1.219,2.889,1.685a6.328,6.328,0,0,1,1.927-2.168c.365-1,1.644-1.086,1.927-2.167h-1.686c-.846-.679-1.736-1.315-2.65-1.927-.735-.791-1.273-1.778-2.408-2.168-.935.409-3.292,1.534-3.614-.239-.107-1.392,1.369-1.2,1.445-2.409a54.264,54.264,0,0,1-4.334-5.058c-.309-.012-.334-.308-.724-.24-.74,1.749-2.641,2.336-3.371,4.094.158.886.887,1.2,1.444,1.686a16.536,16.536,0,0,0,1.445,1.928c1.076,1.172,2.455,2.04,2.65,4.094-.455.026-.167.8-.724.723-2.44.033-3.1-1.713-4.334-2.891-.8-.406-1.111-1.3-1.687-1.926-.893-.309-1-1.867-2.166-1.205-.571.871.577,1.732.481,2.891a17712.781,17712.781,0,0,1,1.927,6.261,8.271,8.271,0,0,1,.964,3.131,2.034,2.034,0,0,0,1.444.24A34.371,34.371,0,0,0,572.62,974.841Zm21.194-35.163c0,.478-.657.307-.482.964-1.555,1.013-2.372,2.765-3.853,3.853-.953,1.7-2.636,2.663-3.371,4.576.084.8.721,1.045,1.2,1.445.4.483.647,1.12,1.445,1.205.867.98,1.608,2.084,3.131,2.407.535-2.357,1.248-4.531,1.927-6.744,1.105-1.865,1.3-4.639,2.409-6.5-.215-1.07-1.351-1.219-1.927-1.928C594.238,939.3,593.9,939.361,593.814,939.678Zm-21.675,8.912c1.186.82,1.944,2.069,3.13,2.89a4.03,4.03,0,0,0,2.168,2.167c.778-1.709,2.184-2.794,2.891-4.576-.614-1.313-1.847-2.007-2.409-3.371-1.124-.8-1.584-2.269-2.65-3.131A16.483,16.483,0,0,1,572.139,948.59ZM561.3,953.166c1.036-.009.809-1.28,2.168-.963,1.343-1.549,2.688-3.091,4.093-4.576-.056-.745-.67-.936-.963-1.445-.176-.706-.73-1.036-1.2-1.445-3.225.174-5.064-1.038-7.224-1.926C559.361,946.113,560.39,949.581,561.3,953.166Zm14.45-13.97c1.769.56,2.442,2.216,3.853,3.131.574.63.889,1.521,1.687,1.927.571.635.956,1.452,1.926,1.688.086-.8.723-1.045,1.206-1.446.084-.8.721-1.045,1.2-1.445.446-1.4,1.98-1.714,2.409-3.13a23.547,23.547,0,0,1-4.645.242c-.625-.006-1.249-.013-1.858,0a20.584,20.584,0,0,1-5.057-2.168C576.256,938.418,575.892,938.695,575.751,939.2Zm-7.706,5.3c-.018.821.708.9,1.2,1.2.686-1.24,2.155-1.7,2.891-2.889C570.716,943.313,569.816,944.342,568.045,944.5Zm5.057-2.168c.462-.421,1.483-.283,1.445-1.2-.5-.508-.905.318-1.205.723-.48.244-1.029.417-1.2.964C572.8,942.984,572.623,942.331,573.1,942.327Zm-6.743-1.927a10.871,10.871,0,0,0,3.853-1.925,18.426,18.426,0,0,1,3.372-2.408c.013-1.138-.926-1.324-1.2-2.169-.361-.824-.4-2.381.481-2.65,1.283-.708,2.555.43,3.131,1.205,1.178.427,1.944,1.266,3.131,1.687,2.137,1.153,5.038,1.544,7.948,1.927.881-.325,1.73-.678,2.648-.963a11.59,11.59,0,0,0,1.927-2.651c.859-.746,1.057-2.154,2.892-1.927a1.7,1.7,0,0,1,1.444.964c.768,1.2-.247,2.4-.24,3.614a3.475,3.475,0,0,1,1.686,1.2,1.258,1.258,0,0,0,1.232-.058,2.252,2.252,0,0,1,1.176-.183c.915.206,1.159,1.087,2.409.962a9.2,9.2,0,0,0,3.13-2.649,23.039,23.039,0,0,0-.241-3.854,2.4,2.4,0,0,1-.722-1.445c-.294-.51-.906-.7-.964-1.445-1.094-1.235-2.89-1.767-3.371-3.613,0-.639-.091-1.376.241-1.686.475-.166-.06-1.344.481-1.444-.065-2.155.513-3.665.723-5.54v-5.78c-.328-1.921-.672-3.823-.962-5.78-.769-1.48-1.477-3.02-2.168-4.577a23.145,23.145,0,0,1-3.132-3.131c-1.258-.828-2.618-1.555-3.853-2.407-1.437-.651-1.99-2.184-3.613-2.651-.971-1.115-2.7-1.477-3.853-2.407a31.788,31.788,0,0,1-5.3-1.205h-4.575c-5.223.959-9.421,2.943-13.728,4.817q-1.926,1.688-3.854,3.372c-1.156,1.253-2.275,2.542-3.372,3.854a39.427,39.427,0,0,0-2.889,11.078v5.539c.257,1.43.529,2.843.722,4.335a12.758,12.758,0,0,1,1.445,2.89c.412.31.948.5.964,1.205,1.443,1.447,3.871,1.91,3.853,4.816-.294,1.145-2.914,1.727-3.853.723-1.724-.122-1.936-1.756-3.613-1.926-.314.57-1.3.464-1.927.723-1,1.338-.995,5.107-.241,6.743,1.515,1.684,4.9,1.12,7.707.963.812.153,1.236.692,2.408.482A12.732,12.732,0,0,0,566.359,940.4Zm14.45-28.418c.291-1.315,1.116-2.1,2.89-1.927.111.3.869.557,1.2.964.179.216.088.438.241.722.049.091.467.42.481.482a2.946,2.946,0,0,1-1.2,3.372C582.195,915.412,581.171,914.029,580.809,911.983Zm13.005.482c-.1-2.612,3.7-1.769,3.613.241a1.945,1.945,0,0,1-1.445,1.686A2.281,2.281,0,0,1,593.814,912.464Zm-6.984-9.874a2.23,2.23,0,0,1,3.372.239V905a5.747,5.747,0,0,1-.965.963C587.518,905.755,586.591,904.754,586.83,902.59Zm6.744-1.205c.132-1.473.8-2.406,2.65-2.168a10.624,10.624,0,0,0,1.2.964c.209,1.653-.26,2.63-1.2,3.131A2.564,2.564,0,0,1,593.573,901.385Zm-15.655-.963a6.642,6.642,0,0,1-.724-3.372c.559-.157.212-.646.482-.964.189-.221.445-.09.724-.24.076-.041.441-.474.481-.482.752-.12,1.547.49,2.168.722.43.9,1.142,2.435.722,3.612.013-.039-.231.472-.241.483a4.231,4.231,0,0,1-2.168.964C579.043,900.743,578.293,900.771,577.919,900.422Zm3.854-.725v0Zm1.686-7.222a2.1,2.1,0,0,1,3.613-1.205c.515,1.132.757,3.265,0,4.335-.28-.039-.429.053-.482.24h-.1C584.356,895.847,583.629,894.437,583.458,892.475Z" transform="translate(-542.769 -881.369)"/>
</svg>