<?xml version="1.0" encoding="utf-8"?><!-- Uploaded to: SVG Repo, www.svgrepo.com, Generator: SVG Repo Mixer Tools -->
<svg fill="#000000" width="800px" height="800px" viewBox="0 -5.72 119.999 119.999" xmlns="http://www.w3.org/2000/svg">
  <path id="_0404-knife" data-name="0404-knife" d="M832.7,800.735c-4.816-.436-8.273-2.227-12.738-3.011-.706-.606-2.072-.553-2.779-1.159-1.265-.047-1.849-.773-3.01-.926-1.827-.8-3.708-1.543-5.559-2.317a85.428,85.428,0,0,1-18.76-12.737,163.258,163.258,0,0,1-15.981-15.519c-1.224-1.4-2.549-2.7-3.705-4.17-1.232-1.392-2.182-3.066-3.475-4.4-.831-1.793-2.087-3.161-3.011-4.863a4.812,4.812,0,0,0-1.621-2.318c-.871-.438-.868-1.758-1.158-2.777,0-3.016,2.145-3.879,3.01-6.023a48.7,48.7,0,0,0-1.157-5.1c-1.743-1.035-3.682-1.875-5.558-2.778a12.935,12.935,0,0,0-2.78-2.084,33.412,33.412,0,0,1-9.032-15.054c-4.524.817-10.4.625-12.738-2.084-.621-1.078-.858-2.542-1.39-3.705V707.4a18.187,18.187,0,0,1,1.621-5.558c.4-1.989,1.628-3.159,2.316-4.865,2.3-2.254,4.849-4.261,9.033-4.631a.626.626,0,0,0,.364-.082c.167-.084.271-.168.331.082,1.69-.07,2.03,1.213,3.241,1.621.5.97,1.717,1.218,2.318,2.085a47.11,47.11,0,0,1,5.095,3.936q5.053,3.865,9.728,8.108a103.876,103.876,0,0,1,16.906,18.759c.7.368,1.889.27,2.547.694,4.552,4.4,8.932,8.982,13.434,13.435,1.923,2.553,4.4,4.553,6.485,6.948.944,1.3,2.3,2.177,3.242,3.472a12.832,12.832,0,0,1,1.622,1.621,6.454,6.454,0,0,1,1.621,1.621c4.65,4.231,9.379,8.379,13.9,12.741.789,1.449,2.267,2.211,3.012,3.705.758.4,1.094,1.22,1.852,1.621.293.786,1.284.877,1.389,1.851a5.063,5.063,0,0,1,1.622,1.853c.37.711,1.229.934,1.391,1.853a15.132,15.132,0,0,1,3.01,3.473,15.541,15.541,0,0,0,2.085,1.623c.549.61.92,1.4,1.853,1.622a16.328,16.328,0,0,0,3.7,3.475c1.191,1.2,2.452,2.333,3.706,3.473.926,1.468,2.826,1.959,2.548,4.631-.46,1.984-2.317,2.555-4.633,2.086-1.234.77-3.117.9-4.862,1.157-1.462.469-3.347.514-4.865.927Zm-63.46-55.355c-.317.609-.975.879-1.157,1.621-.427.578-1.264.744-1.39,1.623a94.577,94.577,0,0,0,11.813,14.359,83.088,83.088,0,0,0,6.484,6.718,33.221,33.221,0,0,1,3.244,3.242c.706.375,1,1.163,1.852,1.39.548.61.921,1.4,1.852,1.621,4.365,4.36,9.659,7.789,15.055,11.118a72.71,72.71,0,0,0,8.8,4.4c1.2.959,3.208,1.115,4.4,2.084a20.127,20.127,0,0,1,4.863,1.853c2.986.257,5.348,1.137,8.8.927.2-.453-.059-.45-.316-.448-.211,0-.421,0-.38-.247-.576.036-.716-.365-1.157-.464a10.6,10.6,0,0,1-2.084-1.158c-1.471-.612-2.66-1.507-2.548-3.706.862-1.111,3.222-.531,3.937.465,1.5.426,2.551,1.31,3.938,1.852.308.773,1.354.806,1.621,1.621.922.157.55,1.612,1.621,1.621.074-.282.445-.266.816-.25.355.015.709.031.805-.212a1.782,1.782,0,0,0,1.059-.1,1.849,1.849,0,0,1,.793-.134,1.857,1.857,0,0,0-1.39-1.158c-.2-.723-1.092-.758-1.39-1.389-1.088-.765-1.994-1.714-3.011-2.547-1.7-2.008-3.953-3.46-5.557-5.559-3.792-3.621-6.952-7.87-10.654-11.58-.51-1.266-1.723-1.829-2.317-3.01a13.327,13.327,0,0,1-2.547-3.012c-2-1.706-3.459-3.952-5.326-5.79-3.551-3.863-7.482-7.342-10.886-11.349-1.255-.673-2.128-1.73-3.474-2.316-2.262-2.447-4.647-4.774-6.948-7.18-.449-.71-1.155-1.163-1.622-1.852a12.238,12.238,0,0,0-1.853-1.854,7.34,7.34,0,0,0-3.937-3.243.453.453,0,0,0-.239,0,.524.524,0,0,1-.224,0,1.1,1.1,0,0,1-.231.7c-.617.231-.763.934-1.158,1.389-1,.7-1.633,1.763-2.779,2.317-.6,1.1-1.907,1.49-2.316,2.779,1.463,1.935,2.784,4.01,4.4,5.792.612,1.085,1.531,1.865,2.084,3.009a15.45,15.45,0,0,1,2.085,3.245c2.346,2.352,4.71,4.793,6.948,6.948.78.752,1.547,1.549,2.315,2.316,3.239,2.938,6.165,6.188,9.728,8.8,1.5,1.586,3.906,2.27,5.558,3.705,2.1.993,3.536,2.642,5.558,3.7.619.926,2,1.088,2.548,2.085,1.155.39,1.646,1.442,2.779,1.853,1.39,1.777,3.839,2.494,4.171,5.328-1.343,1.238-2.981-.337-4.171-.7-.946-1.06-2.368-1.646-3.243-2.779-.909-.093-.988-1.019-1.853-1.158-.3-.709-1.325-.68-1.62-1.389a37.065,37.065,0,0,1-3.475-2.549,36.656,36.656,0,0,0-3.474-2.548c-.807-1.2-2.616-1.4-3.474-2.545a16.238,16.238,0,0,1-3.242-2.782c-3.538-2.483-5.855-6.189-9.265-8.8-.761-1.247-2.272-1.745-3.01-3.013a26.947,26.947,0,0,1-3.011-3.01,46.77,46.77,0,0,1-5.1-6.949c-.621-.383-.831-1.174-1.389-1.62-.282-.724-1-1.007-1.158-1.853-.621-.383-.832-1.175-1.39-1.621-.518-.486-.565-1.443-1.39-1.621A17.42,17.42,0,0,0,769.242,745.38Zm-22.234-34.973c1.435.726,1.669,2.654,2.085,4.4,2.383,4.254,4.605,8.672,8.337,11.58a32.7,32.7,0,0,0,6.253,3.707,67.682,67.682,0,0,0,7.643,2.547c1.141-.711,1.695-2.012,3.01-2.547.687-1.246,2.524-1.337,3.011-2.78-4.191-6.308-10.106-10.894-15.518-15.98-2.972-2.277-5.626-4.873-8.569-7.18-1.355-1.27-2.8-2.452-4.168-3.7-1.691-.936-2.126-3.128-4.17-3.708-3.021-.164-4.216,1.5-5.79,2.78.345,2.524-.495,4.787-.464,7.643.5-.039.105.822.232,1.158a6.608,6.608,0,0,0,2.317,2.316,12.525,12.525,0,0,0,2.312-.22,13.329,13.329,0,0,1,2.063-.223A4.416,4.416,0,0,1,747.008,710.407Zm18.528,13.434c1.051-1.268,3.043-1.213,4.632-.464,2.065,1.59,1.65,6.047-1.39,6.252C765.992,729.517,764.68,726.843,765.536,723.841Zm-9.728-5.1c-.595-1.1-1.581-1.814-1.621-3.473.048-2.5,2.157-4.176,5.1-2.781a5.318,5.318,0,0,1,1.157,6.022,3.491,3.491,0,0,1-2.341.7A5.513,5.513,0,0,1,755.808,718.745Zm-13.9-12.044a8.332,8.332,0,0,1-.464-3.705c.524-.4.614-1.238,1.391-1.391-.042-.2.09-.218.231-.23q5.063-.2,4.632,5.095a4.017,4.017,0,0,1-2.779,1.853A6.494,6.494,0,0,1,741.912,706.7Z" transform="translate(-731.259 -692.177)"/>
</svg>