<?xml version="1.0" encoding="utf-8"?><!-- Uploaded to: SVG Repo, www.svgrepo.com, Generator: SVG Repo Mixer Tools -->
<svg fill="#000000" width="800px" height="800px" viewBox="-28.31 0 114 114" xmlns="http://www.w3.org/2000/svg">
  <path id="_0205-latte" data-name="0205-latte" d="M1010.9,310.575c1.04.15.99-.791,1.944-.729.351-.54,1.446-.336,1.943-.728a14.2,14.2,0,0,1,4.615.485c.533.333,1.088.833,1.7,1.215a10.375,10.375,0,0,1,2.429,2.186c.255.293.718.652.972.972.151.189.082.514.243.728.081.108.423.14.486.244.195.313.254.995.487,1.457.175.353.6.644.728.971.155.4.108.995.243,1.458.007.028.2.085.242.244a23.766,23.766,0,0,1,.244,5.1,13.948,13.948,0,0,1-2.187,3.644c-.214.781.8.334.73.972.335.149.036.935.485.971a10.479,10.479,0,0,0-.485,2.43c-.233,14.588-3.754,25.884-5.588,38.869.418.635,1.257-.342,2.185,0h2.673c5.563,1.321,8.978,4.789,9.475,11.176a14.609,14.609,0,0,0-.244,2.915,1.99,1.99,0,0,0-.485,1.458,29.4,29.4,0,0,1-4.373,6.073c-2.721,1.733-5.175,3.732-9.961,3.4-1.611-.251-2.2-1.523-3.158-2.429a55.162,55.162,0,0,1-1.943,7.289c.575.557,2.18.086,3.158.242h3.158a10.172,10.172,0,0,0,2.187.728,6.109,6.109,0,0,0,1.7,1.215,14.568,14.568,0,0,1,1.216,7.287c-.669.791-.887,2.03-1.7,2.674-11.08,1.006-24.021.408-34.982-.244-.94-.129-1.187.435-2.187.244-2.1-.488-5.234.051-7.288-.486-2.324-2.842.085-6.763,1.457-8.746.609.042.761-.373.972-.729a28.452,28.452,0,0,1,3.887-1.215c1.869-.168,2.991.411,4.859.245,0-2.346-.626-4.073-.728-6.318a63.7,63.7,0,0,1-3.159-10.2c-.715-3.739-1.83-7.078-2.186-11.175-.529-.6-.156-2.111-.73-2.672a10.081,10.081,0,0,0-.485-2.916c.007-2.193-.736-3.636-.728-5.831-.538-.029-.1-1.03-.244-1.457a2.064,2.064,0,0,1-.243-1.458c-.536-.03-.1-1.029-.243-1.457-.536-.031-.1-1.031-.242-1.458-.507-1.679-.547-3.827-1.215-5.345-.047-4.084-1.095-7.166-1.458-10.931-.731-3.319-1.215-6.883-1.943-10.2.08-1.3,1.187-1.567,2.186-1.944-.057-.915-.915-1.029-.972-1.944-.767-.122-.393-1.388-.971-1.7a1.582,1.582,0,0,0-.243-1.215,11.99,11.99,0,0,1,.486-4.373,35.314,35.314,0,0,1,2.429-2.915,25.8,25.8,0,0,0,2.673-1.7,14.56,14.56,0,0,0,2.915-1.215,16.261,16.261,0,0,0,5.587-2.672c.161-.813.755-1.189.972-1.943.219-2-.59-2.975-.972-4.373a20.563,20.563,0,0,0-1.214-1.7c-.561-.412-1.332-.611-1.215-1.7,1.261-2.139,5.161-1.64,8.5-1.7C1004.448,300.667,1007.757,305.538,1010.9,310.575Zm-15.062-3.887a20.925,20.925,0,0,1-.243,4.373,8.474,8.474,0,0,0-1.214,2.185c-1.073.711-1.719,1.846-3.159,2.187-.783,1.081-2.568,1.157-3.644,1.943-2.8.843-5.494,1.794-7.045,3.888a12.09,12.09,0,0,0,.485,4.615c1.275,1.809,5.141,2.028,8.018,1.458,3.24-.161,6.648-.153,9.717-.486h21.135a8.158,8.158,0,0,0,2.916-4.373c-.239-3.644-2.739-7.972-5.831-8.745a7.052,7.052,0,0,0-4.373.485c.461,1.734,1.549,4.6-.971,4.86-.8-.252-.525-1.582-.972-2.187-.122-1.012-.85-1.418-.972-2.43-2.1-2.923-4.294-5.748-6.559-8.5-1.131-.408-1.75-1.328-2.915-1.7a16.515,16.515,0,0,0-3.645-.972c-.659.15-1.928-.308-2.185.244A6.328,6.328,0,0,1,995.837,306.688ZM981.5,331.954c.766,3.2,1.686,6.248,2.428,9.474,1.236-.224,2.31-.607,3.645-.73,5.434-.168,10.995-.942,16.519-.971,5.684-.031,11.138.939,16.52,1.215.566-3,1.343-5.784,1.943-8.746C1009.439,330.739,994.674,332.694,981.5,331.954Zm12.389,12.63c-.551,1.474-1.208,2.843-1.7,4.374.219.659.543-.555.972-.485.525-.2.828-.63,1.7-.486.364.527,1.216.566,1.215,1.458-.031,1.911-1.018,2.87-1.7,4.13.091,1.063-.7,1.248-.73,2.185-.165.578-1.1,1.637-.485,2.187a36.663,36.663,0,0,1,2.186-4.13c.967-1.138,1.421-2.789,3.887-2.429.218.429.586.708.729,1.215-1.174,4.495-3.853,7.483-5.345,11.66a35.4,35.4,0,0,0-2.672,5.831c-.764.612-.764,1.989-1.458,2.672-.309,1.025-1.161,2.117-.485,3.4,1-.136.726-1.539,1.457-1.943.4-.81.812-1.617,1.214-2.428.968-1.381,1.706-2.992,2.673-4.373.726-1.624,1.7-2.994,2.429-4.617,1-1.344,1.417-3.279,3.645-3.4.379.349.845.611.971,1.215-.148.58.3,1.762-.243,1.943a22.375,22.375,0,0,1-1.458,3.158c-.963,2.113-2.179,3.975-3.158,6.074-1.573,2.96-3.132,5.937-4.615,8.989-.337.39-.205,1.252-.729,1.457.137.644-1,1.237-.243,1.7,1.823-3.116,3.5-6.384,5.345-9.475.842-1.668,1.706-3.314,2.672-4.859.853-1.656,1.487-3.533,3.643-3.887,1.31.082,1.585,2.321.73,3.158-.329,1.371-1.233,2.168-1.458,3.645-1.385,1.933-1.987,4.653-3.4,6.558a34.188,34.188,0,0,1-3.4,6.56c-.7,2.7-3.06,3.742-2.672,7.53,1.2-.092,1.041-1.549,1.943-1.943a10.754,10.754,0,0,1,1.457-2.429c.807-1.785,2.084-3.1,2.673-5.1.8-.5.927-1.664,1.457-2.431a25.915,25.915,0,0,0,1.458-2.428c1.316-1.357,1.535-3.808,3.887-4.131.895.159,1.274.832,1.458,1.7a22.116,22.116,0,0,1-2.43,5.587c-.9,1.791-1.815,3.505-2.673,5.344-2.1,3.321-3.784,7.067-6.073,10.2a3.11,3.11,0,0,1-2.185.729c.28,1.34-.1,3.336,1.214,3.644.569-.062.139-1.067,0-1.214.361-.206.351-.782.486-1.215,1.563-1.918,2.712-4.252,4.13-6.317a35.965,35.965,0,0,1,1.943-3.157c.774-1.009,1.245-2.319,2.915-2.43.711.328.884.771.972,1.7a2.568,2.568,0,0,1-.729,2.186,18.513,18.513,0,0,1-1.943,3.645,13.291,13.291,0,0,1-2.187,3.4,4.616,4.616,0,0,1-.971,1.7c0,.483-.663.309-.487.972-.372,0-.8.662,0,.486,1.243-.055,1.08-1.512,1.944-1.944a7.743,7.743,0,0,1,1.458-2.43c.275-1.018,1.016-1.573,1.458-2.429.62-.675.913-1.677,2.429-1.458.551.177.726.732.972,1.215a7.219,7.219,0,0,1-1.458,3.4c-.063.746-.527,1.091-.729,1.7-.157.429-1.2,1.206-.486,1.7a1.918,1.918,0,0,1,1.944-1.457c.5.31,1.232.388,1.215,1.215.809.422,1.077-.123,2.186,0,.356-.658-.221-2.11,0-3.4,2.991-17.659,5.961-35.337,9.231-52.717C1012.21,343.51,1002.339,344.2,993.893,344.584Zm-8.259,6.561c.279.529.047,1.572.728,1.7a54.955,54.955,0,0,1,3.645-7.774c-.029-.3-.074-.575-.487-.487C988.208,346.754,986.99,349.02,985.634,351.145Zm35.225,40.57c.481-.41,1.517-.265,2.187-.486.346-.543,1.317-.464,1.7-.972a22.4,22.4,0,0,0,3.158-2.185c.245-.485.42-1.038.973-1.215a14.01,14.01,0,0,1,1.214-2.673c-.175-1.479.242-2.762,0-3.887-.028-.126-.431-.508-.486-.728a2.2,2.2,0,0,0-.486-.973,6.913,6.913,0,0,0-.972-1.457,2.584,2.584,0,0,0-1.215-.728c-.086-.04-.14-.43-.242-.487a12.935,12.935,0,0,0-1.7-.486,13.933,13.933,0,0,0-5.1-.486.665.665,0,0,0-.486.73c-.016.008-.241-.012-.242,0-.716,4.82-1.375,10.068-2.43,14.818C1018.262,389.95,1019.416,391.416,1020.859,391.715Zm-17.006,14.576c-.308,1.149-.662,2.252-.971,3.4,1.151-.1,1.671.434,2.915.244a7.719,7.719,0,0,0,1.458-1.7c.674-.378.584-1.522,1.7-1.457.286.97-.178,2.15.485,3.158,4.388.176,8.151-.273,12.39-.244-.025-1.676.255-3.655-.729-4.373C1015.732,406.024,1009.528,405.893,1003.853,406.291ZM986.6,405.8c-.269,1.351-1.27,1.97-1.215,3.645,1.2.144,1.872-.235,1.7-1.457.66.173-.174-1.147.486-.973-.145-.774.456-.751,0-1.215Zm3.4,2.188c-.2.175-.653,1.681.243,1.457a10.443,10.443,0,0,0,.971-3.159h-.729C990.452,406.98,990.047,407.3,990.007,407.993Zm3.886,1.457c1.018.289.434-1.025.972-1.215-.19-.6.883-1.682-.243-1.7C994.388,407.516,994.127,408.469,993.893,409.45Zm4.13,0h1.7c-.057-1.274.592-1.838.73-2.916C998.19,406.053,998.1,407.745,998.023,409.45Z" transform="translate(-977.088 -299.631)" fill-rule="evenodd"/>
</svg>