<?xml version="1.0" encoding="utf-8"?><!-- Uploaded to: SVG Repo, www.svgrepo.com, Generator: SVG Repo Mixer Tools -->
<svg fill="#000000" width="800px" height="800px" viewBox="0 -13.73 120 120" xmlns="http://www.w3.org/2000/svg">
  <path id="_0306-meat" data-name="0306-meat" d="M1178.082,597.311a13.8,13.8,0,0,1-5.915-5.916c.172-.723-.409-.7-.236-1.42-.33.054-.284-.268-.238-.59s.093-.644-.236-.59a23.287,23.287,0,0,1,1.183-9.229c-.641-.621-2.056-.468-2.6-1.182-1.1-.161-1.6-.922-2.6-1.184-1.112-1.175-2.646-1.929-3.549-3.312a21.8,21.8,0,0,1-2.84-4.023,21.275,21.275,0,0,1-.71-6.861,29.186,29.186,0,0,0,1.42-2.839,20.7,20.7,0,0,1,2.839-2.129c4.978-1.806,10.712.252,13.723,2.6a3.446,3.446,0,0,1,2.162-.087,5.875,5.875,0,0,0,1.86.087c3.676-1.215,6.418-3.362,9.464-5.2,2.2-1.742,3.728-4.16,5.679-6.153,2.251-1.613,3.214-4.513,5.2-6.389.166-1.41.994-2.16,1.42-3.311a4.5,4.5,0,0,1,.947-1.419,4.667,4.667,0,0,1,.709-1.656c1.026-2.05,1.9-4.253,3.075-6.151a42.5,42.5,0,0,1,12.54-15.616,43.607,43.607,0,0,1,18.692-9.227c.382.067.408-.224.71-.238,2.236.448,3.849,1.516,6.152,1.895,1.246.962,2.919,1.5,4.021,2.6.886.218,1.244.964,2.129,1.184,1.031.074,1.5.711,2.367.946a46.28,46.28,0,0,1,4.968,5.2c1.271.543,1.9,1.729,3.077,2.366,1.275.538,1.957,1.672,2.839,2.6,1.921,1.706,3.176,4.08,4.731,6.151a47.709,47.709,0,0,1,2.6,7.335,54,54,0,0,1,4.5,11.355,23.126,23.126,0,0,1,.236,4.969,17.522,17.522,0,0,0,1.419,4.259c.076,1.74.358,3.27.474,4.969a4.412,4.412,0,0,0-.238,1.893c-.5,2.026-1.578,3.47-2.366,5.2a58.069,58.069,0,0,1-6.151,5.916c-1.078.972-2.557,1.544-3.548,2.6a24.5,24.5,0,0,0-4.023,1.893c-3.56.384-6.677,1.21-10.41,1.419-8.783-.285-15.491-2.649-22.95-4.258a86.834,86.834,0,0,0-25.316-.947c-2.285,1.028-4.071,2.554-6.625,3.311-.92,1.131-1.7,2.406-2.6,3.55-1.231,3.344-2.309,6.84-4.259,9.464a14.294,14.294,0,0,1-7.1,6.388,12.089,12.089,0,0,1-2.666.266A14.843,14.843,0,0,1,1178.082,597.311Zm2.129-19.4c-.407.3-.293,1.126-.947,1.184-.041.667-1.123.294-.946,1.182a9.061,9.061,0,0,1-1.183,3.076c.057,1.556-.416,2.582-.237,4.259a13.831,13.831,0,0,0,2.129,4.258,6.552,6.552,0,0,0,3.786.711c.736-.211,1.1-.791,1.893-.946a19.707,19.707,0,0,0,3.312-4.732c1.153-1.529,1.559-3.8,2.839-5.206q.875-3.145,1.657-6.387a11.538,11.538,0,0,1,2.128-2.128c.452-1.049,1.742-1.256,2.129-2.369a15.589,15.589,0,0,0-.472-3.074c-1.6-.532-4.361.1-5.679-.71a6.773,6.773,0,0,1-1.183-3.548c-1.6.609-2.576,1.838-4.022,2.6-.9.2-1.5.7-2.366.946-.882.3-1.4.97-2.839.71-1.8-.482-2.7-1.873-4.257-2.6a16.919,16.919,0,0,0-4.5-2.367,5.872,5.872,0,0,0-2.839-.473,5.593,5.593,0,0,0-2.84,3.312c.238,1.735.813,3.131,1.183,4.732a11.635,11.635,0,0,0,2.129,2.13c.356.354,1,.424,1.183.947a4.678,4.678,0,0,1,1.658.709h3.312c.278-.033.536-.421.711,0,1.417-.317,1.443-2.027,3.073-2.129C1180.78,573.059,1180.192,575.506,1180.211,577.91Zm63.409-4.495c3.629.953,9.328,1.794,13.486.709-.153-1.03-1.23-1.137-1.419-2.129-.774-.408-1.118-1.249-1.894-1.657-1.022-1.342-2.619-2.112-3.548-3.548-.292-.5-.655-.923-.947-1.42-1.718-4.118-3.157-8.515-5.2-12.3a15.19,15.19,0,0,1-4.022-.473c-4.638-2.381-6.207-7.831-7.1-13.96-.582-10.045,1.242-17.684,2.365-26.026-.052-.183-.2-.274-.473-.236-.052.185-.2.275-.473.236a4.894,4.894,0,0,1-2.13.71c-1.7,1.3-3.839,2.156-5.441,3.551-1.795,1.2-3.441,2.554-5.206,3.784-1.391,1.606-3.141,2.853-4.258,4.732-1.571,1.5-2.328,3.824-3.549,5.678-1.674,4.321-2.8,9.193-4.97,13.013-1.814,4.258-4.639,7.505-7.1,11.12-1.33,1.352-3.176,2.187-4.258,3.785a17.516,17.516,0,0,0-2.366,1.657c-.61.731-2.087.595-2.13,1.892a1.547,1.547,0,0,1,.237,1.184c5.245-.67,7.432,1.717,7.571,6.151.317.237.464.64.947.71.1.452.085,1.019.71.946a40.733,40.733,0,0,1,5.2-1.183,29.045,29.045,0,0,1-.71-4.258c-.4-1.167-.444-3.447.947-3.55,1.438.376,1.453,2.176,2.366,3.076a43.4,43.4,0,0,1,1.183,4.5c.3-.008.616,0,.93,0a6.178,6.178,0,0,0,2.382-.24c-.5-1.547-1.088-3.01-1.656-4.495-.438-.036-.145-.8-.474-.947-.1-.45-.675-.428-.472-1.183a1.132,1.132,0,0,1,.236-1.892c1.915-.536,3.1,1.6,4.022,2.839a17.634,17.634,0,0,1,1.893,5.676h2.6c-.379-3.881-2.147-6.369-2.839-9.936.552-.4.571-1.322,1.656-1.183,2.478.362,2.629,3.049,3.785,4.733a36.387,36.387,0,0,1,1.894,6.625,2.345,2.345,0,0,1,1.184.117,2.362,2.362,0,0,0,1.182.118c.346-1.2-.824-2.757-.709-4.5a4.838,4.838,0,0,1-.474-2.364c-.022-1.049.28-1.772,1.183-1.894,2.262.023,2.075,2.5,3.075,3.785.385,1.98.913,3.819,1.419,5.679a14.3,14.3,0,0,0,2.84.709c.108-1.948-1.735-5.857.945-6.152,1.289.447,1.576,1.9,1.657,3.551.57,1.243.217,3.411,1.893,3.548.561-.148-.036-1.455.473-1.655a1.664,1.664,0,0,1,1.419-.946C1243.168,570.238,1243.238,571.982,1243.62,573.415Zm-3.076-62.227c-1.678,3.133-1.469,8.153-2.366,12.068-.811,4-.733,8.888-.71,13.721.288,2.314.789,4.417,1.183,6.626,1.016,1.587,1.368,3.837,3.312,4.5.929.49,2.795.045,3.787.472,2.426,1.359,3.717,3.856,4.495,6.863,1.428,2.356,2.214,5.356,3.312,8.044.656.685,1.293,1.387,1.893,2.128.351.281,1.057.205.947.947.693.016.877.541,1.183.948,1.608,1.15,2.231,3.289,4.495,3.784a8.965,8.965,0,0,0,6.388-3.076c1.237-.338,1.561-1.595,2.6-2.129.739-.919,1.814-1.5,2.6-2.366a40.634,40.634,0,0,0,.237-13.014,3.119,3.119,0,0,1-.473-1.655,6.015,6.015,0,0,1-.473-1.893,20.994,20.994,0,0,1-.946-3.786,15.632,15.632,0,0,1-2.366-6.151c-1.221-1.539-1.653-3.868-2.84-5.442-.634-2.126-1.975-3.544-2.839-5.442a3.359,3.359,0,0,1-1.419-1.655,49.027,49.027,0,0,0-4.5-3.786c-1.221-1.539-3.138-2.38-4.5-3.785-3.705-1.421-6.137-4.115-9.464-5.916a25.435,25.435,0,0,0-3.075-.709A.646.646,0,0,0,1240.544,511.188Zm17.271,40.932a7.565,7.565,0,0,1-4.494-3.075,14.547,14.547,0,0,1-1.421-2.366c-.527-.735-.673-1.849-1.182-2.6a14.591,14.591,0,0,1,.947-8.517,5.494,5.494,0,0,1,3.312-1.894c.263-.04.43.01.472-.236,1.41.008,2.281.557,3.55.709a8.217,8.217,0,0,0,2.128,1.42c.6.9,1.227,1.77,1.894,2.6a22.237,22.237,0,0,0,1.183,3.075c-.185,1.6.323,2.517.237,4.023-.18,1-.294,2.072-.473,3.075a17.56,17.56,0,0,0-1.419,2.365c-1,.42-1.686,1.154-2.84,1.42Zm-2.129-14.668a12.692,12.692,0,0,0-.945,4.494,13.6,13.6,0,0,0,.945,3.787,9.389,9.389,0,0,0,1.894,1.893c.6.735,1,1.683,2.6,1.419,1.434-.853,1.554-3.021,1.656-5.2a14.746,14.746,0,0,0-1.893-4.734,5.638,5.638,0,0,0-2.84-2.366c-.18,0-.368-.012-.546-.012C1256.028,536.729,1255.583,536.817,1255.686,537.452Zm-38.8,10.883c-.208-1.53.157-3.615,0-5.2.287-.423.044-1.377.474-1.656-.067-.383.224-.409.236-.71h.474c1.509.3,1.066,2.56,1.656,3.784v2.13c.3,1.445.622,4.211-.71,4.732C1217.482,551.376,1217.086,549.827,1216.884,548.335Zm4.023-3.075c.058-1.913-.176-4.118.238-5.679.493-.137.674-.587,1.418-.473,1.5,1.335,1.517,4.162,2.13,6.389-.005,2.045.361,4.46-1.419,4.731C1221.172,549.884,1221.316,547.3,1220.907,545.26Zm5.678-12.067c.311.084.374.417.709.473-.168.369.331.657.474.946.042.086-.07.417,0,.473.319.262.324.354.473.947.384,1.534,1.217,5.708-.71,6.624C1224.247,541.987,1225.233,535.23,1226.585,533.192Z" transform="translate(-1160.293 -505.273)"/>
</svg>