<?xml version="1.0" encoding="utf-8"?><!-- Uploaded to: SVG Repo, www.svgrepo.com, Generator: SVG Repo Mixer Tools -->
<svg fill="#000000" width="800px" height="800px" viewBox="-0.94 0 116 116" xmlns="http://www.w3.org/2000/svg">
  <path id="_0603-muffin" data-name="0603-muffin" d="M565.369,1194.248c-2.086-.382-4.394-.543-6.383-1.021-2.141-.327-4.662-.275-6.128-1.277-1.8-.409-1.728-2.7-3.065-3.574a199.353,199.353,0,0,0-5.872-21.7c-.8-1.5-1.255-3.342-2.043-4.852-1.018-2.433-2.188-4.605-3.319-6.895-1.091-2.2-2.61-4.385-3.064-7.149a1.191,1.191,0,0,0-1.1-.232,2.451,2.451,0,0,1-.941-.023c-.261-.065-.6-.461-.767-.509a13.126,13.126,0,0,1-2.552-.768c-.22-.122-.247-.67-.767-.509a29.375,29.375,0,0,1-5.618-5.873c-.668-1.205-1.373-2.371-2.041-3.574a39.154,39.154,0,0,0-1.533-4.086,40.094,40.094,0,0,1,0-12.512c.537-.312.166-1.537.765-1.787a4.2,4.2,0,0,1,.512-1.786c.28-1.251.96-2.1,1.276-3.32,1.4-1.658,2.127-4,3.83-5.362.414-1.2,1.461-1.773,2.3-2.552.434-1.1,1.538-1.527,2.3-2.3a30.836,30.836,0,0,1,5.108-4.084,68.751,68.751,0,0,1,26.554-10.471c.974-.3.443-2.11,1.277-2.553a7.649,7.649,0,0,1,1.276-2.552c1.6-1.893,3.281-3.7,6.129-4.343.413.073.439-.24.766-.254,7.991-.588,10.11,4.7,11.745,10.469,1.569.473,3.638.446,4.851,1.276a24.443,24.443,0,0,1,8.171-.767c5.313.561,9.218,2.528,13.278,4.341.612.921,2.044,1.021,2.809,1.788a9.06,9.06,0,0,1,2.552,1.786c2.1.792,3.467,2.321,5.107,3.576,6.378,5.368,11.611,11.88,12.767,22.468-.049,3.967-.006,7.838.256,11.492-.019,1.087-.427,1.785-.256,3.063a3.473,3.473,0,0,0-.51,2.043c-.511.34-.568,1.134-.766,1.787-.452,1.248-.993,2.412-1.532,3.575-2.821,2.965-5.952,5.624-11.489,5.872-4.177,10.039-7.231,21.2-10.98,31.662-2.027,2.994-3.791,6.253-6.894,8.17-.974.559-2.679.387-3.575,1.022a10.935,10.935,0,0,0-3.319,1.021,78.118,78.118,0,0,0-9.7,1.278,70.531,70.531,0,0,0-11.377-.13c-1.975.082-3.961.164-5.949.164C566.756,1194.281,566.062,1194.271,565.369,1194.248Zm-21.447-46.471c-.106,1.211.964,1.248,1.021,2.3.782.325.751,1.462,1.532,1.786.061,1.048.868,1.347,1.021,2.3.665.527.732,1.65,1.277,2.3.6,1.615,1.358,3.067,2.042,4.6.706,1.592,1.216,3.381,2.043,4.851.973,3.538,2.551,6.472,3.32,10.214.875,1.422,1.035,3.559,1.787,5.106a31.552,31.552,0,0,0,1.531,5.363c13.086-.364,26.151-.744,38.813-1.534a14.368,14.368,0,0,0,4.594-7.66,20.428,20.428,0,0,0,1.788-4.341,19.34,19.34,0,0,0,2.042-4.085c1.037-3.047,2.644-5.526,3.064-9.192.865-3.3,2.145-6.2,3.065-9.447-1.843-.454-3.1-1.5-4.852-2.043a11.11,11.11,0,0,0-2.3-1.786c-.693-.754-1.181-1.713-2.3-2.043-1.686,1.8-3.331,3.648-5.874,4.594a34.5,34.5,0,0,1-4.849-.255c-.691-.67-2.219-.5-2.81-1.276a16.6,16.6,0,0,1-2.809-1.277c-.7-.66-1.637-1.086-2.3-1.786-.953-.409-1.134-1.589-2.3-1.787a13.147,13.147,0,0,1-9.448,4.6c-7.339-.312-11.233-4.866-16.851-6.382C552.718,1143.806,549.109,1146.58,543.922,1147.776Zm62.046-10.724c1.327,1.312,2.574,2.7,3.83,4.086,1.248.454,2.061,1.342,3.32,1.787a15.527,15.527,0,0,0,3.83,1.277h4.085c.043-.3.4-.277.767-.256,3.429-1.764,4.732-5.652,6.638-8.937.115-1.588.348-3.056.511-4.6a35.851,35.851,0,0,0-2.3-14.809,32.393,32.393,0,0,0-7.66-9.7,48.4,48.4,0,0,0-9.958-7.4c-3.763-2.027-7.349-4.229-12.513-4.853-.47.324.831,1.025,1.021,1.532.245.676,1.059,1.624.512,2.3-.087.932-.875,1.168-1.533,1.532-2.275-.278-3.5-1.6-5.362-2.3-2.088-.78-2.975-2.382-5.872-2.042-.909.707-1.035,2.2-1.534,3.318-2.045,2.5-4.767,5.282-9.445,4.342a22.919,22.919,0,0,1-2.809-1.532,14.417,14.417,0,0,0-2.808-1.533,20.815,20.815,0,0,0-3.065-3.064c-.1-.838-.746-1.126-1.021-1.788-.347-.588-.447-1.425-1.531-1.276a6.236,6.236,0,0,0-1.021.256c-1.021.2-1.426.284-2.3.509-1.769.461-3.713,1.184-5.107,1.534-.531.131-1.844.715-2.043.766a.679.679,0,0,1-.236-.006.537.537,0,0,0-.275.006c-.124.053-.355.449-.51.51a.818.818,0,0,1-.4,0,.885.885,0,0,0-.37,0c-.094.029-.382.461-.509.51a.818.818,0,0,1-.4,0,.886.886,0,0,0-.37,0c-.093.028-.384.456-.511.51-.81.348-1.712.625-2.553,1.022-8.312,3.91-15.219,9.3-19.406,17.107a43.161,43.161,0,0,0-1.02,10.725c.715,2.432,1.718,4.58,2.042,7.4,1.507,2.066,2.516,4.632,4.341,6.383a1.441,1.441,0,0,1,1.022.256c.156.355.983.04,1.021.511a16.5,16.5,0,0,1,3.574.254c1.662-.38,3.892-.193,5.617-.509,3.347-1.846,7.064-3.321,10.213-5.363.687-.335.918-1.126,1.533-1.532a1.446,1.446,0,0,1,1.787-1.277c1.542-.094,2.082.812,2.553,1.789.24,1.431-.653,1.73-.766,2.806,5.392,1.164,8.2,4.9,14.81,4.854.345-.082.488-.365,1.022-.256a20.031,20.031,0,0,0,5.107-3.32,4.329,4.329,0,0,1-.766-3.064,3.854,3.854,0,0,1,1.786-2.042,22.85,22.85,0,0,1,2.554,3.319c3.386,2.316,5.838,5.566,10.469,6.637h3.064c1.632-.751,2.952-1.813,4.6-2.552.39-.976,1.578-1.149,2.042-2.043.972-.335.819-1.8,2.125-1.8Q605.877,1137.044,605.968,1137.052Zm-31.918-52.087a6.123,6.123,0,0,0,2.3,5.361,3.633,3.633,0,0,0,4.085-1.786,5.657,5.657,0,0,0-1.531-4.852c-.608.108-.863-.474-1.022-.511a3.467,3.467,0,0,0-.774-.088A3.425,3.425,0,0,0,574.051,1084.964Zm-11.235,89.366c-.661-.614-.516-2.036-1.021-2.809-.127-2.427-.831-4.276-1.021-6.638-.739-4.283-2.241-7.8-2.3-12.767a3.907,3.907,0,0,1,1.533-1.787h.255c1.7-.169,1.776,1.289,2.553,2.043.056,1.391.967,1.928,1.022,3.318a3.385,3.385,0,0,1,.51,1.787,2.091,2.091,0,0,1,.51,1.534,18.355,18.355,0,0,1,.766,3.574c.464.3.2,1.332.511,1.787-.125.806.46.9.255,1.786a9.206,9.206,0,0,1,.511,3.83c.576.189.1,1.433.255,2.043-.15.529.317,1.678-.255,1.786.077,1.526-.882,2.014-2.043,2.3A2.025,2.025,0,0,1,562.816,1174.331Zm30.385,0c-1.1-.849-.84-1.937-.766-3.574,1.639-5.341,2.891-11.07,5.362-15.576.378-.131.643-.377,1.021-.509,1.137-.115,1.353.692,2.043,1.02-.233,4.109-1.876,6.8-2.552,10.469-.629,1.585-1,3.426-1.534,5.108-.8,1.323-1.04,3.214-3.064,3.319C593.7,1174.338,593.4,1174.388,593.2,1174.331Zm-15.831-10.469v-4.085c.321-1.637.281-3.635,1.277-4.6a.673.673,0,0,0,.71-.1c.256-.16.445-.32.567.1,1.391.227,1.517,1.717,1.533,3.319-.058.823.45,1.081.255,2.043.156.611-.32,1.852.256,2.043.118,3.03.46,5.838.765,8.681-.631.219.075,1.777-.51,2.042a3.594,3.594,0,0,1-1.532,1.021C576.519,1173.9,578.3,1167.527,577.37,1163.862Zm.766-40.852c-.761-3.223,1.876-4.148,4.342-3.321,1.3,1.014,1.515,4.919,0,5.873-.534-.108-.676.176-1.021.256C579.533,1125.7,578.913,1124.275,578.136,1123.01Zm15.322-8.682c.311.369.974.387,1.275.766s.318,1.043.767,1.277a6.28,6.28,0,0,1,0,3.574c-.339.256-.95.241-1.021.766a4.356,4.356,0,0,1-.833.084C589.606,1120.8,589.463,1114.364,593.457,1114.328Zm-53.11,5.872c-2.533-3.04-.221-9.129,4.341-7.405a6.06,6.06,0,0,1,1.786,5.107c-.3.041-.214.465-.256.767a.7.7,0,0,0-.51.765,6.51,6.51,0,0,1-3.6,1.054A5.189,5.189,0,0,1,540.347,1120.2Zm.766-3.319c.77.622,1.381,1.164,2.552.766a2.46,2.46,0,0,0,.511-2.553,1.867,1.867,0,0,0-1.46-.7C541.69,1114.39,540.718,1115.245,541.113,1116.881Zm14.809-2.553c.81-1.335,2.264-2.748,4.34-2.043a23.7,23.7,0,0,1,1.533,2.043,4.631,4.631,0,0,1-1.021,3.83,5.3,5.3,0,0,1-1.709.305C556.965,1118.464,555.555,1116.918,555.923,1114.328ZM607.5,1112.8a5.674,5.674,0,0,1-2.3-4.6c.957-2.192,1.929-4.37,5.361-4.086.762.516,1.26,1.294,2.042,1.788.023.4-.122.973.257,1.022.028,3.623-1.308,5.883-4.9,5.883C607.81,1112.807,607.657,1112.8,607.5,1112.8Zm-51.833-4.85c-.734-.544-1.838-.717-2.553-1.277a6.357,6.357,0,0,1-.256-4.6c.058-.123.24.024.256-.255.02-.4,1.44-1.363,2.3-1.531a5.609,5.609,0,0,1,1.581-.014,6.783,6.783,0,0,0,1.482.014,8.6,8.6,0,0,1,2.554,2.3c-.022.363-.042.723.255.765v2.555a4.737,4.737,0,0,0-.765,1.531,4.879,4.879,0,0,0-1.533,1.022c-.356.006-.718.017-1.068.017A3.35,3.35,0,0,1,555.667,1107.945Zm-1.022-2.81c.276,1.171,1.151,1.742,2.808,1.533.228-.539.778-.754.766-1.533a1.728,1.728,0,0,0-1.822-1.958A1.674,1.674,0,0,0,554.646,1105.135Z" transform="translate(-519.684 -1078.281)"/>
</svg>