<?xml version="1.0" encoding="utf-8"?><!-- Uploaded to: SVG Repo, www.svgrepo.com, Generator: SVG Repo Mixer Tools -->
<svg fill="#000000" width="800px" height="800px" viewBox="-13.89 0 120 120" xmlns="http://www.w3.org/2000/svg">
  <path id="_0504-mushroom" data-name="0504-mushroom" d="M791.39,996.024c-1.143,1.619-1.292,4.23-4.276,4.009-1.579-.715-1.215-4.429-.535-5.878-.971-1.079-2.815-1.283-4.276-1.872-.783-.909-2.105-1.28-2.939-2.139a10915.655,10915.655,0,0,1-4.811-5.344,28.158,28.158,0,0,0-2.138-2.94,22,22,0,0,0-1.871-3.208,24.685,24.685,0,0,0-1.6-3.473,47.137,47.137,0,0,1-2.407-7.751c-.086-.983.229-2.366-.266-2.94.333-4.034.517-8.212,1.6-11.492a64.48,64.48,0,0,1,2.672-10.157c.737-1.4,1.208-3.068,1.871-4.542.758-1.381,1.076-3.2,1.871-4.544.849-3.428,2.386-6.167,2.938-9.887a31.987,31.987,0,0,0,2.407-5.348c.029-.365-.357-.317-.743-.268a1.459,1.459,0,0,1-.594,0,1.738,1.738,0,0,0-1.335-.267h-3.208a44.394,44.394,0,0,0-5.612.533H764.93c-3.776-.141-6.425-1.411-10.155-1.6-.043-.313-.487-.225-.8-.267-1.222-.757-2.2-1.311-3.475-2.138-.148-.1.042-.251-.266-.268-.405-.02-1.141-1.07-1.6-1.6-.445-.511-.937-1.089-1.337-1.6a16.465,16.465,0,0,1-1.335-1.6c-.369-.641-.264-1.345-.8-1.872v-4.276c.26-.008.208-.328.268-.534-.043-.846.709-.895.535-1.871q1.554-2.053,2.939-4.278c1.127-1.1,2.558-1.9,3.475-3.207,1.533-.693,2.314-2.139,4.008-2.673,2.262-2.1,5.518-3.212,8.286-4.81,6.474-2.345,13.28-4.36,22.181-4.276.432.075.46-.254.8-.267h6.682c8.373.714,16.225,1.948,22.451,4.81,2.974,1.57,5.98,3.107,8.819,4.81a23.6,23.6,0,0,1,4.276,2.4,8.319,8.319,0,0,1,2.138,1.337c.6.456,1.039,1.174,1.872,1.336.093.886.8,1.16,1.335,1.6.791,2.327,2.25,3.986,2.138,7.216-.546,2.482-2.385,3.672-3.741,5.345-1.836,1.193-3.165,2.892-4.811,4.276a63.167,63.167,0,0,1-6.95,2.939,70.2,70.2,0,0,1-8.284,1.337c-3.711-.058-7.305,0-10.691.267.154,1.718,1.3,2.438,1.6,4.009q2.805,5.613,5.612,11.226c2.576,4.906,5.194,9.772,6.949,15.5.256.546.546,1.057.8,1.6.625.087.26,1.166.8,1.337,1.034,4.221,1.166,9.346,1.069,14.7a37.314,37.314,0,0,1-1.6,8.017c-.568,2.64-1.923,4.491-2.4,7.217-3.32,5.055-7.151,9.6-13.363,11.758-.817.494.309,1.27,0,2.138-.459.342-.332,1.273-1.07,1.336-3.144.3-2.656-3.045-4.811-3.74-.8,1.164.425,2.595.267,4.008a2.631,2.631,0,0,1-1.6,3.207C792.205,1001.266,791.964,998.478,791.39,996.024Zm1.069-8.285c.856.213,1.348.789,2.406.8.818-.608.589-2.262,2.138-2.138,1.433-.186,1.171,1.322,2.4,1.336.816-.7,2.39-.637,3.207-1.336,1.537-.067,2.083-1.126,3.476-1.336,1.59-2.24,3.344-4.318,4.81-6.683a27.742,27.742,0,0,0,2.673-9.086v-5.613c.108-.643-.489-.58-.268-1.336v-2.671a42.265,42.265,0,0,0-2.673-11.227,49.312,49.312,0,0,0-2.138-4.81c-.684-1.633-1.7-2.93-2.138-4.811-1.167-1.233-1.681-3.022-2.4-4.543a29.65,29.65,0,0,1-2.138-4.81,49.041,49.041,0,0,1-3.74-10.424h-3.743c-1.494,1.09-2.515,2.653-4.009,3.743-.253,1.034,1.042,1.1.266,1.87-1.38,1.113-4.123.864-4.542,2.939,1.884-.012,3.846-.1,4.009,1.6.013,1.974-2.27,1.65-3.475,2.406-1.909.05-3,.923-4.811,1.068a13,13,0,0,0-1.6,3.476c1.706-.41,5.754-1.943,6.414.534.163,2.746-2.624,2.542-4.01,3.741a22.469,22.469,0,0,0-5.612,2.138c-.338,1.623-1.112,2.809-1.336,4.544,1.162-.173,2.012-.66,3.206-.8H783.1c1.482.922,3.147,1.664,3.207,4.009-.39.591-1.4.567-2.4.542-.273-.006-.545-.013-.805-.007H779.1c-1.526.612-3.469.807-4.81,1.6.157,1.4-.472,2.024-.267,3.474a24.418,24.418,0,0,1,4.543-1.337c.411.008.833.005,1.255,0,2.623-.012,5.243-.023,5.425,2.4-.4.755-1.384.93-2.4,1.069a1.863,1.863,0,0,1-.7,0c-.443-.05-.886-.1-.906.271a1.886,1.886,0,0,1-.7,0c-.443-.05-.886-.1-.906.27a23.9,23.9,0,0,0-6.146,1.336v4.01c3.289-.685,9.885-2.021,11.224,1.336-2.254,2.559-7.652,1.968-11.224,3.208a6.728,6.728,0,0,1-.268,2.673c.712,1.515,1.476,2.977,2.138,4.542,1.143,1.085,1.269,3.186,2.939,3.742-.16-1.944.384-3.181,1.872-3.475,1.628.332,1.68,2.239,1.871,4.009a5.335,5.335,0,0,0,.534,2.4,3.913,3.913,0,0,0,.535,2.406c.2-2.029.407-4.048,2.138-4.544,2.05,1.158,1.25,5.165,2.941,6.682.179-1.513.628-2.758,2.138-2.94C792.019,984.259,792.492,985.744,792.459,987.738Zm20.579-74.03c7.033-1.074,13.188-3.026,16.836-7.484.041-2.178.085-4.36-.533-5.881a31.4,31.4,0,0,0-8.019-4.81c-.2-.088-.192-.517-.535-.534s-.568-.4-.8-.535a18.128,18.128,0,0,1-2.407-1.337,11.4,11.4,0,0,0-1.336-1.068,14.4,14.4,0,0,1-1.871-1.337,119.844,119.844,0,0,0-20.312-3.473,83.537,83.537,0,0,0-20.311,1.6,67.675,67.675,0,0,0-8.018,2.939c-2.639,1.105-4.561,2.922-6.681,4.544-.065.827-.744,1.038-1.069,1.6-.607,4.116-1.8,7.643-1.6,12.561.9.275.417-.832.535-1.336.086-.628.422-1,.266-1.87.234-1.1.482-2.193.8-3.208.779-1.893.889-4.454,4.009-4.008.239.473.644.78.8,1.337-.216,1.742-.852,3.066-1.069,4.81.188,1.167-.455,1.506-.266,2.673v1.6c.061.473-.27,1.337.535,1.068,1.841.5,1.125-1.546,1.6-2.4a5.811,5.811,0,0,1,1.069-2.939c.59-2.083.7-4.643,3.207-4.81,1.314.628,1.017,1.834.8,2.939a12.7,12.7,0,0,1-.267,1.336,8.937,8.937,0,0,1-.266,3.208c.185,1.06-.467,2.959.533,3.206.631-3.02,1.148-6.157,4.01-6.949,2.522,1.234.433,5.528.8,7.484a.926.926,0,0,1,.8.133.931.931,0,0,0,.8.135c.849-.488.575-2.1,1.067-2.94.752-.675.723-2.128,2.407-1.871,1.544.475,1.117,3.532.8,5.079a3.177,3.177,0,0,1,1.192.151,3.017,3.017,0,0,0,1.481.115,5.767,5.767,0,0,0,.267-2.4,2.474,2.474,0,0,1,1.6-1.069c.735.246,1.47.491,1.6,1.337.594.886-.591,1.894.535,2.137,1.392-.032.688-2.163,2.4-1.871,1.049.111.6,1.718,1.606,1.871,2.831.059,5.755.028,8.678,0,1.71-.018,3.419-.036,5.111-.036C807.011,913.4,810.116,913.463,813.038,913.708Zm-60.4-13.9c-.758,1.764-1.742,5.448-.535,7.484.431-1.174.364-2.844.8-4.01.17-.9-.344-2.483.268-2.94-.027-.284-.068-.553-.379-.553A.754.754,0,0,0,752.637,899.809Zm49.817,61.182a11.127,11.127,0,0,0-1.976-.246c-1.989-.506-4.758-.23-5.612-1.871-.183-1.163.481-1.48,1.069-1.87a23.122,23.122,0,0,0,2.835-.013,19.568,19.568,0,0,1,3.044.013c2.218.253,4.239.883,4.543,2.939a1.746,1.746,0,0,1-1.942,1.3A11.487,11.487,0,0,1,802.453,960.991Zm.7-5.858c-.9-.7-2.359-.848-3.208-1.6-1.009-.328-2.684.012-2.938-1.069-.037-1.285,1.847-.646,2.672-1.069h3.474c2.208.453,5.477,1.011,4.277,4.01a3.007,3.007,0,0,1-1.327.285A17.043,17.043,0,0,1,803.149,955.133Zm-5.881-8.018a1.725,1.725,0,0,1,1.336-2.4,5.416,5.416,0,0,1,2.644-.271,12.846,12.846,0,0,0,1.633,0,2.826,2.826,0,0,1,2.94,1.337c-.053,1.64-1.624,1.764-2.94,2.138C801.263,947.4,798.452,948.07,797.269,947.115Zm1.871-4.811v-1.337c.457-2.449,5.788-2.579,5.88.268.089,1.672-1.348,2.382-2.85,2.382A3.628,3.628,0,0,1,799.14,942.3Zm5.079-45.167c-.779-1.537-2.876-1.757-2.672-4.275.26-.008.207-.328.266-.536,1.734-1.4,3.471.449,4.543,1.337a9.053,9.053,0,0,0,1.337,2.137,25.138,25.138,0,0,1,.534,2.672q-.133.007-.258.007C806.271,898.48,805.551,897.5,804.218,897.137Zm-9.087-1.337c-1.45-.688-3.494-.781-4.009-2.406-.162-1.053.6-1.183,1.337-1.336a3.354,3.354,0,0,1,2.021-.27,9.148,9.148,0,0,0,1.185,0,9.756,9.756,0,0,0,2.407,1.071c.856,1.28,2.418,1.855,2.138,4.275a1.343,1.343,0,0,0-.8.8l-.162,0C797.16,897.942,796.363,896.655,795.131,895.8Z" transform="translate(-745.153 -881.369)"/>
</svg>