<?xml version="1.0" encoding="utf-8"?><!-- Uploaded to: SVG Repo, www.svgrepo.com, Generator: SVG Repo Mixer Tools -->
<svg fill="#000000" width="800px" height="800px" viewBox="0 -11 120 120" xmlns="http://www.w3.org/2000/svg">
  <path id="_0201-pancakes" data-name="0201-pancakes" d="M139.46,404.442c.039-.278-.052-.425-.239-.478a2.765,2.765,0,0,1,1.908-3.338c.788-.88,2.486-.851,3.577-1.429,2.1-.039,3.525-.381,5.246.238a5.5,5.5,0,0,1,1.193,2.383c-.789,2.948-3.984,3.489-7.393,3.815C142.27,405.288,140.343,405.387,139.46,404.442Zm-28.615-4.77v-1.43c.243-2.3,1.874-3.212,3.577-4.054a11.412,11.412,0,0,1,3.577-1.43.7.7,0,0,1,.237,0,.718.718,0,0,0,.24,0c.151-.04.229-.238.239-.239a2.169,2.169,0,0,1,.568.013,1.172,1.172,0,0,0,1.1-.251c5.153-.148,10.205-.19,10.968,4.054.019,3.834-2.856,4.776-5.485,5.961a48.3,48.3,0,0,1-9.776,1.43C113.729,402.989,111.588,402.03,110.846,399.672ZM124.061,398a5.5,5.5,0,0,0,1.57.243c.744-.449,1.776-.608,1.907-1.669a16.959,16.959,0,0,0-7.393-.239c.2,1,1.573.811,2.146,1.43q.137-.008.265-.008A5.56,5.56,0,0,1,124.061,398Zm-26.093-3.334c-1.945-.438-4.015-.753-5.246-1.907a5.612,5.612,0,0,1-3.336-3.578,5.175,5.175,0,0,1,.953-3.815c.1-1.41,1.337-1.681,1.669-2.862,1.066-.365,1.614-1.247,2.862-1.429.753-.6,1.643-1.06,1.908-2.147a4.353,4.353,0,0,0-.716-3.1c-.59-.682-1.866-.678-2.623-1.193-1.851-.693-4.053-1.035-5.246-2.385A9.521,9.521,0,0,1,87.954,367a10.725,10.725,0,0,1,3.576-3.814c1.575-.812,3.393-1.378,5.008-2.146,5.156-1.283,12.162-.716,16.692-2.624a8.623,8.623,0,0,0,4.532-5.483c.081-2.626-1.043-4.045-1.193-6.44a40.539,40.539,0,0,0-.715-6.675c.119-2.346-.342-5.27.477-6.917-.083-.871-.816-1.09-1.431-1.429-.158-.8-.742-1.166-.954-1.908a19.616,19.616,0,0,1-.239-4.531,13.884,13.884,0,0,0,1.193-2.624c.731-.46,1.078-1.3,1.669-1.908,1.248-1.215,2.845-2.083,4.054-3.338,1.71-.754,2.99-1.94,4.769-2.624,1.4-1.064,3.387-1.543,5.008-2.383a62.488,62.488,0,0,1,25.276-4.291c.385.066.41-.227.715-.239,13.916.154,25.265,2.872,34.575,7.631.382.288.689.1,1.13-.091a2.482,2.482,0,0,1,1.731-.148,19.209,19.209,0,0,1,6.678,7.63c.059,1.056.489,1.738.476,2.863.334.937.928,1.615,1.193,2.621-.187.984.365,1.226.238,2.147a9.108,9.108,0,0,1-.954,4.531c.967,1.658,2.66,2.588,2.862,5.008.027,2.173-1.045,3.247-1.908,4.529.695,1.69,1.973,2.8,2.385,4.771-.067,1.284.245,2.947-.477,3.577.085.789.715,1.033,1.192,1.429a4.557,4.557,0,0,0,.954,1.433,9.341,9.341,0,0,1,1.192,3.576,5.818,5.818,0,0,1-1.192,4.293c.173,1.336.987,2.031.715,3.816a11.135,11.135,0,0,1-3.338,6.437c-1.763.622-3.1,1.666-4.769,2.384a37.209,37.209,0,0,1-5.008,1.908,59.291,59.291,0,0,1-11.923,1.907,54.04,54.04,0,0,1-7.112.24c-1.055-.008-2.11-.017-3.141,0a6.093,6.093,0,0,0-1.269,0c-.741.05-1.481.1-1.832-.24-2.491.187-4.092-.516-6.2-.714-1.9-.4-4.315-.3-5.962-.956a13.862,13.862,0,0,1,0,5.486c-.292,1.377-1.175,2.163-1.669,3.339a30.11,30.11,0,0,1-4.293,3.337c-2.465.794-4.766,1.75-8.347,1.431a20.408,20.408,0,0,1-2.86-.716,42.057,42.057,0,0,1-9.778-5.722c-2.551-.581-5.664-1.041-8.346-.238-7.007,2.292-10.638,7.961-18.361,9.538Zm-2.861-8.824a10.535,10.535,0,0,1-.952,1.194c.477,3.1,3.7,3.448,7.392,3.337,1.354-.415,3.129-.84,4.292-1.192.084-.024.365-.422.477-.477,1.416-.7,3.322-1.459,2.622-3.577-.059-.554-.708-.517-1.357-.479a4.606,4.606,0,0,1-.787,0,32.347,32.347,0,0,1-5.963,2.146H97.968c-.955-.16-1.225-1.008-2.343-1.008A2.752,2.752,0,0,0,95.107,385.841Zm44.354-.952c-.358,2.742,2.055,2.714,3.577,3.577h3.815c.033-.269.35-.256.666-.243.1,0,.2.009.288,0,2.417-1.741,6.041-3.462,5.007-7.869a2.659,2.659,0,0,0-1.907-.478,12.425,12.425,0,0,1-5.247,5.009,1.208,1.208,0,0,0-.771.13,1.215,1.215,0,0,1-.9.108c-1.22-.032-2.328-.852-3.31-.852A1.52,1.52,0,0,0,139.46,384.889Zm-26.708-.955c-.042.838.806.786.954,1.432,2.174-.37,5.107.02,5.008-2.623a2.753,2.753,0,0,0-2.373-1C114.685,381.741,112.85,382.6,112.753,383.934Zm55.083-7.631c11.777.173,22.416-.793,31.477-3.336a20.648,20.648,0,0,1,3.1-2.386c.355-1.392,1.259-2.238,1.193-4.053-.053-.186-.2-.279-.476-.239,0,.316-.419.218-.477.478-5.747,2.758-13.024,3.986-21.461,4.054a52.082,52.082,0,0,1-11,.618c-2.363-.028-4.7-.057-6.881.1a23.845,23.845,0,0,0-4.77-.238,55.793,55.793,0,0,0-6.676-1.669c-.522.162.451.793.715.953a10.6,10.6,0,0,0,.954,1.193c.727.783.661,2.358,2.146,2.384.731.158.875-.274,1.018-.7.134-.4.268-.809.889-.726.621.414.1,1.968,1.193,1.908C161.647,375.339,164.732,375.832,167.836,376.3ZM93.2,367a5.522,5.522,0,0,0,0,3.1,2.2,2.2,0,0,0,3.816.954c.51-1.029-.376-1.687,0-2.385,1.068-1.23,3.55-2.073,2.623-4.531a5.142,5.142,0,0,0-1.5-.234C95.843,363.908,94.341,365.662,93.2,367ZM141.845,346.5c-.035,3.292,1.3,5.221.952,8.825a6.161,6.161,0,0,1-.952,1.907c-.227.727-1.161.747-1.192,1.669a3.232,3.232,0,0,1,2.384,2.861c.234,1.9-1.665,1.674-1.431,3.577,2.418.682,4.652,1.547,6.915,2.384.881-.152.867-1.2,2.146-.953a30.726,30.726,0,0,0,6.213.4,41.6,41.6,0,0,1,6.188.311h16.214c8.548-.355,16.39-1.415,23.13-3.578.852-1.054,1.829-1.986,1.908-3.816a5.105,5.105,0,0,0-1.192-3.1c-.241-.476-.413-1.02-.954-1.193.013-.182-.187-.131-.414-.081-.353.078-.77.157-.54-.635-1.244.506-1.8,1.7-3.339,1.91-.988.839-2.561,1.094-3.815,1.669a65.158,65.158,0,0,1-8.823,2.146c-5.893,1.418-12.639,1.986-19.314,2.624H155.675a1.209,1.209,0,0,1-.77-.132,1.216,1.216,0,0,0-.9-.106h-4.055c-.905-.366-2.026-.518-2.862-.955-.795-.554-2.235-.465-2.145-1.908.722-1.315,2.241-1.165,3.956-1.014a13.559,13.559,0,0,0,2.481.061q3.667.387,7.153.953c14.768-.652,28.081-2.759,39.345-6.914a10.964,10.964,0,0,1,3.577-.477,11.423,11.423,0,0,0-2.146-5.723c-2.677.661-4.766,1.912-7.631,2.385-1,.671-2.537.8-3.815,1.192a6.1,6.1,0,0,1-1.907.478c-.348.525-1.56.188-1.908.714a135.122,135.122,0,0,1-17.167,2.862h-9.062c-2.622-.4-5.445-.6-8.107-.954a4.521,4.521,0,0,0-1.908.238c-.053-.345-.5-.292-.955-.238s-.9.106-.953-.237c-1.439-.072-2.856-.165-2.861-1.67.66-2.284,3.272-.887,5.246-.714.28.036.677-.041.715.238,5.588-.454,11.919-.165,17.646-.477,3.083-.334,5.995-.841,9.061-1.193.418-.377,1.271-.32,1.908-.476a15.5,15.5,0,0,1,2.146-.478c1.221-.527,2.965-.531,4.055-1.192,2.988-.428,5.408-1.427,8.345-1.908,2.442-.977,6.079-.756,8.347-1.908a5.426,5.426,0,0,0,.239-3.1,3.388,3.388,0,0,0-.954-1.907c-.3-.358-.49-.657-.954-.478a1.209,1.209,0,0,0-.715.715c-1.29.856-2.992,1.3-4.054,2.386-.911.122-1.283.783-2.146.952-.688.425-1.8.428-2.385.955-3.714.576-6.66,1.923-10.491,2.384-6.928,1.736-15.024,2.3-23.846,2.147-3.37-.365-7.13-.343-10.492-.716-1-.08-1.412-.741-2.488-.741A2.949,2.949,0,0,0,141.845,346.5Zm-23.369,2.863c.284.987.469,2.074.715,3.1v3.816a26.956,26.956,0,0,1-1.669,4.292c-.143,1.451-1.671,3.231-.477,4.531,2.015.187,2.117-1.541,2.385-3.1,1.6-1.422,2.332-3.707,2.861-6.2v-1.908c-.318-1.112-.369-2.492-.954-3.338-.426-1.084-.414-2.6-1.193-3.338l-.109,0C118.8,347.21,118.792,348.44,118.476,349.359Zm26.23-7.393c-.36.437-1.029.563-1.431.954-.173.524-1.119.792-.477,1.43a4.215,4.215,0,0,0,2.479-.031,7.325,7.325,0,0,1,1.814-.206c9.455-.323,19.529-.024,27.9-1.43a88.047,88.047,0,0,0,12.163-2.624c2.131-.329,3.458-1.469,5.245-2.145a41.051,41.051,0,0,1,4.769-2.624,8.928,8.928,0,0,0,1.669-4.531c-.239,0-.284-.193-.477-.239a1.714,1.714,0,0,0-.715.477c-1.417.491-2.15,1.668-3.577,2.147-3.323.73-5.929,2.179-9.061,3.1a8.177,8.177,0,0,0-2.385.716,5.281,5.281,0,0,0-2.384.716c-1.11-.077-1.592.476-2.623.476-.591.445-1.822.247-2.385.716-3.568.487-6.775,1.333-10.492,1.669-4.911.878-11.137.374-16.453.238A21.858,21.858,0,0,0,144.706,341.966Zm-23.368-8.584c-.053.185-.006.471-.239.477.42,1.805,1.861,2.591,2.861,3.816,1.062.368,1.655,1.206,2.862,1.43.77.742,2.228.793,3.1,1.431a25.852,25.852,0,0,1,3.338.955c1.525.014,3.219.2,3.338-1.193-.051-1.7-1.6-1.9-2.624-2.623-1.334-.5-3.048-.608-4.053-1.432-.817.085-1.251-.454-1.67-.477-.248-.012-.137-.2-.238-.237a10.982,10.982,0,0,1-2.384-.954,5.7,5.7,0,0,0-3.578-1.431h-.04A1.131,1.131,0,0,0,121.337,333.382Zm51.506-13.116a10.4,10.4,0,0,1,.239,6.917c-2.132,3.591-8.766,2.68-12.638,4.531-.268,1.083-.377,2.325-.715,3.338-.293.5-.66.93-.953,1.431-.319.426-1.473.645-.954,1.193a141.3,141.3,0,0,0,21.222-3.34c.587-.445,1.633-.432,2.384-.714a11.991,11.991,0,0,1,2.386-.716,27.476,27.476,0,0,0,4.53-1.668c3.2-.934,6.184-2.083,8.346-4.055.262-2.488-.73-3.721-1.43-5.246-3.369-.924-4.816-3.77-8.107-4.769-.562.2.657.587.238,1.431.1.891-.19,1.4-.954,1.431-1.252.138-1.6-.626-1.669-1.67-.041-1.027,1.768-1.1,1.193-1.907a7.974,7.974,0,0,1-2.623-.954,7.427,7.427,0,0,1-2.862-.715c-2.133-.251-4.158-.612-6.2-.954-4.168-.6-8.746-.791-13.115-1.193H151.144c-.3.014-.33.307-.715.238a55.9,55.9,0,0,0-20.984,4.293,38.917,38.917,0,0,0-4.055,2.147c-1.54.607-2.5,1.789-4.054,2.385-1.8,2-5.459,3.911-3.815,7.869,1.071-.282,1.155-1.548,2.146-1.907.438-.995,1.676-1.188,2.146-2.147,1.054-.378,1.675-1.187,2.623-1.669.822-.61,1.849-1.013,2.623-1.67a34.389,34.389,0,0,1,13.829-3.338H145.9a5.992,5.992,0,0,0,3.577.716c3.661-1.585,6.687-3.806,11.446-4.292C166.461,315.363,170.8,316.67,172.843,320.266ZM150.483,336.86c.2.144.931.288.9-.14h-.477c-.056,0-.106,0-.151,0C150.42,336.716,150.384,336.788,150.483,336.86Zm-6.254-2.764v.479c.49,1.658,2.86,1.432,4.531,1.907h2.146c2.341-.839,4.652-1.706,4.531-5.007-.186-.053-.277-.2-.239-.479a4.912,4.912,0,0,0-1.431-.715c-.052.186-.2.277-.477.238-1.047.464-1.18,1.842-2.384,2.146a1.133,1.133,0,0,0-.715.238,10.172,10.172,0,0,1-2.362-.083,14.625,14.625,0,0,0-1.573-.124C145.237,332.7,144.446,332.972,144.229,334.1Zm18.123-12.16c1.53.536,1.475,2.658,4.055,2.146.489-.464,1.163-.744,1.191-1.669-.466-2.077-2.169-2.917-3.814-3.815-.292,0-.589,0-.886-.005a12.98,12.98,0,0,0-3.407.243c-1.12.47-2.394.785-2.146,2.624.185.053.276.2.238.477.815.685,1.778.453,2.823.22a7.484,7.484,0,0,1,1.628-.234C162.139,321.923,162.245,321.927,162.352,321.936Zm-9.3-.238c-.346.145.026.287,0,0a.653.653,0,0,0,.715-.478h-.033A.645.645,0,0,0,153.051,321.7Zm23.369,7.392c.629-2.1,4.7-1.015,4.769.952a1.561,1.561,0,0,1-1.606,1.145A3.581,3.581,0,0,1,176.421,329.09Zm8.584-3.1c.02-.339.041-.675-.238-.715.4-1.939,4.8-3.643,5.245-.716-.157,1.34-1.646,2.03-3.048,2.03A3.107,3.107,0,0,1,185,325.99Zm-6.915-5.007c-.1-.817.714-.717.953-1.193a1.828,1.828,0,0,1,2.146,1.669c.1.815-.715.716-.954,1.192C178.973,322.641,178.158,322.186,178.09,320.983Zm-36.722-5.723c.277-1.733,3.227-1.359,3.1.477.017.811-.7.886-1.193,1.191h-.088A1.643,1.643,0,0,1,141.368,315.26Z" transform="translate(-87.707 -307.629)"/>
</svg>