<?xml version="1.0" encoding="utf-8"?><!-- Uploaded to: SVG Repo, www.svgrepo.com, Generator: SVG Repo Mixer Tools -->
<svg fill="#000000" width="800px" height="800px" viewBox="-1.11 0 120 120" xmlns="http://www.w3.org/2000/svg">
  <path id="_0403-peas" data-name="0403-peas" d="M532.792,804.44a21.39,21.39,0,0,1-3.529-3.782c.065-.737-.569-.774-.5-1.511-.436-.153.019-1.2-.5-1.261a23.88,23.88,0,0,1,.251-5.8c.467-.458.327-1.522.756-2.017.209-.631.691-.99.757-1.764-.481-.779-1.816-.706-2.269-1.513-.694-.482-1.322-1.031-2.016-1.512-1.08-1.273-1.861-2.845-3.025-4.032.368-2.152-.11-3.921.5-6.051a28.923,28.923,0,0,1,2.016-4.789c2.426-2.363,4.96-4.618,8.823-5.546,5.677-.384,8.978,1.609,11.594,4.285.907,1.95,2.088,3.626,2.27,6.3a13.708,13.708,0,0,1-.756,5.04c.38.628,1.7.317,2.268.759a2.066,2.066,0,0,1,1.133.251,2.074,2.074,0,0,0,1.136.252c1.737,1.148,3.833,2.072,5.293,3.781.192.225.3.7.5,1.009.185.275.592.464.756.755a24.767,24.767,0,0,1,1.008,2.773,20.061,20.061,0,0,1,.5,3.277,3.884,3.884,0,0,1,0,2.016c-1.273,4.021-4.117,6.47-7.059,8.823a31.459,31.459,0,0,1-10.587,2.268h-.057A22.137,22.137,0,0,1,532.792,804.44Zm12.35-3.026a2.132,2.132,0,0,1,2.271-.251c.754-.589,2.056-.633,2.772-1.26,1.3-.049,1.777-.913,3.025-1.009.056-.2.211-.293.5-.252a36.608,36.608,0,0,1,3.024-3.025v-3.78a1.1,1.1,0,0,1-.5-1.009,21.213,21.213,0,0,0-5.546-3.529c-2.07-.953-3.737-2.312-6.554-2.52-.591.081-.946.4-1.764.252-1.91,1.283-4.27,2.117-5.8,3.78a10.69,10.69,0,0,1-1.261,2.774c.2.874-.374.967-.252,1.764.07.442-.71,1.257,0,1.513a6.637,6.637,0,0,1,4.033-2.269c.253.5,1.114.4,1.008,1.26a4.783,4.783,0,0,1-2.269,2.269c-.585.17-.675.837-1.259,1.007-.047.712-1.2.315-1.01,1.262a4.216,4.216,0,0,0,2.269,2.267c.852-1.07,2.933-3.532,4.285-1.764.025,1.2-1.156,1.2-1.259,2.269.494,0,.994-.011,1.485-.011A10.856,10.856,0,0,1,545.142,801.414Zm-13.106-20.668c0,1.678-2.069,1.291-2.269,2.773a5.31,5.31,0,0,0,3.53,1.26,22.1,22.1,0,0,1,10.838-4.287,8.705,8.705,0,0,0,1.007-4.032,16.734,16.734,0,0,1-1.26-2.017,9.528,9.528,0,0,0-2.772-4.788,44.7,44.7,0,0,0-8.57,0,11.692,11.692,0,0,0-4.789,5.8c-.053.894,1.183.5,1.009,1.514-.535,1.048-1.406,1.985-.757,3.526a7.709,7.709,0,0,1,2.722-.79A1.162,1.162,0,0,1,532.036,780.746Zm56.714,12.1c-3.073-.792-6.012-1.718-9.327-2.269a10.553,10.553,0,0,0-2.268-.756,6.629,6.629,0,0,0-2.017-.756c-1.154-.7-2.536-1.16-3.781-1.765-2.425-1.356-5.05-2.51-7.058-4.285a22.83,22.83,0,0,1-3.277-2.522c-.252-.67-1.017-.83-1.511-1.258-.42-.506-.677-1.173-1.513-1.26-1.874-1.907-3.849-3.713-5.8-5.547-.555-1.378-1.876-1.99-2.521-3.277a19.588,19.588,0,0,1-2.52-3.024,24.363,24.363,0,0,1-4.286-7.058c-1.415-2.366-2.8-4.765-4.285-7.057a76.246,76.246,0,0,1-7.311-8.822,50.11,50.11,0,0,1-3.528-12.6c.138-2.888-.293-6.344.252-8.823-.407-.632-1.213.448-1.765.5-.86.064-1.211.637-2.267.5-2.6.141-5.091-.766-6.05-2.521-.321-1.424.557-2.09,1.008-2.774a19.261,19.261,0,0,1,1.765-2.016,49.459,49.459,0,0,1,3.781-3.781c.684-1.667,1.712-2.992,2.268-4.789,2.789-2.506,3.958-6.628,5.8-10.083-.211-2.478.652-6.028-1.008-7.057-.357.022-.714.042-.756-.253a3.3,3.3,0,0,0-3.025,1.513,1.439,1.439,0,0,0-.755,1.512c-.738.408.4,1.3-.253,1.513-1.169.076-1.743-.442-1.765-1.513-.587-.522.128-1.874.252-2.521a6.816,6.816,0,0,1,3.277-3.023,1.783,1.783,0,0,1,.756-.5,7.627,7.627,0,0,1,4.537,1.26c1.854,1.79,2.4,5.84,1.764,9.326a40.99,40.99,0,0,0,2.017,5.546,30.584,30.584,0,0,0,3.529,2.269c1.674.005,2.811.55,4.537.5a3.137,3.137,0,0,1,3.026,1.764c-.086,3.024-2.326,3.893-4.538,4.79.321.771,1.444.74,1.766,1.511.939.153,1.024,1.16,2.016,1.261a33.9,33.9,0,0,0,3.528,3.025c2.191,2.178,4.855,3.882,7.058,6.048,1.426.76,2.356,2.015,3.781,2.774.994,1.19,2.436,1.933,3.529,3.024,2.416,1.868,4.824,3.746,7.309,5.546a94.757,94.757,0,0,0,16.133,10.083c5.6,3.05,10.081,7.228,15.376,10.587,1.28,1.66,3,2.875,4.285,4.537a77.574,77.574,0,0,1,9.073,7.309c1.46,1.313,2.789,2.756,4.285,4.033,1.408,1.283,3.175,2.2,4.285,3.781a10.775,10.775,0,0,1,5.043,2.268,4.755,4.755,0,0,1,4.032,3.026c-.394,1.958-2.236,2.469-4.284,2.773-1.516.836-3.518,1.188-4.791,2.269a23.762,23.762,0,0,0-2.52.5,57.1,57.1,0,0,1-12.351,4.537c-4.108,1.438-9.829,1.262-14.619,2.017Zm-41.087-34.28c2.12,3.68,5.123,6.474,7.563,9.83a130.744,130.744,0,0,1,9.83,9.074,5.014,5.014,0,0,1,1.009,2.019c1.161.35,1.805,1.219,2.773,1.764,1.009.5,2.015,1.009,3.024,1.511a26.347,26.347,0,0,0,6.554,2.521,6.2,6.2,0,0,0,2.268,1.261c6.9.16,12.9,1.219,19.912,1.26,1.308-.289,2.415-.779,3.782-1.009.039-.963-1.029-.818-1.513-1.26a5.109,5.109,0,0,0-1.512-1.512,8.2,8.2,0,0,1-1.26-2.269c-1.148.2-1.328,1.361-2.269,1.765-.509.919-1.492,1.363-2.269,2.016-1.486.866-3.666,1.039-5.8,1.26a2.138,2.138,0,0,0-1.514-.251c-1.6-.584-3.148-1.22-4.788-1.765-3.057-2.068-5.134-5.116-5.294-10.084a9.463,9.463,0,0,1-2.772,1.009,32.344,32.344,0,0,1-6.05-.252c-.658-.517-2.105-.247-2.52-1.009-1.113-.063-1.328-1.023-2.268-1.259a17.063,17.063,0,0,1-4.538-12.1,7.3,7.3,0,0,1-3.277.5c-2.5-.439-4.2-1.682-6.8-2.016a12.457,12.457,0,0,0-2.016-1.259C547.762,758.328,547.618,758.35,547.663,758.565ZM615.719,775.2a30.683,30.683,0,0,1-.756,4.536,11.651,11.651,0,0,0-1.26,2.27c-.975.685-.521,1.147,0,2.017.117.355.639.3,1.161.254a2.769,2.769,0,0,1,.855,0h2.268a12.558,12.558,0,0,1,2.522-1.008,7.017,7.017,0,0,1,2.519-1.261,26.027,26.027,0,0,1,5.295-2.27,2.026,2.026,0,0,1,1.593-.1,4,4,0,0,0,1.18.1c.055-.781-.693-.758-1.441-.734-.553.017-1.1.034-1.332-.272a16.377,16.377,0,0,0-3.528-.254c-.923-.842-2.707-.823-3.279-2.016-1.262-.5-1.926-1.6-3.024-2.269A62.627,62.627,0,0,0,613.2,768.9c-1.655-1.881-3.864-3.182-5.8-4.79a59.113,59.113,0,0,1-5.293-5.293c-5.2-3.2-9.281-7.523-14.872-10.334a99.732,99.732,0,0,1-15.627-9.832c-4.953-3.532-9.684-7.287-14.367-11.09-2.246-1.954-4.789-3.613-6.806-5.8-1.391-.709-2.246-1.954-3.528-2.772-1.286-.9-2.181-2.189-3.783-2.772-.728.447-.825,1.525-2.016,1.512-3.629.184-5.36-1.53-8.066-2.269v.757c-1.138,4.154-1.084,9.5-1.008,14.872.921,3.868,2.527,7.05,3.528,10.838a26.078,26.078,0,0,0,4.286,4.789c.278,1.233,1.53,1.495,2.016,2.52.813.7,1.04,1.984,2.016,2.522a28.626,28.626,0,0,1,.757-10.082c-5.848.135-8.73-2.7-9.83-7.312-.243-4.694.584-8.321,2.772-10.587a13.505,13.505,0,0,1,4.034-1.511c6.043-.162,9.094,2.669,10.839,6.806-.183.77.257.918.251,1.512a26.115,26.115,0,0,1-.251,4.537c7.07-.489,12.435,2.835,14.367,8.319.078,1.122.519,2.273,0,3.276,1.174.082,1.682-.5,2.773-.5a27.2,27.2,0,0,1,5.293.253c.509.1,1.13.142,1.512.251.087.024.384.452.5.5.35.154.76.152,1.009.253a17.218,17.218,0,0,1,3.024,1.512,13.161,13.161,0,0,1,3.781,3.781,10.79,10.79,0,0,1,1.764,6.8c-.74.94-.652,2.708-2.521,2.521-.2-1.489.266-3.244,0-4.538-.018-.089-.452-.629-.5-.756-.158-.387-.121-.623-.253-1.007-2-.771-3.307-2.237-4.788-3.53-2.172-.852-4.455-1.593-6.806-2.267H569.34c-2.755,1.445-5.325,3.076-5.041,7.56,1.071-.189.76-1.761,2.269-1.511,1.845.878.434,3.109.252,4.788a6.223,6.223,0,0,0-1.008,2.269c.06,1.117.27,2.083,1.26,2.269a5.843,5.843,0,0,1,1.26-3.277c.366-1.018,1.239-2.163,2.521-1.512.536,1.223-.562,2.273-.756,3.528-.115,1.565-.876,2.485-.757,4.285.714.38,1.074,1.112,2.017,1.261.953-.477.707-2.151,2.268-2.017,1.015.414,1.06,1.8,1.009,3.277a6.992,6.992,0,0,0,1.938.022,13.517,13.517,0,0,1,2.1-.022,11.409,11.409,0,0,1,1.765-3.025c.084-.068-.067-.415,0-.5a18.613,18.613,0,0,1,1.763-1.765,21.827,21.827,0,0,1,2.269-1.512,7.633,7.633,0,0,1,2.016-1.26c.227-.057.15-.2.254-.252a16.217,16.217,0,0,1,5.04-1.26c5.411.723,9.22,3.047,10.839,7.562a16.6,16.6,0,0,1,3.6-.406C610.985,768.493,615.085,770.73,615.719,775.2Zm-11.09-3.277c-.67.256-1.435.415-1.513,1.261-.556.031-.106,1.069-.252,1.511-.419.256-.273,1.071-.5,1.513-.2,1.14-.886,1.8-1.008,3.026a7.5,7.5,0,0,0,5.293,3.78c3.371-.493,5.17-2.559,6.553-5.04.193-2.547-.2-4.506-1.26-5.8-.789-.47-1.752-.769-2.521-1.26h-3.024A3.979,3.979,0,0,0,604.629,771.924Zm-13.36,10.209a1.587,1.587,0,0,0,1.008.126c.562-1.119.308-3.054,1.765-3.276a4.229,4.229,0,0,0,1.009.754c-.073.661.092,1.085.756,1.01a13.472,13.472,0,0,1,1.764-2.522c.679-.749.958-1.9,1.765-2.52,0-1.009.5-1.513.5-2.52a9.131,9.131,0,0,0-3.025-7.058,30.026,30.026,0,0,0-3.527-1.261c-1.827-.06-3.572-.04-4.538.756-.841,0-.86.82-1.764.757-.143.781-1.186.663-1.262,1.512-.535.81-.481,2.207-1.26,2.773a25.854,25.854,0,0,0-.5,5.545c.287.321.42-.079.649-.48.216-.376.518-.753,1.116-.528.823,1.7-.94,2.442-.754,4.287a4.377,4.377,0,0,0,2.266,1.764,22.448,22.448,0,0,0,1.262-4.033c.839-.508.819-1.87,2.521-1.514,0,.333.441.231.5.5.093,2.445-1.137,3.569-1.26,5.8a1.749,1.749,0,0,1,.329-.033A1.7,1.7,0,0,1,591.269,782.132Zm-32.142-24.406c.441.178.8.356,1.139.083.031-1.648.693-2.669.756-4.285.731-.867.851-2.343,1.765-3.025.325-1.273,1.716-1.475,2.017-2.772-.436-4.531-4.691-8.574-9.579-9.076-1.386-.14-3.951-.025-4.789.506.1,1.186-.6,1.58-1.008,2.268-.156.937-.6,1.584-.756,2.52v3.53c1.12-.056.59-1.763,2.016-1.513,1.323.373.511,2.1.252,3.025.11,1.371-.951,2.629-.252,3.781,1.276-.235.555-2.471,2.016-2.521,2.443.71.336,3.461.253,5.293a13.465,13.465,0,0,1,1.764,1.26c1.356-.071.914-1.943,2.521-1.764.59.417.545,1.47.5,2.52a1.8,1.8,0,0,1,.43-.053A2.506,2.506,0,0,1,559.128,757.726Zm-15.246-19.075c2.626.105,3.592-1.45,4.791-2.772.027-1.823.739-2.958.5-5.041-.712-3.833-5.333-6.02-9.328-4.285-1.165,1.69-1.641,4.073-1.512,7.058.586,1.68,1.178,3.359,2.772,4.032.81-1.206.926-3.107,2.772-3.277C545.039,735.425,543.71,737.046,543.882,738.652Zm-10.334-34.026c-1.55,1.641-2.708,3.677-4.285,5.293-.743.854-1.26,1.933-2.016,2.773-.291,1.388-1.3,2.062-1.765,3.276-.743.349-1.02,1.164-1.763,1.512-.189.989-1.674.679-1.513,2.017,4.31.111,5.431-2.971,8.066-4.537a3.224,3.224,0,0,1,2.016-2.268c.328-.331.544-.14.841.05a1.129,1.129,0,0,0,.923.2c.311-.314.6-.2.967-.076a1.783,1.783,0,0,0,1.049.076c.308.364.962.382,1.26.756.232.44.788.555,1.512.5a.879.879,0,0,0,.757-.126.875.875,0,0,1,.756-.126,7.169,7.169,0,0,0,1.764-3.78c-.144-.527-.624-.72-.5-1.513a28.151,28.151,0,0,1-4.538-1.765c-1.053-.962-1.525-2.507-3.024-3.024C533.992,704.228,533.637,704.294,533.548,704.625Zm7.311,25.205a.783.783,0,0,1,.48.128.782.782,0,0,0,.527.123c-.041.294.057.449.252.5-.038.8-.571,1.108-.5,2.016-.918.595-.916,2.11-2.269,2.269C538,733.1,539.53,730.54,540.859,729.831Z" transform="translate(-517.852 -686.456)"/>
</svg>