<?xml version="1.0" encoding="utf-8"?><!-- Uploaded to: SVG Repo, www.svgrepo.com, Generator: SVG Repo Mixer Tools -->
<svg fill="#000000" width="800px" height="800px" viewBox="0 -0.14 98.272 98.272" xmlns="http://www.w3.org/2000/svg">
  <path id="_0303-pepper-salt" data-name="0303-pepper-salt" d="M556.047,600.539a212.269,212.269,0,0,1-22.38-.754c-1.813-.376-1.982-2.4-3.284-3.282-.662-1.442-2.234-1.976-2.777-3.537.6-5.97,1.912-11.221,2.525-17.174.7-5.78,1.568-11.4,1.768-17.682,1.445-11.6,1.493-24.607,3.789-35.359.058-.985-.542-1.309-.758-2.021v-2.778c.882-4.423,3.134-7.474,5.557-10.355a5.285,5.285,0,0,0,2.02-1.516c1.674-.517,2.819-1.562,5.052-1.517h.506c.007-.2.31-.253.506-.253a18.565,18.565,0,0,1,6.819,1.264.661.661,0,0,0,.229-.009c.12-.014.244-.03.275.009.459.56,2.206,1.176,3.032,1.767.742.535,1.587,1.326,2.525,2.022a20.843,20.843,0,0,0,1.768,2.778,28.994,28.994,0,0,1,1.515,8.841,3.682,3.682,0,0,1-.5,2.272c.148.887-1.194.832-.5,1.516,3.347,21.067,4.691,44.142,7.577,65.67-.222,1.965-1.512,2.863-2.273,4.294a21.091,21.091,0,0,1-2.272,4.041c-2.116.577-4.242,1.147-6.315,1.768Q558.248,600.536,556.047,600.539ZM552.1,550.282c.254,10.775,1.456,20.6,1.768,31.318.827.774,1.211,1.991,2.779,2.021,3.178-.526,3.615-3.793,4.294-6.82v-7.83c-1.191-5.208-1.123-11.674-1.516-17.68a2.1,2.1,0,0,1,.774,0c.563.063,1.127.127.995-.508-.678-9.257-1.557-18.311-2.778-27.023-4.941-.7-10.584,0-15.407.251v3.033c-.41,3.8-.732,7.687-1.011,11.616-.492,1.615-.281,3.93-.758,5.558a9.623,9.623,0,0,1-.252,2.777v1.516c-.4.989.655.524.757,1.011,1.4.388.765-1.255,1.264-1.768.266-.744,1.142-.878,1.768-1.265a2.561,2.561,0,0,1,2.021,1.517c1-.323,1.757-1.454,3.03-.758,1.029.159,1.347,2.058.76,3.031a.87.87,0,0,0,.755-.122,1.118,1.118,0,0,1,.442-.168C551.91,549.992,552.017,550.066,552.1,550.282Zm10.1,11.617c.257-.253.1-1.377-.252-1.767C562.1,560.655,561.643,561.79,562.207,561.9Zm-22.731-44.707c4.027-.518,7.619-1.471,11.872-1.768h5.809c.791.3,1.684.506,2.526.759-.159-1.778-1.13-2.743-1.768-4.041-1.732-1.047-2.946-2.61-5.557-2.778.1,2.285-.049,4.328-2.02,4.547-2.186-.089-1.147-3.4-1.768-5.053-.126,0-.255,0-.383-.005-.561-.013-1.12-.025-1.385.257-.155.016-.3.039-.251.254a2.124,2.124,0,0,1-1.516,2.525c-1.119.275-1.255-.427-2.021-.507A16.6,16.6,0,0,0,539.475,517.192Zm54.051,81.584a1.656,1.656,0,0,0-1.265.251,1.663,1.663,0,0,1-1.261.253,15.649,15.649,0,0,0-5.3-.5c-.572-.775-1.594-1.1-2.273-1.769s-.992-1.7-1.768-2.272c-.286-1.06-1.057-1.639-1.515-2.526s-1.494-1.2-1.516-2.527a8.507,8.507,0,0,1,.253-2.525c.03-.133.484-.664.5-.76.09-.4-.086-.858,0-1.261a20.529,20.529,0,0,0,.759-4.294c.494-.347.135-1.548.5-2.021-.134-.976.452-1.231.253-2.273.5-.347.136-1.547.5-2.021q1.566-9.925,3.283-19.7c.748-6.07,1.9-11.742,2.778-17.679,1.038-5.7,1.913-11.558,3.537-16.67.1-1.189-.607-1.584-1.01-2.273a9.666,9.666,0,0,1-.254-2.779c.695-5.956,4.362-8.941,8.336-11.617a24.469,24.469,0,0,1,5.3-1.264c5.046.006,7.693,2.408,10.607,4.547.994,1.449,2.066,2.819,3.03,4.292-.022.359-.04.716.253.76.78,2.953,1.265,7.8,0,10.608.566,4.316-.069,9.836.759,13.891.517,4.366,1.039,8.728,1.515,13.135.808,8.957,2.257,17.276,3.284,26.016a44.926,44.926,0,0,1,3.03,10.1c.178,1.526-.828,1.867-1.011,3.031-.2,1.06-.887,1.637-1.01,2.778-.621.642-.577,1.948-1.263,2.525-.329.936-.423,2.1-1.012,2.778a39.509,39.509,0,0,0-9.092,2.019c-3.157.268-6.8.538-10.336.538A39.589,39.589,0,0,1,593.527,598.776Zm4.295-8.085c1.418.182,1.949,1.25,1.767,3.031.568.091.673-.283.779-.655.116-.415.233-.83.989-.606a1.421,1.421,0,0,1,1.346.51,1.431,1.431,0,0,0,1.433.5h6.315a39.266,39.266,0,0,1,6.818-1.768,6.142,6.142,0,0,0,2.273-3.535c-.38-1.052-.883-1.982-1.263-3.032-1.549-8.133-2.145-17.221-3.031-26.016-.921-1.6-1.17-3.881-1.515-6.062V547c-.861-8.988-1.634-18.068-2.526-27.025a72.048,72.048,0,0,1-12.881.759c-1.9,9.215-4.218,18.008-4.8,28.54-.452.9-.052,2.641-.506,3.535,1.535.741,3.68.868,3.284,3.537-.189.821-.914,1.107-1.515,1.516h-1.516a.567.567,0,0,1-.479-.1c-.215-.136-.308-.272-.278.347-.558.031-.108,1.071-.253,1.517a2.144,2.144,0,0,0-.253,1.514,20.446,20.446,0,0,0-.5,3.033c-.052,2.39-.718,4.164-1.01,6.314-.5,4.3-1.027,8.571-1.517,12.882.157,2.623-.317,5.874.253,8.082a6.03,6.03,0,0,0,4.8,1.262c1.639-.117,1.432-2.084,3.191-2.085A3.075,3.075,0,0,1,597.821,590.692Zm-3.536-75.012a15.177,15.177,0,0,1,8.082-.76c1.158.025,2.356.012,3.553,0a47.418,47.418,0,0,1,7.054.255,9.314,9.314,0,0,0-4.546-6.314c.292,2.332-1.138,3.938-3.284,3.031-.759-1.008-.849-2.688-.758-4.548a10.492,10.492,0,0,0-3.031.255c-.027,1.12.707,1.481.507,2.778-.531.563-.841,1.348-2.021,1.263-1.351,0-1.352-1.343-2.273-1.768C596.191,511.522,594.694,513.057,594.285,515.679Zm6.565,73.246c-.058-.985.544-1.311.758-2.022.593-.079.949-.4,1.769-.252.458-.3.2-1.316.5-1.768.39-.537.912-.939,1.263-1.515h2.021c1.312.807,1.2,3.4.253,4.547-.842.084-1.12.732-2.274.506-.392.614-.453,1.566-1.01,2.021-.528-.108-.669.173-1.01.25C601.789,590.681,601.288,589.835,600.851,588.925Zm13.388,1.01a11.581,11.581,0,0,0-1.011-1.264c-.308-2.248.933-3.733,2.778-3.282a5.415,5.415,0,0,0,.5.252,4.877,4.877,0,0,1,1.01,1.516c.233,2.009-.73,2.822-2.506,2.822A7.224,7.224,0,0,1,614.238,589.935ZM590.244,586.9c.065-1.785.955-2.748,3.029-2.524a3.07,3.07,0,0,1,.759,3.537,2.579,2.579,0,0,1-1.658.614A2.126,2.126,0,0,1,590.244,586.9Zm6.313-6.565q-.331-3.617,3.284-3.283c.791.388,1.1,1.259,1.515,2.021a2.53,2.53,0,0,1-2.6,2.6A2.374,2.374,0,0,1,596.557,580.337Zm17.429-4.8c.172.586.84.677,1.01,1.262-.042,1.979-.739,3.3-2.273,3.788C609.349,580.573,610.443,574.483,613.985,575.539Zm-20.965.757c-.921,0-1.133-.718-1.767-1.01-.147-1.439-.029-1.922.757-2.525a2.125,2.125,0,0,1,2.526,0,2.958,2.958,0,0,1,0,3.031.983.983,0,0,0-.76.251,1.015,1.015,0,0,1-.655.257C593.089,576.3,593.056,576.3,593.021,576.3Zm9.851-.253c-.287-.556-.845-.839-1.01-1.516-.422-3.088,4.531-3.354,4.041,0-.215,1.072-1.011,1.562-2.3,1.562A6.294,6.294,0,0,1,602.872,576.043Zm4.294-1.516c-.2-2.3.76-3.449,3.031-3.282a3.59,3.59,0,0,1,1.516,2.273c-.051,1.13-.792,1.567-1.263,2.274a6.145,6.145,0,0,1-.764.051A2.586,2.586,0,0,1,607.166,574.528Zm-10.1-7.072a3.008,3.008,0,0,1,4.041-2.525,2.628,2.628,0,0,1-1.3,4.969A2.728,2.728,0,0,1,597.063,567.455Zm10.608-2.525c.056-1.868,2.792-2.383,3.789-1.01.125.172-.078.545.253.5a2.674,2.674,0,0,1-2.02,3.03A2.208,2.208,0,0,1,607.671,564.93Zm-12.881-1.516a7.306,7.306,0,0,1-.253-2.777c.612-1.119,1.962-2.2,3.284-1.517.478.249.5.945,1.01,1.264.013,1.866-.338,3.368-1.768,3.79a2.4,2.4,0,0,1-.46.048C595.729,564.221,595.454,563.624,594.79,563.414Zm17.174-.5c.03-.424-.644-.556-.757-.76-.017-.028-.258-.927-.253-.763a2.784,2.784,0,0,1,1.01-1.761,2.917,2.917,0,0,1,2.274.506c.652,1.435,0,2.848-1.624,2.848A3.3,3.3,0,0,1,611.964,562.911Zm-10.1-3.032c-.134-3.273,4.873-3.124,5.051-.253.09,1.508-1.219,2.255-2.527,2.255A2.272,2.272,0,0,1,601.862,559.879Zm9.092,1.508s0,0,0,.006Zm-2.525-4.539c-.039-3,4.648-2.924,3.788.757-.555.288-.84.845-1.515,1.011h-.073C609.3,558.617,608.923,557.677,608.429,556.848Zm-8.336-.506c-2.649-1.5.494-6.527,2.779-3.787.171,2.227-.306,3.807-2.365,3.807Q600.31,556.362,600.093,556.342Z" transform="translate(-527.605 -502.544)"/>
</svg>