<?xml version="1.0" encoding="utf-8"?><!-- Uploaded to: SVG Repo, www.svgrepo.com, Generator: SVG Repo Mixer Tools -->
<svg fill="#000000" width="800px" height="800px" viewBox="-19.59 0 119.999 119.999" xmlns="http://www.w3.org/2000/svg">
  <path id="_0301-pina-colada" data-name="0301-pina-colada" d="M144.158,611.384a1.3,1.3,0,0,0-.832-.142h-3.6c-2.592-.327-5.113-.72-6.95-1.8-1.012-.4-2.435-.484-3.346-1.031a3.017,3.017,0,0,1-1.8-2.314c-.078-1.109,1.053-1.007,1.288-1.8a9.752,9.752,0,0,1,1.8-1.03,31.589,31.589,0,0,1,3.861-1.8,29.794,29.794,0,0,1,7.978-3.6c-.181-.955.441-1.105.258-2.06.251-1.279-1.04-1.019-1.287-1.8-.488-.455-.8-1.09-1.287-1.545a13.867,13.867,0,0,0-.772-2.316,12.807,12.807,0,0,1,.515-4.375c.25-.007.2-.315.257-.517a8.949,8.949,0,0,1,3.346-2.057,11.141,11.141,0,0,0-.257-3.6c-.57-.8-1.91-.834-2.83-1.286a9.388,9.388,0,0,0-2.832-1.03c-.546-.74-1.908-.665-2.316-1.544-1.192-.1-1.461-1.115-2.574-1.287-1.119-1.625-2.947-2.545-3.86-4.376-1.377-1.283-1.894-3.426-2.832-5.147-.242-1.9-.273-4.017-.514-5.92a36.107,36.107,0,0,0,.256-5.148c.59-3.613,1.787-6.621,2.574-10.037A84.913,84.913,0,0,1,132,534.8c.114-7.064-2.631-11.267-3.6-17.245-.391-1.153-1.037-2.051-.771-3.86.567-.865,2.47-.4,3.089-1.544,1.073.129,1.637.763,2.574,1.029.04-1.5-.83-2.089-1.031-3.347a18.232,18.232,0,0,0-1.286-3.089c-.481-2.435-1.647-4.185-2.057-6.691-6.251.018-10.8,3.1-16.988,2.317a12.9,12.9,0,0,1-3.09.516c-1-1.973-2.018-5.11-1.285-7.98,1.219-.923,3.494-.793,5.148-1.288a14.307,14.307,0,0,0,2.832-.257,14.2,14.2,0,0,1,2.83-.257,91.319,91.319,0,0,1,11.067-1.287,7.423,7.423,0,0,1,2.83-.257c-.091.348.212.3.516.257s.607-.092.516.258a.8.8,0,0,1,.491.13.805.805,0,0,0,.538.127,26.811,26.811,0,0,1,2.316,4.376v2.058c1,2.434,1.627,5.237,2.831,7.466a13.5,13.5,0,0,0,1.287,3.86,9.3,9.3,0,0,0,1.288,3.6c6.728.563,13.188,1.4,20.589,1.287.752-.365.817-1.415,1.287-2.06a5.114,5.114,0,0,0,1.03-2.057c-.361-.76-.713-.412-1.2-.066a1.459,1.459,0,0,1-1.372.321,1.471,1.471,0,0,0-1.287-1.287c-.923.066-.941-.772-1.8-.772a12.677,12.677,0,0,1-2.576-3.6c-1.109.179-1.53,1.045-3.087.774-.355-.332-.255-1.12-.257-1.8a7.922,7.922,0,0,1-3.6-3.6c-.34-.01-.7,0-1.06.01-1.4.039-2.808.077-3.057-1.039.365-2.381,3.454-2.036,5.918-2.318.962-.411,2.5-.246,3.605-.515.833.15,1.2-.175,1.8-.257a2.241,2.241,0,0,1,.773,0c.48.049.959.1,1.029-.26,5.2-.291,9.671-1.312,14.67-1.8,1.455.174,1.756,1.5,2.832,2.058.443,1.188,1.567,1.694,1.8,3.089.98.65,1.079,2.181,2.058,2.83a8.7,8.7,0,0,0,1.8,3.088c.787,2.475,2.492,4.029,3.346,6.437a16.523,16.523,0,0,1,1.8,3.088c.334.953,1.557,2.1.771,3.344-1.781.742-2.345-1.47-3.6-2.057a4.146,4.146,0,0,1-2.241.258,10.263,10.263,0,0,0-1.362,0c-.9.3-.147,2.256-1.8,1.8-1.557.016-1.027-2.058-1.545-3.088a4.259,4.259,0,0,1-2.2-.465c-.98-.412-1.851-.824-2.694-.049-.913-.288-1.293-1.109-2.831-.773-.694-.679-1.863-.885-2.576-1.544a4.133,4.133,0,0,0-1.285,2.317c.937.506,2.638.426,4.117.772.179.508.687.686,1.286.772.316.714.374,1.683,1.031,2.057a35.744,35.744,0,0,1-.257,6.179,44.631,44.631,0,0,1-1.287,4.375c-.447,1.635-.618,3.244-1.03,4.891-.212.844-.283,2.161-.516,3.088-.1.4.076.877,0,1.289a39.488,39.488,0,0,0,1.545,4.376c.208,1.677.82,2.953,1.029,4.63,1.034,2.742,1.157,6.394,1.8,9.523v3.091c-.508,3.865-1.659,7.09-2.317,10.809q-3.227,3.98-6.692,7.722c-3.214,1.332-5.94,3.152-10.3,3.346-.695.384.447,1.074.774,1.287,0,.767.668.876.771,1.544.81.82.992,2.267,1.8,3.087a22.2,22.2,0,0,1,.258,4.633c-.3.042-.217.469-.258.774a11.1,11.1,0,0,1-3.86,4.117c1.061,2.113,3.241,3.108,5.663,3.861,2.216.871,4.855,1.321,5.661,3.6-.41,1.99-1.843,2.959-3.089,4.117a49.031,49.031,0,0,1-9.008,2.574h-7.723a1.57,1.57,0,0,1-.356.044A1.389,1.389,0,0,1,144.158,611.384Zm-4.178-3.746c.348.081.491.367,1.03.258.229-.4-.138-.573-.5-.573C140.226,607.323,139.944,607.436,139.981,607.638Zm8.494-2.317c.028.488.851.18.772.774.223.375.385.815,1.029.771,2.074-.5,4.657-.492,6.178-1.545-4.036-1.712-6.917-4.58-6.693-10.552.911-1.148,2.282-1.836,3.089-3.088a5.407,5.407,0,0,0-.257-3.089,5.412,5.412,0,0,1-.773-1.544,14.9,14.9,0,0,0-1.544-2.832,8.1,8.1,0,0,0-2.831,1.287,1.818,1.818,0,0,1,1.544,1.029,23.779,23.779,0,0,1-2.058,1.545c-.994.294-2.415.161-2.574,1.287,1.267-.083,3.145-1.668,3.861,0-.17.688-.737.979-1.03,1.545-.632.226-1.484.23-1.544,1.03.769.517,2.2.369,2.316,1.543.3,1.067-.541,1-.514,1.8-.044.91-.838,2.407-.257,3.088.353-.664,1.576-.056,2.059,0-.006.608.443.758.256,1.544-.168.947-.949,1.282-1.544,1.8-.289,1.513-1.4,2.206-1.544,3.86a1.619,1.619,0,0,0,1.03-.13,1.741,1.741,0,0,1,.694-.162A1.79,1.79,0,0,1,148.475,605.321Zm-13.9,1.288a2.122,2.122,0,0,0,1.8,0c-.076-.676,1-.2.773-1.03-.059-.2-.008-.508-.258-.513C136.274,605.732,134.789,605.535,134.576,606.609Zm3.088-1.543c.732.109,2-.545,1.287-1.031C138.748,604.6,137.742,604.37,137.664,605.066Zm0-69.753a21.716,21.716,0,0,0-1.544,3.6,9.556,9.556,0,0,0-1.287,4.117c-1.233,1.256-1.243,3.735-2.317,5.149-.42,2.068-1.229,3.746-1.544,5.92v3.6c.413,2.16.643,4.506,1.544,6.178.59,1.984,1.765,3.384,2.574,5.147q1.723,1.5,3.347,3.089c5.245,2.218,10.41,4.519,18.273,4.118,1.729-.795,4.586-1.567,5.663-2.575a23.742,23.742,0,0,1,2.058-2.057,37.366,37.366,0,0,0,2.832-13.127,64.021,64.021,0,0,0-1.287-10.038c-.7-3.071-2.143-5.408-2.573-8.75.286-3.832.766-7.47,1.286-11.068-2.04.1-3.557.733-5.919.514-1.7.984-2.262,4.4-4.891,3.6-.719-1.488,1.408-2.136,1.544-3.6-2.651-.092-4.97-.52-7.721-.514,1.473,4.874,3.315,9.385,4.891,14.157a9.131,9.131,0,0,1,.257,2.572,25.871,25.871,0,0,1,1.544,4.376c.47,1.5,1.388,2.558,1.287,4.633.811.733,1.7,1.387,1.544,3.088-1.579,1.4-4.42.354-6.433,0-1.433-.885-2.034-2.6-2.832-4.117-.321-2.425-1.464-4.026-1.8-6.435-.663-.709-.532-2.215-1.032-3.088a31.872,31.872,0,0,0-1.028-3.346c-1.221-4.357-2.825-8.33-4.118-12.612-.958-.587-2.581-.507-3.6-1.03C136.5,529.961,137.9,531.82,137.664,535.314Zm6.95-6.95c.041.3-.044.731.258.772,2.218,6.533,4.839,12.662,5.919,20.334a8.171,8.171,0,0,1,1.029,2.574c.668.618.472,2.1,1.545,2.317-.238-2.507-1.445-4.048-1.8-6.435-.535-.835-.586-2.158-1.028-3.089a21.943,21.943,0,0,1-.773-3.6,8.614,8.614,0,0,1-1.029-3.089,18.438,18.438,0,0,1-1.287-3.089,58.616,58.616,0,0,1-2.06-6.434c-.3-.014-.347-.269-.655-.269A.685.685,0,0,0,144.614,528.364Zm17.759-6.949a11.771,11.771,0,0,1-1.287,2.317c-.058.933-1.351,1.548-.771,2.317a15.308,15.308,0,0,0,4.891-.773c.366-1.348.373-3.057.771-4.375a3.227,3.227,0,0,0-1.944-.26,8.825,8.825,0,0,1-1.144,0C162.826,521.01,162.463,521.077,162.373,521.415Zm-18.532-1.8c.755,1.991,1.241,4.251,2.575,5.662,3.415.361,7.065.486,10.553.773a33.905,33.905,0,0,0,3.089-5.406c-4.978-.682-10.449-.876-15.7-1.287C144.1,519.355,144.05,519.565,143.841,519.613Zm-7.3,4.385a2.847,2.847,0,0,0,2.408-.01,19.866,19.866,0,0,1-2.574-6.176h-3.088c.307,2.264,1.216,3.93,1.8,5.919h.043A5.572,5.572,0,0,1,136.544,524Zm6.526-.266c.5-1.422-.493-3.4-1.029-4.632H141.01C141.7,520.638,141.924,522.646,143.069,523.732Zm35.519-16.988c.1,2.817,1.124,4.709,1.287,7.465h3.087c-1.225-2.549-2.821-4.726-4.117-7.207-.013-.136-.033-.266-.182-.266A.356.356,0,0,0,178.589,506.743Zm-44.527-4.375c-.149,1.436.77,1.8.771,3.088.642.733.687,2.061,1.287,2.831.211,1.163.745,2,1.031,3.09.958.413.584,2.161,2.316,1.8-.419-2.069-1.623-3.354-2.059-5.406a23.11,23.11,0,0,1-1.8-5.918,1.633,1.633,0,0,0-.249-.02C134.747,501.835,134.539,502.236,134.061,502.368Zm40.409.774c.181,3.269-.633,5.545-.515,8.75,1.029,0,1.545.513,2.573.514-.318-3.2-1.153-5.881-1.544-9.008a.354.354,0,0,0-.385-.266A.911.911,0,0,0,174.47,503.142Zm-5.405,1.543c-.661.627-1.085,1.488-1.8,2.058-.349.94-1.3,1.273-1.543,2.317,1.873.958,3.388,2.276,5.4,3.091.561-3.645.858-7.553,1.288-11.326-.059-.2-.007-.507-.257-.514C171.218,501.863,170.043,503.175,169.065,504.685Zm-1.8-4.633c-.536.836-1.883.863-2.574,1.545-2.171.659-3.822,1.838-5.919,2.574.8,1.946,2.48,3.01,4.375,3.859.958-1.788,2.283-3.208,3.347-4.888a11.272,11.272,0,0,0,1.8-2.318c.612-.762,1.471-1.275,1.8-2.316C168.912,498.784,168.582,499.912,167.263,500.052Zm-14.928.258c-.1,1.047.873,1.013,1.288,1.545.751.276.968,1.09,2.058,1.029,2.645-1.3,5.518-2.376,7.979-3.861C159.782,499.348,156.5,500.272,152.335,500.31Zm-19.561-.258c1.035-.166,1.764-.639,1.544-2.06a.838.838,0,0,0-.462-.139A1.481,1.481,0,0,0,132.774,500.052Zm-22.65-3.6c.011,1.362-.158,2.905.772,3.347a18.48,18.48,0,0,1,3.09-1.287,27.834,27.834,0,0,0,3.345-1.03c2.457-.545,4.484-1.522,7.207-1.8.847.011,1.281.434,2.317.257.335-.46.621-.172,1.029-.515a1.389,1.389,0,0,0,.514-1.03C122.474,495.242,116.8,496.347,110.124,496.448Zm59.97,2.06c.216-.091.175-.181.106-.181C170.148,498.327,170.083,498.376,170.094,498.508Zm0-1.03a1.231,1.231,0,0,0,1.545-.771A2.573,2.573,0,0,0,170.094,497.478Zm-37.836-3.345c-.47.9-1.52,1.225-1.543,2.574a2.927,2.927,0,0,0,2.059-2.317.357.357,0,0,0-.39-.267A.93.93,0,0,0,132.258,494.132Zm12.614,78.5a2.2,2.2,0,0,1,.255-1.545c1.329-.126,2.049.356,2.061,1.545a1.186,1.186,0,0,1-1.013.479A2.1,2.1,0,0,1,144.872,572.634Zm12.353-3.861a1.724,1.724,0,0,1,2.832,1.545c-.25.006-.2.315-.258.514a2.289,2.289,0,0,1-.975.232C157.781,571.064,156.978,570.216,157.225,568.773Zm-18.016.773c-.11-.539.175-.682.257-1.029.68-.078.844.355.772,1.029Zm-4.376-7.207c-.587-3.559,4.111-1.482,2.059.515a4.35,4.35,0,0,1-.545.036A1.976,1.976,0,0,1,134.833,562.339Zm15.031-1.831c.081-.987,1.112-1.974,2.215-.743.088,1.034,0,1.883-.772,2.059h-.078C150.176,561.825,149.808,561.166,149.864,560.508Zm-10.4-.485v-1.545c.382-.134.649-.381,1.031-.515a1.917,1.917,0,0,1,2.057.772c.207,1.173-.8,1.81-1.771,1.81A1.763,1.763,0,0,1,139.466,560.023Zm21.878-9.524c1.24.046,1.693.88,1.8,2.059a6.323,6.323,0,0,1-1.029,1.03,1.189,1.189,0,0,1-.143.009C160.478,553.6,159.453,550.765,161.344,550.5Zm-21.878-3.345c-.387-.729-1.04-1.191-1.029-2.318-.123-.807.691-.68.771-1.287.3-.041.459.058.516.258.339-.061.934.381,1.286.771.185.205.077.534.257.772.359.478,1.934,1.869.517,3.089a3.979,3.979,0,0,1-.454.027A1.735,1.735,0,0,1,139.466,547.154Zm17.759-7.722c.112.49.555.646.517,1.287a4.44,4.44,0,0,0-1.031.772A1.068,1.068,0,1,1,157.225,539.432Z" transform="translate(-107.301 -491.544)"/>
</svg>