<?xml version="1.0" encoding="utf-8"?><!-- Uploaded to: SVG Repo, www.svgrepo.com, Generator: SVG Repo Mixer Tools -->
<svg fill="#000000" width="800px" height="800px" viewBox="-2.78 0 119.999 119.999" xmlns="http://www.w3.org/2000/svg">
  <path id="_0604-pizza-slice" data-name="0604-pizza-slice" d="M792.488,1196.039c-2.362-.44-2.952-2.655-4.324-4.085-.3-1.061-1.112-1.611-1.443-2.642-.4-.959-.97-1.752-1.442-2.643a17.425,17.425,0,0,1-3.124-5.047,29.12,29.12,0,0,1-2.883-5.287,26.5,26.5,0,0,1-2.884-5.286c-.916-.446-.767-1.958-1.683-2.4-.2-1.156-1-1.727-1.2-2.883-1.34-1.385-1.8-3.645-3.124-5.047a6.317,6.317,0,0,0-1.441-2.642,5.681,5.681,0,0,0-1.444-2.644,8.541,8.541,0,0,0-.96-2.162c-.113-.2-.4-.338-.482-.482-.518-.966-.716-1.983-1.2-2.883-.055-.1-.442-.155-.482-.241-.257-.571-.518-1.582-.96-2.4-.054-.1-.441-.154-.481-.239-.251-.56-.533-1.6-.961-2.4-.246-.46-.7-.714-.961-1.2-.366-.684-.616-1.417-.961-2.163-.187-.406-.433-.7-.721-1.2-1-1.724-1.9-4.126-3.124-6.007q-5.472-10.869-11.054-21.629c-.738.234-2.677.516-3.364,0-1.363-.158-1.948-1.1-2.643-1.922a11.8,11.8,0,0,1-2.163-2.162c-.611-.832-1.1-1.779-1.682-2.643a2.394,2.394,0,0,0-.721-1.443,3.167,3.167,0,0,0-.481-1.681c-.327-4.813.775-8.2,2.642-10.814a14.132,14.132,0,0,1,10.093-2.163c1.057-.306,1.267-1.457,1.923-2.162.69-.672,1.656-1.066,2.163-1.923.942-.179,1.3-.936,2.162-1.2.6-.44,1.583-.5,1.922-1.2a32.116,32.116,0,0,0,4.326-2.163,36.148,36.148,0,0,1,5.527-.721,19.243,19.243,0,0,1,2.883.48c1.546.458,3.114.892,4.085,1.922,1.176-.266,1.425-1.458,2.4-1.922.687-.673,1.73-.992,2.4-1.681a33.681,33.681,0,0,1,9.372-2.644c8.317-.545,14.071,1.471,18.023,5.287,1.048-.232,1.328-1.234,2.163-1.681a25.794,25.794,0,0,0,2.4-1.443c3.06-1.344,7.17-1.64,11.774-1.44a.751.751,0,0,1,.46.121.749.749,0,0,0,.5.118c3.867.62,6.556,2.417,9.613,3.846.464.736,1.315,1.088,1.922,1.682.569.632.955,1.449,1.922,1.681h4.806a4.5,4.5,0,0,0,2.164.722c1.391.931,2.794,1.85,4.085,2.884.537,1.064,1.346,1.858,1.922,2.883a10.158,10.158,0,0,0,.722,2.164v3.845c-.8,3.683-2.875,6.1-5.046,8.41-1.272.492-2.156,1.369-3.846,1.444a53.5,53.5,0,0,1-2.642,6.248c-.425,4.7-1.95,8.3-3.364,12.014-.643,1.92-1.769,3.357-2.4,5.287-1.041,1.441-1.445,3.521-2.4,5.045a227.227,227.227,0,0,1-10.093,20.425c-1.776,3.353-3.329,6.924-5.046,10.333-1.293,3.753-2.428,7.664-4.325,10.814-1.233,3.894-3.649,6.6-5.528,9.852-2.083,2.963-3.651,6.441-6.247,8.89a9.174,9.174,0,0,0-2.643.24,1.906,1.906,0,0,0-1.229.086,2.46,2.46,0,0,1-.683.156A.591.591,0,0,1,792.488,1196.039Zm-2.642-29.556c.716.724,1.939,1.232,2.642,2.162.077.1-.052.365,0,.481.04.085.425.138.482.239.18.328.091.629.239.961.067.149.419.547.482.723.525,1.468.22,4.954,0,6.247a8.083,8.083,0,0,1-2.4,2.885c-.241.639-.97.792-1.442,1.2-.492.468-1.588.336-1.682,1.2.8,1.766,1.9,3.226,2.643,5.047,1.175,1.387,1.755,3.37,3.6,4.085,5.789-8.39,10.153-18.2,15.139-27.4-.193-.927-1.444-.8-1.923-1.441a16.449,16.449,0,0,1-1.441-1.923,11.966,11.966,0,0,1-1.2-3.6,10.923,10.923,0,0,1,1.2-6.487,9.481,9.481,0,0,1,8.89-5.046c1.414-.053,2.135.589,3.124.96,2.332-5.919,5.5-11,7.93-16.82,2.789-5.542,5.629-11.033,6.488-18.5a6.484,6.484,0,0,0-2.4-1.441c-.534-.826-1.082-1.642-1.682-2.4-1.5.218-2.205-.358-3.364-.481a19.874,19.874,0,0,0-2.884-1.683c-1.285-1.358-2.47-2.814-3.844-4.085a8.065,8.065,0,0,0-4.326-3.6c-3.551-.189-4.581,2.147-7.448,2.642-.953-.019-1.934-.008-2.915,0a40.275,40.275,0,0,1-6.216-.241,40.85,40.85,0,0,0-3.845-1.682c-1.523-.32-2.336-1.349-4.326-1.2-4.326,1.443-6.7,4.84-11.774,5.529h-2.885c-4.5-.464-7.173-2.76-11.534-3.364-1.736,1.067-2.844,2.762-4.085,4.325-1.583,1.22-2.742,2.866-4.325,4.086a20.561,20.561,0,0,1-1.683,1.2c-.437.6-1.642.44-1.68,1.441,2.335,4.793,4.7,9.561,6.968,14.418,1.231,2.375,2.463,4.747,3.845,6.969a34,34,0,0,1,4.085,6.729c.919.842,1.339,2.185,2.163,3.123.556,1.287,1.365,2.319,1.922,3.605,1.1,2.509,2.376,4.834,3.364,7.448,2.151,5.059,4.766,9.653,7.209,14.418a12.615,12.615,0,0,1,5.543-1.321A8.993,8.993,0,0,1,789.845,1166.483Zm-3.605,8.411c-.03.43.3.506.242.96.229,1.033-1.181.421-1.2,1.2.662.541.7,1.7,1.2,2.4a5.38,5.38,0,0,0,3.843-3.6c-.824.589-2.285.156-1.922-1.2.242,0,.287-.194.482-.24a1.294,1.294,0,0,1,1.441,1.442h.242c.491-.788.128-2.434.239-3.6a13.508,13.508,0,0,0-2.4-2.644,11.65,11.65,0,0,0-5.527,1.682,29.412,29.412,0,0,0,1.683,3.846,7.85,7.85,0,0,1,1.293-.277A2.182,2.182,0,0,1,786.24,1174.893Zm24.511-24.511a4.219,4.219,0,0,0-1.682,1.683c-.088.144-.393.312-.48.481-.166,1.688.406,2.637.24,4.325.338.622.333,1.589.721,2.162.458.583.507,1.575,1.441,1.682.788-.492.918-1.646,1.443-2.4a15.771,15.771,0,0,0,1.2-2.884,5.4,5.4,0,0,0,1.2-2.643,13.525,13.525,0,0,0,1.443-2.641,4.87,4.87,0,0,0-2.282-.506A7.557,7.557,0,0,0,810.751,1150.382Zm4.808-56.23c.911.53,1.957.926,2.883,1.443a12.75,12.75,0,0,0,2.4,1.922c.942,1.14,1.94,2.224,2.884,3.365a17.715,17.715,0,0,1,2.643,1.922c1.358.164,1.931,1.112,3.124,1.441,1.257,1.066,1.777,2.869,3.6,3.365,1.266-.014,1.626-.937,2.642-1.2.541-.455-.827-1.18,0-1.923,3.122-.081,4.328-2.079,6.248-3.362.887-1.516,2.046-2.762,2.4-4.806v-2.643a4.738,4.738,0,0,1-.723-1.682c-1.927-1.838-3.671-3.859-7.689-3.6-.427,2.056-.406,4.56-3.124,4.325-1.645-.357-1.3-2.7-1.682-4.325a4.8,4.8,0,0,1-.721-.961,10.6,10.6,0,0,0-1.442-1.2c-.384-.3-.6-.724-.961-.96-.222-.146-.532-.122-.721-.24a12.19,12.19,0,0,0-1.2-.722,23.377,23.377,0,0,0-6.969-2.4c-5.523-.157-10.09.644-13.216,2.883a2.1,2.1,0,0,1-1.2,2.884c-2.45.287-2.729-1.6-3.844-2.642a20.49,20.49,0,0,0-8.651-3.846,34.779,34.779,0,0,0-12.014,1.2,18.735,18.735,0,0,0-4.086,2.4c-1.387.857-1.941,2.544-4.085,2.644.175,1.618-.16,2.723-1.442,2.883-1.209.185-1.881-.764-2.643-1.2a12.523,12.523,0,0,0-4.566-1.923h-4.566a12.829,12.829,0,0,0-7.448,4.566c.26,1.1,1.362,1.361,1.2,2.885-.24,1.051-1.571,1.009-2.9.967-.4-.013-.808-.024-1.182-.006a16.206,16.206,0,0,1-1.922-1.443,9.993,9.993,0,0,0-5.287.241,2.163,2.163,0,0,1-.961.961,18.5,18.5,0,0,0-.722,2.882,12.791,12.791,0,0,0,.722,4.086c.462,1.141.659,2.546,1.682,3.124a17.3,17.3,0,0,1-.481-4.565c.477-.485.071-1.852,1.2-1.683,1.573.271.64,3.047,1.444,4.085a5.436,5.436,0,0,0,.48,2.163c.332.628.125,1.8.961,1.922.635-.65-.477-1.594-.24-2.642a14.68,14.68,0,0,1-.24-3.124c.446-.515.489-1.434,1.442-1.442,1.834,1.209.564,5.522,2.4,6.729.615-.914-.436-1.868-.481-2.884-.22-1-.607-2.809.721-2.884,2.227-.064.959,3.365,2.643,3.845,1.415-1.283-1.781-4.822.721-5.768,1.456.227,1.049,2.318,2.163,2.885a16.862,16.862,0,0,1,3.6-3.847,8.544,8.544,0,0,1,3.364-1.681c5.028-.789,7.829,1.672,12.015,2.4h3.6c4.556-1.051,6.638-4.577,11.294-5.529.137-.422-.291-1.41.24-1.441.143-.5-.3-1.58.239-1.683.035-1.245.374-2.19,1.683-2.162,1.906.621-.977,5.115,1.442,5.527.655-1.666-.44-5.087,1.922-5.047,1.052.15,1.022,1.383.962,2.643.159,1.123-.465,3.029.721,3.125.743.021.716-.725.72-1.442.587-.134.513-.929,1.443-.722.1.464.931.191.72.962,0,.565.416.707.241,1.442-.205,1.326.475,1.767,1.441,1.922.528-.513.373-1.711,1.444-1.681.319.241.893.227.959.721.477.164-.149,1.431.721,1.2a2.315,2.315,0,0,1,1.268-.036,4.965,4.965,0,0,0,1.376.036,13.9,13.9,0,0,1,2.643-1.2c.537-.823,1.736-.988,2.643-1.443Zm-23.55,87.952c.535-2.22,3.938-.126,2.884,1.44a1.764,1.764,0,0,1-.857.225A2.213,2.213,0,0,1,792.008,1182.1Zm8.17-10.333c-.265-.859-1.023-1.221-1.2-2.165a16.74,16.74,0,0,1-2.163-4.565c.256-2.228,1.646-3.32,2.883-4.566h.241c1.809.193,1.875,2.129,2.883,3.124.76,1.163,1.548,2.3,2.4,3.364.077.563.381.9.241,1.681.352.21.762.36.721.961a5.687,5.687,0,0,1-4.085,3.605h-.019C800.966,1173.211,800.868,1172.194,800.178,1171.77Zm-1.2-6.249c1.082,1.32,2.395,2.41,3.364,3.843-.035.6-.045,1.167.48,1.2.112-.77.915-.846.961-1.681a12.384,12.384,0,0,1-3.364-4.806c-.344-.058-.405-.4-.721-.481C799.539,1164.321,798.774,1164.438,798.977,1165.522ZM786,1172.489a1.568,1.568,0,0,1-.239-1.2,2.038,2.038,0,0,1,1.441-.239c-.1.579.44.521.242,1.2a1.43,1.43,0,0,1-.987.255C786.309,1172.5,786.156,1172.5,786,1172.489Zm-2.4-10.813c-4.442-1.084-5.81-5.242-6.486-10.092a8.413,8.413,0,0,1,1.921-5.047c.765-.036,1.058-.545,1.923-.48a4.233,4.233,0,0,1,3.123,2.163c1.013-.11,1.107-1.137,1.922-1.443.464-.579,1.285-.8,1.683-1.441,1.453-.148,2.3-.908,4.085-.722.2.357.773.348,1.2.481a4.284,4.284,0,0,1,1.442,3.6c-.739,2.786-3.263,3.787-5.767,4.806.294.908,1.046,1.357.961,2.644a6.188,6.188,0,0,1-3.123,4.805,4.081,4.081,0,0,1-2.273.772A3.758,3.758,0,0,1,783.6,1161.676Zm-3.123-12.255c-1.448,4.082.791,8.231,4.325,8.891a3.572,3.572,0,0,0,2.4-2.162,10.785,10.785,0,0,1-.719-1.922c-.427-.456-.176-1.589-.242-2.4.73-.792,2.135-.909,3.365-1.2.719-1.043,2.441-1.084,2.4-2.884-.63-.917-1.37-.52-2.644-.481a21.777,21.777,0,0,0-2.643,1.924c-.558.162-.643.8-1.2.961-.491.309-.437,1.164-1.443.96-1.517-.146-1.626-1.7-3.288-1.7A3,3,0,0,0,780.474,1149.421Zm13.217,9.852c.008-1.834,1.6-2.085,2.642-2.883.832-.192,1.015.266,1.443.481.121,1.4-.709,1.853-1.682,2.162a1.256,1.256,0,0,1-1.279.715A1.342,1.342,0,0,1,793.69,1159.273Zm16.821-3.123c-.519-.515-.123-1.343.239-1.683.7-.06.83.453,1.2.722-.028.674-.426.979-1.128.979A2.948,2.948,0,0,1,810.511,1156.15Zm.721-3.365c-.1-.5.165-.637.24-.961.315.086.378.425.721.482-.049.351-.3.5-.7.5A2.1,2.1,0,0,1,811.232,1152.785Zm-40.371-9.611a1.323,1.323,0,0,1,1.923.481c.859.1,1.156.766,1.2,1.682a1.472,1.472,0,0,1-.985.4A2.594,2.594,0,0,1,770.861,1143.174Zm24.751,1.2c-.686-1.841.651-3.568,2.644-2.644a4.057,4.057,0,0,1,.961,2.644,4.06,4.06,0,0,0-.721.961q-.133.008-.258.008A4.875,4.875,0,0,1,795.612,1144.375ZM817,1141.011c-1.709-.192-1.788-4.3.721-3.605.891.783,1.157,3.607-.654,3.607Zm-43.735-1.2c-3.312-1.494-5.8-3.814-6.008-8.411a11.151,11.151,0,0,1,1.441-4.084,13.2,13.2,0,0,1,6.969-3.6c-.044-.2.094-.227.241-.24h1.682a10.936,10.936,0,0,1,5.046,2.883.655.655,0,0,0,.48.721c.122.371.094.586.242.962a3.806,3.806,0,0,1,.48,1.442c.034.285.226.387.239.481.514,3.451-.762,7.324-2.642,8.891a14.49,14.49,0,0,1-5.729,1.243A10.1,10.1,0,0,1,773.265,1139.809Zm-.24-12.015c-.363,1.642-1.1,2.9-1.443,4.566A16.194,16.194,0,0,0,772.3,1135c.884.238,1.358.885,2.4.96a6.153,6.153,0,0,0,2.379.244c.251,0,.5-.006.746,0,.04-.28.38-.261.721-.24a4.544,4.544,0,0,1,1.442-.96,9.484,9.484,0,0,0,.961-3.126,18.428,18.428,0,0,0-.72-3.123c-.546-.176-.719-.724-.962-1.2a9.434,9.434,0,0,0-3.124-.961A13.689,13.689,0,0,0,773.024,1127.794Zm28.595,11.534a2.4,2.4,0,0,0-1.441-.72,8.656,8.656,0,0,0-.961-1.2,2.65,2.65,0,0,1-.482-1.2c-.425-1.7-.009-5.451,1.2-6.97-.113-.339-.611-.292-1.11-.243a2.668,2.668,0,0,1-.813,0c-.112-.339-.61-.292-1.109-.244a2.678,2.678,0,0,1-.814,0c-.217-.5-1.357-.085-1.442-.721-.754.113-.635-.647-1.2-.721-.58-1.689.049-3.422.482-4.806.93-1.313,2.1-2.389,3.123-3.605,1.337-.506,2.281-1.4,3.845-1.681a15.658,15.658,0,0,1,4.806-.481c4.19.616,6.923,2.69,7.448,6.97-.032,1.968-.117,3.889-1.2,4.806a27.714,27.714,0,0,1-4.806-.241c-.6.389.426,1.157.48,1.683.579.3.484,1.278.962,1.682.634,3.7-.895,6.394-3.365,7.689Zm.242-12.976c.825,3.144-1.3,7.371.48,10.092.282.04.682-.04.721.242,1.909.068,2.286-1.4,2.643-2.884.053-1.335-.735-1.827-.962-2.885.057-1.177-.423-1.819-.239-3.124a1.964,1.964,0,0,0,.482-1.442,1.412,1.412,0,0,0,1.4-.032,2.522,2.522,0,0,1,1.006-.207c.245-.275.783-.257,1.32-.241s1.076.034,1.322-.24c.115-1.557-.476-2.406-.72-3.6-.606-.517-1.34-.9-1.922-1.443-.283-.037-.683.041-.721-.239-.348,0-.7,0-1.049-.005a22.625,22.625,0,0,0-4.478.245c-2.054,1.23-4.164,2.4-5.045,4.806a14.636,14.636,0,0,1,2.884.481c.205-.005.409-.009.609-.009A3.787,3.787,0,0,1,801.861,1126.352Zm-25.3,6.832c-.032-.586.445-1.173,1.5-.584v1.2a1.439,1.439,0,0,1-.693.21A.822.822,0,0,1,776.566,1133.184Zm-2.1-2.987a.866.866,0,1,1,1.442.961,2.932,2.932,0,0,1-.316.018C774.891,1131.176,774.494,1130.871,774.466,1130.2Zm3.124,0a1.874,1.874,0,0,1,0-1.922h.961a1.878,1.878,0,0,1,0,1.922Zm43.254-2.883c.137-1.7,3.052-.735,2.884.721a1.5,1.5,0,0,1-1.048.384A2.015,2.015,0,0,1,820.844,1127.314Zm-59.114-6.489c-.032-1.534,3.461-1.753,3.363,0-.1.674-.772.958-1.489.958C762.786,1121.783,761.9,1121.411,761.73,1120.825Zm57.911-2.883a4.813,4.813,0,0,1,2.164-4.326h1.442c1.617,1.7.013,4.692-1.682,5.287A3.427,3.427,0,0,1,819.642,1117.942Zm-33.881-.482a8.412,8.412,0,0,1-1.2-.481,8.164,8.164,0,0,1-1.443-1.922c-.241-.357-.531-.652-.72-.96-.237-.391-.266-.849-.482-1.2-.42-.69-1.073-1.314-1.441-1.921-.233-.385-.3-.871-.481-1.2a4.46,4.46,0,0,0-.721-.961c.243-1.444-.353-2.051-.482-3.124a7.639,7.639,0,0,1,2.4-2.884,4.655,4.655,0,0,1,2.884,0c1.611,1.754,2.408,4.322,4.086,6.007.967,2.4,3.237,3.49,3.6,6.487-1.078,1.4-3.148,1.819-4.806,2.644a.661.661,0,0,1-.253.054C786.34,1118,786.1,1117.631,785.76,1117.461Zm-5.046-10.813c.154,1.046,1.249,1.155,1.441,2.164a5.028,5.028,0,0,1,1.442,2.164c1.282,1.12,1.765,3.04,3.124,4.084.168-.634,1.1-.508,1.2-1.2a18.77,18.77,0,0,1-2.644-4.086c-.811-1.458-1.6-2.909-2.4-4.326h-.023C781.737,1105.446,781.468,1106.289,780.714,1106.647Zm-16.341,7.451c-.4-.8-.8-1.6-1.2-2.4a3.107,3.107,0,0,1-.961-2.4,3.336,3.336,0,0,1,2.162-3.124h2.164c.039.282.438.2.721.24.36.281.588.695,1.2.722a8.171,8.171,0,0,1,2.4,7.208c-.477.405-.382,1.381-.959,1.683-.194.608-.99.612-1.443.96q-.13.006-.253.006C765.965,1116.986,765.262,1115.448,764.373,1114.1Zm.24-4.567c-.1,1.459.848,1.876,1.2,2.883.62.823,1.017,1.867,2.162,2.164,1.292-2.543-.147-5.95-2.884-6.008C765.091,1109.047,764.439,1108.876,764.613,1109.531Zm32.441-1.681c-.164-1.806,2.439-2.886,3.363-1.443a2.286,2.286,0,0,1-2.188,1.993A1.465,1.465,0,0,1,797.054,1107.85Zm8.89-3.124c.247-.316.237-.886.482-1.2,2.3-.138,3.009,1.318,3.845,2.644,0,.883-.841.921-1.2,1.442C807.213,1107.463,806.61,1106.063,805.945,1104.726Z" transform="translate(-734.039 -1076.281)"/>
</svg>