<?xml version="1.0" encoding="utf-8"?><!-- Uploaded to: SVG Repo, www.svgrepo.com, Generator: SVG Repo Mixer Tools -->
<svg fill="#000000" width="800px" height="800px" viewBox="-3.81 0 110 110" xmlns="http://www.w3.org/2000/svg">
  <path id="_0105-preserved-food" data-name="0105-preserved-food" d="M998.089,216.719a76.421,76.421,0,0,0-8.482-.8c-.086-.322-.509-.3-.934-.285-.406.017-.812.034-.921-.245a1.347,1.347,0,0,1-.859-.147,1.356,1.356,0,0,0-1-.119,25.328,25.328,0,0,0-4.24-.263c-2.61-.837-5.779-1.113-8.218-2.122a32.1,32.1,0,0,1-6.626-6.361c-.852-2.5-2-4.716-2.65-7.42-.113-16.989.945-32.8,1.855-48.772-.069-.235-.177-.153-.349-.07a.652.652,0,0,1-.445.07c-.555-.112-.7.183-1.06.266h-2.386a3.86,3.86,0,0,1-2.386-.53,4.682,4.682,0,0,1-4.506-.8c-.526-1.523-.239-3.982,0-5.566a32.533,32.533,0,0,1,6.362-8.481c-.471-.767-1.6-.872-1.591-2.12.346-1.247,1.336-1.848,2.915-1.859a2.233,2.233,0,0,1,2.388-3.18v-4.506c.558-3.506.861-7.267,2.385-9.808a3.713,3.713,0,0,1,2.65-.527c6.991-3.79,16.437-5.121,26.24-6.1a25.094,25.094,0,0,1,2.562,0,12.37,12.37,0,0,0,4.064-.267,44.908,44.908,0,0,0,6.7.265c.7,0,1.384,0,2.043,0a146.991,146.991,0,0,1,18.023,2.651c2.689.757,5.406,1.484,8.217,2.12,1.094.673,2.772.765,3.712,1.59,1.422.257,1.856,1.5,2.65,2.385.324,1.208-.727,1.043-.53,2.121a20.8,20.8,0,0,1,1.06,7.421c.252.429.522.2.866-.04a1.035,1.035,0,0,1,.99-.224c.751-.044,1.1-.487,1.855-.532a9.308,9.308,0,0,1-1.325,2.386c.053,1.1,1.47.828,1.325,2.119.482.909-.3,1.236-.264,2.387,1.8,1.119,2.967,2.863,4.5,4.24,1.028,1.891,2.948,2.886,3.977,4.772.509,2.563.485,6.115-1.061,7.423a1.167,1.167,0,0,0-1.059.53,1.428,1.428,0,0,1-.588,0c-.382-.049-.766-.1-.738.268-1.48-.114-1.974-1.208-2.914-1.858-2.637-.1-3.679-1.8-5.832-2.386.923,12.551.752,24.647.8,38.169-.263,2.389-.464,4.837-.531,7.422-.593.115-.108,1.3-.265,1.855.192.81-.457.779-.266,1.59.06,1.5-.468,2.174,0,3.447-.557.767-.589,2.061-1.06,2.914a14.287,14.287,0,0,1-.529,4.506c-.879,1.595-1.911,3.038-2.916,4.505-1.5.708-2.263,2.157-3.975,2.65-1.034,1.088-2.781,1.461-4.241,2.12-.377-.022-.751-.042-.8.266-4.6-.1-8.054.955-11.925,1.589-3.747.76-8.693.321-12.194,1.327ZM981.656,204.26c1.794.685,1.183,2.731.795,4.505,7.042,1.089,14,2.258,22.265,2.12,1.648-.384,3.628-.436,5.3-.794,4.156.091,7.478-.652,11.132-1.061.524-.446,1.655-.289,2.386-.531a3.348,3.348,0,0,0,1.394-.141,3.282,3.282,0,0,1,1.521-.122c1.967-.065,3.285-.78,5.568-.529,2.688-2.083,6.345-3.2,5.829-8.482a42.269,42.269,0,0,0-6.1-.265c-10.9-1.079-21.149.748-30.482,2.119a63.262,63.262,0,0,0-7.156,0,37.263,37.263,0,0,1-5.3-1.326c-.271-.4-.562-.169-.939.062a1.254,1.254,0,0,1-1.183.2c-.716-.609-1.711-.939-2.12-1.856-1.262-8.99.538-18.92.265-28.625-.129-.837.478-.936.266-1.856v-6.891c-.085-2.382.04-4.554,1.589-5.3,2.566-.527,5.7-.483,8.483-.795a130.989,130.989,0,0,0,15.373.532c9.833.59,19.475,1.373,29.156,2.12-.2-3.737.416-6.654.265-10.339.135-1.192.606-3.158.265-3.976-2.071.4-3.228,1.721-5.3,2.121-2.334.212-3.71-.534-5.3-1.059a12.233,12.233,0,0,1-3.445.263c-.81-.25-1.577-.519-2.385-.794a11.484,11.484,0,0,1-2.651-1.06c-.013-.016-1.094-.274-1.06-.267a19.873,19.873,0,0,0-5.831-1.058c-5.735,2.306-9.715,6.366-16.169,7.951h-5.036c-2.119-.53-4.215-1.085-6.362-1.59a32.078,32.078,0,0,0-5.565-2.385.824.824,0,0,1-.555-.131.827.827,0,0,0-.506-.135,13.9,13.9,0,0,0-5.565.8c-.172,4.848-.475,9.3-.266,14.046a35.64,35.64,0,0,1-.265,6.627v3.978c.161,1.33-.25,3.131,0,3.71.151.465.211.153.336-.158.094-.236.224-.472.459-.372.155-.551.557-.858.794-1.326.872-.455,1.121-1.531,2.651-1.325.97.092,1.214.907,1.59,1.591-.286,2.715-1.9,4.1-2.915,6.1a47.763,47.763,0,0,1-3.447,5.831c.185,1.51-.448,2.2-.266,3.712,1.6-.347,1.062-2.828,3.447-2.386,2.241,1.307.055,4.434-.265,6.361-.98,1.935-1.988,3.844-2.917,5.83a10.862,10.862,0,0,0,.532,4.242q.867.072.795-.794a4.579,4.579,0,0,0,1.059-.8c.867-.369.84-1.634,2.386-1.325,1.33.449,1.159,2.364.531,3.445-.263,1.186-1.81,2.582-.8,3.444.9.459,1.213-.221,1.625-.9a1.7,1.7,0,0,1,1.463-1.051A2.227,2.227,0,0,1,981.656,204.26Zm7.687-44q.163,17-.531,33.133c.831,1.378,2.4,2.018,3.711,2.916,2.13.185,3.488-.4,5.3-.531a26.524,26.524,0,0,0,5.567,0c5.251-1.021,10.29-2.255,16.433-2.385,6.453-.091,12.651.071,18.553.53,1.378-9.488,1.422-20.313,1.326-31.277a99.626,99.626,0,0,0-11.929-1.324c-3.749-.666-8.374-.463-12.191-1.062-8.861-.063-17.126-.72-25.976-.793C989.3,159.51,989.32,159.885,989.343,160.26Zm-22.265-24.385a42.339,42.339,0,0,1-3.446,2.65c-.633,1.221-1.751,1.958-2.385,3.182-.31,1.257-1.933,2.392-1.327,3.711.6.579,1.8.558,3,.536.24,0,.481-.008.716-.007,3.281-.873,5.429-2.877,8.217-4.24a23.107,23.107,0,0,1,9.013-1.327c2.658.524,4.754,1.607,7.156,2.387a30.611,30.611,0,0,0,8.217,1.589,2.249,2.249,0,0,1,1.589-.263c5.576-2.2,9.7-5.85,15.639-7.688a2.24,2.24,0,0,0,1.127-.143,2.2,2.2,0,0,1,1.258-.122c3.049.75,5.953,1.645,9.012,2.384a11.427,11.427,0,0,0,4.241,1.326,21.312,21.312,0,0,0,5.037.795c1.764-.533,3.02-1.575,4.77-2.12h4.506c1.323.535,2.761.95,3.977,1.589,1.38.475,2.164,1.548,3.974,1.593.718-.24-.222-.977-.531-1.062-.178-.615-.879-.708-1.059-1.324-.8-.707-1.215-1.789-2.12-2.385a51.689,51.689,0,0,0-4.506-4.507,2.428,2.428,0,0,0-1.228.275,2.378,2.378,0,0,1-1.422.257c-.325-.385-1.012-.4-1.326-.8-.554-.153-.756-.658-1.59-.53a209.6,209.6,0,0,0-30.482-1.591c-.338.016-.367.34-.795.267-10.322.1-19.256,1.593-28.1,3.178a59.626,59.626,0,0,1-7.952-.264A18.01,18.01,0,0,1,967.078,135.875Zm2.12-15.9c.147,3.213-.473,7.19.8,9.278h7.95c12.881-2.759,27.522-3.756,43.47-3.445,6.26.51,11.56.418,17.76,1.059a14.2,14.2,0,0,0,0-8.746c-10.259-2.992-20.847-5.659-34.192-5.565-.462,1.216.033,3.389-1.59,3.443-1.029-.029-1.339-.78-1.856-1.324-.54-.521-.026-2.094-1.06-2.119H998.62v5.035c.039,1.806.227,3.76-1.325,3.975-3.359-.28-1.209-6.828-1.858-9.011-3,.27-6.121.413-9.012.793a28.434,28.434,0,0,1,.265,5.567c-.674,2.064.613,6.089-2.12,6.1-2.219-.076-1.88-2.714-1.855-5.038.119-2.176.719-3.873.795-6.1-1.073.076-1.842.454-2.915.531v5.83c.146,2.092.093,3.982-1.591,4.241-.072-.545-1.173-.062-1.061-.793-.392-.225-.382-.854-.528-1.327v-3.976a11,11,0,0,0,.265-3.179c-1.161.164-1.963.688-3.18.794a18.414,18.414,0,0,1-.266,3.975c-.063,2.326.474,5.249-1.857,5.3-2.156.214-2.524-1.363-2.384-3.445a9.383,9.383,0,0,0,.264-2.65c-.163-.66.967-2.067-.264-2.12C969.146,117.445,969.67,119.208,969.2,119.971Zm51.421,67.592h-6.626c-1.772-.35-3.764-.478-3.711-2.652.243-1.966,3.359-1.058,4.771-1.854h15.637c.019.379.473.321.929.265s.91-.115.928.265c.778.018.985.607,1.326,1.06.108,1.343-.925,1.547-1.326,2.385-.473.148-1.1.136-1.326.532a1.437,1.437,0,0,1-.586,0c-.383-.049-.767-.1-.739.269-1.086-.042-2.236-.021-3.385,0-.671.013-1.342.025-2,.025A20.187,20.187,0,0,1,1020.619,187.563Zm11.928-10.868a19.683,19.683,0,0,1-2.386-2.12,1.2,1.2,0,0,0-1.031.253,1.214,1.214,0,0,1-.824.278c-.085.619-1.156.257-1.325.793H1023a6.479,6.479,0,0,1-3.181-3.71c-1.068.257-1.493,1.159-2.121,1.856-.746.58-1.66.99-2.386,1.59h-3.71c-1.66-1.079-3.16-2.318-3.445-4.771-2,.563-1.992,3.131-4.771,2.915-.974,0-1.016-.927-1.59-1.324.068-1.767,1.142-2.806,2.12-3.975a16.039,16.039,0,0,1,3.18-2.651,4.363,4.363,0,0,1,4.506,1.059c.634,1.309.8,3.09,1.589,4.24,3.192-.076,4.5-2.043,7.689-2.119,1.908.122,1.889,2.174,3.444,2.65,2.783.132,3.714-1.587,6.36-1.59,1.062.087,1.576.722,2.387,1.059a4.052,4.052,0,0,0,1.857,1.592c1.936-.081,3.553.156,3.974,1.591.346,1.845-1.1,1.906-1.855,2.65-.513,0-1.034.012-1.545.012A11.507,11.507,0,0,1,1032.547,176.694Z" transform="translate(-954.588 -106.719)"/>
</svg>