<?xml version="1.0" encoding="utf-8"?><!-- Uploaded to: SVG Repo, www.svgrepo.com, Generator: SVG Repo Mixer Tools -->
<svg fill="#000000" width="800px" height="800px" viewBox="0 -12.88 120 120" xmlns="http://www.w3.org/2000/svg">
  <path id="_0103-served-plate" data-name="0103-served-plate" d="M624.936,207.6a8.846,8.846,0,0,1-.242-5.3c.09-.956-.22-2.309.242-2.891.152-.813-.31-2.237.241-2.651-.023-3.956.719-7.151.964-10.842.829-7.12,1.511-14.391,2.651-21.2-.039-1.327-1.249-1.481-1.687-2.409a25.713,25.713,0,0,0-1.687-2.41c.039-.279-.053-.428-.24-.481a34.548,34.548,0,0,1-2.891-13.252,84.125,84.125,0,0,1,2.167-17.349,70.281,70.281,0,0,1,2.409-7.469c.92-2.373,1.466-5.119,3.374-6.5.388.067.415-.229.723-.242.771.112.85.918,1.687.965a1.132,1.132,0,0,1,1.687.482c.535,1.631.1,4.236.24,6.262.428,7.672.241,15.243.241,22.408,0,8.2-.234,12.016-.241,19.757,2.074,11.42.539,26.448,2.168,38.31-.327-.086-.284.2-.24.482s.086.569-.239.482c-.086.315-.426.378-.483.723a5.254,5.254,0,0,0-.723,1.927A9.39,9.39,0,0,1,632.4,208.8q-.652.038-1.265.038A14.554,14.554,0,0,1,624.936,207.6Zm6.505-3.855h-2.409C628.964,205.023,631.354,204.483,631.441,203.745Zm-1.687-5.783a2.048,2.048,0,0,0-.241,1.445c.967-.238,2.463.053,2.651-.964-.152-.587-.438-.455-.841-.323a1.514,1.514,0,0,1-.846.083c-.276-.012-.325-.251-.613-.251A.635.635,0,0,0,629.754,197.962Zm.24-3.856a3.267,3.267,0,0,0,1.929.481c-.107-.455.327-1.451-.482-1.2,0,.328-.373.285-.745.244a3.388,3.388,0,0,0-.359-.028C630.054,193.6,629.862,193.691,629.995,194.107Zm.242-4.577a2.053,2.053,0,0,0,1.445.242c.245-.319.236-.889.482-1.207a1.325,1.325,0,0,0-.774-.228C630.743,188.337,630.078,188.727,630.237,189.529Zm.723-4.82h1.2v-3.132a1.344,1.344,0,0,0-.206-.017C630.58,181.561,630.776,183.979,630.959,184.71Zm.723-10.842c1.38-.067.453-2.438.723-3.613-.05-.27-.268-.375-.481-.482C632.11,171.406,631.594,172.334,631.682,173.867Zm0-57.1c-.059.345-.4.406-.482.724a87.084,87.084,0,0,0-4.818,24.816c.268,3.506.382,7.167.962,10.36a12.592,12.592,0,0,1,1.206,3.614c.929.757.746,2.627,2.168,2.892v-5.3c-.089-1.426-.016-2.858,0-4.336.084-8.082-.041-16.426.482-23.613.229-3.156.451-6.15.724-8.915.012-.125-.041-.25-.176-.25A.269.269,0,0,0,631.682,116.764Zm-107.7,90.353a4.651,4.651,0,0,0-1.447-.963,9.345,9.345,0,0,1-.722-2.169,3.872,3.872,0,0,0-.482-2.409c.763-1.7.2-3.253.482-5.3.058-1.949.464-3.552.482-5.541.643-3.453.75-7.441,1.205-11.083.657-7.454.939-15.283,1.927-22.407.024-1.069-1.25-.837-1.445-1.687-.752-.211-.793-1.136-1.447-1.445-.462-1.386-1.465-2.228-1.927-3.614-.689-1.159-1.469-2.227-2.169-3.373.04-.28-.053-.43-.24-.483-.792-2.74-.5-6.57-1.205-9.4v-4.578a36.705,36.705,0,0,1,0-8.433c-.17-1.615.247-2.644.242-4.095-.15-1.6.267-2.624,1.2-3.133,2.327.083,1.57,3.249,1.688,5.54.554.652.085,2.326.241,3.374a15.628,15.628,0,0,0,.24,3.374c-.11,3.081.106,5.836.24,8.673.559.406.591,1.337,1.2,1.687a3,3,0,0,0,2.169.482c.554-.492.088-2,.242-2.892v-9.157c-.037-2.043.419-3.6.24-5.783.518-1.569.085-4.09.965-5.3a1.178,1.178,0,0,1,1.2-.482c1.4.767,1.132,3.206,1.446,5.061-.118,2.205.428,3.749.241,6.024.1,4.155-.236,8.75.241,12.529h3.372c.556-3.7.086-8.429.241-12.529-.1-2.27.428-3.911.241-6.266.458-.586.164-1.922.481-2.651.123-.921.22-1.869,1.206-1.927,1.153-.028,1.445.8,1.445,1.927a11.176,11.176,0,0,1,.242,3.133c.536,1.711.1,4.4.239,6.505.554.571.086,2.163.241,3.133v9.879a26.092,26.092,0,0,1-6.023,14.455,117.231,117.231,0,0,1,2.649,21.686c.5.886.171,1.877.242,2.891.026.374.211.756.241,1.205.136,2.122.3,4.686.481,6.987.548,3.469.823,7.21,1.2,10.843-.124,1.4-1.027,2.023-1.685,2.891a3.707,3.707,0,0,1,.241,2.65c-.706.18-.467,1.3-1.446,1.205-.3.579-1.282.484-1.686.963-1.687.083-3.092.443-4.82.482C525.577,207.127,524.432,207.47,523.982,207.117Zm1.927-11.083c-.3,1.426.628,1.62,1.687,1.687a11.171,11.171,0,0,0,3.133.241c.008-1.052.088-2.178-.483-2.65-.316.883-1.521.775-2.619.668-.361-.036-.711-.071-1.014-.071A1.511,1.511,0,0,0,525.909,196.034Zm.724-6.024v2.168a19.11,19.11,0,0,1,3.613.724,14.658,14.658,0,0,0-.482-2.892,2.77,2.77,0,0,1-1.933.114,6.091,6.091,0,0,0-1.064-.117Zm.481-3.855a6.343,6.343,0,0,0,2.41.963,12.3,12.3,0,0,0-.241-3.371C527.848,183.837,526.8,184.322,527.113,186.156Zm1.688-8.915c.181-1.947-.288-3.246-.241-5.06-.053-.187-.2-.281-.483-.241v3.614c.1.58-.44.524-.24,1.2v2.169c.031.4-.779,1.534.24,1.445C529.772,180.609,528.85,178.1,528.8,177.241Zm-1.446-24.817c.65.531,1.146-.637,1.446-1.2a4.514,4.514,0,0,0,1.2-2.17c.772-.353.6-1.644,1.2-2.168.133-.992.69-1.559.724-2.65h-5.061C526.8,147.191,527.575,149.311,527.354,152.423Zm-2.41-3.373c.046-1.721.527-3.005.482-4.818h-.963C524.658,145.8,524,148.227,524.944,149.05Zm47.707,56.381a47.5,47.5,0,0,1-12.288-2.169,56.555,56.555,0,0,1-8.433-5.541c-.007-.235-.294-.187-.482-.241a65.695,65.695,0,0,1-10.6-15.66,42.693,42.693,0,0,1-4.337-21.686,31.612,31.612,0,0,1,4.819-13.734,5.48,5.48,0,0,1,.724-1.205c.1-.168.1-.536.24-.724.089-.117.405-.129.482-.239.124-.18.091-.523.24-.724.091-.121.4-.127.482-.24.133-.183.088-.518.241-.724.1-.127.389-.122.481-.24.329-.417.388-.834.723-1.205.691-.762,1.772-1.53,2.652-2.41a65.564,65.564,0,0,1,7.228-6.746,37.919,37.919,0,0,1,20.479-7.229c.282.04.43-.052.482-.24a85.357,85.357,0,0,1,9.157.483c3.216.8,6.171,1.859,9.156,2.89,1.121.887,2.9,1.115,3.855,2.169.8.159,1.179.749,1.928.964.616.347,1.7.228,2.169.724a42.344,42.344,0,0,1,3.854,3.856c1.276,1.213,2.22,2.758,3.373,4.1a89.886,89.886,0,0,1,5.542,9.638c3.406,6.708,5.189,15.23,4.577,25.3-.544,2.348-1.478,4.3-1.927,6.748-.562,2.248-1.478,4.143-2.168,6.264-.685.439-.7,1.544-1.445,1.928-.1,1.029-1.067,1.183-1.205,2.169-1.07.776-1.716,1.975-2.891,2.649a8.726,8.726,0,0,1-3.132,2.409,12.98,12.98,0,0,1-2.892,2.651c-.221.165-.475.563-.723.723s-.285.051-.481.24c-.309.294-1.463.547-1.929,1.205-1.147.3-1.95.94-3.132,1.2-.839.606-2.273.618-3.132,1.205-2.7.108-4.491,1.132-6.988,1.446ZM551.93,139.654c-5.268,6.058-10.44,12.209-11.083,22.889a57,57,0,0,0,1.445,11.325c.563.482.4,1.687.964,2.169-.008,1.05.666,1.423.724,2.408a26.011,26.011,0,0,1,2.167,4.337,83.882,83.882,0,0,0,5.06,7.71,17.975,17.975,0,0,0,2.893,3.614c0,1.04,1.2.888,1.2,1.928.629.5.96,1.29,1.688,1.687a53.83,53.83,0,0,0,8.675,2.65,56.405,56.405,0,0,0,10.841.723c7.556,0,15.434.076,20.722-2.409a26.1,26.1,0,0,0,7.47-4.817c1.495-.514,2.181-1.836,3.372-2.652,1.016-1.073,1.9-2.28,2.892-3.372.472-1.3,1.332-2.2,1.686-3.614.839-.931,1.017-2.517,1.688-3.615.707-2.905,1.544-5.684,2.167-8.673a50.429,50.429,0,0,0-1.2-11.325,72.752,72.752,0,0,0-4.578-11.082,31.181,31.181,0,0,0-2.89-5.062c-.813-1.84-2.13-3.171-3.132-4.818a51.339,51.339,0,0,0-20-11.083h-3.372c-.053.187-.2.281-.482.24-.257,0-.514-.006-.767-.006C567.076,128.8,558.905,133.631,551.93,139.654Zm8.673,56.141c-.311-.493-1.167-.44-.964-1.448-.308-1.433,1.618-.631,1.446-1.927-.24-1.064-1.046-.934-2.012-.805a6.713,6.713,0,0,1-1.12.084c-.683.039-1,.44-1.687.481H554.34c-.512-.371-.9-.868-1.445-1.205.021-.342.039-.681-.241-.722v-2.891c.674-.6,1.2-2.393,2.649-1.447-.211,1.358-1.112,2.326-.48,3.857.849.3,2.188-.167,3.132-.483h3.614a4.615,4.615,0,0,0,1.444.964c1.183,2.2.946,5.552-2.129,5.552C560.792,195.8,560.7,195.8,560.6,195.795Zm34.456-2.653c-.075-.732-.9-1.44-.241-2.168.62-.518.977-.205,1.387.108a1.355,1.355,0,0,0,1.022.375c1.917-.734.551-4.75,1.687-6.265a1.283,1.283,0,0,1,1.506.449,1.245,1.245,0,0,0,1.144.515c2.259-.874,3.978-2.287,4.337-5.061h.482c.982.063,1.123.967,1.447,1.687a3.311,3.311,0,0,1-.241,1.446c-.362,1.085-.716,1.2-1.687,2.168a7.443,7.443,0,0,1-1.686,1.446,4.322,4.322,0,0,1-3.132.722c-.342-.02-.292.351-.242.723s.1.743-.241.724c.194.836-.359.926-.24,1.688a12.705,12.705,0,0,0-1.205,1.686,1.057,1.057,0,0,0-.962.483,5.5,5.5,0,0,1-.665.042A4.411,4.411,0,0,1,595.059,193.142Zm6.5-2.89a2.548,2.548,0,0,1,3.614-.964c.885,1.7.16,4-1.927,4.1C601.908,193.119,601.5,191.925,601.564,190.252Zm-30.117-.964c-1.163-.284-2.3-.59-3.373-.964a10.444,10.444,0,0,1-3.374-.963c-1.552-.3-2.341-1.355-3.372-2.169a29.357,29.357,0,0,1-3.373-2.169c-1.038-1.451-2.36-2.619-3.373-4.1a22.331,22.331,0,0,1-1.687-4.1c-.925-.923-.986-2.709-1.687-3.856a41.473,41.473,0,0,1,0-12.529,27.12,27.12,0,0,1,3.133-6.986c.9-.625,1.159-1.894,2.168-2.411.9-.625,1.495-1.556,2.41-2.168a60.619,60.619,0,0,1,5.3-3.855c4.846-1.82,9.4-3.932,16.143-3.856.28.04.428-.051.482-.239a5.08,5.08,0,0,1,1.8.106,5.335,5.335,0,0,0,1.571.133,51.382,51.382,0,0,1,6.746,2.171c2.156.734,3.789,1.992,6.264,2.408a21.143,21.143,0,0,0,3.614,3.373c.927,1.562,1.87,3.108,2.891,4.579a51.078,51.078,0,0,1,1.928,8.672,43.288,43.288,0,0,1-1.928,14.215,34.151,34.151,0,0,1-6.745,10.12c-.708.016-.9.552-1.205.964-2.692,1.164-5.094,2.616-7.951,3.614-3.035.178-5.623.8-8.675.964C576.308,190.209,574.075,189.55,571.447,189.288Zm-4.819-44.575a43.1,43.1,0,0,0-9.4,6.989,19.883,19.883,0,0,1-1.687,2.649,22.232,22.232,0,0,0-1.444,3.133c-.6,1.088-.594,2.778-.965,4.1a39.18,39.18,0,0,0,.724,10.121,24.932,24.932,0,0,1,1.444,3.37c.6,1.088,1.1,2.275,1.688,3.373a17.249,17.249,0,0,0,8.192,4.337c2.676,1.5,6.441,1.914,9.879,2.651a82,82,0,0,1,10.119.723c2.635-.5,4.8-1.465,7.711-1.688,3.185-1.632,5.134-4.5,6.988-7.467.6-2.449,1.261-4.842,1.927-7.228q.524-4.057,1.205-7.952c-.45-4.368-1.156-8.481-3.132-11.324-.1-.784-1.146-.621-1.686-.963s-.567-1.2-1.205-1.446a13.286,13.286,0,0,1-3.133-2.41c-3.086.115-4.33-1.613-6.747-2.168-2.711-.661-6.052-.694-9.155-.964-.053.188-.2.28-.483.241a11.1,11.1,0,0,0-2.636.1,13.372,13.372,0,0,1-1.94.141A21.544,21.544,0,0,1,566.628,144.713ZM547.111,155.8c-.581-.224-.443-1.317-.964-1.445V151.7a6.008,6.008,0,0,1,4.338-3.134,17.7,17.7,0,0,1,.241-3.856,9.753,9.753,0,0,1,3.132-3.13c1.381-.1,2.618-.049,2.891.962-.012,1.192-1.465.945-2.168,1.446a7.457,7.457,0,0,0-1.687,1.686v2.651c.144,1.061,1.507,1.916.723,3.134-1.144.778-2.011-.471-2.891-.724-.618.185-1.366.24-1.688.724-.707.093-.47,1.134-.963,1.445-.037,1.159,1.212,1.035.963,2.408a2.354,2.354,0,0,1-1.37.59A1.534,1.534,0,0,1,547.111,155.8Zm1.446-7.228c-1.469.029-1.467-2.321-.722-3.131h1.444c.831.7.691,3.134-.647,3.134Zm53.731-3.613c-.217-1.1.4-1.366.481-2.169-.428-.454-.7-1.066-1.686-.964a8.51,8.51,0,0,1-2.41.241,5.957,5.957,0,0,1-2.891-1.446c-.79-1.969.06-5.283,2.41-4.1.265,1.311-.819,1.271-.724,2.41.411,1.108,3.02.781,4.1.482a4.629,4.629,0,0,1,3.614,2.891c.308,1.786-.674,2.991-1.832,2.991A1.9,1.9,0,0,1,602.288,144.955Z" transform="translate(-516.741 -114.595)"/>
</svg>