<?xml version="1.0" encoding="utf-8"?><!-- Uploaded to: SVG Repo, www.svgrepo.com, Generator: SVG Repo Mixer Tools -->
<svg fill="#000000" width="800px" height="800px" viewBox="0 -4.11 120 120" xmlns="http://www.w3.org/2000/svg">
  <path id="_0501-simmer" data-name="0501-simmer" d="M136.278,997.205a80.72,80.72,0,0,1-12.7-2.157,12.191,12.191,0,0,1-3.355-.239,27.7,27.7,0,0,1-8.628-4.315c-.447-1.071-1.337-1.7-1.439-3.115-.766-.672-.848-2.029-1.439-2.877-1.265-7.043-1.348-15.27-1.678-23.25.06-1.1-1.5-.575-1.917-1.2-.654-.305-.957-.963-1.438-1.439-.39-1.779.105-2.97,0-5.035-.407-.869-2.141-.415-2.877-.958a15.753,15.753,0,0,1-3.115-.479,38.372,38.372,0,0,1-5.514-1.679c-.9-.777-1.7-1.656-2.635-2.4-.875-2.327-2.3-4.542-1.678-7.67.638-.562.9-1.5,1.917-1.678.208-.91,1.814-.424,2.4-.958a51.45,51.45,0,0,1,8.39.719c.335.464,1.24.356,1.679.718a1.094,1.094,0,0,1,.745.25,1.087,1.087,0,0,0,.932.229,13.54,13.54,0,0,0,2.877,1.678,77.523,77.523,0,0,1,.959-8.149c1.706-2.049,4.7-2.808,8.149-3.116a55.853,55.853,0,0,1,9.59-1.436c6.033-1.32,13.964-.739,20.853-1.2.387.068.411-.226.718-.239,7.574.417,15.855.124,22.532,1.44a33.4,33.4,0,0,1,18.216,5.032c.242.477.414,1.024.959,1.2.726,1.207.023,2.484.48,4.075.784.423,1.692-.775,2.4-1.2a25.778,25.778,0,0,0,2.4-1.439c1.944-.533,3.693-1.259,5.752-1.676,2.574-.021,5.342-.229,6.71.957a4.607,4.607,0,0,0,.96,1.439c.131.347-.281,1.238.239,1.2-.256,2.461-1.725,3.707-2.4,5.753-2.707,2.646-6.228,4.479-9.108,6.953a17.232,17.232,0,0,0-5.512,2.156,67.457,67.457,0,0,1,.239,7.91c-.569,2.067.126,5.4-.48,7.431a145.987,145.987,0,0,1-.957,14.861c-.346.534-.651,1.108-.96,1.679-.6.2-.758.841-1.2,1.2-.192,1.487-1.163,2.192-1.679,3.353-1.877,1.639-4.121,2.911-5.993,4.556-8.779,2.3-20.551,2.876-32.117,2.876-3.175,0-6.289.291-9.264.291C137.605,997.257,136.938,997.242,136.278,997.205Zm9.108-4.314c4.177-.219,7.909-.881,12.464-.719,5.254-.5,11.224-.283,15.34-1.919a3.763,3.763,0,0,0,2.157,0,32.876,32.876,0,0,1,4.314-1.918c.327-.713,1.084-.995,1.679-1.437a18.023,18.023,0,0,0,3.835-8.629c-.008-7.037.932-13.131.718-20.373-.355-.341-.689-.215-1.094-.089a1.9,1.9,0,0,1-1.062.089,9.963,9.963,0,0,0-2.156-.721c-.39-.728-1.2-1.032-1.439-1.917v-3.835a2.382,2.382,0,0,0,.719-1.437,9.024,9.024,0,0,1,3.835-1.918c.189-1.387-.347-2.05-.24-3.356V940.4a4.466,4.466,0,0,0-.238-1.918c-.41-.39-.093-1.507-.959-1.438h-.719c-1.049.389-2.281.595-3.356.958-3.658.016-6.143,1.205-9.587,1.438a92.606,92.606,0,0,0-10.067,1.2H143.948c-.814.223-1.757.32-2.637.478-5.088-.1-9.885-.5-14.621-.958a54.227,54.227,0,0,1-12.463-1.2,133.111,133.111,0,0,0,.239,18.455c1.857.861,4.839.594,5.034,3.117-.184,1.474-2.129,1.441-3.667,1.409a8.955,8.955,0,0,0-1.367.03c-.681,2.759,1.748,2.407,3.354,2.877,2.078.08,3.732.582,3.836,2.636-.165,1.354-1.273,1.763-2.4,2.157-.9-.215-2.031-.207-2.877-.481a.831.831,0,0,1-.72-.12.83.83,0,0,0-.718-.119c-.165-.185-1.428-.624-1.2.238-1.3,2.208,1.571,1.483,2.4,2.158a34.954,34.954,0,0,1,4.554.72c1.57.107,2.846.51,4.555.479,1.42.338,2.918.6,2.876,2.4-.255,1.183-1.378,1.5-2.635,1.679a2.64,2.64,0,0,0-.814,0c-.5.048-.994.1-1.105-.243a3.225,3.225,0,0,0-.9,0c-.547.049-1.094.1-1.253-.241-2.953-.083-5.031-1.042-7.672-1.438v2.876a39.483,39.483,0,0,0,7.431,2.876,16.008,16.008,0,0,1,2.157.48c.48.4,1.777-.021,2.158.479,1.625.131,2.907.607,3.115,2.156-.231,1.287-1.617,1.42-2.637,1.919-4.723-.07-7.918-1.67-11.5-2.876.476,2.719,2.158,4.232,3.595,5.992a8.454,8.454,0,0,1,2.158,1.2c6.1.926,11.514,2.549,18.217,2.877.309-.008.631,0,.952,0a6.215,6.215,0,0,0,2.4-.243A16.087,16.087,0,0,0,145.386,992.892Zm37.153-40.27c-.158.877.518.92.479,1.678a2.126,2.126,0,0,0,3.118-2.637,2,2,0,0,0-1.636-.818A1.905,1.905,0,0,0,182.539,952.622ZM92.652,942.554c-.345,1.06.807,2.494,1.439,3.356a44.824,44.824,0,0,0,9.826,2.158c.243.4,1.019.259,1.439.478.49.174.949.753,1.438.24.176-1.133-.141-1.777-.958-1.916a12.749,12.749,0,0,1-1.678-1.439c-1.389-.69-2.789-1.365-4.075-2.158a32.426,32.426,0,0,0-6.345-.745Q93.208,942.528,92.652,942.554Zm97.318.719c.315.724.165,1.914.478,2.637,2.24-1.036,4.994-1.558,7.192-2.637,1.064-.614,2.39-.965,3.116-1.917,1.016-.661,2.148-1.208,2.4-2.636A24.827,24.827,0,0,0,189.97,943.273Zm-58.95-7.667c1.543-.031,3.084-.061,4.539,0,.255-.341.9-.293,1.546-.243a4.593,4.593,0,0,0,1.09,0h21.094c1.982-.414,4.16-.633,6.232-.958a12.188,12.188,0,0,0,3.355-.24c1.032-.166,2.427.03,2.877-.718a250.2,250.2,0,0,0-34.518-1.918c-.306.013-.33.306-.718.24-3.939.454-8.3.485-12.225.958a32.813,32.813,0,0,0-5.991.48,4.842,4.842,0,0,0-1.758.1,5.354,5.354,0,0,1-1.36.139c-.62.5-2.09.147-2.4.958,1.1.9,3.269.725,5.273.718a56.756,56.756,0,0,0,5.753.239A42.762,42.762,0,0,0,131.02,935.606ZM134.6,922.66c.382-3.3,2.822-4.531,2.877-8.15.005-.565-.413-.706-.24-1.438-1.255-2.9-4.088-4.221-5.513-6.952-.02-.38.116-.914-.239-.959-.233-2.309.417-3.738.719-5.512,2.374-3.859,4.774-7.692,8.869-9.827.387.066.411-.227.717-.241.834.285,1.8.44,1.919,1.439.094,2.491-2.063,2.732-2.876,4.313-1.272,1.127-2.023,2.772-3.116,4.076-.257,1.422-.956,2.4-.96,4.075.361,1.636,1.791,2.206,2.638,3.355a27.69,27.69,0,0,1,2.636,3.358c-.173.732.414.7.24,1.437.325-.086.282.2.239.479s-.086.564.239.479a23.414,23.414,0,0,1-.239,5.034,22.587,22.587,0,0,1-1.918,4.315c-.728,1.269-1.37,2.625-3.116,2.877C135.842,924.773,135.213,923.725,134.6,922.66Zm15.582-3.835c-.213-2.212,1.333-2.662,1.2-4.794-.65-2.786-3.424-3.449-3.835-6.472-.18-4.413,2.389-6.08,4.554-8.15a6.087,6.087,0,0,0,1.917-.479,2.589,2.589,0,0,1,1.678,1.2c-.354,2.6-2.581,3.331-2.876,5.992a3.756,3.756,0,0,0,1.677,2.4c.595.683,1.1,1.455,1.678,2.158a14.385,14.385,0,0,1,.719,3.356,8.769,8.769,0,0,1-1.2,4.314c-.889.95-1.558,2.118-3.355,2.157A2.844,2.844,0,0,1,150.18,918.825Zm13.424-6.712c-.424-.044-.512-.237-.961-.24-2.082-2.677,1.154-5.09,1.679-7.43v-1.438c-.292-1.786-1.374-2.781-1.917-4.314-.854-1.147-1.152-2.846-1.679-4.316-.194-3.311.459-5.772,1.917-7.43a11.288,11.288,0,0,1,2.878-1.437c1.307-.109,2.3.1,2.636.958.305,2.3-1.9,2.1-2.4,3.6v2.875c.826,3.649,3.333,5.617,4.075,9.349.168,1.608-.247,2.629-.239,4.075a33.746,33.746,0,0,1-2.877,4.554c-1,.261-1.328,1.218-2.745,1.218A3.569,3.569,0,0,1,163.6,912.113Z" transform="translate(-87.707 -885.481)"/>
</svg>