<?xml version="1.0" encoding="utf-8"?><!-- Uploaded to: SVG Repo, www.svgrepo.com, Generator: SVG Repo Mixer Tools -->
<svg fill="#000000" width="800px" height="800px" viewBox="0 -21.46 120.001 120.001" xmlns="http://www.w3.org/2000/svg">
  <path id="_0302-steak" data-name="0302-steak" d="M397.845,589.921c-1.989-.106-4-.211-6.009-.13-3.191-1.118-6.908-1.338-10.271-2.31-.246-.071-.616-.47-.77-.512a1.275,1.275,0,0,0-.5,0,1.2,1.2,0,0,1-.526,0c-.168-.059-.633-.465-.77-.516-.456-.163-.683-.111-1.028-.257-.321-.133-.429-.385-.77-.512a.889.889,0,0,0-.369-.027c-.214.013-.4.028-.4-.23A120.845,120.845,0,0,0,359.74,584.4a50.174,50.174,0,0,1-8.217.514,18.5,18.5,0,0,1-3.595-.77h-2.055a2.251,2.251,0,0,0-.77,0c-.479.049-.957.1-1.026-.259-2.322-.5-5.753.105-7.7-.769a86.306,86.306,0,0,1-14.635-2.31,42.669,42.669,0,0,1-10.014-7.448c-2.634-3.184-5.374-6.267-7.96-9.5.054-.738-.066-1.3-.514-1.541-.377-1.848-.6-3.848-1.028-5.648.293-2.846.162-4.6.257-7.446,1.347-6.1,2.958-11.935,6.676-15.664.727-.385,1.187-1.039,2.311-1.028.96.531,1.327-.374,2.055-.769,1.033-1.108,2.769-1.51,4.108-2.311a9.756,9.756,0,0,0,4.365-2.31,41.114,41.114,0,0,0,4.365-2.055,35.669,35.669,0,0,1,4.878-1.8,45.6,45.6,0,0,0,4.622-1.8,98.729,98.729,0,0,1,10.527-2.311,10.232,10.232,0,0,0,3.852-2.825,5.47,5.47,0,0,0,2.053-1.283c.66-.368,1.626-.427,2.055-1.027a34.7,34.7,0,0,1,5.649-.772c.288-.032.464.006.514-.255,3.167,0,6.466-.133,8.986.513,2.814.61,4.553,2.294,7.19,3.083a50.243,50.243,0,0,0,7.189,3.08c2.118,1.272,4.293,2.593,6.419,3.852.553.327,1.056.731,1.541,1.027.314.192.716.049,1.026.256.266.177.873.941,1.284,1.283.545.453,1.364,1,2.054,1.541a52.323,52.323,0,0,1,4.879,10.271c1.077,3.973,1.934,8.167,3.082,12.067a1.215,1.215,0,0,1,.257.772c.933,2.4,2.392,4.283,3.337,6.675.872.841,1.1,2.326,2.056,3.081,1.345.282.751,2.5,1.8,3.081a31.873,31.873,0,0,0,5.906,1.8c.01.227.208.222.42.219a.878.878,0,0,1,.349.038c.14.06.405.474.514.514.911.325,1.37.247,2.054.769a4.518,4.518,0,0,1,1.284,1.541c.494,2.892-1.181,3.614-1.541,5.65a49.364,49.364,0,0,1-2.311,7.446c-1.427,1.911-3.487,3.191-5.391,4.622a10.278,10.278,0,0,0-3.082,2.054c-.992.636-2.295.96-3.337,1.541a26.673,26.673,0,0,1-4.17.29C400.832,590.081,399.344,590,397.845,589.921Zm-.361-7.318c-.013.328-.329.355-.257.769,2.286.232,3.664-.443,5.392-.769-.133-1.42.2-3.446,0-4.109-.5-.35-1.464-.245-2.054-.514-.119,1.506.419,3.671-.77,4.108-.257,0-.305.21-.513.257a1.27,1.27,0,0,1-1.031-.073,1.733,1.733,0,0,0-.513-.156C397.575,582.116,397.478,582.231,397.484,582.6Zm-2.311.769c.4-.648-.316-1.961-.257-3.081-.15-1.5.249-3.015,0-3.851-2.768-.741-5.018-2-7.7-2.825-2.569-1.026-5.472-1.718-7.96-2.824-2.765-.829-5.211-1.98-8.216-2.568-2.958-.636-6.361-.828-9.5-1.285h-5.907a7.424,7.424,0,0,1-2.8.261c-.445-.01-.891-.019-1.31,0-.906.292-2.114.283-3.081.514a18.647,18.647,0,0,1-2.078,0,8.575,8.575,0,0,0-3.314.26c.135,1.8,1.278,6.262-1.542,5.906-1.442-.185-.947-2.306-1.026-3.852.282-.746.231-1.822.513-2.568a23.989,23.989,0,0,0-2.568-.515c-.9,2.585,1.11,6.548-2.054,6.935-1.911-.143-2.027-2.082-2.31-3.852-1.781.1-.757,3.01-1.029,4.622-.251.775-.523,1.531-.77,2.311,1.662.391,3.462.647,5.135,1.027a4,4,0,0,1,2.054-.77c4.253.2,7.8,1.1,12.068,1.284.142-2.6-.659-6.137,1.8-6.419a1.27,1.27,0,0,1,.94.105,1.345,1.345,0,0,0,.6.151c.95,1.274.341,4.107.513,6.162a2.831,2.831,0,0,0,1.8.258,8.127,8.127,0,0,1,1.026,0c.691-2.048-.513-5.992,1.8-6.42,2.406.161,1.048,4.086,1.8,5.906H364.1c.64-1.244.79-2.975,2.31-3.338a1.943,1.943,0,0,1,.515,1.8c.034.821-.254,1.965.769,1.8,1.222.28,1.049-.836,1.029-1.8v-3.082c.51-.944-.167-3.077,1.283-3.081,1.742-.287,1.6,1.316,2.055,2.31v3.338c.34,1.158-1,2.487.513,2.569.654-.286-.1-1.987.514-2.311a1.386,1.386,0,0,1,1.283-1.541c1.645.409,1.817,2.291,1.8,4.366a25.326,25.326,0,0,0,7.189,1.026C387.324,581.293,390.838,582.743,395.173,583.372Zm9.758-1.284c1.039-.073,1.785-.441,2.823-.513.189-.8.534-2.362.258-2.823h-2.825A15.713,15.713,0,0,1,404.931,582.088Zm-77.286-6.675a3.291,3.291,0,0,0,2.31.77c-.953-3.375-.494-8.567,0-12.069a5.869,5.869,0,0,0-2.824-.769C326.907,567.763,327.724,571.139,327.645,575.412Zm-4.365-13.095v10.014c-.064,1.138-.556,1.922.77,2.055.22-.61-.147-2.5,0-3.852.1-.619-.47-.559-.257-1.284v-6.677a.355.355,0,0,0-.387-.265A.916.916,0,0,0,323.28,562.317Zm59.312.256c-.3.386-.742.629-.77,1.285-.661.025-.368,1-1.027,1.027-.2.566-1.209.335-1.284,1.028a67.933,67.933,0,0,0,6.676,2.31c2.112.968,4.649,1.511,6.674,2.568a43.078,43.078,0,0,0,7.19,2.054,28.65,28.65,0,0,0,8.217,1.028c1.933-.378,3.785-.839,5.649-1.284a6.806,6.806,0,0,1,2.054-1.284c.257-.857,1.336-.887,1.541-1.8-1.563-.747-2.929-1.694-5.135-1.8a23.184,23.184,0,0,0-3.6-1.8c-1.307,1-1.912,2.708-3.082,3.851-.9,1.253-1.736,3.6-3.85,2.824-.019-2.843,1.786-3.863,2.31-6.162,1.047-.58,1.264-1.988,2.312-2.568a5.391,5.391,0,0,0-1.542-2.054,6.352,6.352,0,0,0-1.54-2.055c-.72-1.762-1.907-3.058-2.568-4.878-.967.061-1,1.053-1.285,1.8a6.759,6.759,0,0,0-1.283,2.054c-1,1.143-1.461,2.82-2.569,3.85-.553,1.586-1.693,2.588-2.311,4.11-.85.941-2.387,3.163-4.108,1.54.712-4,3.167-6.248,4.622-9.5a38.849,38.849,0,0,0,2.309-4.878,14.73,14.73,0,0,0,2.311-4.879c-.453-3.4-1.673-6.03-2.054-9.5-.7-.588-.653-1.914-1.284-2.57-.486-.882-.345-2.393-1.54-2.567q-1.5,4.279-3.081,8.474a16.8,16.8,0,0,1-1.8,4.107,2.648,2.648,0,0,1-3.337,2.055c-.987-1.43.012-3.454.77-4.621.318-1.823,1.221-3.058,1.54-4.879a41.037,41.037,0,0,0,1.8-4.623,32.72,32.72,0,0,0,1.8-4.878,31.054,31.054,0,0,0-3.081-2.054c-1.418-.382-1.986-1.609-3.6-1.8-1.577,3.3-3.363,6.393-5.134,9.5-.273,2.123-1.468,3.325-1.8,5.393-1.215,1.266-1.224,3.738-3.852,3.594-1.188-1.625.274-3.872,1.027-5.135.454-2.03,1.48-3.487,1.8-5.649A42.772,42.772,0,0,0,379,528.938c.925-1.556,2.078-2.885,2.31-5.135-3.341-.6-5.209-2.665-8.474-3.338a99.655,99.655,0,0,1-5.649,9.758,15.605,15.605,0,0,1-2.823,4.878c-.876,1.693-1.418,3.717-3.851,3.85a1.79,1.79,0,0,1-1.285-1.283c-.045-2.442,1.661-3.133,2.312-4.879,1.087-1.394,1.816-3.145,2.824-4.621,1.515-3.362,3.974-5.782,4.878-9.757a10.529,10.529,0,0,0-4.108-.515c-.1.368-.308.434,0,.772a9.646,9.646,0,0,0-.513,2.311c-.914,1.224-2,2.279-2.825,3.594-1.727.754-2.793,2.171-4.364,3.081-1.462,1.107-2.958,2.177-4.366,3.338a15.153,15.153,0,0,1-.514,2.825c1.969,3.08,5.1,4.994,8.474,6.675,4,1.048,6.575,3.524,10.013,5.135,1.722.762,3.67,1.293,5.393,2.055,2.009.556,3.229,1.9,5.134,2.567,1.612.957,4.047,1.089,5.392,2.311,1.977.59,3.462,1.674,3.851,3.85,0,.94-.73,1.155-1.027,1.8-.149.793-.928.954-1.54,1.284a12.738,12.738,0,0,1-4.365-.77C383.427,559.985,383,561.266,382.592,562.573Zm-65.218,8.218c.726.386,1.094,1.132,2.055,1.284-.038-3.633-.043-7.233.77-10.015-.643-.212-1.01-.7-1.8-.769-.426-.517-.69-1.193-1.54-1.284C316.671,563.961,317.2,567.2,317.373,570.791Zm-5.135-13.608c.319,3.019.4,6.277.512,9.5.6.426.621,1.433,1.8,1.283a38.444,38.444,0,0,1,0-9.758c-.766-.132-1.35-1.137-1.969-1.137A.6.6,0,0,0,312.239,557.183Zm64.7,7.7c.217.241,1.323.862,1.541.257-.81-.436-.32-1.194-.257-2.055a9.848,9.848,0,0,0,1.541-2.568c.516-.847,1.354-1.547,1.541-2.568-3.585-1.294-8.034-1.724-11.554-3.081-.671,1.3-1.216,2.722-1.8,4.108-.839,1.217-.9,3.212-3.081,3.081-1.528-.668-.606-3.727.257-4.364.464-1.591,1.75-2.358,2.054-4.108a26.972,26.972,0,0,0-5.9-1.8c-3.956-1.949-6.915-4.9-11.3-6.42-1.046-1.094-2.325-1.953-3.337-3.081a38.087,38.087,0,0,1-4.621-2.054c-2.775,3.046-5.578,6.062-8.474,8.987-1.361,1.549-2.785,3.035-4.108,4.622-.553.9-1.476,1.434-1.8,2.566-.759.7-1.723,1.19-2.055,2.312.969.057,1.247.807,2.055,1.027.808.3,1.936.29,2.567.77,1.144-.032,1.592.633,2.569.771.609.5,1.728.5,2.309,1.026,2.591.063,4.529.777,6.934,1.028h5.9c2.021-.547,4.729-.407,6.934-.772h8.216c2.8.288,5.545.619,8.217,1.028,1.324.217,2.274.806,3.851.771A3.388,3.388,0,0,0,376.943,564.885Zm-51.61-23.878c-2.164,1.686-3.782,3.921-5.648,5.9a16.127,16.127,0,0,1-2.569,3.081c-.657,1.312-2,1.936-2.566,3.339a42.6,42.6,0,0,1,3.851,2.311c1.513.625,2.012,2.267,4.108,2.31.286-.826.438-1.787.771-2.568,1.786-2.407,3.384-5,5.648-6.933,1.121-1.959,3.051-3.111,4.365-4.879.595-.517,1.372-.852,1.541-1.8h-4.109a36.215,36.215,0,0,0-4.878-1.54C325.785,540.6,325.424,540.669,325.334,541.007Zm-16.69,13.607V555.9c-.02.36.057.983.256.513v-1.282c.014-.268-.024-.682-.127-.682C308.738,554.447,308.695,554.495,308.644,554.614Zm39.028-15.148a28.414,28.414,0,0,0,6.676,4.107c2.753.927,4.375,2.987,6.933,4.109,2.349,1.33,5.593,1.768,8.216,2.824a12.96,12.96,0,0,0,3.852,1.541,17.186,17.186,0,0,0,2.309.513c.516.1,1.9.635,2.312,0-2.637-1.643-6.186-2.375-8.987-3.85-2.682-1.685-4.855-3.877-8.218-4.88a7.152,7.152,0,0,0-2.567-1.8,16.055,16.055,0,0,0-2.824-1.541c-1.984-2.038-4.461-3.586-5.393-6.675a24.06,24.06,0,0,1,.515-3.852c.731-.467.935-1.459,1.8-1.8.482-.8,1.571-.995,2.055-1.8a5.384,5.384,0,0,0,2.054-1.541c1-.286,1.314-1.254,2.31-1.541.669-2.071,2.8-2.677,2.826-5.393a6.486,6.486,0,0,0-2.568.257c-5.224-.087-6.476,3.8-10.272,5.135a31.62,31.62,0,0,1-4.621,5.135c-1.571,1.768-3.11,3.567-5.392,4.622-5.333.493-10.818-.958-15.663-1.8a41.8,41.8,0,0,1-6.675,2.823,2.387,2.387,0,0,1-1.542,1.028c-.061.366-.423.434-.514.77-.392,0-.842.7,0,.513a21.013,21.013,0,0,1,5.136-1.541c2.016.467,4.4.562,6.419,1.028.622.491,1.517.708,2.054,1.283a12.627,12.627,0,0,1,2.569,1.029h4.621a15.62,15.62,0,0,1,5.393-2.056C343,537.114,344.737,538.892,347.672,539.466Zm-38.515,10.269a23.676,23.676,0,0,0,2.054,1.541c.824-.117.884-1,1.285-1.541.8-.224.841-1.21,1.539-1.54.758-1.211,1.854-2.083,2.569-3.338,1-.972,1.9-2.035,2.824-3.082.515-.426,1.194-.688,1.284-1.54.238-.274.946-.08.77-.77.56.047.817-.211.77-.771-1.3-.153-2.057-.852-3.6-.77a15.985,15.985,0,0,0-5.392,2.055,2.186,2.186,0,0,1-1.54.257C310.429,542.963,308.825,545.381,309.157,549.735Zm20.285-21.311c-.607.251-1.629.084-1.542,1.028,3.248.18,6.54.785,9.758.256,1.054-.742,1.759-1.836,2.824-2.566.286-.572,1.015-.7,1.283-1.286.062-.365.423-.433.514-.769.393,0,.844-.7,0-.514-2.649.518-4.92,1.414-7.446,2.054-.973.654-2.677.578-3.6,1.284h-.086A4.482,4.482,0,0,0,329.442,528.424ZM343.82,562.06c-1.2-1.1.011-2.893.514-3.851a34.194,34.194,0,0,1,2.055-3.337,67.887,67.887,0,0,1,4.109-6.42c.063-.278.51-.174.513-.514a1.943,1.943,0,0,1,1.8.514c.423,2.307-1.174,2.594-1.541,4.109-.9.977-1.248,2.516-2.31,3.337a15.575,15.575,0,0,1-2.054,3.6c-.634,1.212-1.127,2.568-2.974,2.568Z" transform="translate(-302.224 -513.007)"/>
</svg>