<?xml version="1.0" encoding="utf-8"?><!-- Uploaded to: SVG Repo, www.svgrepo.com, Generator: SVG Repo Mixer Tools -->
<svg fill="#000000" width="800px" height="800px" viewBox="0 -17.12 120 120" xmlns="http://www.w3.org/2000/svg">
  <path id="_0304-taco" data-name="0304-taco" d="M740.941,594.157c-1.363-1-3.346-1.377-4.959-2.125a14.321,14.321,0,0,1-4.015-9.21,35.758,35.758,0,0,1,1.181-6.848c.563-.617.729-1.631,1.889-1.653-.6-1.6-1.792-2.615-2.126-4.486-.976-1.229-1.052-3.356-1.652-4.959v-3.307a5.911,5.911,0,0,1,1.889-1.652c-.235-2.623-1.026-6.764-.473-9.682,0-.019.378-.67.473-.944a7.113,7.113,0,0,1,1.417-2.362c1.189-.464,2.16-1.145,4.014-.945a36.868,36.868,0,0,0,.473-4.487c.632-.94.474-2.673,1.18-3.541.661-2.489,2.171-4.127,3.542-5.9a10.167,10.167,0,0,0,2.126-1.416,1.935,1.935,0,0,0,1.416-.473h3.306a5.166,5.166,0,0,0,1.889.708c.206.346.355.749.945.708a21.309,21.309,0,0,1,3.07,4.723c.841-.183.889-1.157,1.417-1.654.326-.7,1.09-.956,1.417-1.652.93-.329,1.6-.918,2.6-1.181h2.125c1.118.142,1.611.909,2.362,1.417.851.064.641-.934,1.418-.945.091-.695,1.111-.462,1.417-.944a6.084,6.084,0,0,1,4.014.708,4.341,4.341,0,0,1,1.417,1.181,10.1,10.1,0,0,1,1.652,2.833,16.6,16.6,0,0,1,.472,1.653,16.9,16.9,0,0,1,0,7.321c-.956.46-1.14,1.693-2.6,1.652-.038-.276-.431-.2-.708-.237-.976-.732-.728-2.457-.237-3.541a14.646,14.646,0,0,0-.472-4.959c-.218-.871-.885-2.55-2.126-2.834-1.651-.154-1.918,1.073-2.6,1.889-.123,1.644.6,2.911-.236,4.014a4.415,4.415,0,0,1-1.89.237c-1.749-1.242-.817-5.165-2.6-6.376-1.4.328-2.623.839-3.07,2.125-.81.843-1.037,2.269-1.652,3.306-.168,1.879-.081,4.012-1.417,4.723-3.192.043-2.481-3.815-3.778-5.667-.794-2.354-1.83-4.468-4.014-5.432a5.638,5.638,0,0,0-3.779,1.89c-2.235,3.273-3.4,7.622-3.069,13.46.443,1.251,1.437,2.8.708,4.487a.645.645,0,0,0-.708.472c-1.775.2-2.358-.792-2.833-1.89-1.061-.513-.4-2.75-1.89-2.834-1.669-.093-1.91,1.241-1.888,2.834v4.487c.153,1.342.493,2.5.707,3.778.519,1.214,2.681.782,2.362,2.834.029.423-.29.5-.237.943-.866.958-2.534.664-3.542,0-.47,1.033.561,2.366.709,3.543.62.953.91,2.237,1.652,3.069a28.98,28.98,0,0,0,1.889,2.835c.706.789,1.932,1.057,1.889,2.6.011.718-.5.919-.709,1.417-1.306.661-2.364-.291-3.306-.709-1.114,1.563-.587,4.766-.708,7.321a8,8,0,0,0,2.6,3.779,6.546,6.546,0,0,0,5.668-2.127c.749-2.714,2.333-4.593,3.306-7.084a9.747,9.747,0,0,0,1.889-3.306,10.6,10.6,0,0,0,1.889-3.069,2.96,2.96,0,0,0-2.361-.709c-.575.448-1.976.07-2.6.473.256,1.632,2.5,1.277,2.362,3.3-.112,1.542-1.485,1.822-2.834,2.126-.654-.448-1.6-.6-1.888-1.417-.835-.187-.669-1.38-1.417-1.652a28.578,28.578,0,0,1-1.181-4.959v-2.6a8.3,8.3,0,0,1,6.848-7.084c.424.007.86,0,1.3,0a13.055,13.055,0,0,1,3.426.239,41.111,41.111,0,0,1-.237-6.611,1.932,1.932,0,0,0,.473-1.417c.671-.428.907-1.3,1.417-1.889,1.984-1.72,6-3.1,10.626-2.6a19.285,19.285,0,0,1,2.6.707,4.914,4.914,0,0,1,1.417.474c.1.055.154.434.236.471a.444.444,0,0,0,.227-.005.366.366,0,0,1,.246.005c.351.255.609.916,1.181,1.182a34.806,34.806,0,0,0,3.306-2.361c1.058-.832,2.314-1.464,3.307-2.362a19.866,19.866,0,0,0,3.542-2.125c1.275-.614,2.693-1.086,3.542-2.126-.562-.008-1.126-1.21-1.652-.472-.545.242-.762.814-1.654.708-2.985-.87-3.959-3.755-3.777-7.793a1.939,1.939,0,0,0,.472-1.417,5.912,5.912,0,0,1,3.069-1.653,11.346,11.346,0,0,1-1.653-2.126,29.927,29.927,0,0,1-1.18-9.918,12.7,12.7,0,0,1,4.014-8.736c1.358-.531,2.326-1.452,4.251-1.417a.745.745,0,0,0,.451-.121.729.729,0,0,1,.494-.116c1.112-.011,1.789.414,2.833.472a10.41,10.41,0,0,1,2.834,2.6,8.056,8.056,0,0,1,6.612-2.362,4.683,4.683,0,0,0,1.652.709,4.307,4.307,0,0,1,1.417,2.834c1.594-.453,2.939-1.156,4.959-1.182a11.579,11.579,0,0,1,2.833.944c.048.9.994.9.945,1.889a5.355,5.355,0,0,1,.473,2.126c2.082-.192,3.651.128,4.251,1.417a7.706,7.706,0,0,1,2.6-.944c6.589.81,11.03,3.768,14.877,7.32,3.709,3.611,6.4,8.246,8.737,13.225,1.768,2.325,3.543,4.644,5.195,7.085a17.953,17.953,0,0,1,.708,3.542,20.743,20.743,0,0,1,1.89,10.154c.153,1.019-.408,1.323-.709,1.888a4.1,4.1,0,0,1,.473,2.6,1.038,1.038,0,0,0-.473.945c-1.3,1.063-3.637,1.085-5.431,1.652a15.752,15.752,0,0,1-2.6.944c-.739.443-1.878.483-2.6.946-3.836.886-7.225,2.218-11.1,3.069-.617.563-1.813.546-2.6.944-1.105.076-1.618.743-2.834.708-1.541.822-3.556,1.167-5.195,1.889-1.148.034-1.476.886-2.6.944-.482.7-1.739.622-2.361,1.181-2.1.266-3.674,1.05-5.668,1.418-14.356,4.455-28.636,8.987-42.977,13.459-1.118.616-2.279,1.186-3.307,1.889a50.094,50.094,0,0,1-13.161,1.443C745.674,594.419,743.249,594.32,740.941,594.157Zm81.233-56.437a88.989,88.989,0,0,0-25.74,5.432,60.005,60.005,0,0,0-10.627,4.959,38.273,38.273,0,0,0-4.959,2.833,36.4,36.4,0,0,0-4.723,3.307,72.789,72.789,0,0,0-8.5,7.083c-2.623,2.573-4.958,5.434-7.321,8.267-.887,1.71-2.311,2.883-3.07,4.721a20.532,20.532,0,0,0-3.07,4.723,12.723,12.723,0,0,0-1.18,1.653c-.437.7-.607,1.284-.945,1.89-.134.24-.354.286-.473.472-.189.3-.068.643-.236.944a16.684,16.684,0,0,0-1.652,2.834c-.035.138.056.342,0,.473-.05.114-.416.328-.473.471-.23.573-.218,1.12-.472,1.654,2.764.088,4.91-.445,7.556-.473a11.774,11.774,0,0,1,2.362-.945,21.515,21.515,0,0,1,2.361-.944,5.066,5.066,0,0,1,2.126-2.126,74.275,74.275,0,0,1,8.974-3.069c3.263-.83,6.189-2,9.445-2.834-.085-.32.193-.278.472-.236s.556.085.472-.236a.82.82,0,0,0,.708-.118.821.821,0,0,1,.709-.118,7.13,7.13,0,0,1,2.361-.708c1.262-.785,3.174-.919,4.487-1.654,3.283-.81,6.3-1.885,9.445-2.833.853-1.117,1.031-2.907,1.89-4.015.383-1.664.68-3.415,2.362-3.778.449.36.769.463.945,1.181a4.866,4.866,0,0,1-.237,2.126c-.415,1.08-.788,2.2-1.181,3.306a2.162,2.162,0,0,0,1.094-.245,2.113,2.113,0,0,1,1.269-.228c.384-2.685,1.823-4.315,2.361-6.847.733-.763.75-2.243,1.181-3.307.584-.989.387-2.759,1.652-3.069h1.182c2.093,1.329-.094,4.176-.237,6.139-.577.761-.619,2.057-1.18,2.834-.187,1.231-1.122,1.713-1.182,3.07a19.666,19.666,0,0,0,3.778-1.181,67.968,67.968,0,0,0,3.542-11.807c.067-2.294.112-4.611,2.362-4.721,2.282.236,1.89,3.146,1.889,5.666a47.349,47.349,0,0,1-2.834,9.682,10.224,10.224,0,0,0,3.779-.945,25.2,25.2,0,0,0,2.361-6.612,3.114,3.114,0,0,0,.473-1.652,5.1,5.1,0,0,0,.236-2.126c.531-1.042-.229-3.379,1.418-3.307,2.687-.011,2.07,3.282,2.124,5.9a63.167,63.167,0,0,1-1.652,6.376c1.754-.213,3.009-.926,4.722-1.182.7-1.741.878-4,1.417-5.9.067-1.15-.749-2.483.473-2.834,3.749-.026,2.156,4.5,2.125,7.321a12.323,12.323,0,0,0,4.014-1.181c.468-.871.771-1.906,1.181-2.833.268-1.15.116-2.719,1.181-3.071,1.4.172,1.313,1.835,1.889,2.834.62-.639.468-2.05.473-3.307a14.593,14.593,0,0,0,.707-2.361,18.587,18.587,0,0,0-5.9-9.21,19.632,19.632,0,0,0-4.015-3.542c-1.571-.946-2.875-2.162-4.721-2.834-1.087.049-2.249.023-3.411,0-.679-.015-1.358-.03-2.022-.03A18.261,18.261,0,0,0,822.174,537.719Zm-74.385,27.391c-1.1.947-1.686,2.409-1.417,4.724a14.227,14.227,0,0,0,2.833-.473c.538-.563-.518-.869-.236-1.887-.487-.458-.45-1.44-.708-2.127a.328.328,0,0,0-.358-.245A.857.857,0,0,0,747.789,565.111Zm3.07-.944v.709c.839,1.837.964,4.389,3.3,4.723a8.407,8.407,0,0,0,1.654-2.363c-1.117-1.379-1.9-3.1-4.391-3.1C751.247,564.139,751.058,564.148,750.859,564.167Zm10.153-12.515c-.239.391-1,.256-1.418.472-.313.393-1.049.366-1.416.709a10.244,10.244,0,0,0-1.417,2.361v5.195a5.927,5.927,0,0,1,.236,2.362c.513.353.377,1.354,1.181,1.416.908-.892,1.731-1.9,2.6-2.834,1.889-2.031,3.81-3.846,5.667-5.666.951-.932,1.9-1.88,2.834-2.833-1.2-1.063-2.935-1.289-4.861-1.289C763.323,551.544,762.167,551.617,761.012,551.651Zm29.754-12.279c1.78-.267,2.913-1.181,4.487-1.653,1.561-.565,3.218-1.033,4.723-1.653,3.415-.757,6.347-2,10.154-2.362-.294-2.616-2.065-3.758-3.777-4.959a2.659,2.659,0,0,0-.31-.008c-.292,0-.582.007-.635-.226a18.274,18.274,0,0,0-8.973,1.652,21.519,21.519,0,0,0-2.127,2.6c-.319,1.1-.3,2.536-1.18,3.07-1.282.258-1.485-.563-2.362-.708C790.342,536.623,790.869,537.608,790.766,539.373Zm-6.847-1.653c.065.065.358-.114.236-.237a.057.057,0,0,0-.041-.013C784.013,537.469,783.813,537.615,783.919,537.719Zm-1.89-1.417h1.181c-.161-.7-.285-1.445-.945-1.654C781.94,534.954,782.032,535.675,782.029,536.3Zm48.409-4.487c2.065,1.32,3.989,2.782,6.613,3.542-1.65-4.176-4.775-6.877-7.557-9.918-1.622-.741-2.783-1.94-4.487-2.6a19.538,19.538,0,0,0-5.431-1.889h-1.416a25.768,25.768,0,0,1-.237,4.487c.429.672,1.381.824,1.889,1.417a13.076,13.076,0,0,1,1.18,2.125v3.071c2.617-.039,5.04-.273,7.7-.274C829.259,531.779,829.841,531.789,830.438,531.815Zm-43.686,2.125c0,.131.191.269.236,0a.154.154,0,0,0-.127-.153C786.815,533.787,786.771,533.828,786.752,533.94Zm30.462-4.251a2.109,2.109,0,0,1-.944-.945c-1.925.315-3.708.411-3.779-1.651.1-1.4,1.4-1.592,1.89-2.6.129-.343-.276-1.219.235-1.181v-2.125c-.522-.185.046-1.462-.944-1.18-1.392.1-1.677,1.314-2.361,2.125a3.836,3.836,0,0,1-3.307,1.18c-.072-.556-.819-.438-.707-1.18-.184-2.231,1.755-2.339,1.888-4.251-.048-.74.16-1.734-.236-2.124-1.606-.609-3.6.3-4.723.943-.72,1.482-.894,3.514-3.3,3.307-.471-.239-1.009-.409-1.181-.946a5.818,5.818,0,0,1,.471-3.069c.529-.1.1-1.165.239-1.653.112-.742-.338-.923-.473-1.416a3.563,3.563,0,0,0-3.542,1.416c-.3.328-.909.451-.708.945a6.843,6.843,0,0,1,.235,2.6c-.685.18-.612,1.12-1.653.946-1.919.186-2.083-1.38-2.361-2.835a7.194,7.194,0,0,0-2.125-3.307,1.194,1.194,0,0,1-.765-.13,1.2,1.2,0,0,0-.888-.105,9.429,9.429,0,0,0-3.306,1.181,11.222,11.222,0,0,0-2.834,6.139c0,3.94.293,7.58,2.126,9.683.82-.046.9-.837,1.652-.944a5.906,5.906,0,0,1,2.362-.237c.526.5,1.346.7,1.418,1.653.824.275.454,1.75,1.18,2.125,1.849-5.945,7.212-8.375,15.586-7.793.739.285,1.575.472,2.361.709a5.058,5.058,0,0,0,1.889,1.18c.732,1.08,1.913,1.708,2.362,3.07a2.364,2.364,0,0,1,.944,1.653c.737.208-.008,1.9.945,1.889C816.857,532.954,817.306,531.594,817.214,529.69Zm-58.8,50.772c-.317-3.536,5.392-1.4,3.779,1.181a3.271,3.271,0,0,1-1.282.261A2.624,2.624,0,0,1,758.415,580.461Zm22.669-6.141c1.281-1.078,3.614-.716,3.779,1.182-.043,1.217-.87,1.649-1.889,1.89C781.6,577.114,780.888,576.171,781.084,574.321Zm-11.806-.943a3.17,3.17,0,0,1-1.181-2.127,1.04,1.04,0,0,0,.472-.944,3.941,3.941,0,0,1,3.07-.237c.609,1.044,1.972,1.335,1.652,3.308a2.352,2.352,0,0,1-1.889,1.181h-.08C770.246,574.56,769.929,573.8,769.278,573.377Zm25.5-9.918c1.107-1.3,3.973-.654,4.251.943a1.944,1.944,0,0,1-.945,2.126q-.112,0-.22,0C795.813,566.533,794.919,565.373,794.781,563.459Zm-11.1.472c-1.2-1.152-1.115-5.175,1.652-4.488a10.625,10.625,0,0,0,.945,1.182v1.89c-.487.064-.057,1.045-.708.944.1.652-.88.221-.944.707A1.324,1.324,0,0,0,783.682,563.932Zm17.711-17c.783.083,1.023.706,1.416,1.181a5.387,5.387,0,0,1-.944,3.07c-.145,1.114-.654,1.865-1.889,1.889C797.5,552.277,799.261,547.147,801.393,546.929Zm22.432,1.417c-2.686-.726-1.235-7.219,2.125-5.432a.643.643,0,0,0,.473.707c-.377,2.063-.154,4.725-2.593,4.725Z" transform="translate(-731.259 -508.668)"/>
</svg>