<?xml version="1.0" encoding="utf-8"?><!-- Uploaded to: SVG Repo, www.svgrepo.com, Generator: SVG Repo Mixer Tools -->
<svg fill="#000000" width="800px" height="800px" viewBox="0 -15.89 120 120" xmlns="http://www.w3.org/2000/svg">
  <path id="_0102-tea-pot" data-name="0102-tea-pot" d="M359.87,205.829c-3.042-.434-5.727-1.227-8.772-1.659-2.754-.725-5.035-1.919-7.586-2.847a9.479,9.479,0,0,0-2.609-1.9c-2.892-3.113-6.441-5.57-8.3-9.721-1.233.032-1.621.907-3.082.711h-2.372c-1.622-.353-3.365-.587-4.5-1.422-1.6-.3-2.26-1.534-3.556-2.133-.927-1.524-2.157-2.744-2.847-4.505-.261-1-1.172-1.357-1.184-2.609-.746-.438-.41-1.96-.949-2.605.616-2.318.1-4.586.238-7.587.325-2.523.477-5.214.948-7.59-.242-2.523-.467-5.063-1.9-6.4-2.558-2.975-7.24-3.824-10.193-6.4a6.7,6.7,0,0,1-.949-4.031c1.622-1.3,5.242-.607,7.587-1.186,2.724-.12,4.705-.984,7.35-1.184a29.753,29.753,0,0,1,4.267.473,12.714,12.714,0,0,1,3.557,3.558,30.777,30.777,0,0,1,1.422,7.348c.36,1.141.555,2.448.95,3.557.759.662.929,1.914,2.134,2.133.462-.722.5-1.866.948-2.606a7.492,7.492,0,0,1,.948-2.372c.48-1.732,1.559-2.867,2.135-4.5,1.164-1.048,1.6-2.825,2.845-3.794.66-1.551,1.968-2.455,2.844-3.793.885-.143.966-1.09,1.9-1.185.268-.758,1.445-.609,1.9-1.186-.045-1.469.661-2.183.949-3.319a19.036,19.036,0,0,1,4.5-4.03c1.409-1.357,3.6-1.93,5.216-3.081,1.808-.17,2.746-1.207,4.742-1.187.481-.975-1.14-1.632-1.424-2.608-.54-.961-1.352-1.65-1.184-3.318.28-2.012,1.639-2.945,3.319-3.556,1.174-1.04,3.245-1.18,4.979-1.66,3.261-.177,5.578.588,6.637,2.607.383,3.94-2.1,5.012-2.844,7.826.491.534,1.762.292,2.371.709,1.036-.007,1.4.654,2.371.713.5.522,1.625.428,1.9,1.184.9.053,1.152.745,1.9.949,1.017.96,2.1,1.846,3.082,2.844s1.824,2.127,2.845,3.083c.248.938.976,1.4.949,2.606,1.291,1.24,2.758,2.3,4.03,3.558,2.564-.115,4.133.766,6.4.947,2.153-.526,3.343-2.253,5.69-2.843,1.849-1,4.449-1.243,6.875-1.661H409.9a16.529,16.529,0,0,1,9.246,3.794c.642,1.021,1.437,1.884,2.134,2.847a24.626,24.626,0,0,1,.949,4.5,21.953,21.953,0,0,1-.949,4.5c-.813.985-1.213,2.108-1.9,3.084a30.861,30.861,0,0,1-2.372,2.607c-.239.271-.3.725-.474.948s-.518.284-.711.474c-.39.387-.78.822-1.185,1.186-1.076.963-2.1,1.927-3.32,2.845-1.319,1-3.061,2.517-4.5,3.793-1.285,1.135-2.5,2.274-3.794,3.557-.4.393-.621.961-1.186,1.186-.644,1.569-1.611,2.813-2.134,4.5a46.2,46.2,0,0,1-2.37,4.03c-.488,1.646-2.015,2.254-2.846,3.554a19.628,19.628,0,0,1-3.319,3.084c-1.355,2.281-3.23,4.042-4.742,6.165a42.3,42.3,0,0,1-6.164,4.5,33.236,33.236,0,0,1-7.35,3.321c-2.568.355-5.145.7-7.587,1.184Zm5.216-5.452h4.03c.151-.8.168-1.729.711-2.135-.072-1.1.415-1.637,1.423-1.659,1.655.265,1.517,2.2.948,3.556,1.823-.154,2.676-1.277,4.269-1.659,1.088-.888,2.654-1.3,3.556-2.372,2.5-1.445,4.2-3.7,6.164-5.691,3.443-4.538,6.8-9.168,8.06-15.885-.183-1.446.311-2.218.238-3.554v-.714a17.524,17.524,0,0,1-.238-3.793,42.56,42.56,0,0,0-2.134-7.824c-.9-2.5-2.326-4.471-3.319-6.874-1.311-1.139-2.274-2.626-3.556-3.8-.265-.92-1.157-1.21-1.423-2.131-.885-.381-1.054-1.477-2.133-1.661-.052-.185-.2-.275-.475-.238-.051.185-.2.276-.473.238-10.529,2.834-25.7,1.862-38.171,1.424-1.633.658-2.408,2.176-3.557,3.318-.838,1.533-2.066,2.677-2.607,4.505-1.8,2.94-2.8,6.685-3.556,10.669v2.371c-.392.105-.392,1.793,0,1.9q1-2.912,2.134-5.689a14.867,14.867,0,0,1,1.659-2.372c.594-.694,2.122-.958,2.607,0,0,.239.193.281.238.474.089,1.038-.677,1.219-.711,2.133-.489.46-.46,1.436-.949,1.9-.22,1.676-1.034,2.758-1.185,4.5-1,2.871-1.251,6.493-1.659,9.958.509.205.486-.12.463-.445-.018-.27-.037-.54.248-.506-.139-.77.161-1.1.237-1.659.134-1.052.768-1.6.711-2.846.9-1.257,1.572-3.92,4.03-2.843-.45,3.1-1.743,5.368-1.9,8.77a22.941,22.941,0,0,0-.474,4.98c-.541.328-.088,1.651-.237,2.371.167,1.049-.607,1.662.237,2.135.6-2.005.908-4.309,1.66-6.165.235-1.11.714-1.974.948-3.082.686-.657.77-1.916,2.134-1.9,2.137,1.589-.119,5.071,0,7.586a69.314,69.314,0,0,0-.948,8.536c.417.214.392.872.948.95.073.273.824,1.206.712.236a36.109,36.109,0,0,0,.711-3.794,8.96,8.96,0,0,1,.474-1.66c.157-.633.1-1.481.474-1.9a13.661,13.661,0,0,1,.948-3.555c.572-.93.651-2.352,2.372-2.134.551.239.762.816.711,1.66-.571.3.13,1.869-.475,2.133,0,1.662-.429,2.891-.474,4.505-.413,1.247-.4,2.917-.711,4.268.127.916-.423,1.157-.237,2.134-.755.782.355,1.039.711,1.423,1.258-.087.561-2.127,1.186-2.847a20.009,20.009,0,0,1,.948-3.318c.471-2.373.7-4.988,3.556-4.978,1.626,1.367.079,4.288,0,6.162-.462,2.067-.84,4.218-1.185,6.4a1.9,1.9,0,0,1,.811.137,1.828,1.828,0,0,0,1.085.1c.4-.469.26-1.48.475-2.133.406-.544.225-1.672.711-2.136.2-1.613.487-3.146,2.134-3.317a1.8,1.8,0,0,1,2.134,1.184c.2,1.541-.849,1.839-.712,3.32-.423.919-.46,2.224-.948,3.082H362c.762-1.844.608-4.608,2.845-4.978C366.15,196.391,364.938,198.311,365.087,200.377Zm-51.923-53.346c-1.36.458-3.407.229-4.5.948,3.487,1.413,6.922,2.879,8.771,5.927a13.728,13.728,0,0,1,1.9,6.638c-.138,4.9-.284,10.626-.236,16.359a15.426,15.426,0,0,0,4.267,7.588c.606.027.83.434,1.186.711a35.134,35.134,0,0,0,6.4,1.422,40.529,40.529,0,0,1-2.845-18.018c.382-1.513.254-3.538.711-4.978a7.266,7.266,0,0,1-2.845-1.424,14.091,14.091,0,0,1-3.082-6.4c-.233-2.927-.421-5.9-1.423-8.059-1-.5-1.182-1.822-2.845-1.662-.3.014-.328.305-.711.239C316.173,146.4,314.781,146.831,313.164,147.031Zm85.352,25.844c.888.177.517-.906,1.184-.949.269-.522.793-.787.949-1.422a13.448,13.448,0,0,0,2.371-2.372c1.81-1.351,3.385-2.936,5.216-4.268,3.354-2.888,6.624-5.862,9.009-9.72-.063-.853.438-1.142.474-1.9v-2.371c-.276-.038-.257-.374-.237-.71a4.522,4.522,0,0,1-.949-1.66,11.7,11.7,0,0,0-5.927-2.847c-6.834-.589-10.893,1.594-15.649,3.084a1.2,1.2,0,0,0-.892.105,1.2,1.2,0,0,1-.767.13,1.906,1.906,0,0,1-1.493-.187c-.488-.226-.9-.452-1.352-.048.393.239.257,1.005.474,1.422.588.123.844.576,1.184.947a16.357,16.357,0,0,1,1.661,2.609c1.721-.651,2.7-2.04,4.268-2.846a40.093,40.093,0,0,1,4.979-2.132,1.178,1.178,0,0,0,.867-.1,1.243,1.243,0,0,1,.555-.139h4.268c.04.275.374.257.711.238a6.077,6.077,0,0,1,2.845,3.319v2.843c-.137.5-.588.678-.473,1.424a30.75,30.75,0,0,1-11.618,10.2,4.458,4.458,0,0,1-1.9.235A53.749,53.749,0,0,1,398.516,172.875ZM395.434,155.8a33.288,33.288,0,0,1,2.134,6.639c2.371-1.184,4.74-2.371,6.4-4.268,1.278-.538,1.96-1.674,2.846-2.606a4.081,4.081,0,0,0,1.659-3.793c-.573-.791-2.453-.932-3.556-.475a11.871,11.871,0,0,0-5.216,1.659c-.652.534-1.576.8-2.133,1.422a.469.469,0,0,0-.593.238.471.471,0,0,1-.593.238C396.308,155.413,395.258,155,395.434,155.8Zm-33.9-23.47c-2.016,2.013-3.162,4.9-3.319,8.772,1.553.549,3.913.118,4.979,0a145.27,145.27,0,0,0,15.647-.712c-.4-1.409-1.535-2.1-2.37-3.081a10.183,10.183,0,0,0-2.845-2.609c-1.976-1.66-4.863-2.41-8.061-2.843h-3.32A1.668,1.668,0,0,0,361.53,132.332Zm-12.566,5.454v1.184c.054.447-.267.523-.236.949v1.422c.514.04.106-.841.236-1.187-.1-.571.434-.514.238-1.184-.127-.338.259-1.186-.2-1.186Zm3.794.236c.153,1.034-.309,2.681.238,3.32.467-.642.14-2.073.237-3.083a5.9,5.9,0,0,0,.237-2.369c.132-.443.647-1.7.238-1.9A26.825,26.825,0,0,0,352.758,138.022Zm7.586-14.936c0,1.343,1.043,1.644,1.424,2.609.418.213.392.872.949.947.371.34.185,1.238.948,1.186a12.211,12.211,0,0,1,1.659-3.083c.331-1.329,1.462-1.858,1.9-3.082q-.422-.02-.825-.02A12.2,12.2,0,0,0,360.344,123.086Zm-1.184,56.663c-.212-2.5,1.607-2.975,2.371-4.5,1.092-1.2,2-2.59,3.082-3.794.192-.2.651-.14.711-.473h.949c.105.209.208.424.473.473.04,2.805-2.041,3.489-2.844,5.451-1.2.922-2.024,3-3.844,3A2.886,2.886,0,0,1,359.159,179.749Zm-2.371-6.4c-.111-2.324,1.378-3.049,2.371-4.269A40.419,40.419,0,0,1,362,165.288c.211-.105.424-.208.474-.473.987-.039,1.978-.084,2.371.473.247,3.173-1.845,4-2.845,5.927-1.086.813-2.426,2.671-3.9,2.671A1.992,1.992,0,0,1,356.789,173.35Z" transform="translate(-302.224 -117.608)"/>
</svg>