<?xml version="1.0" encoding="utf-8"?><!-- Uploaded to: SVG Repo, www.svgrepo.com, Generator: SVG Repo Mixer Tools -->
<svg fill="#000000" width="800px" height="800px" viewBox="0 -8.56 120.001 120.001" xmlns="http://www.w3.org/2000/svg">
  <path id="_0406-tentacle" data-name="0406-tentacle" d="M1249.111,797.817a10.256,10.256,0,0,0-1.835-.688c-.251-.515-1.127-.4-1.377-.919-1.135-.472-2.1-1.115-3.213-1.606a25.908,25.908,0,0,1-6.884-.688,1.766,1.766,0,0,1-1.05-.1,1.828,1.828,0,0,0-.785-.133c-.4-.211-1.145-.078-1.377-.459-.744.133-1.067-.156-1.606-.229-.4-.21-1.145-.079-1.377-.459a9.136,9.136,0,0,1-5.279,0,4.276,4.276,0,0,1-2.294-1.377c-.454-.159-.611-.613-.688-1.148a3.946,3.946,0,0,1-.918-.687c-5.733-2.6-9.589-7.086-13.538-11.474-.79-.436-2.349-.1-3.213-.46a11.379,11.379,0,0,1-2.294-1.146c-.9-.86-.5-3.016-1.148-4.13-.233-1.994.371-3.149.46-4.82-2.226-6.035-3.6-12.918-4.819-19.963-.095-5.336-.643-10.219-.689-15.6a19.248,19.248,0,0,0-3.212-5.506c-.81-.643-1.529-1.379-2.3-2.065a1.048,1.048,0,0,1-.76-.346,1.03,1.03,0,0,0-.848-.342c-.193-.495-1.182-.194-1.376-.689-3.8-.313-6.127.5-8.031,2.295-.205.194-.3.2-.459.459-.2.325-.866.749-1.148,1.148-.217.307-.244.774-.459,1.148-.373.648-.715,1.36-1.147,2.065a16.932,16.932,0,0,0,1.606,10.785,4.191,4.191,0,0,0,1.836,2.294c.6.777,1.3,1.453,1.835,2.295,1.294,1.129,1.51,4.55.689,6.425-1.115,1.027-2.968,1.315-5.048,1.377a7.089,7.089,0,0,1-3.443-1.836,4.356,4.356,0,0,1-2.524-2.525c-1.054-.7-1.7-1.819-2.753-2.523-.832-.853-1.343-2.023-2.3-2.754-.751-1.621-1.8-2.945-2.523-4.59-.186-1.039-.915-1.534-.918-2.754-.611-.536-.377-1.919-.918-2.524-.652-3.836-1.081-9.1-.23-13.079a14.916,14.916,0,0,1,1.377-4.59,20.978,20.978,0,0,1,1.148-4.818,18.462,18.462,0,0,1,4.36-5.049c.317-1.289,1.827-1.383,2.294-2.525a11.708,11.708,0,0,0,2.524-2.064c2.834-1.372,5.092-3.322,8.491-4.13a14.064,14.064,0,0,1,4.819-1.378c.017-.32.4-.275.779-.231a1.627,1.627,0,0,0,.6,0c.017-.319.4-.276.778-.233a1.624,1.624,0,0,0,.6,0,7.658,7.658,0,0,1,2.754-.229c.371.064.4-.216.689-.23h6.423c1.47.292,3.244.276,4.59.69a1.87,1.87,0,0,1,1.034.229,1.892,1.892,0,0,0,1.031.229c.541-.176,1.586-.453,2.065,0a24.281,24.281,0,0,1,10.556,6.2,14.534,14.534,0,0,1,4.13,4.13c1.45,1.3,2.335,3.172,3.442,4.818a28.871,28.871,0,0,1,2.3,5.967c.038.125.213.193.229.459.031.571.417.869.459,1.607.051.912.478,2.651.688,3.9.025.146-.034.315,0,.459a40.289,40.289,0,0,1,.461,6.2,9.764,9.764,0,0,0,0,1.147,77.328,77.328,0,0,1,.229,8.949,12.34,12.34,0,0,0,2.753,5.049c.966,1.557,2.592,2.456,3.9,3.67a29.03,29.03,0,0,0,8.261,2.525h9.409c4.137-.451,7.806-1.373,12.621-1.148.049.266.371.259.693.252.3-.006.606-.013.683.207,2.915.833,4.905,2.592,6.884,4.361.78,1.13,1.972,1.851,2.754,2.982,1.1.734,1.615,2.056,2.3,3.213,1.688,9.156-1.835,16.737-5.738,21.8a52.448,52.448,0,0,1-7.114,7.113,48.133,48.133,0,0,1-7.8,6.2c-2.6.756-5.02,1.686-8.373,1.686C1250.287,797.9,1249.714,797.871,1249.111,797.817Zm8.49-30.06a20.608,20.608,0,0,0-3.9,5.737c-.688.919-.953,2.26-1.606,3.213a6.045,6.045,0,0,1-.689,1.835,5.009,5.009,0,0,1-.688,1.836,67.152,67.152,0,0,0-.917,7.341c.416.886.139,2.461.688,3.213,1.973,1.394,4.971,1.76,8.491,1.607a34.817,34.817,0,0,0,5.736-4.361c1.1-.583,1.5-1.863,2.524-2.523a11.407,11.407,0,0,0,2.524-2.754,23.8,23.8,0,0,0,4.13-6.195c1.174-2.357,2.4-4.622,2.525-7.8.1-1.864-.638-2.881-.918-4.359-.045-1.793-1-2.675-1.836-3.674a7.41,7.41,0,0,0-2.983-.457c-.294.011-.319.293-.689.229C1264.246,761.4,1260.7,764.353,1257.6,767.757Zm-34.189,20.422c.533,1,.961,2.1,2.3,2.3a1.764,1.764,0,0,0,1.049-.1,1.851,1.851,0,0,1,.787-.132,7.146,7.146,0,0,0,1.375-2.066c-.267-1.415.654-1.639.461-2.982a4.44,4.44,0,0,0-1.148-2.983q-.188-.008-.368-.008C1224.387,782.205,1223.216,784.509,1223.411,788.179Zm21.744,1.71a1.171,1.171,0,0,0,.743.126,55.515,55.515,0,0,1,0-7.113c-.785.133-1.067.768-2.065.688a7.014,7.014,0,0,0-2.755,0,7.038,7.038,0,0,1-2.753,0,6.469,6.469,0,0,1-2.983-4.819c-.381-4.054.88-6.463,3.443-7.572a7.55,7.55,0,0,1,2.716-.232c.482.012.966.023,1.415,0a4.065,4.065,0,0,0,1.835.918,17.235,17.235,0,0,1,1.837,2.3c.533.46.233,1.754,1.147,1.835a30.268,30.268,0,0,1,7.8-12.851,20.716,20.716,0,0,1,5.966-4.359,6.2,6.2,0,0,1,3.443-1.606c.931-.828,2.95-.569,3.9-1.376-2.411-1.931-6.521-.124-9.637,0,.248,1.293.495,3.01-1.147,2.982-1.287-.167-1.258-1.649-1.838-2.524a1.828,1.828,0,0,0-.785.132,1.757,1.757,0,0,1-1.049.1c.14,1.649,1.384,4.838-.919,5.049-2.337-.186-.437-4.61-2.524-5.049-.033.257-.334.245-.636.233a2.717,2.717,0,0,0-.282,0c.059,1.668,1.445,4.867-.918,5.047-2.955-.028.008-5.973-3.671-5.278.229,1.53,1.36,3.79-.229,4.59h-1.147c-.336-.2-.727-.344-.688-.918-.326.018-.278-.336-.23-.688s.1-.707-.229-.688a5.4,5.4,0,0,0-1.148-2.524h-2.754a1.946,1.946,0,0,0-1.377-.23,15.558,15.558,0,0,0-3.213-1.146c-.851-.679-1.9-1.159-2.753-1.836a12.166,12.166,0,0,1-5.278-3.672c-1.118-1.713-1.5-4.158-1.835-6.655v-4.13c.094-.553-.42-.5-.23-1.147v-10.1c-.758-8.191-3.2-14.7-7.572-19.275-1.282-.935-2.16-2.276-3.442-3.212-1.133-1.085-2.56-1.877-3.672-2.983a46.908,46.908,0,0,0-11.245-2.294c-2.975-.07-5.775.035-8.49.228a37.84,37.84,0,0,0-10.784,2.984,65.016,65.016,0,0,0-8.261,5.737c-1.817,3.768-4.128,7.039-5.278,11.474.942-.266,2.159-1.258,2.753,0,.093,1.622-.939,2.12-1.606,2.983-.283.482-.636.895-.919,1.377-.391.088-1.031,1.081-.459,1.377.773-.987,1.309-2.21,2.983-2.294a1.6,1.6,0,0,1,1.148,1.147c-.317,1.442-1.657,1.861-2.065,3.213a4.957,4.957,0,0,0-1.148,1.6c-.033.612-1.084.981-.919,1.607,1.178-.2,1.142-1.612,2.754-1.377.025.433.759.16.689.688-.029,2.5-2.248,2.8-2.294,5.279a1.86,1.86,0,0,0,.872-.2c.465-.2.829-.4,1.192.2.764,1.243-.567,2.116-.687,3.212.4.209.418.8.688,1.147.54.072.136,1.088.918.918.51-.636,1.315-1.945,2.524-1.147a31.38,31.38,0,0,1-1.147-9.867c.487-2.956,1.888-5,3.212-7.115a3.645,3.645,0,0,1-2.066-3.212,4.305,4.305,0,0,1,2.754-4.36,7.4,7.4,0,0,1,3.671.458c.26.5.769.762.918,1.378.615.226.284,1.4,1.147,1.376.784-1.664-.365-5.26,1.606-5.737.919.151.666,1.476.689,2.524.2.95-.528,2.822.688,2.753,1.152-.989-.479-4.762,1.835-4.589,1.224.688,1.059,2.765,1.147,4.589,1.2.1,2.012.588,3.213.688-.306-1.147-1.107-1.8-1.377-2.983.074-1.544-.324-2.147,0-3.443,2.593-4.1,10.336-.939,8.949,5.049a5.757,5.757,0,0,1-2.524,2.754c-.506.337-1.711-.027-1.837.688a16.3,16.3,0,0,1,5.507,6.655c.673-.015.853-.524,1.148-.918.7-.059,1.032-.5,1.607-.688a11.4,11.4,0,0,1,2.752-.459q5.148.359,4.589,6.424c-.267.039-.248.363-.229.689-.268.344-.663.56-.689,1.147a16.994,16.994,0,0,1-2.3,1.607c-.649.192-1.416.267-2.065.459-.06.67.519.7.459,1.376-.263.371-.9.727-.459,1.147.118,1.106,1.484.964,1.606,2.065-.412.806-1.689.748-2.966.69a11.628,11.628,0,0,0-1.623,0c-.273.682.968.986,1.148.459.266.269.823.25,1.379.231.236-.008.472-.016.686,0a15.75,15.75,0,0,1,2.066,1.148,6.337,6.337,0,0,1,1.606,1.607,7,7,0,0,1,1.148,3.9c-.145,1.536-1,2.368-1.607,3.442-.964.26-1.361,1.085-2.294,1.377a9.406,9.406,0,0,0-1.377.459c-.533.261-1.219-.058-.918,1.146.27.438.576.532.918,0,.153.009.321,0,.49,0,.545-.02,1.091-.04,1.116.462,0,.231.186.274.229.459-.145,1.742-2.348,2.637-1.147,4.36.157.275.393-.006.679-.288a1.041,1.041,0,0,1,.7-.4c1.039-.2,1.429.253,1.606.918-.285,1.625-2.084,1.739-1.836,3.9a12.491,12.491,0,0,1,5.049,0c2.306.923,3.212,2.454,3.672,4.82q0,1.261,0,2.523a5.778,5.778,0,0,0-.459,1.836,4.356,4.356,0,0,0-.918,1.377c-.782.486-.086.667,0,1.377,1.254.029,1.2-1.252,1.606-2.065.73-.493.533-1.915,1.835-1.835.454.978-.147,2.092-.459,2.982a5.146,5.146,0,0,0-.458,1.377c-.053.357-.882,1.07-.23,1.377,1.027-1.269.7-3.893,2.754-4.131,1.646.266.649,2.583.459,3.671-.448.912-1.731,2.447-.688,3.443.606.068.591-.48.688-.917.132-.482.569-.656.458-1.378.626-.521.582-1.714,1.836-1.607,2.169,1.582-1.437,4.617,0,6.2,1.1.258.808-.876,1.377-1.147a19.473,19.473,0,0,0,1.147-1.606,7.808,7.808,0,0,0,1.835-1.148c.861-.21,1.623-.519,2.525-.688h1.836a4.527,4.527,0,0,0,1.607.688c.316.678,1.057.93,1.375,1.607a10.238,10.238,0,0,1,1.147,3.212v2.295c.031.734-.226,1.755.689,1.606,1.321.175.895-1.4,1.147-2.294.37-.778.008-2.286,1.147-2.3,2.338.268.9,3.257,1.148,5.277.7.215.374-.6.459-.918.038-.14.184-.145.229-.457s-.032-.617,0-.918c.476-.058.062-1.01.459-1.148.438-.1.577-.494,1.148-.46a1.767,1.767,0,0,1,.918,1.837,8.7,8.7,0,0,1-.23,2.523c.539.075.862.364,1.607.231.588-1.171-.3-3.82,1.377-3.9,1.613.3,1.321,2.5,1.377,4.36a1.4,1.4,0,0,1,.318-.04A1.227,1.227,0,0,1,1245.155,789.889Zm-7.059-14.1a4.926,4.926,0,0,0,.689,5.048c1.2.1,1.744.856,3.213.688.432-.408,1.016-.666.918-1.6.658-.26.851-.986.918-1.837a16.352,16.352,0,0,0-.459-2.065,9.391,9.391,0,0,0-1.147-1.147,2.556,2.556,0,0,0-1.085-.227A5.672,5.672,0,0,0,1238.1,775.789Zm-33.731-7.8c-.951,1.189-1.975,2.308-1.836,4.589.688,1.379,1.949,2.181,4.13,2.065.282-.331.877-.349,1.148-.688a2.059,2.059,0,0,1,.918-.918c-.041-1.34,1.148-1.453,1.147-2.753a5.747,5.747,0,0,0-.229-2.295,2.044,2.044,0,0,0-1.622-.669C1206.863,767.318,1205.512,767.912,1204.366,767.987Zm-4.131-23.406c-.7.3-1.323.666-2.065.919a7.622,7.622,0,0,0-.688,3.442c.266.038.248.362.229.688.522.32.889.794,1.377,1.148a8.279,8.279,0,0,0,3.671-.459c.592-1.32,1.943-1.882,1.606-4.13a4.449,4.449,0,0,0-3.615-1.627Q1200.5,744.562,1200.235,744.581Zm-27.995-3.671c-.105,1.119-.869,1.579-1.147,2.524.957,1.263,2.263,2.174,3.213,3.442.751.4,1.084,1.211,1.835,1.607.5.54,1.835,1.043,2.066,0-.333-.279-.308-.916-.918-.918a10.2,10.2,0,0,0-1.148-.918,30.44,30.44,0,0,1-3.442-5.507.317.317,0,0,0-.346-.238A.82.82,0,0,0,1172.24,740.91Zm28.225-5.737a.862.862,0,0,0-.918-.918C1199.626,734.789,1199.7,735.331,1200.465,735.173Zm1.146-6.425a3.424,3.424,0,0,0-1.377,2.295c.486.966.853,2.054,2.3,2.065,1.228.08,1.057-1.237,2.065-1.377a2.952,2.952,0,0,0,.918-2.752,1.907,1.907,0,0,0-1.495-.489C1203.2,728.489,1202.267,728.689,1201.612,728.748Zm-27.715-8.831c-.16,1.274.4,2.55,2.015,2.407a2.21,2.21,0,0,0,1.606-1.836c.136-.823-.266-1.11-.459-1.607-.374-.39-.378-1.15-.918-1.376q-.062,0-.122,0C1174.849,717.5,1174.048,718.709,1173.9,719.917Zm15.783-5.625a4.482,4.482,0,0,0,.688,2.754,3.272,3.272,0,0,0,3.672-.689,3.583,3.583,0,0,0-.918-2.983,2.23,2.23,0,0,0-1.161-.3A2.644,2.644,0,0,0,1189.68,714.292Zm65.168,73.886a5.964,5.964,0,0,1-1.606-2.982c.309-1.763-.593-2.315-.46-3.9.225-1.689,1.2-2.628,1.607-4.131.578-.415.569-1.419,1.147-1.835.054-.865.865-.972.918-1.836,4.656-3.3,7.294-8.615,13.08-10.784h1.836c1.807.885,2.535,3.757,1.835,6.423-.632,1.663-1.431,3.158-2.065,4.82a37.825,37.825,0,0,1-4.131,3.9c-1,2.75-2.786,4.711-4.36,6.883-2.063,1.336-3.283,3.514-6.68,3.514A9.1,9.1,0,0,1,1254.848,788.179Zm14.225-22.258c-4.374,2.128-6.666,6.336-10.555,8.951-.651,1.26-1.426,2.4-2.065,3.671-.026,2.258-.966,4.6-.23,6.884,1.681,0,2.285-1.082,3.213-1.836,1.054-.706,1.7-1.82,2.754-2.524.695-1.676,1.821-2.922,2.524-4.589a.627.627,0,0,0,.459-.688c2.138-1.915,4.542-3.568,5.507-6.656a4.975,4.975,0,0,0,.229-2.065c-.434-.408,0-1.682-.919-1.607h-.229A1.664,1.664,0,0,0,1269.074,765.921Zm-44.975,8.492c-.777-.524-1.084-1.517-1.835-2.066-.929-.371-1.081-1.519-1.606-2.294a7.352,7.352,0,0,1,.688-3.9c.432-.41,1.062-.621,1.377-1.148.752-.013.877-.652,1.836-.457-.043-.2.089-.218.229-.231H1228a8.375,8.375,0,0,0,2.066.918,8.448,8.448,0,0,1,1.835,4.589c-.437,2.929-2.051,4.68-5.048,5.049h-.042C1225.754,774.871,1225.1,774.466,1224.1,774.412Zm-.458-6.656a4.908,4.908,0,0,0-.688,3.443,8.15,8.15,0,0,0,1.607,1.6h2.065a11.222,11.222,0,0,0,1.606-1.835,4.534,4.534,0,0,0-.687-3.213c-.646-.194-.942-.742-1.836-.688-.178.052-.453.007-.46.229a1.941,1.941,0,0,0-.313-.027C1224.34,767.271,1224.068,767.592,1223.641,767.757Zm-11.244-8.031a10.446,10.446,0,0,1-.459-6.195c.968-1.174,1.747-2.536,3.671-2.754-.042-.2.09-.217.229-.23a15.662,15.662,0,0,1,3.9.23c2.034,1.408,3.38,3.5,2.983,7.343-.382.3-.357,1.02-.688,1.377-.206.4-.554.669-.688,1.147-.711.055-.891.639-1.377.918-.087,0-.184,0-.279,0-.3-.013-.607-.026-.639.232C1216.173,761.763,1213.868,761.162,1212.4,759.726Zm3.33-.332a4.873,4.873,0,0,0,1.718.1c1.331-.665,2.081-2.853,1.377-4.82-1.861-1.581-5.3-.763-5.737,1.607a3.861,3.861,0,0,0,1.148,2.983c.117-.01.228-.014.335-.014A5.774,5.774,0,0,1,1215.727,759.394Zm.571-21.238a1.158,1.158,0,0,0-.688-.688c-.1-2.468,1.233-3.509,2.065-5.048a2.025,2.025,0,0,1,2.294.459,5.571,5.571,0,0,1-.918,3.671,2.146,2.146,0,0,1-2.2,1.645A4.189,4.189,0,0,1,1216.3,738.156Zm-.688-7.113c-1.309-1.913.687-4.258,1.606-5.737h1.376c.98,1.1.068,2.731-.229,3.9-.512.788-1.232,1.933-2.238,1.933A1.46,1.46,0,0,1,1215.609,731.043Zm-4.361-5.966a2.852,2.852,0,0,1,1.148-2.753,7.27,7.27,0,0,1,1.377-2.295c.08-.3.4-.362.459-.688h1.376a6.21,6.21,0,0,1-2.754,6.655A4.222,4.222,0,0,1,1211.249,725.077Z" transform="translate(-1160.293 -695.016)"/>
</svg>