<?xml version="1.0" encoding="utf-8"?><!-- Uploaded to: SVG Repo, www.svgrepo.com, Generator: SVG Repo Mixer Tools -->
<svg fill="#000000" width="800px" height="800px" viewBox="0 -4.01 118 118" xmlns="http://www.w3.org/2000/svg">
  <path id="_0606-turner-knife" data-name="0606-turner-knife" d="M1262.281,1191.234c-2.965-.737-4.72-2.687-7.159-3.948-1.1-1.285-2.309-2.465-3.456-3.705-.166-1.068-1.144-1.326-1.235-2.468-.611-.625-.871-1.6-1.482-2.221-.545-1.842-1.676-3.1-2.222-4.938-1.934-2.84-3.556-5.99-5.43-8.889a44.633,44.633,0,0,0-4.2-4.2c-.444-.424-.689-1.238-1.48-1.233-2.535,2.9-4.2,6.66-8.147,8.147-2.173-.132-2.948-1.661-4.445-2.47-.521-.63-1.529-.774-1.727-1.727a16.893,16.893,0,0,1-2.223-1.234c-1.3.595-1.44,2.343-2.222,3.456-1.26.8-1.636,2.477-3.21,2.962a22.425,22.425,0,0,1-2.714,3.21c-.837,1.137-1.794,2.156-2.715,3.208-.314.675-.991.986-1.482,1.482s-.805,1.168-1.48,1.482c-1.843,2.108-3.491,4.407-5.432,6.418a6.263,6.263,0,0,1-1.235,1.729c-.45.536-.73,1.244-1.482,1.48-.726,1.248-2.174,1.775-3.456,2.47h-2.962c-1.115-.121-1.679-.79-2.715-.987a15.344,15.344,0,0,1-3.457-3.457,7.03,7.03,0,0,1-2.715-3.95,6.886,6.886,0,0,1,.494-3.457v-.494c.5-.9,1.729-1.068,2.469-1.727a13.409,13.409,0,0,1,3.95-4.445,29.077,29.077,0,0,1,3.95-4.2c.158-1.24,1.569-1.228,1.728-2.47a9.7,9.7,0,0,0,1.975-1.974,33.466,33.466,0,0,1,3.95-4.2c5.275-5.671,11.009-10.882,16.541-16.3-.191-1.123-1.333-1.3-1.727-2.222-.866-.451-1.034-1.6-1.975-1.975-1.247-1.3-2.355-2.746-3.7-3.949-5.116-.1-8.538,1.5-13.085,1.975-.723.511-1.914.554-2.469,1.234a12.415,12.415,0,0,0-2.468.987,58.515,58.515,0,0,1-5.926.248c-1.659-.482-2.389-1.89-3.457-2.962-5.243-5.044-10.585-9.989-15.554-15.307-.775-1.281-1.976-2.139-2.716-3.456-1.037-1.022-2.2-1.91-2.469-3.705-.131-1.364.834-1.634,1.235-2.468.566-.668.875-1.595,1.728-1.975.24-1,1.078-1.391,1.729-1.975a6.886,6.886,0,0,1,1.727-1.729c2.147-2.628,4.987-4.558,7.408-6.912a43.878,43.878,0,0,1,7.16-7.16c1.006-1.38,2.45-2.322,3.457-3.7,1.381-1.005,2.425-2.348,4.2-2.963,1.625.1,2.291,1.166,3.7,1.481.568,1.163,1.865,1.6,2.716,2.47.684,1.045,1.941,1.516,2.715,2.468,4.1,4.3,8.335,8.454,12.1,13.086a58.826,58.826,0,0,0,2.221,7.159,71.366,71.366,0,0,0-.247,8.641c.339,3.295,1.749,6.791,1.236,10.121,2.261,2.593,5.034,4.676,7.405,7.161,4.641-4.494,9.515-8.756,14.072-13.334,4.675-4.482,8.263-9.99,12.838-14.565,1.162-1.162,2.336-2.249,3.457-3.456.816-.881,1.637-1.689,2.469-2.717.236-.291.513-.475.741-.741.535-.623.933-1.361,1.48-1.974s1.191-1.109,1.729-1.73c1.033-1.188,1.959-2.48,2.963-3.7,3.645-5.406,7.928-10.176,13.825-13.33.4.069.427-.234.742-.248,1.761-.363,2.122.674,2.962,1.234.769,2.587-.685,4.623-.741,7.161-.289.039-.209.45-.247.74a20.5,20.5,0,0,1-2.222,3.21,65.062,65.062,0,0,1-3.95,8.147c-1.984,3.992-4.162,7.934-6.171,11.85-.4.777-.794,1.651-1.236,2.469-.106.194-.107.506-.247.74-.059.1-.455.162-.494.248a6.8,6.8,0,0,1-.494.986c-.144.23-.378.545-.493.741s-.1.526-.247.741c-.061.09-.458.167-.494.248a4.109,4.109,0,0,1-.493.986c-.827,1.153-1.818,2.541-2.717,3.951-5.812,10.152-12.384,19.545-19.009,28.885.555,1.5,2.287,1.829,2.962,3.21a12.3,12.3,0,0,1,3.21,2.963c1.64.253,2.583,1.2,3.95,1.728,1.323.57,2.433,1.353,3.7,1.976a66.763,66.763,0,0,1,6.914,4.2,21.309,21.309,0,0,1,6.171,4.938c.8,1.1,2.308,1.476,2.963,2.714.85.962,1.336,2.288,2.222,3.209.177,1.962.909,3.37.741,5.679a9.345,9.345,0,0,1-4.2,6.418,1.14,1.14,0,0,1-1.3-.039,1.9,1.9,0,0,0-1.169-.207,5.349,5.349,0,0,1-2.955.773Q1262.671,1191.266,1262.281,1191.234Zm-3.457-8.393c-.041.617.38.773.743.987.063-.6-.068-1-.6-1A1.242,1.242,0,0,0,1258.824,1182.84Zm-67.892-7.16c-.077.333-.35.471-.247.987,1.107.539,1.422,1.869,2.468,2.469a3.5,3.5,0,0,0,1.236,1.235c.2.312.865,1.408,1.235.741a26.306,26.306,0,0,1-3.95-5.184c-.283-.013-.334-.258-.629-.258A.657.657,0,0,0,1190.931,1175.681Zm75.054,4.938a1.568,1.568,0,0,0-.988-2.222C1265.408,1179.055,1264.93,1180.6,1265.985,1180.618Zm-4.048-3.948c.409.047.818.094.838-.249a11.931,11.931,0,0,0-2.221-1.48c.065.759.535,1.111.741,1.728a.765.765,0,0,1,.235-.03A3.854,3.854,0,0,1,1261.937,1176.67Zm-56.932-15.8a2.228,2.228,0,0,0-.988.988c-.889.509-1.333,1.465-2.221,1.975a45.362,45.362,0,0,1-3.7,4.2c-1.093,1.623-2.708,2.723-3.7,4.443,1.161,1.391,1.979,3.124,3.457,4.2-.421-1.637-1.951-2.164-1.728-4.443.352-.061.416-.407.74-.495,1.578-.343,1.761.708,2.963.741a3.742,3.742,0,0,0,.741-2.962c.482-.423,1.381-.428,1.975-.741,2.381-3.215,5.191-6,7.407-9.381,1.029-.865,2.139-1.648,2.469-3.21-.72-.267-.929-1.046-1.975-.988-.059.354-.407.417-.494.742a8.911,8.911,0,0,0-1.975,1.974,6.661,6.661,0,0,0-1.975,1.976h-.052C1205.3,1159.879,1205.363,1160.585,1205,1160.867Zm7.406,2.47c-.359.151.024.3,0,0,.211.046.233-.1.247-.247.21.045.233-.1.247-.248-.21-.045-.232.1-.247.248a.348.348,0,0,0-.073-.009C1212.441,1163.081,1212.424,1163.2,1212.411,1163.336Zm.493-.494c.423-.318.972-.51.987-1.234h-.059C1213.112,1161.607,1213.041,1162.258,1212.9,1162.842Zm61.228-73.571c-3,3.012-5.852,6.164-9.135,8.887-1.353,2.1-2.938,3.976-4.443,5.927a16.153,16.153,0,0,0-2.47,2.716c-.44.465-.667,1.141-1.235,1.48.068.973-1.054.755-.987,1.729-1.373.436-1.791,1.829-2.963,2.469-.714,1.178-1.663,2.121-2.468,3.209-1.718,2.067-3.391,4.18-4.937,6.42-1.73,1.975-3.364,4.043-5.186,5.924-1.683,2.1-4,3.572-5.183,6.173-1.665,1.3-2.863,3.064-4.692,4.2-.529.953-1.538,1.426-2.222,2.223a12.143,12.143,0,0,1-2.222,2.223,45.9,45.9,0,0,0-4.443,4.443c-1.028.454-1.229,1.734-2.222,2.223-.589.973-1.7,1.427-1.975,2.715,1.278,1.768,3.068,3.023,4.444,4.691a26.7,26.7,0,0,1,2.469,2.221c1.178.384,1.784,1.343,2.962,1.728,2.924-4.564,6.244-8.734,9.383-13.084,3.343-4.144,6.664-8.313,9.628-12.838,2.7-4.791,6.438-8.541,9.382-13.086a45.8,45.8,0,0,0,4.2-7.159c1.132-2.652,3.017-4.553,3.7-7.653.773-.79,1.483-1.645,2.223-2.469a9.593,9.593,0,0,1,1.727-4.2c.676-1.3,1.169-2.782,2.222-3.7.452-1.524,1.526-2.425,2.222-3.7,1.093-.883,1.563-2.388,2.715-3.209-.024-.262-.062-.512-.35-.512A.692.692,0,0,0,1274.132,1089.271Zm-84.682,42.71a3.522,3.522,0,0,0,1.481.247,4.722,4.722,0,0,0,2.469-4.2c-1.629-3.8-5.461-5.4-7.9-8.393a21.566,21.566,0,0,1-3.95-4.2c-.889-.508-1.333-1.464-2.221-1.975-.671-.729-1.143-1.655-2.224-1.975-2.266-.118-3.962-.81-6.171-.987.156,1.72-.619,2.509-.741,3.951.319,1.079,1.246,1.552,1.976,2.222q3.178,3.486,6.665,6.666a61.013,61.013,0,0,0,4.443,4.2c1.69,1.274,2.822,3.1,4.692,4.2.074-.005.146-.007.216-.007A3.736,3.736,0,0,1,1189.45,1131.981Zm18.517-3.208h.986c-.041-.37.089-.912-.247-.988C1208.78,1128.433,1207.75,1127.979,1207.967,1128.773Zm-29.133-26.663c-.724.209.321.621,0,1.235v1.728a101.449,101.449,0,0,0,13.332,13.825c.836.646,1.566,1.4,2.47,1.975.841.723,1.377,1.75,2.714,1.976a12.272,12.272,0,0,0,2.963-1.235c.134-1.285-.474-1.831-.493-2.964-5.5-5.856-10.949-11.763-16.542-17.528h-.494c-.571.332-1.4.409-1.974.742h-1.233a1.31,1.31,0,0,0-.565-.244C1178.857,1101.618,1178.757,1101.734,1178.834,1102.109Zm29.626,17.528C1207.711,1120.469,1209.373,1120.387,1208.461,1119.638Zm-6.979-6.776c.069.236.139.472.561.357a34.93,34.93,0,0,1,5.184-.987c.525-1.039.12-3.007.247-4.445-3.684-3.969-7.769-7.537-11.6-11.354-.065-.76-.536-1.112-.741-1.729-1.986-.9-3.608-2.152-5.678-2.964a4.727,4.727,0,0,0-1.975,1.73c.3,1.843,1.138,4.17.741,5.925,2.337,2.272,4.76,4.456,6.913,6.913,1.436.868,2.064,2.544,3.456,3.456a6.8,6.8,0,0,0,1.728,1.727c.074.5.668.485.741.988a.578.578,0,0,1,.063,0C1201.367,1112.475,1201.424,1112.668,1201.481,1112.862Zm25.5,34.921c.01.127-.052.173-.1.173C1226.81,1147.956,1226.77,1147.87,1226.977,1147.783Zm0,0c.013-.15.036-.292.246-.247-.011.131-.031.256-.174.256A.344.344,0,0,1,1226.977,1147.783Zm.246-.247C1227.2,1147.237,1227.582,1147.384,1227.223,1147.535Z" transform="translate(-1161.293 -1081.296)"/>
</svg>