<?xml version="1.0" encoding="utf-8"?><!-- Uploaded to: SVG Repo, www.svgrepo.com, Generator: SVG Repo Mixer Tools -->
<svg fill="#000000" width="800px" height="800px" viewBox="0 -12.25 120.001 120.001" xmlns="http://www.w3.org/2000/svg">
  <path id="_0401-vegan" data-name="0401-vegan" d="M113.208,793.958c-1.133-.371-2.14-.862-3.25-1.253-1.827-2.007-2.846-4.821-5-6.5h-4a37.078,37.078,0,0,0-6-.25c-.55-.448-1.781-.218-2.5-.5a2.259,2.259,0,0,1-1.5-1.5c.06-1.106.863-1.47,1.75-1.75.941-.224,2.259-.074,3-.5h6.749a12.594,12.594,0,0,1,3.982-.252c.868.03,1.734.059,2.518,0,.366-.359,1.144-.307,1.922-.255a6.421,6.421,0,0,0,1.328,0c2.773.022,5.581.01,8.389,0,7.317-.031,14.636-.061,21.36.5.7-.675-.611-.446-.749-1a2.482,2.482,0,0,1-1.5-.75,10.885,10.885,0,0,1-2.75-1.748c-1.6-1.4-3.164-2.834-4.749-4.251a5.227,5.227,0,0,0-1.5-2,29.688,29.688,0,0,1-2.5-7.5c.014-2.484-.184-5.184.5-7a.693.693,0,0,0,.5-.752c2.273-2.354,7.468-2.967,12-2.25,6.283,1.717,10.184,5.816,13.5,10.5,5.08-7.588,10.572-14.761,21.5-16.5a12.283,12.283,0,0,1,3.7.233,13.015,13.015,0,0,0,3.3.269,6.933,6.933,0,0,1,2.5,3.25c.754,1.079.824,2.841,1.25,4.25v4c-.883,6.2-4.229,9.937-7.749,13.5-1.859,1.14-3.476,2.525-5.251,3.749-1.744,1.173-3.8,2.038-5.25,3.5,5.4-.346,10.394-1.105,16-1.25,2.838-.043,5.485.106,8.132.256,2.8.157,5.594.315,8.618.247,2.557.607,5.46.87,6.25,3.247-.849.57-.824,2.011-2.5,1.752a5.945,5.945,0,0,1-1.819-.132,5.772,5.772,0,0,0-1.931-.12c-2.618-.13-5.132-.367-8-.25-1.017-.1-.769,1.066-1.5,1.25-.049.869-.885.95-1,1.75-.649,1.185-1.072,2.594-1.749,3.752-9.533-.211-17.538.262-25.751.748-3.868.229-7.7.275-11.749.5a122.065,122.065,0,0,1-12.25.5c-8.052.781-16.977.691-25.751.75C113.7,793.964,113.4,794.013,113.208,793.958Zm41.5-6a17.377,17.377,0,0,0,3.749-.248h5.5a1.269,1.269,0,0,0,.81-.139,1.27,1.27,0,0,1,.941-.113h3.5c1.574-.426,3.9-.1,5.5-.5h6.25c2.238.156,4.155-.013,4.5-1.75h-1.251c-.32.014-.346.321-.75.252-9.011.237-17.245,1.253-26.5,1.25C156.332,787.249,154.9,786.986,154.707,787.956Zm-41.5,0a2.955,2.955,0,0,0,1.115-.142,2.815,2.815,0,0,1,1.383-.106v-1.5h-4C112.037,786.961,112.332,787.749,113.208,787.956Zm6-1.75v1c.935.486,2.988.239,3.5-.5a1.585,1.585,0,0,0-1.533-.712C120.541,786,119.83,786.142,119.207,786.206Zm6.5,0v.751a8.213,8.213,0,0,0,4.5-.751,21.85,21.85,0,0,1-2.373-.013c-.493-.021-.961-.041-1.349-.041A3.955,3.955,0,0,0,125.708,786.206Zm48.5-23a2.848,2.848,0,0,1-1.5,2.751c-.68.737-1.157,1.677-2.25,2-1.315,1.518-3.142,2.524-4.751,3.748a49.319,49.319,0,0,0-4.25,4.25c-.891.527-1.3,1.533-2,2.253a9.322,9.322,0,0,0-1.75,2.5c6.552-2.864,12.167-6.666,17.75-10.5,1.117-1.468,2.629-2.541,3.751-4a15.438,15.438,0,0,0,1.5-2.5c.558-.777.714-1.954,1.251-2.751a28.772,28.772,0,0,0,0-5.5,32.235,32.235,0,0,0-3-1.752c-6.691-.107-10.062,3.106-13.75,6a69.781,69.781,0,0,0-4.749,6,25.03,25.03,0,0,0-2,3.5c-.632.926-1.714,2.541-1.25,3.752.075.594.678-.279.751-.5.073-.509.676-.49.749-1a6.857,6.857,0,0,0,1.751-1.75c1.407-1.009,2.557-2.274,4-3.25a26.6,26.6,0,0,1,4.5-2.749,9.143,9.143,0,0,1,3.649-1.251A1.856,1.856,0,0,1,174.207,763.206Zm-41-3.748v.5a17.708,17.708,0,0,0,5.249,13,47.578,47.578,0,0,1,4.75,3.5c.919.079,1.384.615,2.251.75.593.169,1.682,1.13,2.25.5-.733-.683-.909-1.925-1.751-2.5-.353-1.147-1.389-1.612-1.75-2.752a11.422,11.422,0,0,1-2.25-2.247c-.795-.706-1.843-1.157-1.749-2.752a1.884,1.884,0,0,1,1.749-1.748c2.819.013,3.556,2.109,5.25,3.25.558.859,1.426,1.4,2,2.248.374.376.447,1.054,1,1.249.252.439.432,1.343,1,.751a4.719,4.719,0,0,0,0-2.75,10.535,10.535,0,0,0-1-2.5,18.848,18.848,0,0,0-3-3.752c-2.156-2.344-4.623-4.375-8.5-5h-5C133.456,759.206,133.409,759.41,133.208,759.458Zm-39.5,13c-.488-.678-1.2-1.138-1.5-2-.428-1.821-1.2-3.3-1.75-5a53.452,53.452,0,0,1-2.751-11v-8.249c2.138-14.028,9.364-22.97,17.75-30.75a7.6,7.6,0,0,1-1.5-5.748c.518-.066.068-1.1.5-1.249.075-.511.678-.491.751-1,.288-.879,1.417-.915,1.75-1.751,1.67-.664,3.074-1.593,5.749-1.25.693.474,1.7.635,2,1.5.7.38.643,1.526,1.25,2,2.244-.923,3.986-2.347,6.5-3a33.547,33.547,0,0,1,6.75-2.748,58.083,58.083,0,0,1,15.749-3.25c.4.071.431-.237.751-.252h8.249a29.1,29.1,0,0,1,12,3.252c3.462,1.535,5.878,4.12,8.249,6.748a34.146,34.146,0,0,1,1.75,4c.637,1.2,1.745,1.921,1.5,4-.245,2.67-2.471,3.361-4,4.748-1.631,1.285-2.863,2.97-4.5,4.25-2.889,2.861-6.636,4.864-10,7.25-7.22,4.365-15.01,8.157-22,12.749a35.4,35.4,0,0,0-5.25,3.5,7.463,7.463,0,0,0-2.749,1.749,8.9,8.9,0,0,0-2.5,1.75,41.343,41.343,0,0,0-5.251,3.5,52.463,52.463,0,0,0-5,3.5c-1.906,1.01-3.457,2.375-5.25,3.5-1.614,1.3-3.526,2.309-5,3.749-3.574,2.177-6.191,5.31-10.25,7C94.837,773.659,93.832,773.5,93.708,772.456Zm35.749-64.5c-2.514.9-4.872,1.961-7.25,3a4.94,4.94,0,0,1-1.75.752,2.515,2.515,0,0,1-1.75,1,13.916,13.916,0,0,1-3.25,2c-.473.609-.009,2.156-.752,2.5a58.717,58.717,0,0,1-5,3.5,77.536,77.536,0,0,0-8.751,12c-.654,2.759-2.122,4.708-2.75,7.5-1.391,2.111-1.694,5.309-2.5,8a75.145,75.145,0,0,0-.25,9c.8,3.034,2.057,5.61,3,8.5a2.976,2.976,0,0,0,2.25-1.5c1-.25,1.435-1.064,2.25-1.5a31.961,31.961,0,0,1,4.5-3.25c1.152-1.35,3.041-1.962,4.25-3.252,1.764-.819,2.948-2.219,4.751-3,1.222-1.278,2.92-2.081,4.25-3.25a48.815,48.815,0,0,0,4.5-3.253,10.68,10.68,0,0,0,2.25-1.5c1.016-.318,1.45-1.219,2.5-1.5,1.207-1.377,3.292-1.875,4.5-3.252a39.875,39.875,0,0,0,4.751-2.748c1.73-.854,3.233-1.933,5-2.752,3.247-1.836,6.422-3.744,9.751-5.5,1.4-1.1,3.218-1.78,4.5-3,1.876-.709,2.941-2.228,4.751-3,1.174-1.41,2.924-2.242,4-3.748.766-.484,1.131-1.371,1.75-2,.709-.625,2.015-.652,2.25-1.75a11.289,11.289,0,0,0-1-2.752c-.893-.439-.824-1.843-1.5-2.5-4.665-4.667-11.6-7.069-21.5-6.5-.319.013-.346.32-.749.248C139.9,704.737,134.64,706.307,129.457,707.956Zm-19.75,1.25c.023.977.181,1.821,1,2,1.279.088,1.1-1.668.75-2.5h-.08A4.362,4.362,0,0,0,109.707,709.206Zm-7.749,48.5c-2.152-.017-2.358-1.976-2.5-4v-6.5c-.007-.59.43-.737.25-1.5,1.512-6.57,4.8-11.367,8.249-16,3.8-4.286,7.537-8.627,12.5-11.748.522.105.661-.173,1-.25a2.344,2.344,0,0,1,2.5,1.25c-.037,3.662-3.371,4.4-5,6.748-2.172,1.662-3.694,3.974-5.748,5.752-.583,1.416-1.822,2.178-2.5,3.5-.76,1.157-1.832,2-2.25,3.5a10.817,10.817,0,0,0-2,3.749c-.974.944-.958,2.877-1.75,4a27.6,27.6,0,0,1-.5,3.752v5c-.552.283-.018,1.651-.752,1.75-.334.437-.527,1.014-1.3,1.015A1.764,1.764,0,0,1,101.958,757.708Z" transform="translate(-87.707 -698.706)"/>
</svg>