<?xml version="1.0" encoding="utf-8"?><!-- Uploaded to: SVG Repo, www.svgrepo.com, Generator: SVG Repo Mixer Tools -->
<svg fill="#000000" width="800px" height="800px" viewBox="0 -17.52 119.999 119.999" xmlns="http://www.w3.org/2000/svg">
  <path id="_0104-watermelons" data-name="0104-watermelons" d="M786.171,192.885a9.8,9.8,0,0,0-2.647,1.684,9.613,9.613,0,0,0-2.888,1.445c-2.135.593-4.077,1.378-6.258,1.924a45.62,45.62,0,0,1-6.979.963c-1.575-.27-3.545-.145-5.054-.48-3.754-1.3-7.573-2.536-11.07-4.092a46.611,46.611,0,0,1-9.387-5.776c-7.575-7.185-11.052-18.47-10.588-33.693a32.181,32.181,0,0,1,5.533-14.921,26.081,26.081,0,0,1,4.813-5.536,70.7,70.7,0,0,1,4.573-5.534c1.823-1.066,3.187-2.59,5.3-3.37a20.911,20.911,0,0,1,6.016-2.646c.841-.6,2.186-.7,3.128-1.205,1.08-.364,2.317-.571,3.37-.96,2.321-.567,4.793-.984,7.22-1.445h7.221a53.525,53.525,0,0,1,7.219,1.685,23.055,23.055,0,0,0,5.777,2.887c2.118,1.893,4.414,3.609,6.016,6.018,1.653,2.355,3.642,4.379,4.813,7.219,1.026.981,1.339,2.673,2.167,3.851.487,1.516,1.137,2.873,1.684,4.332a61.19,61.19,0,0,1,2.407,9.626c-.1,2.626.238,5.693-.241,7.943a125.581,125.581,0,0,0,18,.283c4.666-.148,9.246-.3,13.529-.043,3.764-.056,7.909-2.31,11.311-.482.6,3.567-1.438,6.363-1.925,9.626a7.351,7.351,0,0,0-.722,2.407c-.57.392-.512,1.413-.963,1.926a18.226,18.226,0,0,1-1.925,3.851c-1.367,2.644-2.606,5.414-4.091,7.942-1.09,2.841-3.007,4.854-4.575,7.219a40.077,40.077,0,0,1-4.812,4.091c-.99.454-1.687,1.2-2.887,1.444-.617.829-2.209.68-2.888,1.444-3.9.59-7.665,1.32-11.792,1.685C801.837,203.691,793.555,198.736,786.171,192.885ZM774.859,168.1c.186,3.747,2.209,5.656,3.37,8.424.983.941,1.445,2.406,2.407,3.37.751,1.254,1.679,2.331,2.407,3.609,4.8,4.267,9.323,8.807,15.644,11.552,5.717,3.428,13.56,4.73,23.1,4.333,2-.643,4.419-.877,6.016-1.926,1.917-.732,3.192-2.1,4.814-3.128,1.415-2.033,3.334-3.566,4.331-6.016.97-.8,1.251-2.28,2.167-3.128a14.6,14.6,0,0,1,1.925-3.37c1.13-2.32,2.846-4.054,3.851-6.5a37.6,37.6,0,0,0,2.647-8.183c-.062-.258-.169-.171-.342-.084a.644.644,0,0,1-.379.084,34.013,34.013,0,0,0-7.7.481c-.551.647.776,1.46.482,2.649-.361.841-.532,1.875-1.925,1.684-1.511-.548-.84-3.013-.482-4.333-7.514.121-15.578.031-23.1-.481C801.538,167.981,787.539,167.379,774.859,168.1Zm6.017,20.217c-2.9,1.993-6.01,3.776-9.145,5.536,4.275-.538,7.39-2.238,11.07-3.37.553-.788-1-1.137-1.2-1.925-.276-.012-.325-.251-.612-.251A.632.632,0,0,0,780.876,188.312Zm-8.423-7.46c-4.035,3.906-7.752,8.131-12.515,11.309a1.872,1.872,0,0,0,1.926,0c.442-.359.6-1,1.2-1.2a54.5,54.5,0,0,0,5.536-1.926,40.572,40.572,0,0,1,4.813-2.646c.995-1.514,2.7-2.261,3.368-3.852-.708-1.377-1.732-2.438-2.164-4.092H773.9C773.624,179.456,772.758,179.873,772.453,180.852Zm8.663-53.91a34.01,34.01,0,0,1-4.091,6.5c-.934,2.677-2.68,4.54-4.333,6.5a91.8,91.8,0,0,0-8.906,12.755c-1.372,2.157-3.037,4.022-3.849,6.739-.89.875-1.3,2.227-2.166,3.128-.438,1.409-1.662,2.029-1.925,3.61-1.074.69-1.027,2.5-1.925,3.37-.2,1.643-1.167,2.523-1.444,4.09a34.076,34.076,0,0,0-2.408,8.424c-.308,3.115.568,5.047.722,7.7,1.266-.178,1-1.889,2.166-2.166.577-.946,1.589-1.46,2.166-2.406,1.666-1.3,2.529-3.409,4.09-4.813.347-1.1,1.346-1.544,1.686-2.648.678-.846,1.314-1.735,1.924-2.648a63.639,63.639,0,0,0,3.612-5.535c2.514-3.421,4.276-7.6,6.256-11.552,1.582-1.386,2.334-3.6,3.37-5.535a43.14,43.14,0,0,1,2.887-6.257c.186-1.821,1.019-2.994,1.2-4.814.848-1.237.714-3.457,1.444-4.813-.167-1.211.409-1.677.241-2.888.425-.617.178-1.908.722-2.407-.167-1.211.409-1.677.24-2.888.314-.434.607-2.388-.482-2.165h-.481A1.213,1.213,0,0,0,781.116,126.942Zm-9.867-.482A100.233,100.233,0,0,0,760.9,134.4c-1.3,1.751-3.271,2.827-4.813,4.333a41.568,41.568,0,0,1-4.333,4.573c-1.282,1.765-2.873,3.223-3.849,5.295a25.327,25.327,0,0,0-3.611,5.535c-2.281,3.737-3.1,8.93-4.332,13.718.1,3.615-.222,6.441,0,9.626a31.545,31.545,0,0,0,1.2,4.092c.948.819.977,2.554,2.648,2.648.515-1.089.113-3.1.24-4.573.954-6.266,2.7-11.741,4.091-17.569.689-1.156.949-2.741,1.684-3.85a12.47,12.47,0,0,1,1.686-3.61c.994-2.615,2.787-4.433,4.332-6.5.918-.928,1.729-1.961,2.647-2.888.442-1.323,1.436-2.094,1.926-3.369,1.889-1.722,3.073-4.147,4.813-6.016a3.488,3.488,0,0,0,1.2-1.686c.481-.4,1.118-.646,1.2-1.443a16.414,16.414,0,0,0,2.648-2.649c1.9-1.868,3.954-3.587,5.776-5.535C774.2,124.919,773.03,125.995,771.25,126.461ZM762.1,179.889c1.1-.188,1.267-1.3,2.166-1.686-.185-.59,1.153-1.389,0-1.444C763.7,177.949,762.74,178.759,762.1,179.889Zm9.386-14.441c-.668,1.171-1.489,3.008,0,3.852.472-.45.074-.882,0-1.445.522.04.109-.853.241-1.2-.129-.342.263-1.205-.209-1.205Zm16.847-31.767c-1.581,10.614-2.2,22.185-6.258,30.325a19.885,19.885,0,0,0,3.473-.113,20.5,20.5,0,0,1,3.265-.127c.588-1.647.416-3.542.482-5.295.11-2.9.808-5.918.962-8.664-.047-4.012.142-6.906,0-10.589-.554-1.853-.87-3.945-1.445-5.777-.05-.27-.266-.375-.481-.482Zm-15.884,30.084a.766.766,0,0,0,.936-.345.745.745,0,0,1,.748-.378c.425.21.746.805.963,0-.653-.31-.693-1.232-1.444-1.445A13.31,13.31,0,0,0,772.453,163.765Zm18.531-35.619c.318,0,.22.421.482.482.046,1.237.869,1.7.962,2.888.6.684.642,1.925,1.2,2.647.374,2.275,1.153,4.141,1.684,6.257a118.636,118.636,0,0,1,2.407,13.237v6.5a28.325,28.325,0,0,0-.482,3.369h3.851c1.288-3.97.612-10.206.482-14.92-.643-1.926-.995-4.142-1.925-5.776a46.038,46.038,0,0,0-2.167-5.776c-.474-2.174-1.727-3.568-2.888-5.054a14.17,14.17,0,0,0-1.685-2.165,2.156,2.156,0,0,0-.962-.963c-.1-.233-.388-.966-.689-.966C791.165,127.9,791.072,127.972,790.984,128.146Zm15.162,32.25c-.258-.276-.806-.26-1.354-.245-.2.005-.39.011-.572,0C803.706,161.46,806.38,161.508,806.146,160.4Zm-13.723-.721c.584.02,1.168.04,1.449-.242a.664.664,0,0,0-.481-.723c-.26.624-2-.23-1.687.963.09-.006.183-.008.278-.008C792.126,159.665,792.275,159.67,792.423,159.674Zm12.039-3.13c-.447.475-.359,1.772.721,1.444.009-.677.122-1.459-.546-1.459A1.089,1.089,0,0,0,804.462,156.544Zm-51.021-26.713c-1.4.523-2.262,1.589-3.612,2.165a24.584,24.584,0,0,1-4.331,4.573c-.328.957-1.256,1.311-1.445,2.407-1.462.786-2.245,2.248-3.129,3.61a14.9,14.9,0,0,0-2.4,4.332,7.578,7.578,0,0,0-.964,2.407c-.626.5-.337,1.91-.963,2.406a19.465,19.465,0,0,1-.481,2.889c.224,1.012-.845,2.241.24,2.648,1.6-6.825,4.915-11.932,8.423-16.848a59.637,59.637,0,0,1,6.016-6.738c1.112-.973,2.219-1.953,3.37-2.887,1.094-1.071,2.651-1.681,3.61-2.888h-.722C756.075,128.774,754.364,128.909,753.441,129.831Zm40.19,26.473c-.782.139-1.12-.164-1.685-.242C791.658,157.381,793.29,156.513,793.632,156.3Zm-17.086-1.2c.055.746.853.751,1.443.961-.063-.553-.512-1.145-1-1.145A.662.662,0,0,0,776.545,155.1Zm27.435-1.926c.007.636-.224,1.508.722,1.2-.027-.6-.044-1.2-.67-1.2Zm-11.552-.239c.175.734-.416.706-.241,1.443.665-.137,1.35-.255,1.2-1.2-.275-.064-.413-.263-.75-.263A1.055,1.055,0,0,0,792.428,152.935ZM778.71,151.25a2.052,2.052,0,0,0,1.445-.241.9.9,0,0,0-.962-.963C779.089,150.505,778.674,150.65,778.71,151.25Zm13.959-.724c-.011.257.113.612.24.242.008-.177-.049-.4-.127-.4C792.748,150.368,792.708,150.412,792.669,150.527Zm-11.552-4.572c.9.253.472-.811.963-.963-.176-1.147.882-2.315.24-3.128C782.095,143.4,781.268,144.341,781.116,145.955Zm-5.054-21.419c.2-.085.162-.169.1-.169C776.113,124.367,776.052,124.412,776.063,124.536Zm32.971,71.718c-.816-.754-.779-4.765.723-3.85.945.177.793,1.453.963,2.407.146,1.051-.339,1.472-1.244,1.472A3.721,3.721,0,0,1,809.033,196.254Zm9.146-2.406c.005-2.482.359-4.615,1.444-6.017.931.033.986.941.963,1.925.365,1.079,1.159,1.728,1.445,2.888a2.23,2.23,0,0,1-2.166,2.166C818.985,194.806,818.783,194.126,818.179,193.848Zm12.6-2.026a1.263,1.263,0,0,0-.562-.14c-.365-1.528-1.2-4.465,1.2-4.332.555.989,1.226,3.536.24,4.572a1.441,1.441,0,0,1-.331.042A1.258,1.258,0,0,1,830.775,191.822Zm-30.887-3.51c-1.69-1.591-.86-5.837-.239-7.942h.721c.863.5,1.286,1.441,1.925,2.165a8.165,8.165,0,0,1,1.685,2.406c-.307,2.017-1.258,3.391-3.581,3.391C800.235,188.333,800.065,188.326,799.888,188.312Zm1.2-2.408a.928.928,0,0,0-.241-1.684C800.995,184.719,800.554,185.8,801.092,185.9Zm28.879-5.295c-1.16-1.464.071-3.458.241-5.053.086-.316.424-.379.482-.722h.482c1.525.141,1.724,2.894,1.444,4.572a.437.437,0,0,1-.122,0,.521.521,0,0,0-.118,0c-.011.955-.93,1-1.445,1.445A1.35,1.35,0,0,0,829.971,180.61Zm-17.567-1.2c-.283-.36-.3-.984-.722-1.2a28.121,28.121,0,0,1,1.2-6.257,1.194,1.194,0,0,1,.883.1,1.259,1.259,0,0,0,.562.142c.2.681.28,1.486.481,2.167.08,1.125,1.366,1.04,1.445,2.165v1.2a2.755,2.755,0,0,1-2.748,1.857A3.659,3.659,0,0,1,812.4,179.407ZM814.328,177c.383-.513.769-1.534,0-1.926C814.075,175.325,813.831,176.794,814.328,177Zm-25.991.963v-2.408a14.777,14.777,0,0,1,1.2-3.37h.722c.9,1.5,2.459,2.354,2.407,4.814-.318,1.206-.861,2.186-2.165,2.406l-.106,0C789.228,179.409,788.917,178.552,788.337,177.964Zm2.406-.724c0-.636.134-1.416-.481-1.443C790.408,176.293,789.873,177.469,790.743,177.241Zm32.49-3.849c-1.1-.771-1.1-4.374.963-4.091.627.868,1.055,4.116-.687,4.116A1.631,1.631,0,0,1,823.233,173.391Z" transform="translate(-731.259 -119.241)"/>
</svg>