<?xml version="1.0" encoding="utf-8"?><!-- Uploaded to: SVG Repo, www.svgrepo.com, Generator: SVG Repo Mixer Tools -->
<svg fill="#000000" width="800px" height="800px" viewBox="-19.97 0 110.001 110.001" xmlns="http://www.w3.org/2000/svg">
  <path id="_0305-wine" data-name="0305-wine" d="M975.61,605.085c-.907-.958-2.039-1.693-2.919-2.677-.366-2.472-.625-5.053-.973-7.541.252-9.254-.625-17.377-.487-26.517-.16-.892-.258-1.849-.486-2.676.112-8.4.222-16.8,2.19-23.355,1.146-3.068,2.046-6.386,3.892-8.756.71-1.4,1.769-2.447,2.432-3.892a10.586,10.586,0,0,0,.975-2.19c.567-.487.405-1.7.972-2.189.184-3.57-.058-6.33,0-10.218.23-1.121-1.316-.467-1.7-.975-.609-.2-.77-.85-1.215-1.216a9.154,9.154,0,0,1,.486-5.837c.75-.628,2.146-.609,3.163-.974-.762-2.472.414-4.872.243-7.54a18.093,18.093,0,0,1,2.919-1.7,15.044,15.044,0,0,1,1.724.057,8.153,8.153,0,0,0,2.412-.057c.394.068.419-.23.73-.244a1.873,1.873,0,0,1,1.113.1,1.965,1.965,0,0,0,.833.142c1.385,1.9,1.436,6.011,1.217,8.759-.209,1.017,1.089.533,1.459.972.715.015.9.555,1.218.974.554,1.147-.019,3.423.487,4.62.009.74-.514.947-.731,1.461-.364.367-1.388.072-1.215.972.43,4.516.527,9.365,1.7,13.137a24.582,24.582,0,0,0,3.163,4.137c1.842,3.832,4.073,7.277,5.352,11.676.95,9.3.287,21.359.486,32.111.31,1.554.342,3.387.729,4.865.108,4.919.369,9.688.244,14.837a14.619,14.619,0,0,1,.243,2.921c-.154.82.313,2.26-.243,2.677-.008.963-.938,1.006-1.459,1.459-.94.033-1.124.822-2.191.728a24.2,24.2,0,0,1-4.135,1.7,44.669,44.669,0,0,1-9.973,1.7A57.828,57.828,0,0,1,975.61,605.085Zm9.244-3.164h.73v-.73H985.1c-.013.148-.036.289-.244.243Zm12.408-11.189c-.562.735-.086,2.509-.244,3.649-.456.76-.545,1.888-1.216,2.433-1.212.978-3.745.635-5.109,1.459-.486,1.549.724,2.611,1.7,3.406a8.711,8.711,0,0,0,4.379-.728,4.342,4.342,0,0,0,3.649-1.461c.286-2.979.847-8.076-.974-9.731h-1.459C997.635,589.969,997.22,590.122,997.262,590.732Zm4.621-1.7c0,.137.2.276.244,0a.157.157,0,0,0-.13-.158C1001.95,588.87,1001.9,588.912,1001.883,589.028Zm-16.542-1.7a1.947,1.947,0,0,0,1.461-1.215h-1.7C984.9,586.8,985.441,586.739,985.341,587.325Zm3.65-.729c.557.442,2.494,1.34,2.676,0a6.759,6.759,0,0,0-1.725-.292A1.268,1.268,0,0,0,988.99,586.6Zm-9.732-8.758c.131.924.761,1.348.732,2.434-.283,1.468-.554,3.6.729,4.135-.185-2.083-.4-4.144-.486-6.325-.121-.769.437-.859.243-1.7v-1.461c-.362-.775,0-2.27-.486-2.918A36,36,0,0,0,979.259,577.838Zm8.029,3.892a60.29,60.29,0,0,0,7.056.487,72.473,72.473,0,0,1,7.3-1.217V570.3c-.1-.585.445-.528.243-1.217v-2.918c-.154-.82.314-2.261-.243-2.677-.064.99-.974,1.136-1.7,1.46-.573.563-.941,1.329-2.189,1.218-2.1-.091-1.533-2.847-2.919-3.649-.439,1.589-.783,3.273-2.434,3.649-.982-.155-1.078-1.2-1.946-1.461a1.56,1.56,0,0,1-1.7,1.218c-.5-.311-1.234-.389-1.217-1.218-.572-.239-.219-1.4-.729-1.7.022-1.291-.779-3.334.243-4.136.852-.73,1.374.426,2.189.488.019-.338.42-.292.823-.246a1.715,1.715,0,0,0,.637,0c.929.289.775,1.659,1.7,1.946.465-1.075.717-2.364,2.189-2.432,1.818.128,2.583,1.31,3.164,2.676,1.046-.17.576-1.858,2.189-1.459,1.444.175,1.353,1.89,1.946,2.918.16-4.538-.217-8.537-.243-12.892a98.879,98.879,0,0,0-10,.221c-2.759.157-5.52.314-8.486.266-.355.723.323,2.182.244,3.4.39.988.138,2.619.487,3.649v3.406c.391,4.961.5,10.2.487,15.571.005.572-.419.715-.244,1.458a19.69,19.69,0,0,0,.486,4.135,3.08,3.08,0,0,0,1.279-.13,3.454,3.454,0,0,1,.935-.152A2.862,2.862,0,0,1,987.287,581.73Zm-3.163-66.411a95.9,95.9,0,0,1,.244,10.217c-1.112,4.97-4.078,8.086-6.081,12.163s-3.031,9.133-3.164,15.081a8.838,8.838,0,0,0,4.379.487c.06-2.006-.427-3.465-.244-5.594,1.23-1.3,3.8-1.264,6.364-1.228.56.007,1.119.015,1.665.01,4.153-.954,9.349-.868,14.108-1.215.173-.975-.453-1.586-.729-2.19-.058-.129-.363-.656-.486-.972-.162-.422-.3-.8-.487-1.218-.529-1.5-1.372-2.683-1.946-4.136-.746-.227-.6-1.347-1.216-1.7-.059-1-.827-1.28-.974-2.189a29.659,29.659,0,0,1-2.433-3.893c-.964-2.36-1.067-5.584-1.217-8.759.167-1.78.48-3.413.487-5.351a13.549,13.549,0,0,0-4.1-.11,12.983,12.983,0,0,1-4.172-.135Zm.486-3.649c.717-.478.149-1.711,0-2.677h-.729C983.905,510.1,983.638,511.508,984.611,511.671Zm2.191-2.677a6.073,6.073,0,0,0,.243,2.432c.688-.2,1.5-.283,2.189-.486a6.693,6.693,0,0,1,1.368-.087c1.138,0,2.274,0,2.281-1.129-.263-.631-1.227-.561-2.192-.49a6.405,6.405,0,0,1-1.457,0,5.009,5.009,0,0,0-1.788-.261C987.236,508.977,987.021,508.983,986.8,508.994Zm-2.677-8.759a20.485,20.485,0,0,1,.729,5.838h4.136a8.085,8.085,0,0,0,.243-2.919c-.1-.469-.942-.191-.73-.973-.3-.787.787-.187.487-.972v-1.461a5.973,5.973,0,0,0-1.878-.274A5.238,5.238,0,0,0,984.125,500.235Zm31.624,104.118c-1.625-1.049-4.139-1.212-4.136-3.892.484-2.436,3.929-1.913,5.84-2.92a14.6,14.6,0,0,0,5.594-4.135c-.454-5.061-.63-10.4-.729-15.813-.937-1.415-3-1.706-4.623-2.432a38.924,38.924,0,0,1-4.378-2.433c-3.041-3.121-4.928-7.4-5.6-12.893-.232-9.071.358-17.319,5.108-21.409,2.426-.9,4.779-1.871,8.272-1.7,4.96-.637,10.918-.233,14.351,1.461,1.02,1.091,1.76,2.457,2.677,3.649.487,2.918,1.661,5.15,1.946,8.271.411.481.266,1.519.487,2.19a5.23,5.23,0,0,0,.244,2.187v4.867c-.345,1.6-.261,3.633-.974,4.866-.046,1.818-1,2.736-1.216,4.378-.741.151-.475,1.31-1.217,1.459-.048.846-.86.924-.973,1.7-1.8,1.526-3.88,2.768-5.838,4.135-.939.034-1.124.821-2.19.731-.422.468-1.689.094-1.7.971-.9.925-.049,2.089-.243,3.649-.007,1.467.414,2.5.243,4.136.625.835-.1,3.016.486,3.892v4.135c.664,1.039,2.238,1.168,3.406,1.7.964.659,2.5.745,3.4,1.462,1.224.478,2.487.918,3.65,1.459a2.254,2.254,0,0,1,1.459.973,1.16,1.16,0,0,1,1.216,1.216c.014,2.528-2.559,2.467-3.892,3.649-1.958.474-3.8,1.07-5.838,1.46q-1.462.034-2.892.036A59.3,59.3,0,0,1,1015.749,604.354Zm8.028-3.648h5.352c.579-.475,2.256.148,2.433-.731a45.431,45.431,0,0,0-4.379-1.7c-.831-.385-.955-1.479-2.19-1.459a1.185,1.185,0,0,1-1.216.486c-.853,1.5-2.713,1.991-3.892,3.163.4-.006.794-.013,1.185-.013A10.638,10.638,0,0,1,1023.777,600.706Zm6.325-45.979c-.343,1.693-.1,3.837-.244,5.838-.191,2.611-1.07,5.169.975,6.325,3.086.169,3.227-2.609,3.892-4.865.133-2.891-.157-5.359-.244-8.027a7.351,7.351,0,0,1,.857,0,2.385,2.385,0,0,0,1.577-.245c-.1-3.466-1.049-6.087-1.7-9-6.975,1.333-16.992,1.042-22.623-1.215a40.357,40.357,0,0,0-.975,10.7,43.248,43.248,0,0,1,6.569.485h6.082c1.565,0,2.994-.078,4.2-.078A13.892,13.892,0,0,1,1030.1,554.727Zm-10.7-15.812c-1.663.364-4.02.034-4.135,1.947.447,1.984,3.487,1.378,5.352,1.946h8.028c2.652,0,5.787.663,6.324-1.7.258-1.23-.718-1.227-.974-1.945a10.229,10.229,0,0,1-2.189-.732c-.806.043-1.678.021-2.549,0a15.884,15.884,0,0,0-4.263.246c-.375-.025-.737-.035-1.088-.035C1022.31,538.637,1020.928,538.851,1019.4,538.915Zm-23.6,38.923c.039-.283-.054-.433-.244-.487-.223-1.7,2.9-1.909,3.406-.728-.1,1.074-1.108,1.233-2.277,1.233C996.4,577.856,996.1,577.846,995.8,577.838Zm-3.649-5.594c.272-1.674,2.371-1.523,4.379-1.462,1.368-.247,4.325-.813,4.378.976-.011,1.53-1.816,1.265-2.919,1.7h-3.686A2.393,2.393,0,0,1,992.153,572.243Zm-5.6-67.386c-1.391-1.059.805-2.972,1.462-1.215.066.859-.356,1.232-1.148,1.232A3.05,3.05,0,0,1,986.557,504.858Zm-.729-3.162v-.974c.683-.293,1.552-.139,1.46.974a1.191,1.191,0,0,1-1.46,0Z" transform="translate(-970.745 -496.544)"/>
</svg>